<?xml version="1.0" encoding="UTF-8" standalone="no"?>
<!-- Created with Inkscape (http://www.inkscape.org/) -->

<svg
   width="26.485823mm"
   height="29.984734mm"
   viewBox="0 0 26.485823 29.984734"
   version="1.1"
   id="svg1980"
   inkscape:export-filename="velas_izquierda.png"
   inkscape:export-xdpi="96"
   inkscape:export-ydpi="96"
   xmlns:inkscape="http://www.inkscape.org/namespaces/inkscape"
   xmlns:sodipodi="http://sodipodi.sourceforge.net/DTD/sodipodi-0.dtd"
   xmlns:xlink="http://www.w3.org/1999/xlink"
   xmlns="http://www.w3.org/2000/svg"
   xmlns:svg="http://www.w3.org/2000/svg">
  <sodipodi:namedview
     id="namedview1982"
     pagecolor="#ffffff"
     bordercolor="#000000"
     borderopacity="0.25"
     inkscape:showpageshadow="2"
     inkscape:pageopacity="0.0"
     inkscape:pagecheckerboard="0"
     inkscape:deskcolor="#d1d1d1"
     inkscape:document-units="mm"
     showgrid="false" />
  <defs
     id="defs1977">
    <linearGradient
       inkscape:collect="always"
       id="linearGradient5671">
      <stop
         style="stop-color:#feaa7c;stop-opacity:1;"
         offset="0"
         id="stop5667" />
      <stop
         style="stop-color:#feaa7c;stop-opacity:0;"
         offset="0.50406504"
         id="stop5669" />
    </linearGradient>
    <linearGradient
       inkscape:collect="always"
       id="linearGradient3455">
      <stop
         style="stop-color:#feaa7c;stop-opacity:1;"
         offset="0"
         id="stop3451" />
      <stop
         style="stop-color:#feaa7c;stop-opacity:0.12442396;"
         offset="1"
         id="stop3453" />
    </linearGradient>
    <radialGradient
       inkscape:collect="always"
       xlink:href="#linearGradient3455"
       id="radialGradient3457-8"
       cx="167.00313"
       cy="122.26869"
       fx="167.00313"
       fy="122.26869"
       r="8.1949892"
       gradientUnits="userSpaceOnUse"
       gradientTransform="translate(-128.60503,-4.5398772)" />
    <linearGradient
       inkscape:collect="always"
       xlink:href="#linearGradient5671"
       id="linearGradient5719"
       gradientUnits="userSpaceOnUse"
       x1="167.1521"
       y1="122.9246"
       x2="167.1521"
       y2="114.56065"
       gradientTransform="translate(-128.60503,-4.5398772)" />
    <radialGradient
       inkscape:collect="always"
       xlink:href="#linearGradient3455"
       id="radialGradient3457-8-3"
       cx="167.00313"
       cy="122.26869"
       fx="167.00313"
       fy="122.26869"
       r="8.1949892"
       gradientUnits="userSpaceOnUse"
       gradientTransform="matrix(0.99999999,0,0,1.359375,-118.34019,-44.678391)" />
    <linearGradient
       inkscape:collect="always"
       xlink:href="#linearGradient5671"
       id="linearGradient5768"
       gradientUnits="userSpaceOnUse"
       gradientTransform="matrix(0.99999999,0,0,1.359375,-118.34019,-44.678391)"
       x1="167.1521"
       y1="122.9246"
       x2="167.1521"
       y2="114.56065" />
  </defs>
  <g
     inkscape:label="Layer 1"
     inkscape:groupmode="layer"
     id="layer1"
     transform="translate(-30.287605,-109.61832)">
    <g
       inkscape:groupmode="layer"
       id="layer3"
       inkscape:label="Velas_izquierda">
      <ellipse
         style="display:inline;fill:url(#radialGradient3457-8-3);fill-opacity:1;stroke:url(#linearGradient5768);stroke-width:0;stroke-dasharray:none"
         id="path2717-4-4"
         cx="48.662937"
         cy="121.5306"
         rx="8.1104889"
         ry="11.025196" />
      <g
         id="g296"
         transform="matrix(0.35277777,0,0,-0.35277777,52.460337,132.63605)"
         style="display:inline">
        <path
           d="m 0,0 c -0.042,-0.304 -0.084,-0.605 -0.133,-0.91 -0.08,-0.549 -0.171,-1.095 -0.269,-1.637 -0.046,-0.231 -0.084,-0.462 -0.13,-0.697 -0.143,-0.727 -0.297,-1.441 -0.458,-2.141 -0.186,-0.812 -0.385,-1.606 -0.588,-2.376 -0.179,-0.672 -0.364,-1.326 -0.549,-1.96 -0.119,-0.412 -0.238,-0.822 -0.361,-1.221 -0.045,-0.147 -0.091,-0.29 -0.136,-0.434 -0.165,-0.517 -0.326,-1.021 -0.483,-1.504 -0.172,-0.508 -0.336,-0.998 -0.497,-1.466 -0.077,-0.238 -0.161,-0.469 -0.238,-0.697 -0.063,-0.185 -0.126,-0.367 -0.189,-0.546 -0.077,-0.216 -0.154,-0.427 -0.224,-0.633 -0.035,-0.098 -0.07,-0.196 -0.112,-0.29 -1.347,-3.237 -5.161,-3.237 -7.03,-3.237 -1.896,0 -5.766,0 -7.082,3.335 -0.024,0.063 -0.049,0.126 -0.073,0.192 -0.081,0.234 -0.165,0.48 -0.252,0.731 -0.067,0.182 -0.133,0.371 -0.2,0.56 -0.077,0.224 -0.154,0.455 -0.238,0.693 -0.126,0.375 -0.255,0.763 -0.392,1.162 -0.108,0.329 -0.22,0.668 -0.335,1.018 -0.081,0.259 -0.161,0.521 -0.245,0.787 -0.084,0.277 -0.172,0.56 -0.256,0.847 -0.161,0.532 -0.322,1.078 -0.479,1.638 -0.21,0.752 -0.42,1.529 -0.613,2.327 -0.185,0.734 -0.357,1.483 -0.517,2.25 -0.081,0.381 -0.158,0.766 -0.231,1.154 -0.004,0.004 -0.004,0.007 -0.004,0.011 -0.045,0.234 -0.087,0.472 -0.129,0.703 -0.095,0.528 -0.182,1.064 -0.259,1.603 -0.046,0.301 -0.088,0.605 -0.13,0.909 -0.549,4.238 -0.588,8.724 0.403,13.049 1.133,4.979 11.032,4.825 11.032,4.825 0,0 9.885,0.154 11.019,-4.825 C 0.626,8.839 0.574,4.29 0,0"
           style="fill:#fde3cb;fill-opacity:1;fill-rule:nonzero;stroke:none"
           id="path298" />
      </g>
      <g
         id="g300"
         transform="matrix(0.35277777,0,0,-0.35277777,52.460337,132.63605)"
         style="display:inline">
        <path
           d="m 0,0 c -0.042,-0.304 -0.084,-0.605 -0.133,-0.91 -4.654,-0.805 -9.322,-0.861 -10.539,-0.861 h -0.557 c -1.287,0 -6.522,0.063 -11.473,1.033 -0.046,0.301 -0.088,0.605 -0.13,0.909 5.581,-1.112 11.775,-1.074 11.88,-1.067 0.101,0 5.633,-0.035 10.952,0.896"
           style="fill:#da66a1;fill-opacity:1;fill-rule:nonzero;stroke:none"
           id="path302" />
      </g>
      <g
         id="g304"
         transform="matrix(0.35277777,0,0,-0.35277777,52.110981,134.53583)"
         style="display:inline">
        <path
           d="m 0,0 c -0.186,-0.812 -0.385,-1.606 -0.588,-2.376 l -0.896,1.456 -4.125,-7.681 -4.353,7.562 -4.349,-7.562 -4.126,7.681 -1.522,-2.481 c -0.21,0.752 -0.42,1.529 -0.612,2.327 l 2.239,3.653 4.073,-7.597 4.297,7.474 4.301,-7.474 4.079,7.597 z"
           style="fill:#6c59b2;fill-opacity:1;fill-rule:nonzero;stroke:none"
           id="path306" />
      </g>
      <g
         id="g308"
         transform="matrix(0.35277777,0,0,-0.35277777,51.038292,138.13536)"
         style="display:inline">
        <path
           d="m 0,0 c -0.077,-0.217 -0.154,-0.427 -0.224,-0.633 -0.035,-0.098 -0.07,-0.196 -0.112,-0.291 -2.988,-0.28 -5.469,-0.308 -6.305,-0.308 h -0.55 c -0.924,0 -3.852,0.039 -7.257,0.406 -0.024,0.063 -0.049,0.126 -0.073,0.193 -0.081,0.234 -0.165,0.479 -0.252,0.731 4.171,-0.479 7.768,-0.458 7.852,-0.458 C -6.844,-0.353 -3.762,-0.371 0,0"
           style="fill:#da66a1;fill-opacity:1;fill-rule:nonzero;stroke:none"
           id="path310" />
      </g>
      <circle
         style="display:inline;fill:url(#radialGradient3457-8);fill-opacity:1;stroke:url(#linearGradient5719);stroke-width:0;stroke-dasharray:none"
         id="path2717-4"
         cx="38.398094"
         cy="117.72881"
         r="8.1104889" />
      <g
         id="g312"
         transform="matrix(0.35277777,0,0,-0.35277777,50.479526,134.28824)"
         style="display:inline">
        <path
           d="m 0,0 c 0,-0.595 -0.482,-1.077 -1.077,-1.077 -0.595,0 -1.077,0.482 -1.077,1.077 0,0.595 0.482,1.077 1.077,1.077 C -0.482,1.077 0,0.595 0,0"
           style="fill:#feaa7c;fill-opacity:1;fill-rule:nonzero;stroke:none"
           id="path314" />
      </g>
      <g
         id="g316"
         transform="matrix(0.35277777,0,0,-0.35277777,48.950518,137.0839)"
         style="display:inline">
        <path
           d="m 0,0 c 0,-0.595 -0.482,-1.077 -1.077,-1.077 -0.595,0 -1.077,0.482 -1.077,1.077 0,0.595 0.482,1.077 1.077,1.077 C -0.482,1.077 0,0.595 0,0"
           style="fill:#feaa7c;fill-opacity:1;fill-rule:nonzero;stroke:none"
           id="path318" />
      </g>
      <g
         id="g320"
         transform="matrix(0.35277777,0,0,-0.35277777,51.582661,136.49603)"
         style="display:inline">
        <path
           d="m 0,0 c -0.045,-0.147 -0.091,-0.29 -0.136,-0.434 -0.165,-0.518 -0.326,-1.022 -0.483,-1.505 -0.263,0.196 -0.434,0.508 -0.434,0.861 0,0.588 0.469,1.064 1.053,1.078"
           style="fill:#feaa7c;fill-opacity:1;fill-rule:nonzero;stroke:none"
           id="path322" />
      </g>
      <g
         id="g324"
         transform="matrix(0.35277777,0,0,-0.35277777,51.582661,136.49603)"
         style="display:inline">
        <path
           d="m 0,0 c -0.045,-0.147 -0.091,-0.29 -0.136,-0.434 -0.165,-0.518 -0.326,-1.022 -0.483,-1.505 -0.263,0.196 -0.434,0.508 -0.434,0.861 0,0.588 0.469,1.064 1.053,1.078"
           style="fill:#feaa7c;fill-opacity:1;fill-rule:nonzero;stroke:none"
           id="path326" />
      </g>
      <g
         id="g328"
         transform="matrix(0.35277777,0,0,-0.35277777,46.714683,134.28824)"
         style="display:inline">
        <path
           d="m 0,0 c 0,-0.595 0.482,-1.077 1.077,-1.077 0.595,0 1.077,0.482 1.077,1.077 0,0.595 -0.482,1.077 -1.077,1.077 C 0.482,1.077 0,0.595 0,0"
           style="fill:#feaa7c;fill-opacity:1;fill-rule:nonzero;stroke:none"
           id="path330" />
      </g>
      <g
         id="g332"
         transform="matrix(0.35277777,0,0,-0.35277777,44.698346,133.98034)"
         style="display:inline">
        <path
           d="M 0,0 C 0,-0.14 -0.028,-0.276 -0.077,-0.399 -0.157,-0.017 -0.234,0.367 -0.308,0.756 -0.115,0.56 0,0.294 0,0"
           style="fill:#feaa7c;fill-opacity:1;fill-rule:nonzero;stroke:none"
           id="path334" />
      </g>
      <g
         id="g336"
         transform="matrix(0.35277777,0,0,-0.35277777,45.983374,136.87626)"
         style="display:inline">
        <path
           d="m 0,0 c 0,-0.595 -0.483,-1.074 -1.078,-1.074 -0.066,0 -0.133,0.007 -0.196,0.017 -0.108,0.329 -0.22,0.669 -0.336,1.019 -0.08,0.259 -0.161,0.521 -0.245,0.787 0.2,0.203 0.473,0.329 0.777,0.329 C -0.483,1.078 0,0.595 0,0"
           style="fill:#feaa7c;fill-opacity:1;fill-rule:nonzero;stroke:none"
           id="path338" />
      </g>
      <g
         id="g340"
         transform="matrix(0.35277777,0,0,-0.35277777,53.365567,132.61255)"
         style="display:inline">
        <path
           d="m 0,0 c -0.26,-0.137 -0.559,-0.222 -0.868,-0.262 -0.638,-0.073 -1.299,0.074 -1.666,0.45 -0.446,0.447 -0.421,1.089 -0.354,1.685 0.237,2.135 0.715,4.423 -0.103,6.559 -0.092,0.24 -0.2,0.481 -0.399,0.677 C -3.798,9.522 -4.668,9.661 -5.182,9.26 -5.777,8.789 -6.026,8.064 -6.016,7.429 -6.002,6.611 -5.651,5.839 -5.46,5.065 -5.271,4.293 -5.275,3.434 -5.857,2.789 -6.458,2.126 -7.652,1.844 -8.575,2.137 c -0.928,0.296 -1.501,1.147 -1.293,1.944 0.095,0.34 0.306,0.658 0.418,1.002 0.113,0.346 0.088,0.756 -0.231,1 -0.312,0.232 -0.835,0.232 -1.207,0.044 -0.37,-0.182 -0.594,-0.518 -0.686,-0.852 -0.083,-0.339 -0.043,-0.683 0.013,-1.018 0.207,-1.152 0.653,-2.261 0.686,-3.391 0.035,-1.175 -0.731,-2.629 -2.243,-3.063 -1.864,-0.536 -3.445,0.739 -3.821,2.039 -0.096,0.334 -0.138,0.679 -0.128,1.024 0.033,1.13 0.487,2.239 0.686,3.391 0.064,0.335 0.096,0.679 0.013,1.018 -0.084,0.334 -0.316,0.67 -0.678,0.852 -0.372,0.188 -0.895,0.188 -1.207,-0.044 -0.327,-0.244 -0.344,-0.654 -0.231,-1 0.104,-0.344 0.323,-0.662 0.41,-1.002 0.208,-0.797 -0.358,-1.648 -1.285,-1.944 -0.923,-0.293 -2.124,-0.011 -2.718,0.652 -0.59,0.645 -0.586,1.504 -0.405,2.276 0.191,0.774 0.542,1.546 0.556,2.364 0.01,0.635 -0.231,1.36 -0.834,1.831 -0.514,0.401 -1.376,0.262 -1.792,-0.151 -0.191,-0.196 -0.307,-0.437 -0.399,-0.677 -0.818,-2.136 -0.332,-4.424 -0.102,-6.559 0.066,-0.596 0.091,-1.238 -0.347,-1.685 -0.375,-0.376 -1.036,-0.523 -1.674,-0.45 -0.309,0.04 -0.608,0.125 -0.868,0.262 -0.815,0.423 -1.238,1.225 -1.181,1.955 0.057,0.608 0.404,1.162 0.644,1.744 0.243,0.582 0.384,1.206 0.408,1.848 -0.213,2.304 -0.195,4.71 0.139,7.155 0.865,6.228 11.687,6.56 13.854,6.56 h 0.223 c 2.158,0 12.971,-0.332 13.844,-6.567 C 0.323,10.251 0.341,7.845 0.128,5.547 0.153,4.905 0.302,4.281 0.544,3.699 0.785,3.117 1.132,2.563 1.182,1.955 1.246,1.225 0.815,0.423 0,0"
           style="fill:#feaa7c;fill-opacity:1;fill-rule:nonzero;stroke:none"
           id="path342" />
      </g>
      <g
         id="g344"
         transform="matrix(0.35277777,0,0,-0.35277777,48.498961,128.48033)"
         style="display:inline">
        <path
           d="m 0,0 c -0.308,0 -0.617,0.002 -0.925,0.007 -2.877,0.041 -5.905,0.128 -8.689,0.822 -0.683,0.17 -1.825,0.331 -2.045,1.045 -0.273,0.882 1.51,2.102 2.206,2.546 0.98,0.626 2.097,1.069 3.251,1.379 C -0.945,7.21 5.89,6.817 10.366,3.75 11.303,3.108 11.866,2.014 10.61,1.381 9.183,0.661 7.254,0.513 5.65,0.32 3.779,0.094 1.889,0.001 0,0"
           style="fill:#fde3cb;fill-opacity:1;fill-rule:nonzero;stroke:none"
           id="path346" />
      </g>
      <g
         id="g348"
         transform="matrix(0.35277777,0,0,-0.35277777,50.313405,122.42602)"
         style="display:inline">
        <path
           d="m 0,0 c -0.231,-2.74 -2.604,-4.762 -5.319,-5.909 -2.714,1.147 -5.087,3.169 -5.318,5.909 -0.221,2.651 1.144,5.072 2.313,7.431 1.034,2.081 2.077,4.156 3.005,6.272 C -4.39,11.587 -3.347,9.512 -2.313,7.431 -1.139,5.072 0.221,2.651 0,0"
           style="fill:#feaa7c;fill-opacity:1;fill-rule:nonzero;stroke:none"
           id="path350" />
      </g>
      <g
         id="g352"
         transform="matrix(0.35277777,0,0,-0.35277777,49.563364,122.96538)"
         style="display:inline">
        <path
           d="m 0,0 c -0.139,-1.645 -1.563,-2.859 -3.192,-3.547 -1.63,0.688 -3.054,1.902 -3.193,3.547 -0.132,1.591 0.687,3.045 1.389,4.46 0.62,1.249 1.246,2.495 1.804,3.765 C -2.635,6.955 -2.009,5.709 -1.388,4.46 -0.684,3.045 0.133,1.591 0,0"
           style="fill:#fde3cb;fill-opacity:1;fill-rule:nonzero;stroke:none"
           id="path354" />
      </g>
      <g
         id="g356"
         transform="matrix(0.35277777,0,0,-0.35277777,48.437191,127.47424)"
         style="display:inline">
        <path
           d="m 0,0 c -0.178,0 -0.322,0.144 -0.322,0.322 v 12.199 c 0,0.178 0.144,0.322 0.322,0.322 0.178,0 0.322,-0.144 0.322,-0.322 V 0.322 C 0.322,0.144 0.178,0 0,0"
           style="fill:#7851d1;fill-opacity:1;fill-rule:nonzero;stroke:none"
           id="path358" />
      </g>
      <g
         id="g360"
         transform="matrix(0.35277777,0,0,-0.35277777,40.304146,126.28245)"
         style="display:inline">
        <path
           d="m 0,0 c 0,-0.618 0,-1.25 -0.006,-1.894 -0.013,-1.004 -0.026,-2.035 -0.039,-3.085 -0.026,-1.539 -0.058,-3.117 -0.097,-4.708 -0.025,-0.92 -0.045,-1.854 -0.077,-2.782 -0.019,-0.844 -0.045,-1.687 -0.077,-2.524 -0.026,-0.857 -0.052,-1.707 -0.09,-2.538 -0.091,-2.551 -0.193,-4.992 -0.303,-7.194 -0.051,-0.999 -0.103,-1.945 -0.155,-2.834 -0.038,-0.651 -0.077,-1.262 -0.122,-1.842 -0.071,-1.082 -0.142,-2.035 -0.212,-2.827 -0.078,-0.818 -0.149,-1.462 -0.219,-1.894 -0.033,-0.18 -0.065,-0.328 -0.091,-0.431 -0.515,-1.894 -2.466,-1.894 -3.413,-1.894 -0.947,0 -2.898,0 -3.42,1.894 -0.026,0.096 -0.058,0.238 -0.077,0.405 -0.071,0.412 -0.148,1.024 -0.219,1.81 -0.071,0.786 -0.142,1.746 -0.219,2.84 -0.039,0.599 -0.078,1.237 -0.116,1.913 -0.058,0.953 -0.116,1.977 -0.168,3.06 -0.103,2.105 -0.206,4.431 -0.296,6.859 -0.032,0.979 -0.071,1.97 -0.103,2.975 -0.019,0.689 -0.045,1.385 -0.058,2.08 -0.032,1.005 -0.058,2.01 -0.084,3.015 -0.038,1.681 -0.077,3.362 -0.096,4.991 -0.02,0.876 -0.026,1.733 -0.039,2.576 0,0.683 -0.006,1.346 -0.006,2.003 -0.007,0.934 -0.007,1.836 0,2.705 0.019,4.547 0.161,8.122 0.463,9.597 v 0.006 c 0.032,0.148 0.065,0.277 0.097,0.38 0.051,0.148 0.122,0.277 0.213,0.399 l 0.006,0.013 c 0.979,1.295 4.122,1.25 4.122,1.25 0,0 3.22,0.045 4.154,-1.301 l 0.007,-0.007 c 0.07,-0.109 0.128,-0.225 0.173,-0.354 0.02,-0.058 0.039,-0.116 0.052,-0.187 C -0.174,11.142 -0.019,7.452 0,2.679 0.007,1.816 0.007,0.921 0,0"
           style="fill:#da66a1;fill-opacity:1;fill-rule:nonzero;stroke:none"
           id="path362" />
      </g>
      <g
         id="g364"
         transform="matrix(0.35277777,0,0,-0.35277777,40.679643,125.35736)"
         style="display:inline">
        <path
           d="m 0,0 c -0.106,-0.057 -0.23,-0.093 -0.361,-0.11 -0.27,-0.031 -0.558,0.031 -0.727,0.189 -0.204,0.186 -0.213,0.452 -0.203,0.696 0.064,1.558 0.148,3.21 -0.294,4.723 -0.072,0.248 -0.16,0.497 -0.316,0.703 -0.157,0.206 -0.394,0.365 -0.653,0.37 C -2.873,6.578 -3.164,6.345 -3.294,6.053 -3.552,5.47 -3.345,4.771 -3.17,4.196 -2.984,3.583 -2.788,2.98 -2.642,2.356 -2.49,1.702 -2.284,0.725 -2.937,0.275 -3.44,-0.071 -4.018,0.189 -4.199,0.746 -4.477,1.6 -4.058,2.54 -4.212,3.414 -4.24,3.573 -4.278,3.734 -4.363,3.872 -4.448,4.009 -4.589,4.121 -4.75,4.133 -4.983,4.152 -5.191,3.956 -5.263,3.733 -5.334,3.51 -5.301,3.268 -5.26,3.037 c 0.159,-0.895 0.562,-1.766 0.608,-2.676 0.025,-0.491 -0.293,-1.108 -0.945,-1.295 -0.81,-0.232 -1.488,0.317 -1.639,0.868 -0.038,0.14 -0.053,0.284 -0.046,0.427 0.023,0.465 0.223,0.914 0.314,1.375 0.028,0.132 0.044,0.268 0.011,0.401 C -6.989,2.268 -7.083,2.398 -7.23,2.469 -7.381,2.542 -7.595,2.542 -7.726,2.452 -7.863,2.357 -7.875,2.197 -7.833,2.062 -7.794,1.926 -7.707,1.801 -7.674,1.666 -7.596,1.348 -7.842,1.003 -8.237,0.883 -8.631,0.763 -9.132,0.879 -9.367,1.148 -9.6,1.408 -9.578,1.75 -9.486,2.055 c 0.136,0.429 0.373,0.795 0.463,1.256 0.092,0.471 0.105,0.959 0.034,1.434 -0.033,0.22 -0.1,0.462 -0.29,0.575 -0.187,0.112 -0.439,0.056 -0.607,-0.082 -0.168,-0.137 -0.269,-0.34 -0.35,-0.542 -0.482,-1.209 -0.459,-2.642 -0.407,-3.921 0.01,-0.244 0.001,-0.51 -0.2,-0.696 -0.172,-0.158 -0.46,-0.22 -0.73,-0.189 -0.131,0.017 -0.255,0.053 -0.361,0.11 -0.331,0.177 -0.477,0.509 -0.423,0.809 0.049,0.247 0.217,0.471 0.34,0.705 0.123,0.231 0.205,0.478 0.238,0.729 -0.003,0.887 0.09,6.749 0.306,7.635 0.528,2.145 4.643,2.255 5.465,2.255 h 0.085 c 0.819,0 4.931,-0.11 5.462,-2.257 C -0.245,8.989 -0.152,3.127 -0.156,2.243 -0.122,1.992 -0.037,1.745 0.086,1.514 0.209,1.28 0.377,1.056 0.423,0.809 0.481,0.509 0.331,0.177 0,0"
           style="fill:#6c59b2;fill-opacity:1;fill-rule:nonzero;stroke:none"
           id="path366" />
      </g>
      <g
         id="g368"
         transform="matrix(0.35277777,0,0,-0.35277777,38.569821,122.12309)"
         style="display:inline">
        <path
           d="m 0,0 c -0.122,0 -0.245,0.001 -0.367,0.002 -1.141,0.015 -2.341,0.047 -3.428,0.296 -0.266,0.061 -0.712,0.118 -0.779,0.372 -0.082,0.31 0.642,0.734 0.922,0.887 0.39,0.213 0.828,0.364 1.276,0.469 2.017,0.472 4.621,0.341 6.398,-0.7 C 4.402,1.103 4.651,0.719 4.175,0.495 3.629,0.238 2.869,0.185 2.238,0.115 1.498,0.034 0.749,0 0,0"
           style="fill:#da66a1;fill-opacity:1;fill-rule:nonzero;stroke:none"
           id="path370" />
      </g>
      <g
         id="g372"
         transform="matrix(0.35277777,0,0,-0.35277777,40.197431,118.16464)"
         style="display:inline">
        <path
           d="m 0,0 c -0.2,-2.686 -2.252,-4.669 -4.599,-5.793 -2.348,1.124 -4.4,3.107 -4.6,5.793 -0.191,2.599 0.989,4.973 2,7.285 0.894,2.04 1.797,4.075 2.6,6.149 C -3.797,11.36 -2.894,9.325 -2,7.285 -0.985,4.973 0.191,2.599 0,0"
           style="fill:#feaa7c;fill-opacity:1;fill-rule:nonzero;stroke:none"
           id="path374" />
      </g>
      <g
         id="g376"
         transform="matrix(0.35277777,0,0,-0.35277777,39.548779,118.69346)"
         style="display:inline">
        <path
           d="m 0,0 c -0.12,-1.612 -1.352,-2.802 -2.761,-3.477 -1.409,0.675 -2.641,1.865 -2.76,3.477 -0.115,1.56 0.593,2.985 1.2,4.373 0.537,1.224 1.079,2.446 1.56,3.691 0.482,-1.245 1.024,-2.467 1.56,-3.691 C -0.591,2.985 0.115,1.56 0,0"
           style="fill:#fde3cb;fill-opacity:1;fill-rule:nonzero;stroke:none"
           id="path378" />
      </g>
      <g
         id="g380"
         transform="matrix(0.35277777,0,0,-0.35277777,38.574901,121.83336)"
         style="display:inline">
        <path
           d="m 0,0 c -0.178,0 -0.322,0.144 -0.322,0.322 v 8.219 c 0,0.178 0.144,0.322 0.322,0.322 0.178,0 0.322,-0.144 0.322,-0.322 V 0.322 C 0.322,0.144 0.178,0 0,0"
           style="fill:#7851d1;fill-opacity:1;fill-rule:nonzero;stroke:none"
           id="path382" />
      </g>
      <g
         id="g384"
         transform="matrix(0.35277777,0,0,-0.35277777,40.304146,126.28245)"
         style="display:inline">
        <path
           d="m 0,0 c 0,-0.618 0,-1.25 -0.006,-1.894 -1.92,0.026 -3.839,0.116 -5.732,0.084 -1.321,-0.026 -2.693,-0.154 -4.058,-0.219 0,0.683 -0.006,1.346 -0.006,2.003 1.365,-0.045 2.737,-0.154 4.064,-0.154 C -3.845,-0.187 -1.919,-0.058 0,0"
           style="fill:#feaa7c;fill-opacity:1;fill-rule:nonzero;stroke:none"
           id="path386" />
      </g>
      <g
         id="g388"
         transform="matrix(0.35277777,0,0,-0.35277777,40.006543,136.00465)"
         style="display:inline">
        <path
           d="m 0,0 c -0.039,-0.65 -0.077,-1.262 -0.122,-1.842 -1.598,0.039 -3.195,0.097 -4.773,0.064 -1.011,-0.019 -2.054,-0.096 -3.098,-0.161 -0.038,0.599 -0.077,1.237 -0.116,1.913 1.082,-0.051 2.164,-0.116 3.214,-0.122 1.617,0 3.259,0.09 4.895,0.148"
           style="fill:#feaa7c;fill-opacity:1;fill-rule:nonzero;stroke:none"
           id="path390" />
      </g>
      <g
         id="g392"
         transform="matrix(0.35277777,0,0,-0.35277777,39.888398,137.65191)"
         style="display:inline">
        <path
           d="m 0,0 c -0.077,-0.818 -0.148,-1.462 -0.219,-1.894 -0.96,0.046 -1.913,0.097 -2.84,0.104 -1.378,0 -2.77,-0.065 -4.161,-0.129 -0.071,0.412 -0.148,1.024 -0.219,1.81 1.469,-0.033 2.931,-0.084 4.38,-0.058 C -2.055,-0.148 -1.031,-0.064 0,0"
           style="fill:#6c59b2;fill-opacity:1;fill-rule:nonzero;stroke:none"
           id="path394" />
      </g>
      <g
         id="g396"
         transform="matrix(0.35277777,0,0,-0.35277777,40.288271,128.03875)"
         style="display:inline">
        <path
           d="m 0,0 c -0.026,-1.539 -0.058,-3.117 -0.097,-4.708 -1.494,0.058 -2.988,0.103 -4.482,0.142 -1.514,0.038 -3.259,-0.045 -5.037,-0.052 -0.038,1.681 -0.077,3.362 -0.096,4.992 2.035,-0.02 4.051,-0.187 5.751,-0.232 C -2.641,0.109 -1.32,0.058 0,0"
           style="fill:#6c59b2;fill-opacity:1;fill-rule:nonzero;stroke:none"
           id="path398" />
      </g>
      <g
         id="g400"
         transform="matrix(0.35277777,0,0,-0.35277777,40.226959,130.68116)"
         style="display:inline">
        <path
           d="m 0,0 c -0.019,-0.844 -0.045,-1.687 -0.077,-2.525 -1.385,0.02 -2.77,0.065 -4.142,0.123 -1.694,0.07 -3.387,0.128 -5.081,0.18 -0.02,0.689 -0.045,1.385 -0.058,2.08 1.713,0.033 3.426,0.058 5.139,0.097 C -2.815,-0.013 -1.404,0.006 0,0"
           style="fill:#feaa7c;fill-opacity:1;fill-rule:nonzero;stroke:none"
           id="path402" />
      </g>
      <g
         id="g404"
         transform="matrix(0.35277777,0,0,-0.35277777,40.167867,132.46703)"
         style="display:inline">
        <path
           d="m 0,0 c -0.09,-2.551 -0.193,-4.991 -0.303,-7.194 -2.144,0.045 -4.296,0.096 -6.44,0.148 -0.664,0.013 -1.327,0.032 -1.99,0.052 -0.103,2.106 -0.207,4.431 -0.297,6.859 0.58,0.006 1.14,0.013 1.662,0.032 C -4.908,-0.013 -2.454,0.019 0,0"
           style="fill:#6c59b2;fill-opacity:1;fill-rule:nonzero;stroke:none"
           id="path406" />
      </g>
    </g>
  </g>
</svg>
