<?xml version="1.0" encoding="UTF-8" standalone="no"?>
<!-- Created with Inkscape (http://www.inkscape.org/) -->

<svg
   width="16.22098mm"
   height="24.749947mm"
   viewBox="0 0 16.22098 24.749947"
   version="1.1"
   id="svg1980"
   inkscape:export-filename="velas_izquierda.svg"
   inkscape:export-xdpi="96"
   inkscape:export-ydpi="96"
   xmlns:inkscape="http://www.inkscape.org/namespaces/inkscape"
   xmlns:sodipodi="http://sodipodi.sourceforge.net/DTD/sodipodi-0.dtd"
   xmlns:xlink="http://www.w3.org/1999/xlink"
   xmlns="http://www.w3.org/2000/svg"
   xmlns:svg="http://www.w3.org/2000/svg">
  <sodipodi:namedview
     id="namedview1982"
     pagecolor="#ffffff"
     bordercolor="#000000"
     borderopacity="0.25"
     inkscape:showpageshadow="2"
     inkscape:pageopacity="0.0"
     inkscape:pagecheckerboard="0"
     inkscape:deskcolor="#d1d1d1"
     inkscape:document-units="mm"
     showgrid="false" />
  <defs
     id="defs1977">
    <linearGradient
       inkscape:collect="always"
       id="linearGradient5775">
      <stop
         style="stop-color:#feaa7c;stop-opacity:1;"
         offset="0"
         id="stop5771" />
      <stop
         style="stop-color:#ffffff;stop-opacity:1;"
         offset="1"
         id="stop5773" />
    </linearGradient>
    <linearGradient
       inkscape:collect="always"
       id="linearGradient3455">
      <stop
         style="stop-color:#feaa7c;stop-opacity:1;"
         offset="0"
         id="stop3451" />
      <stop
         style="stop-color:#feaa7c;stop-opacity:0.12442396;"
         offset="1"
         id="stop3453" />
    </linearGradient>
    <linearGradient
       inkscape:collect="always"
       xlink:href="#linearGradient5775"
       id="linearGradient2785"
       x1="167.1521"
       y1="122.9246"
       x2="167.1521"
       y2="114.56065"
       gradientUnits="userSpaceOnUse" />
    <radialGradient
       inkscape:collect="always"
       xlink:href="#linearGradient3455"
       id="radialGradient3457"
       cx="167.00313"
       cy="122.26869"
       fx="167.00313"
       fy="122.26869"
       r="8.1949892"
       gradientUnits="userSpaceOnUse" />
  </defs>
  <g
     inkscape:label="Layer 1"
     inkscape:groupmode="layer"
     id="layer1"
     transform="translate(-158.89264,-114.1582)">
    <g
       inkscape:groupmode="layer"
       id="layer2"
       inkscape:label="Vela_derecha"
       style="display:inline">
      <g
         inkscape:groupmode="layer"
         id="layer4"
         inkscape:label="Flama">
        <circle
           style="fill:url(#radialGradient3457);fill-opacity:1;stroke:url(#linearGradient2785);stroke-width:0;stroke-dasharray:none"
           id="path2717"
           cx="167.00313"
           cy="122.26869"
           r="8.1104889" />
        <g
           id="g436"
           transform="matrix(0.35277777,0,0,-0.35277777,168.90911,123.75712)"
           style="display:inline">
          <path
             d="m 0,0 c -0.2,-2.686 -2.252,-4.669 -4.6,-5.793 -2.347,1.124 -4.399,3.107 -4.599,5.793 -0.191,2.599 0.989,4.973 2,7.285 0.894,2.04 1.797,4.075 2.599,6.149 C -3.797,11.36 -2.894,9.325 -2,7.285 -0.985,4.973 0.191,2.599 0,0"
             style="fill:#feaa7c;fill-opacity:1;fill-rule:nonzero;stroke:none"
             id="path438" />
        </g>
        <g
           id="g440"
           transform="matrix(0.35277777,0,0,-0.35277777,168.26045,124.2859)"
           style="display:inline">
          <path
             d="m 0,0 c -0.12,-1.612 -1.352,-2.803 -2.761,-3.477 -1.409,0.674 -2.641,1.865 -2.76,3.477 -0.115,1.56 0.593,2.985 1.2,4.373 0.537,1.224 1.078,2.446 1.56,3.69 0.482,-1.244 1.024,-2.466 1.56,-3.69 C -0.591,2.985 0.115,1.56 0,0"
             style="fill:#fde3cb;fill-opacity:1;fill-rule:nonzero;stroke:none"
             id="path442" />
        </g>
        <g
           id="g444"
           transform="matrix(0.35277777,0,0,-0.35277777,167.28664,127.42573)"
           style="display:inline"
           inkscape:label="g444">
          <path
             d="m 0,0 c -0.178,0 -0.322,0.144 -0.322,0.322 v 8.219 c 0,0.178 0.144,0.322 0.322,0.322 0.178,0 0.322,-0.144 0.322,-0.322 V 0.322 C 0.322,0.144 0.178,0 0,0"
             style="fill:#7851d1;fill-opacity:1;fill-rule:nonzero;stroke:none"
             id="path446" />
        </g>
      </g>
      <g
         inkscape:groupmode="layer"
         id="layer5"
         inkscape:label="Cuerpo">
        <g
           id="g408"
           transform="matrix(0.35277777,0,0,-0.35277777,170.08615,131.07709)"
           style="display:inline">
          <path
             d="m 0,0 c -0.01,-0.476 -0.028,-0.959 -0.049,-1.445 -0.028,-0.703 -0.063,-1.417 -0.105,-2.135 -0.08,-1.403 -0.185,-2.82 -0.304,-4.205 -0.154,-1.82 -0.336,-3.584 -0.532,-5.193 -0.063,-0.501 -0.123,-0.983 -0.186,-1.449 -0.203,-1.497 -0.413,-2.81 -0.622,-3.838 -0.011,-0.06 -0.025,-0.119 -0.036,-0.175 -0.178,-0.851 -0.35,-1.491 -0.51,-1.858 -0.83,-1.9 -3.951,-1.9 -5.466,-1.9 -1.515,0 -4.636,0 -5.469,1.9 -0.172,0.395 -0.357,1.102 -0.549,2.043 -0.015,0.063 -0.025,0.13 -0.039,0.193 -0.192,0.997 -0.392,2.236 -0.581,3.635 -0.063,0.466 -0.126,0.948 -0.185,1.449 -0.179,1.463 -0.347,3.051 -0.494,4.696 -0.133,1.532 -0.252,3.107 -0.339,4.667 -0.042,0.728 -0.077,1.453 -0.109,2.17 -0.017,0.486 -0.035,0.969 -0.049,1.445 -0.133,4.748 0.07,8.86 0.875,10.399 0.896,1.719 6.939,1.666 6.939,1.666 0,0 6.043,0.053 6.939,-1.666 C -0.066,8.86 0.136,4.748 0,0"
             style="fill:#6c59b2;fill-opacity:1;fill-rule:nonzero;stroke:none"
             id="path410" />
        </g>
        <g
           id="g412"
           transform="matrix(0.35277777,0,0,-0.35277777,170.08622,131.07709)"
           style="display:inline">
          <path
             d="M 0,0 C -0.011,-0.476 -0.028,-0.959 -0.049,-1.445 -2.152,-1.91 -5.07,-1.963 -7.81,-1.963 c -2.74,0 -5.662,0.053 -7.765,0.518 -0.017,0.486 -0.035,0.969 -0.049,1.445 2.24,-0.563 6.12,-0.563 7.814,-0.563 1.697,0 5.571,0 7.81,0.563"
             style="fill:#fde3cb;fill-opacity:1;fill-rule:nonzero;stroke:none"
             id="path414" />
        </g>
        <g
           id="g416"
           transform="matrix(0.35277777,0,0,-0.35277777,169.7369,135.65551)"
           style="display:inline">
          <path
             d="m 0,0 c -0.063,-0.5 -0.122,-0.983 -0.186,-1.449 -1.956,-0.276 -4.356,-0.315 -6.634,-0.315 -2.278,0 -4.682,0.039 -6.638,0.315 -0.063,0.466 -0.126,0.949 -0.185,1.449 2.26,-0.364 5.357,-0.364 6.823,-0.364 1.466,0 4.563,0 6.82,0.364"
             style="fill:#fde3cb;fill-opacity:1;fill-rule:nonzero;stroke:none"
             id="path418" />
        </g>
        <g
           id="g420"
           transform="matrix(0.35277777,0,0,-0.35277777,169.43929,137.58241)"
           style="display:inline">
          <path
             d="m 0,0 c -0.178,-0.85 -0.35,-1.491 -0.511,-1.858 -0.829,-1.9 -3.95,-1.9 -5.466,-1.9 -1.515,0 -4.636,0 -5.469,1.9 -0.171,0.395 -0.357,1.102 -0.549,2.044 0.305,-0.252 0.619,-0.466 0.952,-0.592 1.602,-0.609 3.397,-0.623 5.091,-0.623 1.505,0 4.199,0 5.952,1.029"
             style="fill:#fde3cb;fill-opacity:1;fill-rule:nonzero;stroke:none"
             id="path422" />
        </g>
        <g
           id="g424"
           transform="matrix(0.35277777,0,0,-0.35277777,170.03129,132.33989)"
           style="display:inline">
          <path
             d="m 0,0 c -0.081,-1.403 -0.185,-2.82 -0.304,-4.206 0,0.014 -0.004,0.025 -0.007,0.039 -0.004,0.017 -0.007,0.038 -0.014,0.059 -0.004,-0.021 -0.007,-0.042 -0.015,-0.059 -0.402,-1.806 -0.815,-3.668 -2.403,-3.668 -1.585,0 -2.002,1.862 -2.404,3.668 -0.004,0.017 -0.007,0.038 -0.014,0.059 -0.004,-0.021 -0.007,-0.042 -0.011,-0.059 -0.402,-1.802 -0.819,-3.668 -2.407,-3.668 -1.585,0 -2.002,1.862 -2.404,3.668 -0.004,0.017 -0.007,0.038 -0.01,0.059 -0.008,-0.021 -0.011,-0.042 -0.014,-0.059 -0.403,-1.802 -0.819,-3.668 -2.408,-3.668 -1.585,0 -2.001,1.862 -2.404,3.668 -0.007,0.021 -0.01,0.042 -0.014,0.066 -0.007,-0.024 -0.01,-0.045 -0.017,-0.066 -0.039,-0.179 -0.081,-0.357 -0.123,-0.536 -0.133,1.533 -0.252,3.107 -0.339,4.668 0.147,0.045 0.304,0.066 0.479,0.066 1.585,0 2.002,-1.865 2.404,-3.666 0.004,-0.022 0.011,-0.043 0.014,-0.067 0.007,0.024 0.011,0.045 0.014,0.067 0.402,1.801 0.819,3.666 2.408,3.666 1.585,0 2.001,-1.865 2.403,-3.666 0.004,-0.022 0.007,-0.039 0.011,-0.06 0.007,0.021 0.01,0.042 0.014,0.06 0.402,1.801 0.819,3.666 2.404,3.666 1.588,0 2.005,-1.865 2.407,-3.666 0.004,-0.022 0.007,-0.039 0.011,-0.06 0.007,0.021 0.01,0.038 0.014,0.06 0.402,1.801 0.818,3.666 2.404,3.666 C -0.21,0.031 -0.101,0.021 0,0"
             style="fill:#feaa7c;fill-opacity:1;fill-rule:nonzero;stroke:none"
             id="path426" />
        </g>
        <g
           id="g428"
           transform="matrix(0.35277777,0,0,-0.35277777,170.43124,132.72304)"
           style="display:inline">
          <path
             d="m 0,0 c -0.303,-0.404 -0.82,-0.529 -1.29,-0.251 -0.341,0.197 -0.416,0.721 -0.456,1.08 -0.189,1.687 0.048,3.388 0.164,5.082 0.072,1.043 0.095,2.098 -0.053,3.136 -0.072,0.506 -0.185,1.007 -0.353,1.49 -0.147,0.425 -0.217,0.798 -0.587,1.106 -0.247,0.206 -0.622,0.364 -1.03,0.37 C -4.109,12.02 -4.57,11.786 -4.774,11.495 -5.182,10.911 -4.855,10.213 -4.578,9.637 -4.284,9.025 -3.975,8.422 -3.745,7.798 -3.504,7.144 -3.18,6.166 -4.211,5.716 -5.005,5.37 -5.919,5.63 -6.205,6.187 -6.643,7.041 -5.982,7.981 -6.225,8.856 -6.27,9.015 -6.329,9.176 -6.463,9.313 -6.952,9.813 -7.543,9.481 -7.924,9.05 -8.309,8.614 -8.534,8.031 -8.513,7.448 -8.497,7.004 -8.352,6.576 -8.223,6.151 -8.094,5.726 -7.978,5.285 -8.021,4.843 -8.048,4.564 -8.147,4.285 -8.324,4.065 -8.532,3.807 -8.704,3.795 -9.013,3.786 -9.324,3.776 -9.64,3.817 -9.924,3.944 c -0.284,0.127 -0.533,0.344 -0.664,0.627 -0.127,0.274 -0.135,0.59 -0.097,0.889 0.039,0.3 0.121,0.593 0.168,0.892 0.076,0.471 0.06,0.957 -0.04,1.424 -0.078,0.36 -0.161,0.895 -0.565,1.005 -0.32,0.088 -0.667,-0.097 -0.861,-0.367 -0.194,-0.27 -0.266,-0.607 -0.318,-0.935 -0.296,-1.902 -0.361,-3.797 0.196,-5.663 0.173,-0.581 0.551,-1.554 -0.033,-2.035 -0.153,-0.126 -0.451,-0.133 -0.639,-0.155 -0.502,-0.058 -0.995,0.164 -1.104,0.702 -0.071,0.35 0.023,0.709 0.108,1.055 0.498,2.022 0.736,4.109 0.706,6.192 -0.007,0.479 -0.028,0.961 -0.142,1.426 -0.203,0.83 -0.816,1.517 -1.744,1.373 -0.925,-0.144 -1.295,-1.03 -1.417,-1.858 -0.069,-0.461 -0.076,-0.93 -0.062,-1.395 0.014,-0.476 0.132,-1.034 0.033,-1.497 -0.048,-0.226 -0.191,-0.445 -0.409,-0.52 -0.196,-0.067 -0.415,-0.008 -0.592,0.099 -0.508,0.307 -0.718,0.955 -0.69,1.548 0.028,0.592 0.248,1.156 0.415,1.725 0.121,0.409 0.212,0.834 0.19,1.263 -0.016,0.321 0.035,0.616 0.034,0.936 -0.002,0.874 -0.108,1.754 -0.268,2.613 -0.208,1.109 -0.237,2.204 0.778,2.888 0.709,0.478 1.58,0.715 2.407,0.894 1.672,0.364 3.406,0.48 5.114,0.502 0.12,0.002 0.239,0.003 0.359,0.003 h 0.133 c 1.294,0 7.789,-0.11 8.628,-2.258 0.154,-0.393 0.166,-0.809 0.172,-1.223 0.008,-0.508 0.062,-1.019 0.082,-1.528 C -0.011,11.702 0.005,10.837 0.002,9.972 0,9.143 -0.183,8.299 -0.32,7.482 -0.575,5.935 -0.788,4.316 -0.294,2.828 -0.154,2.405 0.042,2 0.162,1.571 0.282,1.141 0.32,0.669 0.147,0.258 0.107,0.162 0.057,0.076 0,0"
             style="fill:#da66a1;fill-opacity:1;fill-rule:nonzero;stroke:none"
             id="path430" />
        </g>
        <g
           id="g432"
           transform="matrix(0.35277777,0,0,-0.35277777,167.2907,127.71557)"
           style="display:inline">
          <path
             d="m 0,0 c -0.182,0 -0.364,0.001 -0.546,0.002 -1.698,0.016 -3.483,0.047 -5.101,0.296 -0.395,0.061 -1.059,0.119 -1.159,0.372 -0.122,0.31 0.956,0.734 1.371,0.887 0.582,0.214 1.233,0.364 1.899,0.469 3.002,0.472 6.876,0.341 9.52,-0.7 C 6.55,1.103 6.921,0.719 6.212,0.495 5.4,0.238 4.269,0.185 3.329,0.115 2.229,0.034 1.115,0.001 0,0"
             style="fill:#6c59b2;fill-opacity:1;fill-rule:nonzero;stroke:none"
             id="path434" />
        </g>
      </g>
    </g>
  </g>
</svg>
