<?xml version="1.0" standalone="no"?>
<!DOCTYPE svg PUBLIC "-//W3C//DTD SVG 20010904//EN"
 "http://www.w3.org/TR/2001/REC-SVG-20010904/DTD/svg10.dtd">
<svg version="1.0" xmlns="http://www.w3.org/2000/svg"
 width="700.000000pt" height="700.000000pt" viewBox="0 0 700.000000 700.000000"
 preserveAspectRatio="xMidYMid meet">
<metadata>
Created by potrace 1.14, written by Peter Selinger 2001-2017
</metadata>
<g transform="translate(0.000000,700.000000) scale(0.100000,-0.100000)"
fill="#000000" stroke="none">
<path d="M1379 6978 c-3 -116 -1 -6830 3 -6833 10 -11 1485 -20 1708 -11 100
4 169 18 206 42 34 23 56 79 56 142 0 99 -38 154 -142 207 -146 74 -395 239
-449 298 l-24 26 1 893 c0 491 1 898 1 903 2 24 72 85 98 86 16 0 37 3 48 5
50 12 205 11 264 -1 305 -66 527 -399 885 -1330 43 -110 81 -209 86 -220 5
-11 32 -74 60 -140 145 -340 343 -614 564 -781 166 -126 339 -197 591 -244 77
-15 382 -21 460 -9 33 4 78 11 101 14 131 16 343 101 480 191 80 53 274 231
274 252 0 5 11 22 25 37 13 16 44 68 68 115 130 255 121 363 -34 417 -35 12
-85 23 -111 23 -47 0 -48 -1 -83 -55 -19 -31 -35 -58 -35 -62 0 -8 -69 -93
-90 -111 -8 -7 -43 -27 -78 -44 -121 -59 -259 -49 -377 27 -195 127 -342 377
-685 1170 -12 28 -31 70 -42 95 -11 25 -29 63 -38 85 -202 464 -429 840 -614
1019 -127 122 -301 211 -451 231 -109 14 -138 17 -190 20 -33 2 -85 4 -115 4
l-55 1 30 28 c17 15 59 52 95 82 36 30 67 57 70 60 3 3 48 41 100 85 52 44
106 90 120 101 14 12 63 54 110 94 153 131 193 165 204 175 6 6 54 46 106 90
52 44 109 92 125 106 17 15 98 84 180 154 83 70 168 143 190 162 144 125 338
277 460 358 101 68 148 94 337 185 110 53 159 117 161 207 1 70 -53 113 -159
128 -27 4 -159 6 -294 5 -329 -3 -1056 -3 -1370 0 -283 2 -335 -2 -399 -33
-55 -27 -76 -59 -75 -114 0 -33 6 -50 29 -73 42 -43 95 -65 275 -109 187 -46
271 -83 336 -149 69 -69 79 -94 79 -192 0 -77 -3 -91 -34 -150 -37 -72 -109
-166 -168 -220 -74 -67 -213 -193 -232 -209 -11 -9 -46 -41 -78 -71 -57 -53
-208 -189 -243 -220 -10 -8 -57 -52 -106 -96 -131 -119 -617 -558 -708 -639
-43 -38 -91 -82 -106 -97 -16 -16 -32 -28 -37 -28 -4 0 -8 885 -8 1967 l0
1968 -677 3 -678 2 -1 -22z"/>
<path d="M425 6761 c-219 -89 -240 -100 -243 -123 -3 -24 4 -28 105 -66 59
-23 168 -64 241 -91 73 -28 135 -51 137 -51 3 0 5 9 5 20 0 11 -6 20 -12 20
-7 0 -42 12 -78 26 l-66 26 0 117 -1 118 78 29 c67 24 79 31 79 51 0 13 -1 23
-2 22 -2 -1 -111 -45 -243 -98z m61 -126 c0 -91 -3 -105 -16 -99 -8 3 -62 24
-120 46 -135 51 -141 55 -115 64 11 4 67 27 125 50 58 24 110 43 115 44 7 0
10 -40 11 -105z"/>
<path d="M182 6199 c2 -17 40 -35 215 -103 117 -45 215 -85 217 -87 3 -3 -94
-43 -214 -89 -175 -68 -220 -89 -220 -103 0 -21 9 -19 100 18 30 12 131 51
223 86 157 59 168 65 165 87 -3 21 -20 31 -133 74 -72 27 -139 53 -150 58 -11
4 -40 16 -65 25 -25 9 -67 26 -93 36 l-48 19 3 -21z"/>
<path d="M184 5521 c-2 -2 -4 -10 -4 -18 0 -10 48 -13 245 -13 211 0 245 2
245 15 0 8 -3 15 -7 16 -24 4 -475 3 -479 0z"/>
<path d="M180 5036 c0 -97 0 -179 0 -183 0 -5 8 -8 17 -8 15 0 17 11 18 80 l0
80 225 0 c206 0 225 2 228 18 3 16 -13 17 -225 17 l-229 0 0 82 c1 71 -1 83
-16 86 -17 3 -18 -10 -18 -172z"/>
<path d="M555 4578 c-378 -152 -375 -150 -375 -169 0 -11 -1 -22 -2 -25 -2 -3
91 -42 207 -86 312 -119 285 -110 285 -89 0 14 -19 26 -80 47 l-80 29 0 118
c0 112 1 118 23 126 12 5 48 19 80 31 41 16 57 27 57 41 0 24 4 25 -115 -23z
m-73 -155 c0 -43 -1 -90 -1 -105 l-1 -26 -37 17 c-21 10 -80 33 -130 52 -51
19 -93 36 -93 39 0 7 254 109 258 105 2 -2 4 -39 4 -82z"/>
<path d="M266 3939 c-70 -19 -88 -66 -88 -227 0 -64 0 -123 1 -129 1 -10 57
-13 247 -13 228 0 245 1 242 17 -3 16 -16 18 -108 18 -58 -1 -107 2 -110 6 -4
6 -5 142 -1 185 2 26 42 53 126 87 58 22 91 41 93 52 3 14 -1 16 -30 10 -18
-4 -37 -11 -43 -15 -5 -4 -33 -15 -61 -24 -28 -9 -60 -25 -72 -36 -27 -25 -29
-25 -36 4 -12 49 -96 83 -160 65z m107 -46 c24 -15 37 -77 37 -181 l0 -108
-101 0 -100 1 3 120 c3 101 7 125 23 147 11 15 27 29 35 32 17 5 89 -2 103
-11z"/>
<path d="M643 3283 c-10 -4 -13 -45 -13 -159 l0 -154 -100 0 -100 0 0 140 c0
132 -3 146 -27 138 -5 -2 -9 -50 -9 -108 -1 -58 -2 -120 -3 -137 l-1 -33 -90
0 -90 0 0 155 c0 145 -1 155 -17 146 -15 -8 -17 -29 -18 -170 0 -100 3 -162
10 -164 9 -3 412 -1 461 2 20 1 20 6 20 170 -1 93 -3 171 -6 174 -3 2 -11 2
-17 0z"/>
<path d="M267 2649 c-37 -10 -75 -55 -84 -99 -4 -19 -7 -82 -7 -140 l-1 -105
248 -3 c195 -2 247 0 245 10 -5 22 -16 24 -109 23 -49 -1 -92 3 -95 7 -3 5 -7
55 -7 111 -2 86 -6 108 -25 138 -31 51 -102 76 -165 58z m90 -39 c47 -17 64
-58 65 -153 0 -137 13 -123 -104 -122 l-103 0 -1 104 c-2 115 5 139 44 164 31
19 57 21 99 7z"/>
<path d="M322 2006 c-98 -32 -156 -113 -155 -216 1 -136 104 -224 261 -222
143 1 242 93 243 226 1 31 -4 62 -9 69 -6 6 -10 15 -9 19 5 18 -63 89 -103
108 -57 28 -168 36 -228 16z m233 -60 c58 -39 84 -95 80 -168 -6 -88 -60 -146
-155 -167 -84 -18 -154 -5 -212 41 -67 52 -86 156 -43 238 47 91 233 123 330
56z"/>
<path d="M318 1293 c-91 -26 -157 -123 -152 -223 3 -58 15 -90 54 -134 102
-116 328 -104 413 22 38 56 47 142 23 206 -44 116 -191 172 -338 129z m209
-43 c103 -47 140 -178 78 -272 -45 -68 -154 -102 -253 -78 -189 45 -207 293
-27 358 45 16 159 12 202 -8z"/>
<path d="M264 580 c-31 -12 -81 -77 -92 -120 -38 -149 62 -269 227 -273 77 -2
116 5 157 26 94 49 134 150 103 260 -15 56 -80 117 -122 117 -27 0 -12 -30 23
-48 84 -42 101 -181 32 -255 -46 -49 -79 -61 -172 -62 -99 0 -145 17 -185 69
-28 37 -40 99 -30 152 6 37 58 104 80 104 14 0 27 25 18 34 -8 7 -13 7 -39 -4z"/>
</g>
</svg>
