<?xml version="1.0" encoding="UTF-8" standalone="no"?>
<!-- Created with Inkscape (http://www.inkscape.org/) -->

<svg
   width="151.5mm"
   height="98.935135mm"
   viewBox="0 0 151.5 98.935135"
   version="1.1"
   id="svg13359"
   inkscape:version="1.2.1 (9c6d41e, 2022-07-14)"
   sodipodi:docname="Pagina_3_elementos.svg"
   inkscape:export-filename="../Código/Recursos/Pagina_2/garigoleos.svg"
   inkscape:export-xdpi="96"
   inkscape:export-ydpi="96"
   xmlns:inkscape="http://www.inkscape.org/namespaces/inkscape"
   xmlns:sodipodi="http://sodipodi.sourceforge.net/DTD/sodipodi-0.dtd"
   xmlns="http://www.w3.org/2000/svg"
   xmlns:svg="http://www.w3.org/2000/svg">
  <sodipodi:namedview
     id="namedview13361"
     pagecolor="#ffffff"
     bordercolor="#000000"
     borderopacity="0.25"
     inkscape:showpageshadow="2"
     inkscape:pageopacity="0.0"
     inkscape:pagecheckerboard="0"
     inkscape:deskcolor="#d1d1d1"
     inkscape:document-units="mm"
     showgrid="false"
     inkscape:zoom="0.78502358"
     inkscape:cx="145.85549"
     inkscape:cy="43.947724"
     inkscape:window-width="1680"
     inkscape:window-height="997"
     inkscape:window-x="0"
     inkscape:window-y="25"
     inkscape:window-maximized="0"
     inkscape:current-layer="layer24" />
  <defs
     id="defs13356">
    <clipPath
       clipPathUnits="userSpaceOnUse"
       id="clipPath2680">
      <path
         d="m 162.192,164.077 h 35.574 V 116.57 h -35.574 z"
         id="path2678" />
    </clipPath>
    <clipPath
       clipPathUnits="userSpaceOnUse"
       id="clipPath2836">
      <path
         d="m 239.395,164.52 h 35.638 v -47.413 h -35.638 z"
         id="path2834" />
    </clipPath>
  </defs>
  <rect
     style="display:none;fill:#4d4d4d;stroke-width:0.151756"
     id="rect15103"
     width="151.5"
     height="214.549"
     x="-10.939466"
     y="-115.61408" />
  <g
     inkscape:label="Layer 1"
     inkscape:groupmode="layer"
     id="layer1"
     transform="translate(-10.939466,-115.61408)">
    <g
       inkscape:groupmode="layer"
       id="layer24"
       inkscape:label="Garigoleados 3 "
       style="display:none"
       transform="matrix(0.26458333,0,0,0.26458333,-309.63867,11.072087)">
      <g
         id="g2290"
         transform="matrix(1.3333333,0,0,-1.3333333,1681.9212,658.034)"
         style="display:inline">
        <path
           d="m 0,0 c -1.557,0.837 -3.479,1.175 -5.364,0.922 -1.886,-0.266 -3.67,-1.087 -5.203,-2.198 -3.039,-2.27 -5.283,-5.607 -5.984,-9.784 -0.574,-3.938 0.279,-7.968 1.949,-11.472 1.681,-3.522 4.234,-6.571 7.385,-8.997 6.259,-4.869 14.482,-6.627 22.263,-5.674 3.906,0.494 7.777,1.729 11.297,3.616 3.526,1.885 6.71,4.437 9.357,7.433 2.634,3.013 4.736,6.47 6.23,10.162 1.512,3.708 2.295,7.633 2.572,11.509 0.498,7.81 -1.311,15.448 -4.618,22.168 -1.792,3.4 -3.896,6.649 -6.501,9.474 -2.622,2.793 -5.534,5.313 -8.795,7.29 -6.469,4.016 -14.028,6.128 -21.522,6.06 -3.734,-0.051 -7.477,-0.472 -11.022,-1.541 -3.557,-0.998 -6.985,-2.394 -10.125,-4.25 -6.315,-3.673 -11.575,-8.795 -15.614,-14.596 -4.016,-5.824 -6.867,-12.355 -8.436,-19.176 -1.573,-6.816 -1.814,-13.742 -1.441,-20.405 0.384,-6.685 1.319,-13.161 1.948,-19.553 0.6,-6.381 1.053,-12.787 0.144,-18.896 -0.485,-3.041 -1.316,-6.014 -2.692,-8.729 -1.35,-2.716 -3.272,-5.165 -5.524,-7.323 -4.471,-4.305 -10.367,-7.331 -16.693,-7.974 -0.365,-0.035 -0.633,-0.359 -0.598,-0.725 0.033,-0.347 0.335,-0.606 0.678,-0.601 6.699,0.168 13.257,2.882 18.484,7.198 2.598,2.165 4.929,4.758 6.685,7.766 1.769,2.988 2.926,6.292 3.681,9.625 1.444,6.72 1.37,13.439 1.191,20.009 -0.22,6.584 -0.72,13.05 -0.665,19.373 0,6.321 0.605,12.508 2.293,18.303 1.672,5.771 4.444,11.226 8.088,15.913 3.608,4.703 8.103,8.634 13.178,11.277 2.526,1.345 5.232,2.28 7.96,2.909 2.722,0.702 5.527,0.851 8.278,0.772 5.518,-0.284 10.851,-2.163 15.262,-5.28 2.228,-1.535 4.108,-3.497 5.802,-5.55 1.671,-2.095 2.932,-4.46 4.019,-6.885 4.29,-10.169 3.858,-21.861 -2.419,-29.783 -3.047,-3.977 -7.443,-6.845 -12.445,-8.033 -5.006,-1.269 -10.517,-0.589 -15.07,1.857 -4.421,2.441 -8.226,7.171 -8.509,12.339 -0.367,4.637 3.837,11.322 10.047,10.2 l 0.012,-0.002 c 0.364,-0.066 0.714,0.176 0.78,0.541 C 0.396,-0.418 0.249,-0.134 0,0"
           style="fill:#da66a1;fill-opacity:1;fill-rule:nonzero;stroke:none"
           id="path2292" />
      </g>
      <g
         id="g2294"
         transform="matrix(1.3333333,0,0,-1.3333333,1647.7935,606.1684)"
         style="display:inline">
        <path
           d="M 0,0 C 0.835,-1.174 2.464,-1.449 3.639,-0.614 4.813,0.221 5.088,1.85 4.253,3.025 3.418,4.199 1.788,4.474 0.614,3.639 -0.56,2.804 -0.835,1.174 0,0"
           style="fill:#6c59b2;fill-opacity:1;fill-rule:nonzero;stroke:none"
           id="path2296" />
      </g>
      <g
         id="g2298"
         transform="matrix(1.3333333,0,0,-1.3333333,1628.5475,619.6244)"
         style="display:inline">
        <path
           d="M 0,0 C 0.672,-0.945 1.982,-1.166 2.927,-0.494 3.872,0.178 4.093,1.489 3.421,2.433 2.749,3.378 1.439,3.599 0.494,2.927 -0.451,2.255 -0.672,0.945 0,0"
           style="fill:#6c59b2;fill-opacity:1;fill-rule:nonzero;stroke:none"
           id="path2300" />
      </g>
      <g
         id="g2302"
         transform="matrix(1.3333333,0,0,-1.3333333,1616.3839,639.85)"
         style="display:inline">
        <path
           d="M 0,0 C 0.509,-0.715 1.501,-0.883 2.216,-0.374 2.931,0.135 3.099,1.127 2.59,1.842 2.081,2.557 1.089,2.725 0.374,2.216 -0.341,1.707 -0.509,0.715 0,0"
           style="fill:#6c59b2;fill-opacity:1;fill-rule:nonzero;stroke:none"
           id="path2304" />
      </g>
      <g
         id="g2306"
         transform="matrix(1.3333333,0,0,-1.3333333,1611.2306,663.056)"
         style="display:inline">
        <path
           d="M 0,0 C 0.345,-0.486 1.019,-0.599 1.505,-0.254 1.99,0.092 2.104,0.765 1.759,1.251 1.413,1.736 0.74,1.85 0.254,1.505 -0.232,1.159 -0.345,0.486 0,0"
           style="fill:#6c59b2;fill-opacity:1;fill-rule:nonzero;stroke:none"
           id="path2308" />
      </g>
      <g
         id="g2310"
         transform="matrix(1.3333333,0,0,-1.3333333,1612.0908,686.97467)"
         style="display:inline">
        <path
           d="M 0,0 C 0.182,-0.256 0.537,-0.316 0.793,-0.134 1.049,0.048 1.109,0.403 0.927,0.659 0.745,0.915 0.39,0.975 0.134,0.793 -0.122,0.611 -0.182,0.256 0,0"
           style="fill:#6c59b2;fill-opacity:1;fill-rule:nonzero;stroke:none"
           id="path2312" />
      </g>
      <g
         id="g2314"
         transform="matrix(1.3333333,0,0,-1.3333333,1614.3863,710.8536)"
         style="display:inline">
        <path
           d="M 0,0 C 0.019,-0.027 0.056,-0.033 0.082,-0.014 0.109,0.005 0.115,0.042 0.096,0.068 0.077,0.094 0.04,0.101 0.014,0.082 -0.013,0.063 -0.019,0.026 0,0"
           style="fill:#6c59b2;fill-opacity:1;fill-rule:nonzero;stroke:none"
           id="path2316" />
      </g>
      <g
         id="g2318"
         transform="matrix(1.3333333,0,0,-1.3333333,1675.3891,681.09453)"
         style="display:inline">
        <path
           d="M 0,0 C 0.835,-1.174 2.464,-1.449 3.639,-0.614 4.813,0.221 5.088,1.85 4.253,3.025 3.418,4.199 1.788,4.474 0.614,3.639 -0.56,2.804 -0.835,1.174 0,0"
           style="fill:#6c59b2;fill-opacity:1;fill-rule:nonzero;stroke:none"
           id="path2320" />
      </g>
      <g
         id="g2322"
         transform="matrix(1.3333333,0,0,-1.3333333,1684.636,686.38053)"
         style="display:inline">
        <path
           d="M 0,0 C 0.664,-0.934 1.96,-1.152 2.894,-0.488 3.828,0.176 4.046,1.471 3.382,2.405 2.718,3.339 1.422,3.558 0.488,2.894 -0.445,2.229 -0.664,0.934 0,0"
           style="fill:#6c59b2;fill-opacity:1;fill-rule:nonzero;stroke:none"
           id="path2324" />
      </g>
      <g
         id="g2326"
         transform="matrix(1.3333333,0,0,-1.3333333,1695.4926,686.9252)"
         style="display:inline">
        <path
           d="M 0,0 C 0.493,-0.694 1.455,-0.856 2.149,-0.363 2.842,0.131 3.004,1.092 2.511,1.786 2.018,2.479 1.056,2.642 0.363,2.148 -0.331,1.655 -0.493,0.693 0,0"
           style="fill:#6c59b2;fill-opacity:1;fill-rule:nonzero;stroke:none"
           id="path2328" />
      </g>
      <g
         id="g2330"
         transform="matrix(1.3333333,0,0,-1.3333333,1705.5722,682.38573)"
         style="display:inline">
        <path
           d="M 0,0 C 0.322,-0.453 0.951,-0.559 1.404,-0.237 1.857,0.085 1.963,0.714 1.64,1.167 1.318,1.62 0.69,1.726 0.237,1.403 -0.216,1.081 -0.322,0.453 0,0"
           style="fill:#6c59b2;fill-opacity:1;fill-rule:nonzero;stroke:none"
           id="path2332" />
      </g>
      <g
         id="g2334"
         transform="matrix(1.3333333,0,0,-1.3333333,1713.3119,674.45293)"
         style="display:inline">
        <path
           d="M 0,0 C 0.151,-0.212 0.446,-0.262 0.658,-0.111 0.871,0.04 0.921,0.335 0.77,0.547 0.618,0.76 0.323,0.81 0.111,0.659 -0.102,0.507 -0.151,0.213 0,0"
           style="fill:#6c59b2;fill-opacity:1;fill-rule:nonzero;stroke:none"
           id="path2336" />
      </g>
      <g
         id="g2338"
         transform="matrix(1.3333333,0,0,-1.3333333,1641.7182,685.92187)"
         style="display:inline">
        <path
           d="M 0,0 C 5.174,-9.78 11.728,-13.046 18.137,-15.072 32.092,-19.483 25.543,-30.803 16.655,-27.541 6.909,-23.964 -0.935,-15.046 0,0"
           style="fill:#fde3cb;fill-opacity:1;fill-rule:nonzero;stroke:none"
           id="path2340" />
      </g>
      <g
         id="g2342"
         transform="matrix(1.3333333,0,0,-1.3333333,1642.2443,712.0808)"
         style="display:inline">
        <path
           d="M 0,0 C 2.929,-7.602 7.435,-10.563 11.944,-12.604 21.762,-17.047 15.985,-24.751 9.772,-21.59 2.959,-18.124 -1.997,-10.919 0,0"
           style="fill:#fde3cb;fill-opacity:1;fill-rule:nonzero;stroke:none"
           id="path2344" />
      </g>
      <g
         id="g2346"
         transform="matrix(1.3333333,0,0,-1.3333333,1640.3008,734.23093)"
         style="display:inline">
        <path
           d="M 0,0 C 0.998,-5.573 3.683,-8.186 6.492,-10.171 12.606,-14.495 7.65,-18.992 3.827,-16.018 -0.366,-12.756 -2.799,-7.187 0,0"
           style="fill:#fde3cb;fill-opacity:1;fill-rule:nonzero;stroke:none"
           id="path2348" />
      </g>
      <g
         id="g2350"
         transform="matrix(1.3333333,0,0,-1.3333333,1311.3706,658.034)"
         style="display:inline">
        <path
           d="m 0,0 c 1.557,0.837 3.479,1.175 5.364,0.922 1.886,-0.266 3.67,-1.087 5.203,-2.198 3.039,-2.27 5.283,-5.607 5.984,-9.784 0.574,-3.938 -0.279,-7.968 -1.949,-11.472 -1.681,-3.522 -4.234,-6.571 -7.385,-8.997 -6.259,-4.869 -14.482,-6.627 -22.263,-5.674 -3.906,0.494 -7.777,1.729 -11.296,3.616 -3.526,1.885 -6.711,4.437 -9.358,7.433 -2.634,3.013 -4.736,6.47 -6.23,10.162 -1.512,3.708 -2.295,7.633 -2.572,11.509 -0.498,7.81 1.311,15.448 4.618,22.168 1.792,3.4 3.896,6.649 6.501,9.474 2.622,2.793 5.534,5.313 8.795,7.29 6.469,4.016 14.028,6.128 21.522,6.06 3.734,-0.051 7.477,-0.472 11.022,-1.541 3.557,-0.998 6.985,-2.394 10.125,-4.25 6.315,-3.673 11.575,-8.795 15.614,-14.596 4.016,-5.824 6.867,-12.355 8.436,-19.176 1.573,-6.816 1.814,-13.742 1.441,-20.405 -0.384,-6.685 -1.319,-13.161 -1.948,-19.553 -0.6,-6.381 -1.053,-12.787 -0.144,-18.896 0.485,-3.041 1.316,-6.014 2.692,-8.729 1.35,-2.716 3.272,-5.165 5.524,-7.323 4.471,-4.305 10.367,-7.331 16.693,-7.974 0.365,-0.035 0.633,-0.359 0.598,-0.725 -0.033,-0.347 -0.335,-0.606 -0.678,-0.601 -6.699,0.168 -13.257,2.882 -18.484,7.198 -2.598,2.165 -4.929,4.758 -6.685,7.766 -1.77,2.988 -2.926,6.292 -3.681,9.625 -1.444,6.72 -1.37,13.439 -1.191,20.009 0.22,6.584 0.72,13.05 0.665,19.373 0,6.321 -0.605,12.508 -2.293,18.303 -1.672,5.771 -4.444,11.226 -8.088,15.913 -3.608,4.703 -8.103,8.634 -13.178,11.277 -2.526,1.345 -5.232,2.28 -7.96,2.909 -2.722,0.702 -5.527,0.851 -8.278,0.772 -5.518,-0.284 -10.851,-2.163 -15.262,-5.28 -2.228,-1.535 -4.108,-3.497 -5.802,-5.55 -1.671,-2.095 -2.932,-4.46 -4.019,-6.885 -4.29,-10.169 -3.858,-21.861 2.42,-29.783 3.046,-3.977 7.442,-6.845 12.444,-8.033 5.006,-1.269 10.517,-0.589 15.07,1.857 4.421,2.441 8.226,7.171 8.509,12.339 0.367,4.637 -3.837,11.322 -10.047,10.2 L 0.437,-1.252 C 0.073,-1.318 -0.277,-1.076 -0.343,-0.711 -0.396,-0.418 -0.249,-0.134 0,0"
           style="fill:#da66a1;fill-opacity:1;fill-rule:nonzero;stroke:none"
           id="path2352" />
      </g>
      <g
         id="g2354"
         transform="matrix(1.3333333,0,0,-1.3333333,1345.4983,606.1684)"
         style="display:inline">
        <path
           d="M 0,0 C -0.835,-1.174 -2.464,-1.449 -3.639,-0.614 -4.813,0.221 -5.088,1.85 -4.253,3.025 -3.417,4.199 -1.788,4.474 -0.614,3.639 0.56,2.804 0.835,1.174 0,0"
           style="fill:#6c59b2;fill-opacity:1;fill-rule:nonzero;stroke:none"
           id="path2356" />
      </g>
      <g
         id="g2358"
         transform="matrix(1.3333333,0,0,-1.3333333,1364.7444,619.6244)"
         style="display:inline">
        <path
           d="m 0,0 c -0.672,-0.945 -1.983,-1.166 -2.927,-0.494 -0.945,0.672 -1.166,1.983 -0.494,2.927 0.672,0.945 1.982,1.166 2.927,0.494 C 0.451,2.255 0.672,0.945 0,0"
           style="fill:#6c59b2;fill-opacity:1;fill-rule:nonzero;stroke:none"
           id="path2360" />
      </g>
      <g
         id="g2362"
         transform="matrix(1.3333333,0,0,-1.3333333,1376.908,639.85)"
         style="display:inline">
        <path
           d="M 0,0 C -0.509,-0.715 -1.501,-0.883 -2.216,-0.374 -2.931,0.135 -3.099,1.127 -2.59,1.842 -2.081,2.557 -1.089,2.725 -0.374,2.216 0.341,1.707 0.509,0.715 0,0"
           style="fill:#6c59b2;fill-opacity:1;fill-rule:nonzero;stroke:none"
           id="path2364" />
      </g>
      <g
         id="g2366"
         transform="matrix(1.3333333,0,0,-1.3333333,1382.0612,663.056)"
         style="display:inline">
        <path
           d="M 0,0 C -0.345,-0.486 -1.019,-0.599 -1.505,-0.254 -1.99,0.092 -2.104,0.765 -1.759,1.251 -1.413,1.736 -0.739,1.85 -0.254,1.505 0.232,1.159 0.345,0.486 0,0"
           style="fill:#6c59b2;fill-opacity:1;fill-rule:nonzero;stroke:none"
           id="path2368" />
      </g>
      <g
         id="g2370"
         transform="matrix(1.3333333,0,0,-1.3333333,1381.2011,686.97467)"
         style="display:inline">
        <path
           d="M 0,0 C -0.182,-0.256 -0.537,-0.316 -0.793,-0.134 -1.049,0.048 -1.109,0.403 -0.927,0.659 -0.745,0.915 -0.39,0.975 -0.134,0.793 0.122,0.611 0.182,0.256 0,0"
           style="fill:#6c59b2;fill-opacity:1;fill-rule:nonzero;stroke:none"
           id="path2372" />
      </g>
      <g
         id="g2374"
         transform="matrix(1.3333333,0,0,-1.3333333,1378.9055,710.8536)"
         style="display:inline">
        <path
           d="M 0,0 C -0.019,-0.027 -0.056,-0.033 -0.082,-0.014 -0.108,0.005 -0.115,0.042 -0.096,0.068 -0.077,0.094 -0.04,0.101 -0.014,0.082 0.013,0.063 0.019,0.026 0,0"
           style="fill:#6c59b2;fill-opacity:1;fill-rule:nonzero;stroke:none"
           id="path2376" />
      </g>
      <g
         id="g2378"
         transform="matrix(1.3333333,0,0,-1.3333333,1317.9028,681.09453)"
         style="display:inline">
        <path
           d="M 0,0 C -0.835,-1.174 -2.464,-1.449 -3.639,-0.614 -4.813,0.221 -5.088,1.85 -4.253,3.025 -3.417,4.199 -1.788,4.474 -0.614,3.639 0.56,2.804 0.835,1.174 0,0"
           style="fill:#6c59b2;fill-opacity:1;fill-rule:nonzero;stroke:none"
           id="path2380" />
      </g>
      <g
         id="g2382"
         transform="matrix(1.3333333,0,0,-1.3333333,1308.6559,686.38053)"
         style="display:inline">
        <path
           d="m 0,0 c -0.664,-0.934 -1.96,-1.152 -2.894,-0.488 -0.934,0.664 -1.152,1.959 -0.488,2.893 0.664,0.934 1.96,1.153 2.894,0.489 C 0.445,2.229 0.664,0.934 0,0"
           style="fill:#6c59b2;fill-opacity:1;fill-rule:nonzero;stroke:none"
           id="path2384" />
      </g>
      <g
         id="g2386"
         transform="matrix(1.3333333,0,0,-1.3333333,1297.7992,686.9252)"
         style="display:inline">
        <path
           d="m 0,0 c -0.493,-0.694 -1.455,-0.856 -2.148,-0.363 -0.694,0.494 -0.856,1.455 -0.363,2.149 0.493,0.693 1.455,0.856 2.148,0.362 C 0.331,1.655 0.493,0.693 0,0"
           style="fill:#6c59b2;fill-opacity:1;fill-rule:nonzero;stroke:none"
           id="path2388" />
      </g>
      <g
         id="g2390"
         transform="matrix(1.3333333,0,0,-1.3333333,1287.7198,682.38573)"
         style="display:inline">
        <path
           d="M 0,0 C -0.322,-0.453 -0.951,-0.559 -1.403,-0.237 -1.856,0.085 -1.963,0.714 -1.64,1.167 -1.318,1.62 -0.69,1.726 -0.237,1.403 0.216,1.081 0.322,0.453 0,0"
           style="fill:#6c59b2;fill-opacity:1;fill-rule:nonzero;stroke:none"
           id="path2392" />
      </g>
      <g
         id="g2394"
         transform="matrix(1.3333333,0,0,-1.3333333,1279.98,674.45293)"
         style="display:inline">
        <path
           d="M 0,0 C -0.151,-0.212 -0.446,-0.262 -0.658,-0.111 -0.871,0.04 -0.921,0.335 -0.77,0.547 -0.618,0.76 -0.324,0.81 -0.111,0.659 0.101,0.507 0.151,0.213 0,0"
           style="fill:#6c59b2;fill-opacity:1;fill-rule:nonzero;stroke:none"
           id="path2396" />
      </g>
      <g
         id="g2398"
         transform="matrix(1.3333333,0,0,-1.3333333,1351.5738,685.92187)"
         style="display:inline">
        <path
           d="m 0,0 c -5.174,-9.78 -11.728,-13.046 -18.137,-15.072 -13.955,-4.411 -7.406,-15.731 1.482,-12.469 C -6.909,-23.964 0.935,-15.046 0,0"
           style="fill:#fde3cb;fill-opacity:1;fill-rule:nonzero;stroke:none"
           id="path2400" />
      </g>
      <g
         id="g2402"
         transform="matrix(1.3333333,0,0,-1.3333333,1351.0476,712.0808)"
         style="display:inline">
        <path
           d="m 0,0 c -2.929,-7.602 -7.435,-10.563 -11.944,-12.604 -9.818,-4.443 -4.041,-12.147 2.172,-8.986 C -2.959,-18.124 1.997,-10.919 0,0"
           style="fill:#fde3cb;fill-opacity:1;fill-rule:nonzero;stroke:none"
           id="path2404" />
      </g>
      <g
         id="g2406"
         transform="matrix(1.3333333,0,0,-1.3333333,1352.991,734.23093)"
         style="display:inline">
        <path
           d="m 0,0 c -0.998,-5.573 -3.683,-8.186 -6.492,-10.171 -6.114,-4.324 -1.158,-8.821 2.665,-5.847 C 0.366,-12.756 2.799,-7.187 0,0"
           style="fill:#fde3cb;fill-opacity:1;fill-rule:nonzero;stroke:none"
           id="path2408" />
      </g>
    </g>
    <g
       inkscape:groupmode="layer"
       id="layer5"
       inkscape:label="Scrollables_inferiores"
       transform="translate(0,11)"
       style="display:none">
      <g
         id="g3192"
         transform="matrix(0.35277777,0,0,-0.35277777,99.438701,193.67161)"
         style="display:inline">
        <path
           d="M 0,0 C -18.812,11.765 -20.873,20.122 -17.901,33.454 -3.714,29.979 2.49,21.468 0,0"
           style="fill:#feaa7c;fill-opacity:1;fill-rule:nonzero;stroke:none"
           id="path3194" />
      </g>
      <g
         id="g3196"
         transform="matrix(0.35277777,0,0,-0.35277777,98.786027,192.31137)"
         style="display:inline">
        <path
           d="M 0,0 C -3.654,11.23 -7.968,21.922 -14.398,27.35 -9.395,20.18 -5.461,10.865 0,0"
           style="fill:#fde3cb;fill-opacity:1;fill-rule:nonzero;stroke:none"
           id="path3198" />
      </g>
      <g
         id="g3200"
         transform="matrix(0.35277777,0,0,-0.35277777,61.989047,185.899)"
         style="display:inline">
        <path
           d="M 0,0 C 21.94,3.307 27.157,10.154 29.735,23.568 15.337,26.025 6.259,20.685 0,0"
           style="fill:#feaa7c;fill-opacity:1;fill-rule:nonzero;stroke:none"
           id="path3202" />
      </g>
      <g
         id="g3204"
         transform="matrix(0.35277777,0,0,-0.35277777,63.129163,184.91084)"
         style="display:inline">
        <path
           d="M 0,0 C 7.821,8.848 16.034,16.94 24.093,19.362 16.65,14.775 9.334,7.795 0,0"
           style="fill:#fde3cb;fill-opacity:1;fill-rule:nonzero;stroke:none"
           id="path3206" />
      </g>
      <g
         id="g3184"
         transform="matrix(0.35277777,0,0,-0.35277777,108.15778,186.92125)"
         style="display:inline">
        <path
           d="M 0,0 C -21.782,4.224 -26.707,11.284 -28.721,24.794 -14.233,26.645 -5.386,20.93 0,0"
           style="fill:#feaa7c;fill-opacity:1;fill-rule:nonzero;stroke:none"
           id="path3186" />
      </g>
      <g
         id="g3188"
         transform="matrix(0.35277777,0,0,-0.35277777,107.06016,185.88612)"
         style="display:inline">
        <path
           d="M 0,0 C -7.443,9.169 -15.309,17.598 -23.26,20.355 -16.016,15.46 -8.999,8.179 0,0"
           style="fill:#fde3cb;fill-opacity:1;fill-rule:nonzero;stroke:none"
           id="path3190" />
      </g>
    </g>
    <g
       inkscape:groupmode="layer"
       id="layer20"
       inkscape:label="Craneo 2"
       style="display:none"
       transform="matrix(0.26458333,0,0,0.26458333,-309.6387,-3.8522275e-4)">
      <g
         id="g2526"
         transform="matrix(1.3333333,0,0,-1.3333333,1585.5534,667.94733)"
         style="display:inline">
        <path
           d="m 0,0 c -10.217,-16.909 -29.604,2.09 -33.818,-11.133 -3.446,-10.742 -3.318,-26.658 -32.221,-26.89 -28.917,-0.232 -29.045,15.684 -32.649,26.369 -4.426,13.153 -23.505,-6.154 -33.993,10.589 -23.292,37.212 -10.619,73.134 4.579,94.377 14.193,19.857 37.367,24.082 60.814,24.123 23.446,0.336 46.671,-3.517 61.194,-23.143 C 9.443,73.296 22.691,37.581 0,0"
           style="fill:#fde3cb;fill-opacity:1;fill-rule:nonzero;stroke:none"
           id="path2528" />
      </g>
      <g
         id="g2530"
         transform="matrix(1.3333333,0,0,-1.3333333,1505.8899,667.27013)"
         style="display:inline">
        <path
           d="m 0,0 c 0.077,-1.27 -0.62,-2.667 -1.835,-3.038 -0.867,-0.274 -1.806,-0.001 -2.612,0.421 -0.684,0.358 -1.32,0.831 -1.869,1.381 -0.159,0.159 -0.406,0.155 -0.562,-0.008 -0.536,-0.564 -1.156,-1.039 -1.835,-1.408 -0.799,-0.434 -1.733,-0.722 -2.605,-0.462 -1.22,0.351 -1.94,1.737 -1.883,3.008 0.07,1.271 0.743,2.44 1.537,3.437 1.108,1.398 3.204,2.989 4.82,3.906 0.121,0.069 0.26,0.07 0.383,0.003 C -4.843,6.349 -2.722,4.791 -1.592,3.411 -0.782,2.428 -0.077,1.27 0,0"
           style="fill:#362955;fill-opacity:1;fill-rule:nonzero;stroke:none"
           id="path2532" />
      </g>
      <g
         id="g2534"
         transform="matrix(1.3333333,0,0,-1.3333333,1448.9594,665.8248)"
         style="display:inline">
        <path
           d="M 0,0 C -0.02,2.463 1.291,4.471 2.927,4.484 4.563,4.497 5.906,2.511 5.926,0.048 5.945,-2.416 4.635,-4.423 2.999,-4.436 1.362,-4.45 0.02,-2.463 0,0"
           style="fill:#6c59b2;fill-opacity:1;fill-rule:nonzero;stroke:none"
           id="path2536" />
      </g>
      <g
         id="g2538"
         transform="matrix(1.3333333,0,0,-1.3333333,1441.6946,664.0812)"
         style="display:inline">
        <path
           d="M 0,0 C 0.465,2.419 2.145,4.13 3.752,3.82 5.359,3.511 6.284,1.3 5.819,-1.119 5.354,-3.538 3.674,-5.249 2.067,-4.94 0.46,-4.631 -0.465,-2.419 0,0"
           style="fill:#6c59b2;fill-opacity:1;fill-rule:nonzero;stroke:none"
           id="path2540" />
      </g>
      <g
         id="g2542"
         transform="matrix(1.3333333,0,0,-1.3333333,1434.8039,660.39707)"
         style="display:inline">
        <path
           d="M 0,0 C 1.215,2.143 3.354,3.227 4.777,2.42 6.201,1.613 6.37,-0.778 5.156,-2.922 3.941,-5.065 1.802,-6.148 0.379,-5.341 -1.045,-4.535 -1.214,-2.143 0,0"
           style="fill:#6c59b2;fill-opacity:1;fill-rule:nonzero;stroke:none"
           id="path2544" />
      </g>
      <g
         id="g2546"
         transform="matrix(1.3333333,0,0,-1.3333333,1428.7019,656.27933)"
         style="display:inline">
        <path
           d="M 0,0 C 1.215,2.143 3.353,3.227 4.777,2.42 6.201,1.613 6.37,-0.778 5.156,-2.922 3.941,-5.065 1.802,-6.148 0.379,-5.341 -1.045,-4.535 -1.215,-2.143 0,0"
           style="fill:#6c59b2;fill-opacity:1;fill-rule:nonzero;stroke:none"
           id="path2548" />
      </g>
      <g
         id="g2550"
         transform="matrix(1.3333333,0,0,-1.3333333,1422.498,651.5008)"
         style="display:inline">
        <path
           d="M 0,0 C 1.612,1.862 3.922,2.504 5.16,1.433 6.397,0.362 6.092,-2.016 4.48,-3.879 2.868,-5.741 0.557,-6.383 -0.68,-5.312 -1.917,-4.241 -1.613,-1.862 0,0"
           style="fill:#6c59b2;fill-opacity:1;fill-rule:nonzero;stroke:none"
           id="path2552" />
      </g>
      <g
         id="g2554"
         transform="matrix(1.3333333,0,0,-1.3333333,1418.3728,644.8648)"
         style="display:inline">
        <path
           d="M 0,0 C 2.124,1.249 4.518,1.118 5.347,-0.293 6.176,-1.703 5.128,-3.859 3.004,-5.108 0.881,-6.357 -1.513,-6.226 -2.343,-4.815 -3.172,-3.405 -2.123,-1.249 0,0"
           style="fill:#6c59b2;fill-opacity:1;fill-rule:nonzero;stroke:none"
           id="path2556" />
      </g>
      <g
         id="g2558"
         transform="matrix(1.3333333,0,0,-1.3333333,1413.6215,639.0996)"
         style="display:inline">
        <path
           d="M 0,0 C 2.08,1.319 4.477,1.269 5.354,-0.113 6.23,-1.495 5.254,-3.685 3.174,-5.005 1.094,-6.324 -1.303,-6.273 -2.18,-4.891 -3.056,-3.509 -2.08,-1.32 0,0"
           style="fill:#6c59b2;fill-opacity:1;fill-rule:nonzero;stroke:none"
           id="path2560" />
      </g>
      <g
         id="g2562"
         transform="matrix(1.3333333,0,0,-1.3333333,1411.2596,632.01173)"
         style="display:inline">
        <path
           d="m 0,0 c 2.299,0.884 4.639,0.363 5.227,-1.164 0.587,-1.527 -0.8,-3.483 -3.1,-4.367 -2.299,-0.884 -4.639,-0.363 -5.226,1.164 C -3.687,-2.84 -2.299,-0.884 0,0"
           style="fill:#6c59b2;fill-opacity:1;fill-rule:nonzero;stroke:none"
           id="path2564" />
      </g>
      <g
         id="g2566"
         transform="matrix(1.3333333,0,0,-1.3333333,1410.7434,624.2152)"
         style="display:inline">
        <path
           d="M 0,0 C 2.461,0.102 4.512,-1.14 4.58,-2.775 4.648,-4.41 2.708,-5.818 0.246,-5.921 -2.215,-6.023 -4.265,-4.781 -4.333,-3.146 -4.402,-1.511 -2.461,-0.102 0,0"
           style="fill:#6c59b2;fill-opacity:1;fill-rule:nonzero;stroke:none"
           id="path2568" />
      </g>
      <g
         id="g2570"
         transform="matrix(1.3333333,0,0,-1.3333333,1408.5407,616.7708)"
         style="display:inline">
        <path
           d="M 0,0 C 2.463,0.022 4.472,-1.286 4.488,-2.922 4.502,-4.558 2.518,-5.903 0.054,-5.926 -2.409,-5.948 -4.418,-4.64 -4.433,-3.004 -4.448,-1.367 -2.463,-0.023 0,0"
           style="fill:#6c59b2;fill-opacity:1;fill-rule:nonzero;stroke:none"
           id="path2572" />
      </g>
      <g
         id="g2574"
         transform="matrix(1.3333333,0,0,-1.3333333,1410.276,609.50414)"
         style="display:inline">
        <path
           d="M 0,0 C 2.419,-0.463 4.132,-2.14 3.825,-3.748 3.518,-5.355 1.307,-6.283 -1.113,-5.82 -3.532,-5.358 -5.245,-3.68 -4.938,-2.073 -4.63,-0.466 -2.42,0.462 0,0"
           style="fill:#6c59b2;fill-opacity:1;fill-rule:nonzero;stroke:none"
           id="path2576" />
      </g>
      <g
         id="g2578"
         transform="matrix(1.3333333,0,0,-1.3333333,1413.9524,602.60947)"
         style="display:inline">
        <path
           d="M 0,0 C 2.145,-1.212 3.23,-3.35 2.425,-4.774 1.62,-6.199 -0.771,-6.371 -2.916,-5.159 -5.06,-3.947 -6.146,-1.809 -5.341,-0.385 -4.536,1.04 -2.145,1.212 0,0"
           style="fill:#6c59b2;fill-opacity:1;fill-rule:nonzero;stroke:none"
           id="path2580" />
      </g>
      <g
         id="g2582"
         transform="matrix(1.3333333,0,0,-1.3333333,1417.2843,595.82827)"
         style="display:inline">
        <path
           d="M 0,0 C 2.033,-1.391 2.933,-3.613 2.009,-4.964 1.085,-6.314 -1.312,-6.282 -3.346,-4.891 -5.379,-3.5 -6.278,-1.278 -5.354,0.073 -4.431,1.423 -2.033,1.391 0,0"
           style="fill:#6c59b2;fill-opacity:1;fill-rule:nonzero;stroke:none"
           id="path2584" />
      </g>
      <g
         id="g2586"
         transform="matrix(1.3333333,0,0,-1.3333333,1422.8648,590.86094)"
         style="display:inline">
        <path
           d="m 0,0 c 1.72,-1.764 2.164,-4.119 0.993,-5.262 -1.171,-1.142 -3.515,-0.639 -5.235,1.125 -1.72,1.763 -2.165,4.119 -0.993,5.262 C -4.064,2.267 -1.72,1.764 0,0"
           style="fill:#6c59b2;fill-opacity:1;fill-rule:nonzero;stroke:none"
           id="path2588" />
      </g>
      <g
         id="g2590"
         transform="matrix(1.3333333,0,0,-1.3333333,1429.8247,587.30947)"
         style="display:inline">
        <path
           d="m 0,0 c 1.066,-2.221 0.733,-4.595 -0.742,-5.303 -1.476,-0.708 -3.535,0.519 -4.601,2.74 -1.065,2.221 -0.733,4.595 0.742,5.303 C -3.125,3.448 -1.065,2.221 0,0"
           style="fill:#6c59b2;fill-opacity:1;fill-rule:nonzero;stroke:none"
           id="path2592" />
      </g>
      <g
         id="g2594"
         transform="matrix(1.3333333,0,0,-1.3333333,1436.0648,583.34347)"
         style="display:inline">
        <path
           d="m 0,0 c 1.205,-2.148 1.025,-4.539 -0.402,-5.34 -1.427,-0.8 -3.561,0.292 -4.766,2.441 -1.206,2.148 -1.026,4.539 0.402,5.34 C -3.339,3.241 -1.205,2.148 0,0"
           style="fill:#6c59b2;fill-opacity:1;fill-rule:nonzero;stroke:none"
           id="path2596" />
      </g>
      <g
         id="g2598"
         transform="matrix(1.3333333,0,0,-1.3333333,1443.2698,581.3676)"
         style="display:inline">
        <path
           d="m 0,0 c 0.759,-2.344 0.112,-4.652 -1.444,-5.156 -1.557,-0.505 -3.435,0.987 -4.194,3.33 C -6.397,0.518 -5.75,2.826 -4.193,3.331 -2.636,3.835 -0.759,2.344 0,0"
           style="fill:#6c59b2;fill-opacity:1;fill-rule:nonzero;stroke:none"
           id="path2600" />
      </g>
      <g
         id="g2602"
         transform="matrix(1.3333333,0,0,-1.3333333,1451.083,581.2728)"
         style="display:inline">
        <path
           d="m 0,0 c -0.031,-2.463 -1.382,-4.444 -3.018,-4.423 -1.636,0.02 -2.938,2.033 -2.907,4.497 0.03,2.463 1.381,4.443 3.018,4.423 C -1.271,4.477 0.03,2.463 0,0"
           style="fill:#6c59b2;fill-opacity:1;fill-rule:nonzero;stroke:none"
           id="path2604" />
      </g>
      <g
         id="g2606"
         transform="matrix(1.3333333,0,0,-1.3333333,1457.7167,578.99187)"
         style="display:inline">
        <path
           d="m 0,0 c 0.404,-2.43 -0.577,-4.618 -2.191,-4.886 -1.614,-0.269 -3.25,1.484 -3.655,3.914 -0.404,2.43 0.577,4.617 2.191,4.886 C -2.041,4.182 -0.404,2.43 0,0"
           style="fill:#6c59b2;fill-opacity:1;fill-rule:nonzero;stroke:none"
           id="path2608" />
      </g>
      <g
         id="g2610"
         transform="matrix(1.3333333,0,0,-1.3333333,1465.1646,579.57907)"
         style="display:inline">
        <path
           d="m 0,0 c -0.082,-2.462 -1.474,-4.414 -3.109,-4.36 -1.636,0.054 -2.895,2.094 -2.814,4.556 0.082,2.463 1.474,4.414 3.11,4.36 C -1.178,4.502 0.082,2.462 0,0"
           style="fill:#6c59b2;fill-opacity:1;fill-rule:nonzero;stroke:none"
           id="path2612" />
      </g>
      <g
         id="g2614"
         transform="matrix(1.3333333,0,0,-1.3333333,1472.5459,582.142)"
         style="display:inline">
        <path
           d="m 0,0 c -0.865,-2.307 -2.808,-3.711 -4.34,-3.136 -1.532,0.574 -2.073,2.91 -1.209,5.217 0.865,2.306 2.809,3.71 4.341,3.136 C 0.324,4.642 0.865,2.307 0,0"
           style="fill:#6c59b2;fill-opacity:1;fill-rule:nonzero;stroke:none"
           id="path2616" />
      </g>
      <g
         id="g2618"
         transform="matrix(1.3333333,0,0,-1.3333333,1476.6918,588.5812)"
         style="display:inline">
        <path
           d="m 0,0 c -1.837,-1.641 -4.21,-1.983 -5.3,-0.763 -1.091,1.22 -0.485,3.54 1.352,5.182 1.836,1.641 4.209,1.983 5.3,0.762 C 2.442,3.961 1.837,1.641 0,0"
           style="fill:#6c59b2;fill-opacity:1;fill-rule:nonzero;stroke:none"
           id="path2620" />
      </g>
      <g
         id="g2622"
         transform="matrix(1.3333333,0,0,-1.3333333,1480.1796,595.18814)"
         style="display:inline">
        <path
           d="M 0,0 C -2.124,-1.248 -4.518,-1.116 -5.347,0.295 -6.176,1.706 -5.126,3.861 -3.002,5.109 -0.878,6.357 1.516,6.225 2.345,4.814 3.174,3.403 2.124,1.248 0,0"
           style="fill:#6c59b2;fill-opacity:1;fill-rule:nonzero;stroke:none"
           id="path2624" />
      </g>
      <g
         id="g2626"
         transform="matrix(1.3333333,0,0,-1.3333333,1479.922,603.4416)"
         style="display:inline">
        <path
           d="M 0,0 C -2.412,-0.503 -4.637,0.388 -4.972,1.99 -5.306,3.592 -3.622,5.298 -1.21,5.801 1.201,6.304 3.427,5.413 3.761,3.811 4.096,2.209 2.412,0.503 0,0"
           style="fill:#6c59b2;fill-opacity:1;fill-rule:nonzero;stroke:none"
           id="path2628" />
      </g>
      <g
         id="g2630"
         transform="matrix(1.3333333,0,0,-1.3333333,1480.9924,610.4132)"
         style="display:inline">
        <path
           d="m 0,0 c -2.422,-0.451 -4.628,0.486 -4.928,2.095 -0.3,1.609 1.42,3.279 3.841,3.731 C 1.335,6.277 3.541,5.339 3.842,3.731 4.142,2.122 2.422,0.452 0,0"
           style="fill:#6c59b2;fill-opacity:1;fill-rule:nonzero;stroke:none"
           id="path2632" />
      </g>
      <g
         id="g2634"
         transform="matrix(1.3333333,0,0,-1.3333333,1480.8351,617.554)"
         style="display:inline">
        <path
           d="M 0,0 C -2.463,0.034 -4.442,1.387 -4.42,3.023 -4.397,4.66 -2.382,5.959 0.081,5.925 2.544,5.892 4.523,4.538 4.5,2.902 4.478,1.266 2.463,-0.034 0,0"
           style="fill:#6c59b2;fill-opacity:1;fill-rule:nonzero;stroke:none"
           id="path2636" />
      </g>
      <g
         id="g2638"
         transform="matrix(1.3333333,0,0,-1.3333333,1478.9282,624.98)"
         style="display:inline">
        <path
           d="m 0,0 c -2.323,0.82 -3.765,2.735 -3.22,4.278 0.544,1.544 2.869,2.13 5.192,1.31 C 4.295,4.769 5.737,2.853 5.192,1.31 4.648,-0.233 2.323,-0.82 0,0"
           style="fill:#6c59b2;fill-opacity:1;fill-rule:nonzero;stroke:none"
           id="path2640" />
      </g>
      <g
         id="g2642"
         transform="matrix(1.3333333,0,0,-1.3333333,1480.0067,631.31707)"
         style="display:inline">
        <path
           d="m 0,0 c -2.463,0.031 -4.444,1.382 -4.423,3.018 0.02,1.637 2.034,2.938 4.497,2.907 C 2.537,5.895 4.517,4.543 4.497,2.907 4.477,1.271 2.463,-0.031 0,0"
           style="fill:#6c59b2;fill-opacity:1;fill-rule:nonzero;stroke:none"
           id="path2644" />
      </g>
      <g
         id="g2646"
         transform="matrix(1.3333333,0,0,-1.3333333,1478.1144,638.54467)"
         style="display:inline">
        <path
           d="m 0,0 c -2.409,0.515 -4.085,2.229 -3.743,3.83 0.342,1.6 2.572,2.48 4.981,1.965 C 3.647,5.28 5.323,3.566 4.981,1.966 4.639,0.365 2.409,-0.515 0,0"
           style="fill:#6c59b2;fill-opacity:1;fill-rule:nonzero;stroke:none"
           id="path2648" />
      </g>
      <g
         id="g2650"
         transform="matrix(1.3333333,0,0,-1.3333333,1474.2895,645.358)"
         style="display:inline">
        <path
           d="M 0,0 C -2.118,1.258 -3.157,3.419 -2.321,4.826 -1.485,6.232 0.909,6.353 3.027,5.094 5.145,3.836 6.184,1.676 5.348,0.269 4.512,-1.138 2.118,-1.258 0,0"
           style="fill:#6c59b2;fill-opacity:1;fill-rule:nonzero;stroke:none"
           id="path2652" />
      </g>
      <g
         id="g2654"
         transform="matrix(1.3333333,0,0,-1.3333333,1472.6999,651.99693)"
         style="display:inline">
        <path
           d="M 0,0 C -2.351,0.737 -3.859,2.6 -3.37,4.162 -2.88,5.723 -0.578,6.391 1.773,5.654 4.124,4.917 5.632,3.054 5.143,1.493 4.653,-0.069 2.351,-0.737 0,0"
           style="fill:#6c59b2;fill-opacity:1;fill-rule:nonzero;stroke:none"
           id="path2656" />
      </g>
      <g
         id="g2658"
         transform="matrix(1.3333333,0,0,-1.3333333,1468.8112,658.37627)"
         style="display:inline">
        <path
           d="M 0,0 C -2.16,1.185 -3.272,3.309 -2.485,4.743 -1.698,6.178 0.691,6.38 2.851,5.195 5.01,4.01 6.123,1.886 5.336,0.452 4.549,-0.983 2.16,-1.185 0,0"
           style="fill:#6c59b2;fill-opacity:1;fill-rule:nonzero;stroke:none"
           id="path2660" />
      </g>
      <g
         id="g2662"
         transform="matrix(1.3333333,0,0,-1.3333333,1463.1903,663.80373)"
         style="display:inline">
        <path
           d="M 0,0 C -1.667,1.814 -2.042,4.182 -0.837,5.289 0.367,6.396 2.696,5.824 4.363,4.01 6.03,2.197 6.405,-0.171 5.2,-1.279 3.995,-2.386 1.667,-1.814 0,0"
           style="fill:#6c59b2;fill-opacity:1;fill-rule:nonzero;stroke:none"
           id="path2664" />
      </g>
      <g
         id="g2666"
         transform="matrix(1.3333333,0,0,-1.3333333,1456.4531,666.43307)"
         style="display:inline">
        <path
           d="M 0,0 C -1.073,2.217 -0.75,4.593 0.723,5.306 2.196,6.019 4.26,4.8 5.334,2.582 6.407,0.365 6.083,-2.01 4.611,-2.723 3.138,-3.437 1.074,-2.217 0,0"
           style="fill:#6c59b2;fill-opacity:1;fill-rule:nonzero;stroke:none"
           id="path2668" />
      </g>
      <g
         id="g2670"
         transform="matrix(1.3333333,0,0,-1.3333333,1476.2706,634.34733)"
         style="display:inline">
        <path
           d="m 0,0 c -1.224,-5.612 -3.221,-10.869 -6.24,-15.223 -11.42,-16.47 -30.535,-1.869 -38.611,11.492 -3.586,5.934 -6.075,12.956 -4.867,20.019 1.856,10.84 11.07,17.418 19.955,20.91 7.845,3.084 22.966,7.693 28.659,-2.169 C 0.087,32.965 0.557,30.525 0.853,28.131 1.931,19.418 2.012,9.228 0,0"
           style="fill:#362955;fill-opacity:1;fill-rule:nonzero;stroke:none"
           id="path2672" />
      </g>
      <g
         id="g2674"
         style="display:inline"
         transform="matrix(1.3333333,0,0,-1.3333333,1205.2603,816.37733)">
        <g
           id="g2676" />
        <g
           id="g2688">
          <g
             clip-path="url(#clipPath2680)"
             opacity="0.600006"
             id="g2686">
            <g
               transform="translate(185.4024,116.5706)"
               id="g2684">
              <path
                 d="m 0,0 c -5.577,-0.045 -14.188,6.658 -19.196,14.943 -2.243,3.71 -4.727,9.241 -3.825,14.513 1.422,8.309 9.997,12.837 14.981,14.796 6.753,2.655 11.082,3.235 13.524,3.254 4.094,0.033 4.902,-1.368 5.248,-1.966 0.59,-1.023 0.846,-3.093 0.942,-3.872 C 12.799,32.58 12.54,23.546 10.945,16.232 9.857,11.24 8.177,7.081 5.952,3.873 3.561,0.425 1.41,0.011 0,0"
                 style="fill:#231f20;fill-opacity:1;fill-rule:nonzero;stroke:none"
                 id="path2682" />
            </g>
          </g>
        </g>
      </g>
      <g
         id="g2690"
         transform="matrix(1.3333333,0,0,-1.3333333,1545.1882,665.052)"
         style="display:inline">
        <path
           d="m 0,0 c -0.02,2.463 -1.362,4.45 -2.999,4.436 -1.636,-0.013 -2.947,-2.02 -2.927,-4.484 0.02,-2.463 1.363,-4.449 2.999,-4.436 C -1.291,-4.471 0.02,-2.463 0,0"
           style="fill:#6c59b2;fill-opacity:1;fill-rule:nonzero;stroke:none"
           id="path2692" />
      </g>
      <g
         id="g2694"
         transform="matrix(1.3333333,0,0,-1.3333333,1552.4243,663.19213)"
         style="display:inline">
        <path
           d="M 0,0 C -0.504,2.411 -2.211,4.095 -3.813,3.76 -5.415,3.425 -6.305,1.199 -5.801,-1.212 -5.297,-3.624 -3.589,-5.307 -1.988,-4.972 -0.386,-4.637 0.504,-2.411 0,0"
           style="fill:#6c59b2;fill-opacity:1;fill-rule:nonzero;stroke:none"
           id="path2696" />
      </g>
      <g
         id="g2698"
         transform="matrix(1.3333333,0,0,-1.3333333,1559.2546,659.39773)"
         style="display:inline">
        <path
           d="m 0,0 c -1.249,2.124 -3.405,3.172 -4.815,2.343 -1.411,-0.83 -1.542,-3.224 -0.293,-5.347 1.249,-2.123 3.405,-3.172 4.815,-2.343 C 1.118,-4.517 1.249,-2.123 0,0"
           style="fill:#6c59b2;fill-opacity:1;fill-rule:nonzero;stroke:none"
           id="path2700" />
      </g>
      <g
         id="g2702"
         transform="matrix(1.3333333,0,0,-1.3333333,1565.6666,655.53693)"
         style="display:inline">
        <path
           d="m 0,0 c -1.249,2.123 -3.405,3.172 -4.815,2.343 -1.411,-0.83 -1.542,-3.224 -0.293,-5.347 1.249,-2.124 3.405,-3.172 4.815,-2.343 C 1.118,-4.517 1.249,-2.123 0,0"
           style="fill:#6c59b2;fill-opacity:1;fill-rule:nonzero;stroke:none"
           id="path2704" />
      </g>
      <g
         id="g2706"
         transform="matrix(1.3333333,0,0,-1.3333333,1571.4163,650.30493)"
         style="display:inline">
        <path
           d="m 0,0 c -1.642,1.836 -3.962,2.441 -5.182,1.35 -1.22,-1.091 -0.877,-3.464 0.765,-5.3 1.642,-1.836 3.962,-2.441 5.182,-1.35 C 1.985,-4.209 1.642,-1.836 0,0"
           style="fill:#6c59b2;fill-opacity:1;fill-rule:nonzero;stroke:none"
           id="path2708" />
      </g>
      <g
         id="g2710"
         transform="matrix(1.3333333,0,0,-1.3333333,1575.4342,643.60347)"
         style="display:inline">
        <path
           d="M 0,0 C -2.143,1.215 -4.535,1.045 -5.341,-0.379 -6.148,-1.802 -5.065,-3.941 -2.922,-5.156 -0.778,-6.37 1.613,-6.201 2.42,-4.777 3.227,-3.353 2.143,-1.215 0,0"
           style="fill:#6c59b2;fill-opacity:1;fill-rule:nonzero;stroke:none"
           id="path2712" />
      </g>
      <g
         id="g2714"
         transform="matrix(1.3333333,0,0,-1.3333333,1580.0922,637.76293)"
         style="display:inline">
        <path
           d="m 0,0 c -2.101,1.286 -4.497,1.197 -5.351,-0.199 -0.854,-1.396 0.157,-3.57 2.258,-4.856 2.101,-1.285 4.497,-1.196 5.351,0.2 C 3.112,-3.46 2.101,-1.286 0,0"
           style="fill:#6c59b2;fill-opacity:1;fill-rule:nonzero;stroke:none"
           id="path2716" />
      </g>
      <g
         id="g2718"
         transform="matrix(1.3333333,0,0,-1.3333333,1582.34,630.63787)"
         style="display:inline">
        <path
           d="M 0,0 C -2.313,0.847 -4.645,0.288 -5.207,-1.248 -5.77,-2.785 -4.351,-4.717 -2.038,-5.564 0.275,-6.412 2.606,-5.853 3.169,-4.316 3.732,-2.78 2.313,-0.847 0,0"
           style="fill:#6c59b2;fill-opacity:1;fill-rule:nonzero;stroke:none"
           id="path2720" />
      </g>
      <g
         id="g2722"
         transform="matrix(1.3333333,0,0,-1.3333333,1582.7312,622.83413)"
         style="display:inline">
        <path
           d="m 0,0 c -2.463,0.063 -4.493,-1.212 -4.535,-2.848 -0.041,-1.636 1.921,-3.013 4.384,-3.076 2.462,-0.063 4.493,1.212 4.534,2.848 C 4.425,-1.44 2.463,-0.063 0,0"
           style="fill:#6c59b2;fill-opacity:1;fill-rule:nonzero;stroke:none"
           id="path2724" />
      </g>
      <g
         id="g2726"
         transform="matrix(1.3333333,0,0,-1.3333333,1584.8139,615.35534)"
         style="display:inline">
        <path
           d="m 0,0 c -2.463,-0.017 -4.451,-1.357 -4.44,-2.994 0.011,-1.636 2.018,-2.949 4.481,-2.932 2.463,0.017 4.451,1.358 4.44,2.994 C 4.469,-1.296 2.463,0.017 0,0"
           style="fill:#6c59b2;fill-opacity:1;fill-rule:nonzero;stroke:none"
           id="path2728" />
      </g>
      <g
         id="g2730"
         transform="matrix(1.3333333,0,0,-1.3333333,1582.9623,608.11734)"
         style="display:inline">
        <path
           d="m 0,0 c -2.412,-0.501 -4.097,-2.206 -3.764,-3.809 0.333,-1.602 2.558,-2.494 4.97,-1.993 2.412,0.501 4.097,2.207 3.764,3.809 C 4.637,-0.391 2.412,0.501 0,0"
           style="fill:#6c59b2;fill-opacity:1;fill-rule:nonzero;stroke:none"
           id="path2732" />
      </g>
      <g
         id="g2734"
         transform="matrix(1.3333333,0,0,-1.3333333,1579.1752,601.28267)"
         style="display:inline">
        <path
           d="M 0,0 C -2.125,-1.247 -3.176,-3.401 -2.348,-4.812 -1.52,-6.224 0.874,-6.358 2.998,-5.111 5.123,-3.865 6.175,-1.71 5.347,-0.299 4.519,1.113 2.125,1.246 0,0"
           style="fill:#6c59b2;fill-opacity:1;fill-rule:nonzero;stroke:none"
           id="path2736" />
      </g>
      <g
         id="g2738"
         transform="matrix(1.3333333,0,0,-1.3333333,1575.7351,594.55587)"
         style="display:inline">
        <path
           d="m 0,0 c -2.011,-1.423 -2.874,-3.66 -1.929,-4.995 0.946,-1.336 3.342,-1.265 5.353,0.158 2.01,1.424 2.874,3.66 1.929,4.996 C 4.407,1.494 2.011,1.423 0,0"
           style="fill:#6c59b2;fill-opacity:1;fill-rule:nonzero;stroke:none"
           id="path2740" />
      </g>
      <g
         id="g2742"
         transform="matrix(1.3333333,0,0,-1.3333333,1570.0755,589.6788)"
         style="display:inline">
        <path
           d="M 0,0 C -1.691,-1.791 -2.098,-4.154 -0.908,-5.277 0.281,-6.401 2.617,-5.86 4.308,-4.069 6,-2.278 6.406,0.085 5.217,1.209 4.027,2.332 1.691,1.791 0,0"
           style="fill:#6c59b2;fill-opacity:1;fill-rule:nonzero;stroke:none"
           id="path2744" />
      </g>
      <g
         id="g2746"
         transform="matrix(1.3333333,0,0,-1.3333333,1563.0594,586.23947)"
         style="display:inline">
        <path
           d="M 0,0 C -1.03,-2.238 -0.659,-4.607 0.827,-5.291 2.314,-5.975 4.354,-4.715 5.384,-2.477 6.413,-0.239 6.043,2.13 4.556,2.814 3.07,3.498 1.03,2.238 0,0"
           style="fill:#6c59b2;fill-opacity:1;fill-rule:nonzero;stroke:none"
           id="path2748" />
      </g>
      <g
         id="g2750"
         transform="matrix(1.3333333,0,0,-1.3333333,1556.7567,582.37427)"
         style="display:inline">
        <path
           d="M 0,0 C -1.171,-2.168 -0.952,-4.555 0.488,-5.333 1.927,-6.11 4.044,-4.983 5.214,-2.816 6.385,-0.648 6.166,1.739 4.726,2.517 3.287,3.294 1.171,2.167 0,0"
           style="fill:#6c59b2;fill-opacity:1;fill-rule:nonzero;stroke:none"
           id="path2752" />
      </g>
      <g
         id="g2754"
         transform="matrix(1.3333333,0,0,-1.3333333,1549.5207,580.5144)"
         style="display:inline">
        <path
           d="M 0,0 C -0.721,-2.356 -0.038,-4.653 1.527,-5.133 3.092,-5.612 4.945,-4.091 5.666,-1.735 6.388,0.621 5.704,2.918 4.139,3.397 2.574,3.877 0.721,2.355 0,0"
           style="fill:#6c59b2;fill-opacity:1;fill-rule:nonzero;stroke:none"
           id="path2756" />
      </g>
      <g
         id="g2758"
         transform="matrix(1.3333333,0,0,-1.3333333,1541.707,580.54507)"
         style="display:inline">
        <path
           d="m 0,0 c 0.07,-2.463 1.453,-4.421 3.089,-4.374 1.635,0.046 2.905,2.08 2.835,4.543 C 5.853,2.631 4.471,4.59 2.835,4.543 1.199,4.496 -0.07,2.462 0,0"
           style="fill:#6c59b2;fill-opacity:1;fill-rule:nonzero;stroke:none"
           id="path2760" />
      </g>
      <g
         id="g2762"
         transform="matrix(1.3333333,0,0,-1.3333333,1535.0378,578.37094)"
         style="display:inline">
        <path
           d="M 0,0 C -0.365,-2.436 0.65,-4.608 2.269,-4.85 3.887,-5.093 5.495,-3.315 5.86,-0.878 6.226,1.558 5.21,3.729 3.591,3.972 1.973,4.214 0.365,2.436 0,0"
           style="fill:#6c59b2;fill-opacity:1;fill-rule:nonzero;stroke:none"
           id="path2764" />
      </g>
      <g
         id="g2766"
         transform="matrix(1.3333333,0,0,-1.3333333,1527.6,579.07774)"
         style="display:inline">
        <path
           d="m 0,0 c 0.121,-2.46 1.544,-4.39 3.179,-4.309 1.634,0.08 2.861,2.14 2.74,4.601 C 5.798,2.752 4.374,4.681 2.74,4.601 1.105,4.52 -0.121,2.46 0,0"
           style="fill:#6c59b2;fill-opacity:1;fill-rule:nonzero;stroke:none"
           id="path2768" />
      </g>
      <g
         id="g2770"
         transform="matrix(1.3333333,0,0,-1.3333333,1520.2608,581.7588)"
         style="display:inline">
        <path
           d="M 0,0 C 0.902,-2.292 2.867,-3.665 4.39,-3.066 5.913,-2.467 6.416,-0.123 5.515,2.169 4.613,4.462 2.647,5.835 1.124,5.236 -0.398,4.636 -0.902,2.292 0,0"
           style="fill:#6c59b2;fill-opacity:1;fill-rule:nonzero;stroke:none"
           id="path2772" />
      </g>
      <g
         id="g2774"
         transform="matrix(1.3333333,0,0,-1.3333333,1516.219,588.26387)"
         style="display:inline">
        <path
           d="M 0,0 C 1.863,-1.612 4.241,-1.915 5.312,-0.678 6.383,0.56 5.74,2.87 3.877,4.482 2.014,6.094 -0.364,6.397 -1.435,5.159 -2.505,3.922 -1.863,1.612 0,0"
           style="fill:#6c59b2;fill-opacity:1;fill-rule:nonzero;stroke:none"
           id="path2776" />
      </g>
      <g
         id="g2778"
         transform="matrix(1.3333333,0,0,-1.3333333,1512.8376,594.92587)"
         style="display:inline">
        <path
           d="M 0,0 C 2.144,-1.214 4.535,-1.043 5.341,0.381 6.148,1.805 5.063,3.943 2.92,5.157 0.776,6.371 -1.615,6.2 -2.422,4.776 -3.228,3.352 -2.144,1.214 0,0"
           style="fill:#6c59b2;fill-opacity:1;fill-rule:nonzero;stroke:none"
           id="path2780" />
      </g>
      <g
         id="g2782"
         transform="matrix(1.3333333,0,0,-1.3333333,1512.4,602.55134)"
         style="display:inline">
        <path
           d="M 0,0 C 2.419,-0.464 4.63,0.462 4.939,2.069 5.247,3.676 3.536,5.355 1.117,5.82 -1.302,6.284 -3.514,5.358 -3.822,3.75 -4.131,2.143 -2.419,0.464 0,0"
           style="fill:#6c59b2;fill-opacity:1;fill-rule:nonzero;stroke:none"
           id="path2784" />
      </g>
      <g
         id="g2786"
         transform="matrix(1.3333333,0,0,-1.3333333,1512.4106,609.846)"
         style="display:inline">
        <path
           d="M 0,0 C 2.429,-0.413 4.62,0.561 4.894,2.174 5.168,3.787 3.421,5.429 0.993,5.842 -1.436,6.255 -3.627,5.282 -3.901,3.668 -4.175,2.055 -2.429,0.413 0,0"
           style="fill:#6c59b2;fill-opacity:1;fill-rule:nonzero;stroke:none"
           id="path2788" />
      </g>
      <g
         id="g2790"
         transform="matrix(1.3333333,0,0,-1.3333333,1512.3572,617.30093)"
         style="display:inline">
        <path
           d="M 0,0 C 2.462,0.073 4.419,1.458 4.371,3.094 4.322,4.73 2.287,5.996 -0.176,5.923 -2.638,5.85 -4.595,4.465 -4.546,2.829 -4.498,1.194 -2.462,-0.073 0,0"
           style="fill:#6c59b2;fill-opacity:1;fill-rule:nonzero;stroke:none"
           id="path2792" />
      </g>
      <g
         id="g2794"
         transform="matrix(1.3333333,0,0,-1.3333333,1514.5674,624.69373)"
         style="display:inline">
        <path
           d="M 0,0 C 2.31,0.857 3.72,2.795 3.151,4.329 2.582,5.864 0.248,6.413 -2.061,5.556 -4.371,4.699 -5.782,2.761 -5.213,1.226 -4.643,-0.308 -2.31,-0.857 0,0"
           style="fill:#6c59b2;fill-opacity:1;fill-rule:nonzero;stroke:none"
           id="path2796" />
      </g>
      <g
         id="g2798"
         transform="matrix(1.3333333,0,0,-1.3333333,1513.5908,631.04733)"
         style="display:inline">
        <path
           d="M 0,0 C 2.462,0.07 4.421,1.453 4.374,3.089 4.327,4.725 2.293,5.994 -0.169,5.924 -2.632,5.853 -4.59,4.47 -4.543,2.834 -4.497,1.199 -2.462,-0.07 0,0"
           style="fill:#6c59b2;fill-opacity:1;fill-rule:nonzero;stroke:none"
           id="path2800" />
      </g>
      <g
         id="g2802"
         transform="matrix(1.3333333,0,0,-1.3333333,1515.5987,638.24373)"
         style="display:inline">
        <path
           d="M 0,0 C 2.401,0.553 4.048,2.295 3.681,3.889 3.313,5.484 1.069,6.328 -1.331,5.774 -3.732,5.221 -5.38,3.48 -5.012,1.885 -4.645,0.291 -2.4,-0.553 0,0"
           style="fill:#6c59b2;fill-opacity:1;fill-rule:nonzero;stroke:none"
           id="path2804" />
      </g>
      <g
         id="g2806"
         transform="matrix(1.3333333,0,0,-1.3333333,1519.5326,644.9948)"
         style="display:inline">
        <path
           d="M 0,0 C 2.098,1.292 3.102,3.469 2.244,4.862 1.385,6.256 -1.011,6.338 -3.108,5.045 -5.206,3.753 -6.21,1.576 -5.352,0.183 -4.493,-1.21 -2.097,-1.292 0,0"
           style="fill:#6c59b2;fill-opacity:1;fill-rule:nonzero;stroke:none"
           id="path2808" />
      </g>
      <g
         id="g2810"
         transform="matrix(1.3333333,0,0,-1.3333333,1521.229,651.6072)"
         style="display:inline">
        <path
           d="M 0,0 C 2.338,0.775 3.817,2.662 3.302,4.215 2.787,5.769 0.475,6.4 -1.864,5.625 -4.202,4.85 -5.681,2.963 -5.166,1.41 -4.652,-0.144 -2.339,-0.775 0,0"
           style="fill:#6c59b2;fill-opacity:1;fill-rule:nonzero;stroke:none"
           id="path2812" />
      </g>
      <g
         id="g2814"
         transform="matrix(1.3333333,0,0,-1.3333333,1525.2192,657.92347)"
         style="display:inline">
        <path
           d="M 0,0 C 2.14,1.22 3.219,3.361 2.409,4.783 1.598,6.204 -0.793,6.368 -2.934,5.149 -5.074,3.929 -6.152,1.788 -5.342,0.366 -4.532,-1.056 -2.14,-1.22 0,0"
           style="fill:#6c59b2;fill-opacity:1;fill-rule:nonzero;stroke:none"
           id="path2816" />
      </g>
      <g
         id="g2818"
         transform="matrix(1.3333333,0,0,-1.3333333,1530.9267,663.25987)"
         style="display:inline">
        <path
           d="M 0,0 C 1.638,1.84 1.975,4.214 0.752,5.302 -0.47,6.39 -2.789,5.78 -4.427,3.94 -6.064,2.1 -6.401,-0.274 -5.179,-1.362 -3.957,-2.45 -1.638,-1.84 0,0"
           style="fill:#6c59b2;fill-opacity:1;fill-rule:nonzero;stroke:none"
           id="path2820" />
      </g>
      <g
         id="g2822"
         transform="matrix(1.3333333,0,0,-1.3333333,1537.7054,665.78053)"
         style="display:inline">
        <path
           d="M 0,0 C 1.038,2.234 0.676,4.604 -0.808,5.294 -2.292,5.983 -4.337,4.731 -5.375,2.496 -6.412,0.262 -6.05,-2.108 -4.566,-2.797 -3.082,-3.487 -1.038,-2.234 0,0"
           style="fill:#6c59b2;fill-opacity:1;fill-rule:nonzero;stroke:none"
           id="path2824" />
      </g>
      <g
         id="g2826"
         transform="matrix(1.3333333,0,0,-1.3333333,1517.3751,634.01733)"
         style="display:inline">
        <path
           d="m 0,0 c 1.314,-5.592 3.396,-10.816 6.484,-15.12 11.683,-16.285 30.561,-1.379 38.421,12.11 3.491,5.99 5.867,13.052 4.545,20.094 C 47.42,27.893 38.102,34.322 29.162,37.672 21.269,40.629 6.075,44.994 0.541,35.042 -0.617,32.959 -1.047,30.512 -1.305,28.114 -2.243,19.384 -2.16,9.195 0,0"
           style="fill:#362955;fill-opacity:1;fill-rule:nonzero;stroke:none"
           id="path2828" />
      </g>
      <g
         id="g2830"
         style="display:inline"
         transform="matrix(1.3333333,0,0,-1.3333333,1205.2603,816.37733)">
        <g
           id="g2832" />
        <g
           id="g2844">
          <g
             clip-path="url(#clipPath2836)"
             opacity="0.600006"
             id="g2842">
            <g
               transform="translate(252.2603,117.1075)"
               id="g2840">
              <path
                 d="m 0,0 c -1.41,-0.011 -3.568,0.368 -6.013,3.776 -2.277,3.175 -4.024,7.305 -5.192,12.277 -1.712,7.289 -2.117,16.317 -1.138,25.422 0.084,0.781 0.306,2.854 0.882,3.888 0.334,0.602 1.12,2.016 5.214,2.049 2.443,0.02 6.781,-0.491 13.576,-3.036 5.015,-1.879 13.66,-6.269 15.215,-14.554 C 23.531,24.565 21.136,18.995 18.953,15.248 14.079,6.886 5.577,0.045 0.001,0 Z"
                 style="fill:#231f20;fill-opacity:1;fill-rule:nonzero;stroke:none"
                 id="path2838" />
            </g>
          </g>
        </g>
      </g>
      <g
         id="g2846"
         transform="matrix(1.3333333,0,0,-1.3333333,1520.4291,694.59027)"
         style="display:inline">
        <path
           d="m 0,0 -34.68,-0.279 c -3.476,-0.027 -6.316,2.768 -6.344,6.244 -0.028,3.476 2.767,6.317 6.243,6.345 l 34.68,0.278 C 3.375,12.616 6.216,9.821 6.244,6.345 6.272,2.868 3.476,0.028 0,0"
           style="fill:#fde3cb;fill-opacity:1;fill-rule:nonzero;stroke:none"
           id="path2848" />
      </g>
      <g
         id="g2850"
         transform="matrix(1.3333333,0,0,-1.3333333,1520.422,693.69827)"
         style="display:inline">
        <path
           d="m 0,0 -2.979,-0.024 -0.09,11.251 2.979,0.024 C 3.012,11.275 5.555,8.772 5.58,5.67 5.605,2.569 3.102,0.025 0,0 m -40.351,5.301 c -0.025,3.103 2.479,5.646 5.581,5.671 l 2.985,0.024 0.09,-11.251 -2.985,-0.024 c -3.102,-0.024 -5.646,2.479 -5.671,5.58 m 22.339,-5.446 -12.345,-0.099 -0.09,11.251 12.345,0.099 z m 1.247,11.262 12.358,0.099 0.091,-11.251 -12.358,-0.099 z m 16.664,1.471 -34.68,-0.279 c -3.839,-0.03 -6.938,-3.179 -6.907,-7.018 0.031,-3.84 3.18,-6.938 7.019,-6.907 l 34.68,0.278 c 3.839,0.031 6.938,3.179 6.907,7.019 -0.031,3.839 -3.18,6.938 -7.019,6.907"
           style="fill:#6c59b2;fill-opacity:1;fill-rule:nonzero;stroke:none"
           id="path2852" />
      </g>
      <g
         id="g2854"
         transform="matrix(1.3333333,0,0,-1.3333333,1515.8096,565.9992)"
         style="display:inline">
        <path
           d="m 0,0 c -0.233,-0.002 -0.462,0.117 -0.586,0.332 -0.185,0.319 -0.082,0.725 0.236,0.91 0.063,0.066 0.054,0.044 0.138,0.08 1.843,0.805 3.805,1.477 5.83,2 4.765,1.26 9.634,1.606 14.471,1.032 l 0.198,-0.025 c 0.124,-0.015 0.249,-0.031 0.373,-0.056 0.03,-10e-4 0.059,-0.002 0.075,-0.005 1.036,-0.151 2.117,-0.373 3.162,-0.59 0.729,-0.149 1.465,-0.302 2.203,-0.434 2.975,-0.52 6.087,-0.754 8.783,1.037 2.791,1.836 4.478,5.283 4.202,8.581 -0.309,3.481 -2.697,6.405 -5.807,7.109 -1.668,0.383 -3.563,-0.097 -4.831,-1.229 -0.821,-0.734 -1.747,-2.057 -1.5,-4.2 0.197,-1.676 1.233,-3.156 2.522,-3.602 1.249,-0.426 2.7,0.142 3.444,1.348 0.193,0.314 0.604,0.411 0.92,0.219 0.315,-0.194 0.412,-0.607 0.218,-0.92 -1.068,-1.733 -3.18,-2.532 -5.015,-1.914 -1.788,0.62 -3.16,2.513 -3.417,4.714 -0.244,2.117 0.444,4.018 1.937,5.352 1.606,1.436 3.913,2.022 6.021,1.535 3.666,-0.829 6.48,-4.241 6.84,-8.297 C 40.734,9.202 38.807,5.26 35.621,3.165 32.535,1.116 29.114,1.359 25.881,1.927 25.115,2.062 24.368,2.216 23.627,2.368 22.554,2.59 21.54,2.799 20.542,2.945 20.334,2.977 20.23,2.988 20.126,3 L 19.911,3.028 C 15.264,3.58 10.562,3.245 5.956,2.028 4.016,1.527 2.141,0.886 0.379,0.119 0.361,0.109 0.345,0.098 0.332,0.09 0.228,0.031 0.114,0.001 0,0"
           style="fill:#da66a1;fill-opacity:1;fill-rule:nonzero;stroke:none"
           id="path2856" />
      </g>
      <g
         id="g2858"
         transform="matrix(1.3333333,0,0,-1.3333333,1581.5608,581.6512)"
         style="display:inline">
        <path
           d="m 0,0 c -0.402,-0.003 -0.826,0.034 -1.271,0.111 -3.791,0.644 -6.816,3.408 -9.741,6.082 -1.094,1.001 -2.226,2.036 -3.37,2.929 -2.654,2.077 -5.712,3.611 -9.088,4.559 -0.294,0.071 -0.52,0.332 -0.522,0.644 -0.004,0.432 0.449,0.762 0.862,0.65 3.553,-0.996 6.774,-2.611 9.572,-4.799 1.184,-0.925 2.336,-1.978 3.449,-2.996 2.91,-2.659 5.658,-5.173 9.065,-5.75 C -0.045,1.255 0.792,1.33 1.449,1.647 2.229,2.02 2.781,2.782 2.859,3.59 2.945,4.4 2.471,5.266 1.901,5.349 1.699,5.381 1.451,5.263 1.261,5.038 1.024,4.76 0.932,4.395 1.026,4.109 1.142,3.757 0.95,3.379 0.599,3.264 0.246,3.154 -0.129,3.34 -0.245,3.691 -0.485,4.422 -0.298,5.27 0.242,5.905 0.739,6.49 1.431,6.779 2.101,6.671 3.374,6.488 4.353,4.984 4.19,3.455 4.068,2.197 3.22,1.012 2.029,0.442 1.435,0.154 0.755,0.006 0,0"
           style="fill:#da66a1;fill-opacity:1;fill-rule:nonzero;stroke:none"
           id="path2860" />
      </g>
      <g
         id="g2862"
         transform="matrix(1.3333333,0,0,-1.3333333,1496.4874,592.31414)"
         style="display:inline">
        <path
           d="m 0,0 c -0.038,0 -0.078,0.002 -0.117,0.01 -0.364,0.061 -0.61,0.406 -0.548,0.77 1.487,8.824 7.025,16.374 14.817,20.205 0.032,0.024 0.068,0.045 0.104,0.062 1.907,0.921 3.887,1.6 5.883,2.018 0.137,0.041 0.303,0.076 0.47,0.109 0.363,0.069 0.714,-0.164 0.786,-0.526 0.072,-0.362 -0.162,-0.714 -0.525,-0.786 -0.134,-0.027 -0.267,-0.055 -0.413,-0.095 -1.919,-0.403 -3.78,-1.041 -5.576,-1.904 C 14.859,19.849 14.84,19.836 14.824,19.826 7.35,16.164 2.072,8.97 0.653,0.558 0.599,0.233 0.319,0.003 0,0"
           style="fill:#da66a1;fill-opacity:1;fill-rule:nonzero;stroke:none"
           id="path2864" />
      </g>
      <g
         id="g2866"
         transform="matrix(1.3333333,0,0,-1.3333333,1476.7382,566.3164)"
         style="display:inline">
        <path
           d="M 0,0 C -0.108,-0.001 -0.218,0.026 -0.321,0.082 L 0.007,0.666 -0.32,0.093 C -0.322,0.094 -0.323,0.094 -0.325,0.095 L -0.33,0.087 c -0.013,0.008 -0.029,0.018 -0.047,0.029 -1.775,0.738 -3.659,1.35 -5.602,1.818 -4.629,1.143 -9.337,1.403 -13.994,0.774 l -0.195,-0.029 c -0.103,-0.014 -0.207,-0.026 -0.31,-0.052 -0.05,-0.012 -0.101,-0.018 -0.152,-0.018 -0.948,-0.154 -1.959,-0.379 -3.028,-0.618 -0.738,-0.164 -1.483,-0.33 -2.231,-0.476 -0.04,-0.008 -0.095,-0.012 -0.136,-0.013 -3.105,-0.609 -6.52,-0.906 -9.641,1.094 -3.216,2.042 -5.206,5.953 -4.951,9.73 0.296,4.063 3.055,7.521 6.71,8.409 2.095,0.522 4.413,-0.03 6.041,-1.438 1.515,-1.31 2.234,-3.2 2.023,-5.32 -0.222,-2.205 -1.563,-4.121 -3.336,-4.767 -1.833,-0.652 -3.954,0.117 -5.05,1.831 -0.199,0.311 -0.108,0.724 0.203,0.924 0.312,0.198 0.726,0.107 0.924,-0.204 0.763,-1.193 2.224,-1.742 3.469,-1.292 1.278,0.465 2.29,1.962 2.46,3.641 0.212,2.147 -0.735,3.454 -1.568,4.175 -1.285,1.111 -3.189,1.567 -4.847,1.151 -3.101,-0.754 -5.441,-3.715 -5.694,-7.204 -0.224,-3.298 1.519,-6.719 4.336,-8.508 2.728,-1.748 5.835,-1.466 8.789,-0.896 0.04,0.007 0.094,0.011 0.135,0.012 0.613,0.131 1.346,0.295 2.073,0.457 1.041,0.233 2.118,0.473 3.152,0.64 0.016,0.003 0.046,0.004 0.075,0.006 0.124,0.027 0.248,0.045 0.372,0.062 l 0.178,0.026 c 4.845,0.654 9.721,0.385 14.51,-0.798 2.028,-0.489 4,-1.13 5.857,-1.906 C 0.246,1.306 0.295,1.279 0.339,1.245 0.635,1.053 0.748,0.654 0.572,0.344 0.449,0.128 0.229,0.002 0,0"
           style="fill:#da66a1;fill-opacity:1;fill-rule:nonzero;stroke:none"
           id="path2868" />
      </g>
      <g
         id="g2870"
         transform="matrix(1.3333333,0,0,-1.3333333,1411.2536,583.01894)"
         style="display:inline">
        <path
           d="M 0,0 C -0.756,-0.006 -1.439,0.132 -2.04,0.412 -3.237,0.96 -4.104,2.132 -4.246,3.395 -4.433,4.914 -3.478,6.433 -2.201,6.638 -1.541,6.753 -0.845,6.476 -0.338,5.9 0.212,5.274 0.413,4.429 0.184,3.694 0.074,3.342 -0.299,3.15 -0.653,3.254 -1.005,3.363 -1.203,3.738 -1.093,4.092 -1.004,4.38 -1.102,4.743 -1.343,5.017 -1.538,5.238 -1.785,5.356 -1.98,5.319 -2.556,5.225 -3.016,4.35 -2.919,3.551 -2.827,2.738 -2.263,1.984 -1.48,1.626 -0.815,1.315 0.023,1.254 1.017,1.446 c 3.4,0.633 6.107,3.19 8.974,5.896 1.097,1.035 2.231,2.106 3.401,3.051 2.762,2.232 5.956,3.899 9.494,4.951 0.414,0.12 0.869,-0.203 0.872,-0.636 C 23.761,14.37 23.522,14.087 23.197,14.042 19.856,13.038 16.84,11.46 14.232,9.352 13.103,8.441 11.988,7.388 10.909,6.369 8.027,3.649 5.048,0.836 1.265,0.132 0.824,0.047 0.402,0.003 0,0"
           style="fill:#da66a1;fill-opacity:1;fill-rule:nonzero;stroke:none"
           id="path2872" />
      </g>
      <g
         id="g2874"
         transform="matrix(1.3333333,0,0,-1.3333333,1496.4856,592.31414)"
         style="display:inline">
        <path
           d="m 0,0 c -0.319,-0.003 -0.603,0.224 -0.662,0.547 -1.553,8.388 -6.946,15.495 -14.427,19.012 -0.028,0.014 -0.066,0.036 -0.105,0.06 -1.811,0.836 -3.683,1.443 -5.566,1.807 -0.189,0.048 -0.324,0.073 -0.458,0.098 -0.364,0.066 -0.605,0.414 -0.538,0.778 0.066,0.362 0.413,0.601 0.778,0.538 0.167,-0.03 0.333,-0.063 0.515,-0.111 1.96,-0.376 3.95,-1.024 5.871,-1.913 0.036,-0.017 0.072,-0.038 0.104,-0.061 C -6.643,17.061 -0.976,9.596 0.653,0.79 0.72,0.428 0.48,0.078 0.117,0.012 0.078,0.003 0.038,0 0,0"
           style="fill:#da66a1;fill-opacity:1;fill-rule:nonzero;stroke:none"
           id="path2876" />
      </g>
      <g
         id="g2878"
         transform="matrix(1.3333333,0,0,-1.3333333,1524.7747,541.2724)"
         style="display:inline">
        <path
           d="m 0,0 c -0.833,-0.007 -1.628,0.097 -2.3,0.278 -2.862,0.775 -4.838,3.003 -5.286,5.961 -0.494,3.26 0.942,6.48 3.657,8.201 4.388,2.783 10.628,2.144 14.635,0.754 4.912,-1.703 9.234,-4.829 12.171,-8.803 0.22,-0.297 0.158,-0.716 -0.14,-0.935 C 22.44,5.235 22.021,5.299 21.802,5.596 19.023,9.355 14.927,12.315 10.268,13.931 6.54,15.225 0.772,15.838 -3.214,13.31 -5.446,11.895 -6.671,9.135 -6.263,6.439 -5.892,3.985 -4.32,2.211 -1.951,1.569 -0.327,1.129 2.189,1.286 3.655,2.439 4.433,3.053 4.813,3.874 4.785,4.882 4.738,6.53 3.259,8.086 1.555,8.277 0.483,8.39 -0.578,8.007 -1.168,7.282 -1.401,6.993 -1.821,6.952 -2.109,7.186 -2.396,7.419 -2.438,7.84 -2.205,8.125 -1.321,9.212 0.174,9.777 1.704,9.605 4.074,9.34 6.057,7.238 6.122,4.919 6.162,3.486 5.596,2.266 4.482,1.389 3.237,0.408 1.554,0.012 0,0"
           style="fill:#da66a1;fill-opacity:1;fill-rule:nonzero;stroke:none"
           id="path2880" />
      </g>
      <g
         id="g2882"
         transform="matrix(1.3333333,0,0,-1.3333333,1467.3822,541.73334)"
         style="display:inline">
        <path
           d="M 0,0 C -1.554,-0.012 -3.243,0.355 -4.504,1.317 -5.631,2.175 -6.217,3.387 -6.2,4.82 -6.172,7.139 -4.224,9.273 -1.857,9.577 -0.338,9.78 1.173,9.232 2.075,8.161 2.313,7.878 2.277,7.456 1.994,7.219 1.71,6.981 1.29,7.018 1.052,7.299 0.45,8.015 -0.625,8.38 -1.687,8.251 -3.388,8.032 -4.842,6.453 -4.862,4.805 -4.875,3.796 -4.481,2.982 -3.693,2.38 -2.211,1.251 0.308,1.132 1.926,1.6 4.284,2.28 5.827,4.079 6.159,6.539 6.524,9.241 5.254,11.981 3,13.36 c -4.027,2.462 -9.784,1.756 -13.49,0.405 -4.633,-1.691 -8.681,-4.716 -11.399,-8.52 -0.215,-0.299 -0.633,-0.369 -0.933,-0.155 -0.301,0.215 -0.37,0.632 -0.155,0.933 2.874,4.02 7.146,7.215 12.029,8.997 3.985,1.456 10.213,2.193 14.645,-0.518 C 6.439,12.824 7.926,9.628 7.485,6.36 7.085,3.396 5.145,1.136 2.295,0.315 1.627,0.123 0.833,0.007 0,0"
           style="fill:#da66a1;fill-opacity:1;fill-rule:nonzero;stroke:none"
           id="path2884" />
      </g>
      <g
         id="g2886"
         transform="matrix(1.3333333,0,0,-1.3333333,1580.9451,665.1424)"
         style="display:inline">
        <path
           d="m 0,0 c -0.354,-0.003 -0.716,0.054 -1.072,0.173 -0.916,0.305 -1.618,0.955 -1.926,1.783 -0.748,2.008 0.663,3.869 2.044,5.456 4.911,5.646 8.369,12.489 9.998,19.794 0.081,0.36 0.442,0.583 0.799,0.507 0.36,-0.081 0.587,-0.439 0.507,-0.8 C 8.672,19.394 5.111,12.347 0.055,6.534 -1.074,5.237 -2.236,3.743 -1.745,2.423 -1.581,1.982 -1.172,1.616 -0.651,1.442 -0.129,1.269 0.419,1.316 0.812,1.573 1.209,1.827 1.479,2.304 1.537,2.849 1.596,3.396 1.432,3.921 1.099,4.254 0.838,4.514 0.837,4.938 1.098,5.2 1.359,5.459 1.782,5.463 2.044,5.2 2.67,4.575 2.97,3.667 2.868,2.707 2.765,1.749 2.28,0.926 1.536,0.447 1.083,0.155 0.553,0.004 0,0"
           style="fill:#da66a1;fill-opacity:1;fill-rule:nonzero;stroke:none"
           id="path2888" />
      </g>
      <g
         id="g2890"
         transform="matrix(1.3333333,0,0,-1.3333333,1508.1652,713.12427)"
         style="display:inline">
        <path
           d="M 0,0 C -2.219,-0.018 -4.062,0.878 -4.951,2.416 -5.655,3.634 -5.62,5.048 -4.853,6.295 -3.912,7.827 -2.337,8.617 -0.742,8.34 0.051,8.205 0.787,7.687 1.228,6.952 1.634,6.275 1.735,5.492 1.505,4.807 1.24,4.012 0.513,3.413 -0.393,3.244 -1.245,3.09 -2.038,3.347 -2.532,3.942 -2.768,4.226 -2.729,4.648 -2.445,4.884 -2.162,5.12 -1.738,5.08 -1.503,4.796 -1.323,4.581 -1.005,4.493 -0.639,4.559 -0.217,4.638 0.127,4.902 0.237,5.231 0.343,5.546 0.285,5.923 0.08,6.265 -0.158,6.662 -0.559,6.953 -0.966,7.021 -1.789,7.162 -2.937,6.859 -3.714,5.594 -4.221,4.766 -4.25,3.875 -3.793,3.085 -3.142,1.959 -1.674,1.257 0.128,1.34 4.999,1.476 10.037,4.293 13.948,9.073 14.18,9.357 14.603,9.399 14.889,9.167 15.175,8.933 15.217,8.511 14.983,8.224 10.826,3.146 5.424,0.149 0.165,0.003 0.11,0.001 0.055,0 0,0"
           style="fill:#da66a1;fill-opacity:1;fill-rule:nonzero;stroke:none"
           id="path2892" />
      </g>
      <g
         id="g2894"
         transform="matrix(1.3333333,0,0,-1.3333333,1413.2092,666.48947)"
         style="display:inline">
        <path
           d="m 0,0 c -0.553,-0.004 -1.086,0.138 -1.545,0.423 -0.75,0.466 -1.249,1.281 -1.366,2.239 -0.119,0.957 0.168,1.87 0.784,2.505 0.257,0.265 0.682,0.271 0.946,0.013 C -0.916,4.924 -0.91,4.5 -1.167,4.235 -1.495,3.898 -1.651,3.37 -1.584,2.824 -1.517,2.28 -1.238,1.807 -0.839,1.559 c 0.4,-0.25 0.947,-0.287 1.466,-0.107 0.518,0.182 0.921,0.555 1.079,0.999 0.47,1.327 -0.717,2.803 -1.866,4.082 -5.149,5.729 -8.822,12.718 -10.622,20.211 -0.085,0.359 0.136,0.72 0.495,0.807 0.36,0.081 0.72,-0.135 0.807,-0.494 C -7.733,19.78 -4.166,12.991 0.835,7.426 2.241,5.862 3.681,4.023 2.966,2.004 2.671,1.171 1.979,0.51 1.069,0.19 0.715,0.066 0.353,0.003 0,0"
           style="fill:#da66a1;fill-opacity:1;fill-rule:nonzero;stroke:none"
           id="path2896" />
      </g>
      <g
         id="g2898"
         transform="matrix(1.3333333,0,0,-1.3333333,1486.7494,713.29627)"
         style="display:inline">
        <path
           d="m 0,0 c -0.055,-0.001 -0.11,-0.001 -0.166,0 -5.26,0.062 -10.708,2.972 -14.947,7.982 -0.238,0.283 -0.203,0.706 0.079,0.944 0.282,0.239 0.705,0.203 0.943,-0.078 C -10.104,4.132 -5.022,1.395 -0.15,1.338 1.63,1.331 3.11,2.009 3.743,3.145 4.187,3.943 4.145,4.834 3.624,5.654 2.826,6.905 1.67,7.19 0.853,7.036 0.447,6.961 0.051,6.664 -0.181,6.263 -0.381,5.918 -0.432,5.54 -0.322,5.226 -0.206,4.899 0.142,4.641 0.566,4.569 0.931,4.511 1.249,4.603 1.426,4.82 1.656,5.108 2.077,5.154 2.366,4.923 2.654,4.691 2.7,4.27 2.468,3.982 1.984,3.38 1.193,3.108 0.341,3.25 -0.567,3.405 -1.304,3.992 -1.583,4.783 -1.823,5.464 -1.734,6.248 -1.339,6.932 -0.911,7.673 -0.183,8.203 0.608,8.35 2.196,8.65 3.785,7.889 4.752,6.372 5.538,5.138 5.596,3.725 4.912,2.495 4.048,0.943 2.219,0.018 0,0"
           style="fill:#da66a1;fill-opacity:1;fill-rule:nonzero;stroke:none"
           id="path2900" />
      </g>
      <g
         id="g2902"
         transform="matrix(1.3333333,0,0,-1.3333333,1523.8282,550.87534)"
         style="display:inline">
        <path
           d="m 0,0 c 0.008,-0.99 -0.402,-1.916 -0.923,-2.465 -0.508,-0.548 -1.115,-0.799 -1.709,-1.035 -2.748,-1.076 -5.532,-1.914 -8.204,-3.464 -1.627,-0.946 -3.228,-2.17 -4.658,-3.791 1.714,3.445 3.657,6.645 5.916,9.102 1.206,1.317 2.497,2.429 3.863,3.187 1.235,0.691 3.02,1.345 4.288,0.914 C -0.698,2.203 -0.01,1.244 0,0"
           style="fill:#feaa7c;fill-opacity:1;fill-rule:nonzero;stroke:none"
           id="path2904" />
      </g>
      <g
         id="g2906"
         transform="matrix(1.3333333,0,0,-1.3333333,1535.795,547.63267)"
         style="display:inline">
        <path
           d="m 0,0 c 0.011,-1.39 -1.107,-2.527 -2.497,-2.538 -1.391,-0.011 -2.527,1.107 -2.538,2.498 -0.012,1.39 1.107,2.526 2.497,2.537 C -1.147,2.509 -0.011,1.391 0,0"
           style="fill:#6c59b2;fill-opacity:1;fill-rule:nonzero;stroke:none"
           id="path2908" />
      </g>
      <g
         id="g2910"
         transform="matrix(1.3333333,0,0,-1.3333333,1545.5247,547.55454)"
         style="display:inline">
        <path
           d="m 0,0 c 0.007,-0.832 -0.662,-1.511 -1.494,-1.518 -0.832,-0.007 -1.511,0.662 -1.518,1.494 -0.006,0.832 0.662,1.511 1.494,1.518 C -0.686,1.501 -0.007,0.832 0,0"
           style="fill:#feaa7c;fill-opacity:1;fill-rule:nonzero;stroke:none"
           id="path2912" />
      </g>
      <g
         id="g2914"
         transform="matrix(1.3333333,0,0,-1.3333333,1468.4831,551.31974)"
         style="display:inline">
        <path
           d="m 0,0 c 0.008,-0.99 0.433,-1.909 0.962,-2.45 0.517,-0.54 1.128,-0.781 1.726,-1.007 2.764,-1.032 5.562,-1.825 8.258,-3.332 1.642,-0.919 3.262,-2.118 4.719,-3.716 -1.769,3.417 -3.763,6.586 -6.061,9.006 C 8.376,-0.201 7.067,0.889 5.689,1.625 4.443,2.296 2.649,2.922 1.388,2.471 0.662,2.214 -0.01,1.244 0,0"
           style="fill:#feaa7c;fill-opacity:1;fill-rule:nonzero;stroke:none"
           id="path2916" />
      </g>
      <g
         id="g2918"
         transform="matrix(1.3333333,0,0,-1.3333333,1456.4658,548.26974)"
         style="display:inline">
        <path
           d="M 0,0 C 0.011,-1.391 1.147,-2.508 2.538,-2.497 3.928,-2.486 5.046,-1.35 5.035,0.04 5.024,1.431 3.888,2.549 2.497,2.538 1.107,2.527 -0.011,1.391 0,0"
           style="fill:#6c59b2;fill-opacity:1;fill-rule:nonzero;stroke:none"
           id="path2920" />
      </g>
      <g
         id="g2922"
         transform="matrix(1.3333333,0,0,-1.3333333,1446.7359,548.34787)"
         style="display:inline">
        <path
           d="M 0,0 C 0.007,-0.832 0.686,-1.5 1.518,-1.494 2.35,-1.487 3.019,-0.807 3.012,0.024 3.005,0.856 2.326,1.525 1.494,1.518 0.662,1.511 -0.007,0.832 0,0"
           style="fill:#feaa7c;fill-opacity:1;fill-rule:nonzero;stroke:none"
           id="path2924" />
      </g>
      <g
         id="g2926"
         transform="matrix(1.3333333,0,0,-1.3333333,1512.1928,520.84907)"
         style="display:inline">
        <path
           d="m 0,0 c 0.01,-1.239 -0.986,-2.252 -2.225,-2.261 -1.24,-0.01 -2.252,0.986 -2.262,2.225 -0.01,1.239 0.986,2.252 2.225,2.262 C -1.022,2.236 -0.01,1.239 0,0"
           style="fill:#6c59b2;fill-opacity:1;fill-rule:nonzero;stroke:none"
           id="path2928" />
      </g>
      <g
         id="g2930"
         transform="matrix(1.3333333,0,0,-1.3333333,1485.6174,521.0624)"
         style="display:inline">
        <path
           d="m 0,0 c 0.01,-1.239 -0.986,-2.252 -2.225,-2.262 -1.24,-0.009 -2.252,0.987 -2.262,2.226 -0.01,1.239 0.986,2.251 2.226,2.261 C -1.022,2.235 -0.01,1.239 0,0"
           style="fill:#6c59b2;fill-opacity:1;fill-rule:nonzero;stroke:none"
           id="path2932" />
      </g>
      <g
         id="g2934"
         transform="matrix(1.3333333,0,0,-1.3333333,1575.3608,669.42067)"
         style="display:inline">
        <path
           d="m 0,0 c 0.01,-1.239 -0.986,-2.252 -2.226,-2.262 -1.239,-0.009 -2.251,0.987 -2.261,2.226 -0.01,1.239 0.986,2.252 2.225,2.262 C -1.022,2.236 -0.01,1.239 0,0"
           style="fill:#feaa7c;fill-opacity:1;fill-rule:nonzero;stroke:none"
           id="path2936" />
      </g>
      <g
         id="g2938"
         transform="matrix(1.3333333,0,0,-1.3333333,1424.8435,670.62933)"
         style="display:inline">
        <path
           d="m 0,0 c 0.01,-1.239 -0.986,-2.252 -2.225,-2.262 -1.239,-0.009 -2.252,0.987 -2.262,2.226 -0.01,1.239 0.986,2.251 2.226,2.261 C -1.022,2.235 -0.01,1.239 0,0"
           style="fill:#feaa7c;fill-opacity:1;fill-rule:nonzero;stroke:none"
           id="path2940" />
      </g>
      <g
         id="g2942"
         transform="matrix(1.3333333,0,0,-1.3333333,1496.2932,553.0936)"
         style="display:inline">
        <path
           d="m 0,0 c -8.925,5.292 -16.45,24.72 -4.005,13.986 0.056,4.695 0.986,9.489 3.816,9.511 2.54,0.021 3.837,-4.755 3.969,-9.449 C 16.051,24.981 8.148,5.429 0,0"
           style="fill:#da66a1;fill-opacity:1;fill-rule:nonzero;stroke:none"
           id="path2944" />
      </g>
      <g
         id="g2946"
         transform="matrix(1.3333333,0,0,-1.3333333,1499.6978,570.87134)"
         style="display:inline">
        <path
           d="m 0,0 c 0.011,-1.401 -1.116,-2.547 -2.517,-2.558 -1.401,-0.011 -2.546,1.116 -2.558,2.517 -0.011,1.402 1.116,2.547 2.517,2.558 C -1.156,2.528 -0.011,1.401 0,0"
           style="fill:#6c59b2;fill-opacity:1;fill-rule:nonzero;stroke:none"
           id="path2948" />
      </g>
      <g
         id="g2950"
         transform="matrix(1.3333333,0,0,-1.3333333,1498.1435,560.26174)"
         style="display:inline">
        <path
           d="M 0,0 C 0.006,-0.793 -0.631,-1.441 -1.424,-1.447 -2.217,-1.454 -2.865,-0.816 -2.871,-0.023 -2.878,0.77 -2.24,1.418 -1.447,1.424 -0.654,1.43 -0.006,0.793 0,0"
           style="fill:#6c59b2;fill-opacity:1;fill-rule:nonzero;stroke:none"
           id="path2952" />
      </g>
      <g
         id="g2954"
         transform="matrix(1.3333333,0,0,-1.3333333,1497.0904,646.98653)"
         style="display:inline">
        <path
           d="m 0,0 c -2.024,-0.101 -3.663,1.735 -4.154,3.966 -0.32,1.455 -0.192,3.048 0.002,4.513 0.252,1.892 0.674,3.748 1.097,5.594 0.498,2.173 1.014,4.341 1.451,6.534 0.476,2.397 0.861,4.823 1.066,7.277 0.023,0.28 0.367,0.283 0.395,0.003 C 0.09,25.553 0.485,23.244 0.968,20.965 1.43,18.783 1.975,16.627 2.509,14.469 2.966,12.624 3.425,10.771 3.729,8.881 4.121,6.447 4.289,3.771 2.896,1.729 2.163,0.655 1.097,0.055 0,0"
           style="fill:#da66a1;fill-opacity:1;fill-rule:nonzero;stroke:none"
           id="path2956" />
      </g>
    </g>
    <g
       inkscape:groupmode="layer"
       id="layer4"
       inkscape:label="Flores_inferior"
       style="display:inline">
      <g
         id="g3032"
         transform="matrix(0.35277777,0,0,-0.35277777,25.258935,134.41925)"
         style="display:inline">
        <path
           d="m 0,0 c -5.912,7.967 -8.397,17.003 -10.008,26.493 -0.019,0.045 -0.022,0.089 -0.034,0.13 -0.159,0.915 -0.305,1.841 -0.45,2.766 -0.003,0.01 0,0.017 -0.003,0.027 -0.014,0.102 -0.033,0.197 -0.037,0.303 -0.003,0.01 -0.003,0.027 -0.002,0.044 -0.098,1.405 0.644,2.745 1.894,3.439 0.014,0.009 0.024,0.013 0.038,0.022 1.355,0.733 2.734,1.461 4.12,2.169 0.054,0.022 0.106,0.055 0.161,0.078 0.555,0.289 1.124,0.571 1.69,0.846 0.675,0.338 1.354,0.665 2.036,0.982 1.137,0.53 2.298,1.04 3.471,1.525 5.835,2.445 11.933,4.22 18.189,4.462 C 41.45,44.411 40.469,29.87 26.963,25.025 52.472,16.285 43.441,-4.536 18.448,7.24 28.725,-13.181 8.539,-12.972 0,0"
           style="fill:#feaa7c;fill-opacity:1;fill-rule:nonzero;stroke:none"
           id="path3034" />
      </g>
      <g
         id="g3036"
         transform="matrix(0.35277777,0,0,-0.35277777,25.789795,133.09418)"
         style="display:inline">
        <path
           d="m 0,0 c -3.269,2.507 -5.818,5.843 -7.551,9.587 -1.351,2.908 -2.329,6.022 -3.081,9.188 -0.574,2.386 -1.021,4.799 -1.405,7.187 -0.003,0.011 -0.003,0.028 -0.002,0.045 -0.098,1.405 0.644,2.745 1.894,3.438 0.014,0.01 0.024,0.013 0.038,0.023 1.355,0.733 2.734,1.461 4.12,2.169 0.055,0.022 0.106,0.055 0.161,0.078 0.556,0.289 1.125,0.571 1.69,0.846 0.676,0.338 1.354,0.665 2.036,0.982 1.137,0.53 2.298,1.04 3.471,1.525 3.123,1.076 6.346,1.789 9.667,1.878 C 25.37,37.095 29.676,29.137 15.784,22.669 29.992,16.678 29.774,4.409 11.821,9.216 16.818,-4.636 8.408,-6.44 0,0"
           style="fill:#fde3cb;fill-opacity:1;fill-rule:nonzero;stroke:none"
           id="path3038" />
      </g>
      <g
         id="g3040"
         transform="matrix(0.35277777,0,0,-0.35277777,22.714384,128.23678)"
         style="display:inline">
        <path
           d="m 0,0 c -1.005,1.423 -1.432,3.243 -1.915,5.006 -0.36,1.313 -0.649,2.648 -0.88,3.962 -0.019,0.045 -0.022,0.089 -0.034,0.13 -0.16,0.915 -0.305,1.84 -0.45,2.766 -0.003,0.01 0,0.017 -0.003,0.027 -0.015,0.102 -0.033,0.197 -0.037,0.302 -0.003,0.011 -0.003,0.028 -0.003,0.045 -0.097,1.405 0.645,2.745 1.895,3.438 0.013,0.01 0.024,0.013 0.037,0.023 1.356,0.733 2.735,1.461 4.121,2.169 0.054,0.022 0.106,0.055 0.161,0.078 3.442,1.729 7.237,2.698 11.081,2.706 C 26.167,20.68 25.945,11.858 13.451,10.111 29.698,3.292 22.276,-3.44 9.608,2.628 16.477,-10.747 8.207,-11.605 0,0"
           style="fill:#da66a1;fill-opacity:1;fill-rule:nonzero;stroke:none"
           id="path3042" />
      </g>
      <g
         id="g3088"
         transform="matrix(0.35277777,0,0,-0.35277777,152.4711,125.89042)"
         style="display:inline">
        <path
           d="m 0,0 c -5.408,-4.929 -10.928,-9.976 -17.535,-12.467 -6.608,-2.489 -14.608,-2.032 -20.453,3.295 2.907,7.434 9.873,11.519 16.86,12.307 C -14.118,3.92 -6.976,1.951 0,0"
           style="fill:#6c59b2;fill-opacity:1;fill-rule:nonzero;stroke:none"
           id="path3090" />
      </g>
      <g
         id="g3092"
         transform="matrix(0.35277777,0,0,-0.35277777,141.65549,129.36067)"
         style="display:inline">
        <path
           d="M 0,0 C -1.604,0 -3.683,0.251 -5.794,1.208 -2.99,4.706 1.269,6.396 4.844,6.8 5.699,6.895 6.603,6.944 7.527,6.944 9.825,6.944 12.187,6.649 14.57,6.189 11.823,4.04 9.035,2.252 6.046,1.126 4.091,0.389 2.001,0 0,0"
           style="fill:#feaa7c;fill-opacity:1;fill-rule:nonzero;stroke:none"
           id="path3094" />
      </g>
      <g
         id="g3096"
         transform="matrix(0.35277777,0,0,-0.35277777,144.92889,141.60572)"
         style="display:inline">
        <path
           d="m 0,0 c -5.914,4.309 -11.966,8.704 -15.732,14.677 -3.765,5.973 -4.922,13.903 -0.877,20.698 7.867,-1.356 13.267,-7.361 15.44,-14.047 C 1.007,14.618 0.512,7.226 0,0"
           style="fill:#6c59b2;fill-opacity:1;fill-rule:nonzero;stroke:none"
           id="path3098" />
      </g>
      <g
         id="g3100"
         transform="matrix(0.35277777,0,0,-0.35277777,142.23006,136.1322)"
         style="display:inline">
        <path
           d="m 0,0 c -2.649,2.254 -4.965,4.63 -6.671,7.337 -2.373,3.765 -3.152,7.891 -2.296,11.616 3.989,-2.045 6.501,-5.879 7.613,-9.3 C -0.383,6.657 -0.039,3.381 0,0"
           style="fill:#feaa7c;fill-opacity:1;fill-rule:nonzero;stroke:none"
           id="path3102" />
      </g>
      <g
         id="g3104"
         transform="matrix(0.35277777,0,0,-0.35277777,128.01982,137.37045)"
         style="display:inline">
        <path
           d="m 0,0 c 3.035,6.658 6.125,13.469 11.221,18.357 5.097,4.887 12.633,7.612 20.102,5.012 C 31.572,15.39 26.773,8.896 20.659,5.425 14.522,1.946 7.181,0.948 0,0"
           style="fill:#6c59b2;fill-opacity:1;fill-rule:nonzero;stroke:none"
           id="path3106" />
      </g>
      <g
         id="g3108"
         transform="matrix(0.35277777,0,0,-0.35277777,132.60195,133.96188)"
         style="display:inline">
        <path
           d="m 0,0 c 1.676,3.047 3.54,5.793 5.849,8.008 3.039,2.914 6.915,4.584 10.636,4.584 0.094,0 0.189,-0.001 0.284,-0.002 C 15.566,8.27 12.314,5.04 9.186,3.263 6.446,1.711 3.305,0.718 0,0"
           style="fill:#feaa7c;fill-opacity:1;fill-rule:nonzero;stroke:none"
           id="path3110" />
      </g>
      <g
         id="g3112"
         transform="matrix(0.35277777,0,0,-0.35277777,127.27515,121.98793)"
         style="display:inline">
        <path
           d="m 0,0 c 7.311,-0.308 14.784,-0.61 21.229,-3.494 6.445,-2.884 11.804,-8.842 12.204,-16.74 -7.299,-3.233 -15.122,-1.229 -20.637,3.131 C 7.265,-12.724 3.579,-6.298 0,0"
           style="fill:#6c59b2;fill-opacity:1;fill-rule:nonzero;stroke:none"
           id="path3114" />
      </g>
      <g
         id="g3116"
         transform="matrix(0.35277777,0,0,-0.35277777,137.96244,128.83344)"
         style="display:inline">
        <path
           d="m 0,0 c -3.446,0 -6.969,1.285 -9.92,3.618 -2.468,1.953 -4.569,4.489 -6.477,7.281 3.465,-0.408 6.703,-1.101 9.618,-2.406 C -2.714,6.674 0.223,3.67 1.573,0.092 1.053,0.031 0.529,0 0,0"
           style="fill:#feaa7c;fill-opacity:1;fill-rule:nonzero;stroke:none"
           id="path3118" />
      </g>
      <g
         id="g3120"
         transform="matrix(0.35277777,0,0,-0.35277777,141.80649,115.61408)"
         style="display:inline">
        <path
           d="m 0,0 c 2.178,-6.985 4.418,-14.122 3.879,-21.162 -0.539,-7.041 -4.338,-14.097 -11.637,-17.14 -5.507,5.779 -6.262,13.819 -4.02,20.483 C -9.524,-11.135 -4.719,-5.496 0,0"
           style="fill:#6c59b2;fill-opacity:1;fill-rule:nonzero;stroke:none"
           id="path3122" />
      </g>
      <g
         id="g3124"
         transform="matrix(0.35277777,0,0,-0.35277777,139.22476,128.4754)"
         style="display:inline">
        <path
           d="M 0,0 C -1.983,4.02 -1.713,8.595 -0.567,12.004 0.44,14.988 2.117,17.822 4.101,20.561 4.886,17.162 5.327,13.88 5.083,10.694 4.744,6.256 2.909,2.48 0,0"
           style="fill:#feaa7c;fill-opacity:1;fill-rule:nonzero;stroke:none"
           id="path3126" />
      </g>
      <g
         id="g3128"
         transform="matrix(0.35277777,0,0,-0.35277777,141.52542,129.09068)"
         style="display:inline">
        <path
           d="m 0,0 c 0,-3.845 -3.117,-6.961 -6.961,-6.961 -3.845,0 -6.961,3.116 -6.961,6.961 0,3.845 3.116,6.961 6.961,6.961 C -3.117,6.961 0,3.845 0,0"
           style="fill:#fde3cb;fill-opacity:1;fill-rule:nonzero;stroke:none"
           id="path3130" />
      </g>
      <g
         id="g3132"
         transform="matrix(0.35277777,0,0,-0.35277777,140.63568,129.09068)"
         style="display:inline">
        <path
           d="m 0,0 c 0,-2.452 -1.987,-4.439 -4.439,-4.439 -2.452,0 -4.439,1.987 -4.439,4.439 0,2.452 1.987,4.439 4.439,4.439 C -1.987,4.439 0,2.452 0,0"
           style="fill:#da66a1;fill-opacity:1;fill-rule:nonzero;stroke:none"
           id="path3134" />
      </g>
    </g>
  </g>
</svg>
