<?xml version="1.0" encoding="UTF-8" standalone="no"?>
<!-- Created with Inkscape (http://www.inkscape.org/) -->

<svg
   width="21.052288mm"
   height="20.142447mm"
   viewBox="0 0 21.052288 20.142446"
   version="1.1"
   id="svg13359"
   inkscape:export-filename="flores_superiores.svg"
   inkscape:export-xdpi="96"
   inkscape:export-ydpi="96"
   xmlns:inkscape="http://www.inkscape.org/namespaces/inkscape"
   xmlns:sodipodi="http://sodipodi.sourceforge.net/DTD/sodipodi-0.dtd"
   xmlns="http://www.w3.org/2000/svg"
   xmlns:svg="http://www.w3.org/2000/svg">
  <sodipodi:namedview
     id="namedview13361"
     pagecolor="#ffffff"
     bordercolor="#000000"
     borderopacity="0.25"
     inkscape:showpageshadow="2"
     inkscape:pageopacity="0.0"
     inkscape:pagecheckerboard="0"
     inkscape:deskcolor="#d1d1d1"
     inkscape:document-units="mm"
     showgrid="false" />
  <defs
     id="defs13356" />
  <rect
     style="display:none;fill:#4d4d4d;stroke-width:0.169"
     id="rect15103"
     width="153.2359"
     height="263.06366"
     x="-10.675977"
     y="-67.523834" />
  <g
     inkscape:label="Layer 1"
     inkscape:groupmode="layer"
     id="layer1"
     transform="translate(-9.6300094,-67.000845)">
    <g
       inkscape:groupmode="layer"
       id="layer7"
       inkscape:label="Flor_superior_individual"
       style="display:inline">
      <g
         id="g3136"
         transform="matrix(0.35277777,0,0,-0.35277777,21.985945,87.143291)"
         style="display:inline">
        <path
           d="m 0,0 c -3.755,4.55 -7.601,9.194 -9.345,14.612 -1.744,5.419 -1.059,11.843 3.462,16.339 C -0.012,28.316 3.002,22.546 3.36,16.889 3.715,11.213 1.847,5.54 0,0"
           style="fill:#6c59b2;fill-opacity:1;fill-rule:nonzero;stroke:none"
           id="path3138" />
      </g>
      <g
         id="g3140"
         transform="matrix(0.35277777,0,0,-0.35277777,19.619327,78.297177)"
         style="display:inline">
        <path
           d="M 0,0 C 0.063,1.291 0.348,2.956 1.202,4.618 3.907,2.221 5.1,-1.275 5.284,-4.169 5.327,-4.861 5.33,-5.591 5.294,-6.335 5.203,-8.185 4.872,-10.076 4.408,-11.977 2.785,-9.68 1.456,-7.364 0.667,-4.913 0.152,-3.309 -0.079,-1.611 0,0"
           style="fill:#feaa7c;fill-opacity:1;fill-rule:nonzero;stroke:none"
           id="path3142" />
      </g>
      <g
         id="g3144"
         transform="matrix(0.35277777,0,0,-0.35277777,9.6300094,80.448766)"
         style="display:inline">
        <path
           d="m 0,0 c 3.704,4.591 7.481,9.291 12.44,12.087 4.959,2.796 11.39,3.414 16.701,-0.112 C 27.738,5.694 22.69,1.583 17.22,0.098 11.73,-1.389 5.798,-0.698 0,0"
           style="fill:#6c59b2;fill-opacity:1;fill-rule:nonzero;stroke:none"
           id="path3146" />
      </g>
      <g
         id="g3148"
         transform="matrix(0.35277777,0,0,-0.35277777,14.144119,78.492085)"
         style="display:inline">
        <path
           d="M 0,0 C 1.92,2.044 3.925,3.815 6.171,5.082 9.297,6.844 12.65,7.308 15.615,6.471 13.811,3.34 10.625,1.469 7.826,0.709 5.375,0.045 2.724,-0.102 0,0"
           style="fill:#feaa7c;fill-opacity:1;fill-rule:nonzero;stroke:none"
           id="path3150" />
      </g>
      <g
         id="g3152"
         transform="matrix(0.35277777,0,0,-0.35277777,13.708932,67.000845)"
         style="display:inline">
        <path
           d="m 0,0 c 5.241,-2.707 10.604,-5.465 14.337,-9.761 3.734,-4.297 5.63,-10.473 3.242,-16.384 C 11.144,-26.031 6.104,-21.91 3.551,-16.85 0.993,-11.771 0.48,-5.82 0,0"
           style="fill:#6c59b2;fill-opacity:1;fill-rule:nonzero;stroke:none"
           id="path3154" />
      </g>
      <g
         id="g3156"
         transform="matrix(0.35277777,0,0,-0.35277777,16.272374,70.825201)"
         style="display:inline">
        <path
           d="M 0,0 C 2.387,-1.471 4.525,-3.079 6.217,-5.027 8.443,-7.588 9.635,-10.776 9.488,-13.772 9.484,-13.848 9.48,-13.924 9.474,-14 6.044,-12.861 3.571,-10.114 2.265,-7.526 1.123,-5.258 0.447,-2.69 0,0"
           style="fill:#feaa7c;fill-opacity:1;fill-rule:nonzero;stroke:none"
           id="path3158" />
      </g>
      <g
         id="g3160"
         transform="matrix(0.35277777,0,0,-0.35277777,26.124584,67.009452)"
         style="display:inline">
        <path
           d="m 0,0 c -0.537,-5.874 -1.076,-11.88 -3.653,-16.956 -2.577,-5.076 -7.587,-9.155 -13.962,-9.165 -2.314,6.005 -0.391,12.225 3.338,16.494 C -10.533,-5.347 -5.212,-2.633 0,0"
           style="fill:#6c59b2;fill-opacity:1;fill-rule:nonzero;stroke:none"
           id="path3162" />
      </g>
      <g
         id="g3164"
         transform="matrix(0.35277777,0,0,-0.35277777,20.189874,75.344322)"
         style="display:inline">
        <path
           d="m 0,0 c 0.136,2.775 1.31,5.561 3.305,7.845 1.671,1.91 3.796,3.501 6.119,4.927 C 8.959,9.999 8.273,7.418 7.107,5.123 5.482,1.922 2.946,-0.324 0.012,-1.271 -0.017,-0.85 -0.021,-0.426 0,0"
           style="fill:#feaa7c;fill-opacity:1;fill-rule:nonzero;stroke:none"
           id="path3166" />
      </g>
      <g
         id="g3168"
         transform="matrix(0.35277777,0,0,-0.35277777,30.682298,78.96234)"
         style="display:inline">
        <path
           d="m 0,0 c -5.711,-1.478 -11.546,-2.999 -17.194,-2.287 -5.647,0.713 -11.179,4.051 -13.341,10.048 4.872,4.206 11.375,4.496 16.653,2.427 C -8.589,8.109 -4.238,4.017 0,0"
           style="fill:#6c59b2;fill-opacity:1;fill-rule:nonzero;stroke:none"
           id="path3170" />
      </g>
      <g
         id="g3172"
         transform="matrix(0.35277777,0,0,-0.35277777,20.42829,76.374927)"
         style="display:inline">
        <path
           d="M 0,0 C 3.315,1.438 6.988,1.04 9.688,-0.018 12.051,-0.947 14.267,-2.41 16.394,-4.115 13.626,-4.613 10.965,-4.838 8.41,-4.516 4.85,-4.067 1.882,-2.441 0,0"
           style="fill:#feaa7c;fill-opacity:1;fill-rule:nonzero;stroke:none"
           id="path3174" />
      </g>
      <g
         id="g3176"
         transform="matrix(0.35277777,0,0,-0.35277777,19.841868,78.203126)"
         style="display:inline">
        <path
           d="m 0,0 c -3.096,0.152 -5.482,2.785 -5.33,5.88 0.152,3.096 2.785,5.482 5.88,5.33 C 3.646,11.058 6.033,8.426 5.88,5.33 5.729,2.234 3.096,-0.152 0,0"
           style="fill:#fde3cb;fill-opacity:1;fill-rule:nonzero;stroke:none"
           id="path3178" />
      </g>
      <g
         id="g3180"
         transform="matrix(0.35277777,0,0,-0.35277777,19.877031,77.486706)"
         style="display:inline">
        <path
           d="m 0,0 c -1.974,0.097 -3.496,1.776 -3.399,3.75 0.097,1.974 1.776,3.495 3.75,3.399 C 2.325,7.052 3.847,5.373 3.75,3.399 3.653,1.425 1.974,-0.097 0,0"
           style="fill:#da66a1;fill-opacity:1;fill-rule:nonzero;stroke:none"
           id="path3182" />
      </g>
    </g>
  </g>
</svg>
