<?xml version="1.0" encoding="UTF-8" standalone="no"?>
<!-- Created with Inkscape (http://www.inkscape.org/) -->

<svg
   width="151.5mm"
   height="75.647804mm"
   viewBox="0 0 151.5 75.647804"
   version="1.1"
   id="svg13359"
   inkscape:export-filename="scrollables_superiores.svg"
   inkscape:export-xdpi="96"
   inkscape:export-ydpi="96"
   xmlns:inkscape="http://www.inkscape.org/namespaces/inkscape"
   xmlns:sodipodi="http://sodipodi.sourceforge.net/DTD/sodipodi-0.dtd"
   xmlns="http://www.w3.org/2000/svg"
   xmlns:svg="http://www.w3.org/2000/svg">
  <sodipodi:namedview
     id="namedview13361"
     pagecolor="#ffffff"
     bordercolor="#000000"
     borderopacity="0.25"
     inkscape:showpageshadow="2"
     inkscape:pageopacity="0.0"
     inkscape:pagecheckerboard="0"
     inkscape:deskcolor="#d1d1d1"
     inkscape:document-units="mm"
     showgrid="false" />
  <defs
     id="defs13356" />
  <rect
     style="display:none;fill:#4d4d4d;stroke-width:0.169"
     id="rect15103"
     width="153.2359"
     height="263.06366"
     x="-11.045976"
     y="-0.52298856" />
  <g
     inkscape:label="Layer 1"
     inkscape:groupmode="layer"
     id="layer1"
     transform="translate(-10.000008)">
    <g
       inkscape:groupmode="layer"
       id="layer7"
       inkscape:label="Flor_superior_individual"
       style="display:none">
      <g
         id="g3144"
         transform="matrix(0.35277777,0,0,-0.35277777,9.6300094,80.448766)"
         style="display:inline">
        <path
           d="m 0,0 c 3.704,4.591 7.481,9.291 12.44,12.087 4.959,2.796 11.39,3.414 16.701,-0.112 C 27.738,5.694 22.69,1.583 17.22,0.098 11.73,-1.389 5.798,-0.698 0,0"
           style="fill:#6c59b2;fill-opacity:1;fill-rule:nonzero;stroke:none"
           id="path3146" />
      </g>
      <g
         id="g3152"
         transform="matrix(0.35277777,0,0,-0.35277777,13.708932,67.000845)"
         style="display:inline">
        <path
           d="m 0,0 c 5.241,-2.707 10.604,-5.465 14.337,-9.761 3.734,-4.297 5.63,-10.473 3.242,-16.384 C 11.144,-26.031 6.104,-21.91 3.551,-16.85 0.993,-11.771 0.48,-5.82 0,0"
           style="fill:#6c59b2;fill-opacity:1;fill-rule:nonzero;stroke:none"
           id="path3154" />
      </g>
      <g
         id="g3156"
         transform="matrix(0.35277777,0,0,-0.35277777,16.272374,70.825201)"
         style="display:inline">
        <path
           d="M 0,0 C 2.387,-1.471 4.525,-3.079 6.217,-5.027 8.443,-7.588 9.635,-10.776 9.488,-13.772 9.484,-13.848 9.48,-13.924 9.474,-14 6.044,-12.861 3.571,-10.114 2.265,-7.526 1.123,-5.258 0.447,-2.69 0,0"
           style="fill:#feaa7c;fill-opacity:1;fill-rule:nonzero;stroke:none"
           id="path3158" />
      </g>
      <g
         id="g3160"
         transform="matrix(0.35277777,0,0,-0.35277777,26.124584,67.009452)"
         style="display:inline">
        <path
           d="m 0,0 c -0.537,-5.874 -1.076,-11.88 -3.653,-16.956 -2.577,-5.076 -7.587,-9.155 -13.962,-9.165 -2.314,6.005 -0.391,12.225 3.338,16.494 C -10.533,-5.347 -5.212,-2.633 0,0"
           style="fill:#6c59b2;fill-opacity:1;fill-rule:nonzero;stroke:none"
           id="path3162" />
      </g>
      <g
         id="g3164"
         transform="matrix(0.35277777,0,0,-0.35277777,20.189874,75.344322)"
         style="display:inline">
        <path
           d="m 0,0 c 0.136,2.775 1.31,5.561 3.305,7.845 1.671,1.91 3.796,3.501 6.119,4.927 C 8.959,9.999 8.273,7.418 7.107,5.123 5.482,1.922 2.946,-0.324 0.012,-1.271 -0.017,-0.85 -0.021,-0.426 0,0"
           style="fill:#feaa7c;fill-opacity:1;fill-rule:nonzero;stroke:none"
           id="path3166" />
      </g>
      <g
         id="g3168"
         transform="matrix(0.35277777,0,0,-0.35277777,30.682298,78.96234)"
         style="display:inline">
        <path
           d="m 0,0 c -5.711,-1.478 -11.546,-2.999 -17.194,-2.287 -5.647,0.713 -11.179,4.051 -13.341,10.048 4.872,4.206 11.375,4.496 16.653,2.427 C -8.589,8.109 -4.238,4.017 0,0"
           style="fill:#6c59b2;fill-opacity:1;fill-rule:nonzero;stroke:none"
           id="path3170" />
      </g>
      <g
         id="g3176"
         transform="matrix(0.35277777,0,0,-0.35277777,19.841868,78.203126)"
         style="display:inline">
        <path
           d="m 0,0 c -3.096,0.152 -5.482,2.785 -5.33,5.88 0.152,3.096 2.785,5.482 5.88,5.33 C 3.646,11.058 6.033,8.426 5.88,5.33 5.729,2.234 3.096,-0.152 0,0"
           style="fill:#fde3cb;fill-opacity:1;fill-rule:nonzero;stroke:none"
           id="path3178" />
      </g>
      <g
         id="g3180"
         transform="matrix(0.35277777,0,0,-0.35277777,19.877031,77.486706)"
         style="display:inline">
        <path
           d="m 0,0 c -1.974,0.097 -3.496,1.776 -3.399,3.75 0.097,1.974 1.776,3.495 3.75,3.399 C 2.325,7.052 3.847,5.373 3.75,3.399 3.653,1.425 1.974,-0.097 0,0"
           style="fill:#da66a1;fill-opacity:1;fill-rule:nonzero;stroke:none"
           id="path3182" />
      </g>
    </g>
    <g
       inkscape:groupmode="layer"
       id="layer3"
       inkscape:label="Flores_superior"
       style="display:inline"
       transform="matrix(0.26458333,0,0,0.26458333,-310.91415,-12.938263)">
      <g
         id="g3044"
         transform="matrix(1.3333333,0,0,-1.3333333,1393.3133,68.856466)"
         style="display:inline">
        <path
           d="m 0,0 c 2.157,-9.684 0.748,-18.948 -1.645,-28.273 -10e-4,-0.048 -0.016,-0.089 -0.022,-0.132 -0.227,-0.901 -0.471,-1.805 -0.715,-2.709 -10e-4,-0.011 -0.007,-0.016 -0.009,-0.026 -0.028,-0.1 -0.05,-0.194 -0.089,-0.292 -10e-4,-0.011 -0.008,-0.026 -0.015,-0.041 -0.484,-1.324 -1.707,-2.245 -3.131,-2.37 -0.016,-0.003 -0.027,-0.002 -0.044,-0.005 -1.536,-0.117 -3.092,-0.221 -4.645,-0.304 -0.06,0.002 -0.12,-0.007 -0.179,-0.005 -0.626,-0.038 -1.26,-0.064 -1.889,-0.085 -0.754,-0.033 -1.507,-0.056 -2.259,-0.068 -1.254,-0.021 -2.522,-0.014 -3.792,0.02 -6.324,0.142 -12.616,1.004 -18.429,3.33 -19.077,7.272 -12.261,20.153 2.047,19.081 -19.74,18.368 -3.015,33.708 15.019,12.777 C -20.869,23.734 -2.518,15.325 0,0"
           style="fill:#feaa7c;fill-opacity:1;fill-rule:nonzero;stroke:none"
           id="path3046" />
      </g>
      <g
         id="g3048"
         transform="matrix(1.3333333,0,0,-1.3333333,1389.4418,72.613799)"
         style="display:inline">
        <path
           d="m 0,0 c 1.965,-3.621 2.935,-7.705 2.993,-11.83 0.051,-3.207 -0.324,-6.449 -0.926,-9.647 -0.447,-2.413 -1.021,-4.799 -1.643,-7.137 -0.001,-0.011 -0.009,-0.026 -0.016,-0.041 -0.483,-1.324 -1.706,-2.245 -3.13,-2.37 -0.017,-0.003 -0.027,-0.002 -0.044,-0.005 -1.536,-0.117 -3.092,-0.221 -4.646,-0.304 -0.059,0.002 -0.119,-0.007 -0.179,-0.005 -0.625,-0.038 -1.259,-0.064 -1.888,-0.085 -0.754,-0.033 -1.507,-0.056 -2.259,-0.068 -1.255,-0.021 -2.522,-0.014 -3.792,0.02 -3.29,0.289 -6.524,0.949 -9.593,2.221 -13.151,5.699 -13.844,14.72 1.477,14.972 -10.538,11.256 -5.344,22.374 9.097,10.674 C -13.474,11.081 -5.058,9.305 0,0"
           style="fill:#fde3cb;fill-opacity:1;fill-rule:nonzero;stroke:none"
           id="path3050" />
      </g>
      <g
         id="g3052"
         transform="matrix(1.3333333,0,0,-1.3333333,1392.5841,94.114466)"
         style="display:inline">
        <path
           d="m 0,0 c 0.339,-1.709 -0.012,-3.545 -0.289,-5.352 -0.206,-1.346 -0.486,-2.683 -0.809,-3.977 -10e-4,-0.049 -0.017,-0.09 -0.022,-0.132 -0.227,-0.901 -0.471,-1.806 -0.715,-2.71 -0.001,-0.011 -0.007,-0.015 -0.009,-0.026 -0.028,-0.099 -0.05,-0.194 -0.089,-0.291 -10e-4,-0.011 -0.008,-0.026 -0.016,-0.042 -0.483,-1.323 -1.706,-2.244 -3.13,-2.369 -0.016,-0.004 -0.027,-0.003 -0.044,-0.006 -1.536,-0.117 -3.092,-0.221 -4.645,-0.303 -0.06,0.002 -0.12,-0.007 -0.179,-0.006 -3.848,-0.178 -7.709,0.482 -11.224,2.04 -11.149,4.939 -7.354,12.907 4.768,9.415 -12.063,12.843 -2.542,15.97 6.557,5.27 C -10.674,16.524 -2.771,13.941 0,0"
           style="fill:#da66a1;fill-opacity:1;fill-rule:nonzero;stroke:none"
           id="path3054" />
      </g>
      <g
         id="g3056"
         transform="matrix(1.3333333,0,0,-1.3333333,1659.8246,274.0742)"
         style="display:inline">
        <path
           d="m 0,0 c -0.578,-3.556 -5.109,-4.506 -8.1,-4.518 -4.492,-0.039 -8.703,1.514 -12.785,3.234 2.247,-1.617 4.454,-3.299 6.496,-5.198 2.079,-1.939 4.377,-4.301 5.339,-7.035 0.822,-2.336 -0.051,-5.301 -2.451,-6.29 -3.325,-1.386 -6.521,1.964 -8.113,4.493 -2.4,3.813 -3.286,8.241 -3.979,12.631 -0.206,-2.785 -0.462,-5.571 -1.002,-8.305 -0.539,-2.798 -1.335,-5.995 -3.157,-8.254 -1.553,-1.925 -4.531,-2.747 -6.65,-1.232 -2.913,2.105 -1.758,6.585 -0.449,9.268 1.977,4.03 5.225,7.111 8.575,9.999 -2.452,-1.283 -4.929,-2.516 -7.522,-3.491 -2.67,-1.001 -5.802,-2.016 -8.69,-1.656 -2.452,0.295 -4.711,2.4 -4.545,4.993 0.244,3.594 4.673,4.968 7.638,5.263 4.454,0.45 8.793,-0.693 13.003,-2.002 -2.374,1.399 -4.723,2.875 -6.906,4.544 -2.272,1.733 -4.775,3.864 -5.994,6.508 -1.04,2.246 -0.449,5.276 1.848,6.495 3.184,1.682 6.675,-1.348 8.498,-3.722 2.811,-3.646 4.506,-8.498 5.635,-12.914 0.488,2.991 1.04,5.969 1.887,8.883 0.809,2.734 1.913,5.84 3.928,7.92 1.733,1.771 4.775,2.311 6.739,0.603 2.709,-2.374 1.13,-6.713 -0.436,-9.268 -2.337,-3.825 -5.879,-6.585 -9.486,-9.152 2.567,1.053 5.16,2.041 7.83,2.773 2.747,0.744 5.969,1.45 8.806,0.834 C -1.63,4.865 0.424,2.554 0,0"
           style="fill:#da66a1;fill-opacity:1;fill-rule:nonzero;stroke:none"
           id="path3058" />
      </g>
      <g
         id="g3060"
         transform="matrix(1.3333333,0,0,-1.3333333,1656.8058,287.49407)"
         style="display:inline">
        <path
           d="m 0,0 c -2.045,-2.965 -6.547,-1.883 -9.255,-0.613 -4.076,1.89 -7.215,5.097 -10.166,8.4 1.337,-2.423 2.611,-4.889 3.642,-7.48 1.048,-2.642 2.113,-5.76 1.811,-8.643 -0.259,-2.463 -2.318,-4.769 -4.91,-4.633 -3.598,0.171 -5.051,4.568 -5.406,7.535 -0.535,4.473 0.562,8.854 1.816,13.118 -1.379,-2.429 -2.804,-4.836 -4.463,-7.076 -1.686,-2.297 -3.774,-4.845 -6.389,-6.105 -2.228,-1.074 -5.271,-0.541 -6.536,1.735 -1.731,3.151 1.232,6.704 3.564,8.567 3.513,2.795 7.768,4.187 12.032,5.362 -2.765,-0.11 -5.531,-0.162 -8.292,0.068 -2.842,0.239 -6.106,0.664 -8.562,2.226 -2.089,1.318 -3.228,4.187 -1.967,6.459 1.76,3.143 6.35,2.487 9.156,1.484 4.217,-1.503 7.648,-4.394 10.892,-7.381 -1.546,2.282 -3.037,4.622 -4.294,7.065 -1.31,2.539 -2.659,5.537 -2.628,8.449 0.023,2.475 1.854,4.959 4.453,5.077 3.597,0.155 5.454,-4.078 6.083,-7.005 0.979,-4.498 0.431,-9.608 -0.44,-14.082 1.722,2.493 3.497,4.948 5.511,7.218 1.902,2.124 4.23,4.458 6.942,5.473 2.325,0.859 5.304,0.042 6.348,-2.342 1.43,-3.306 -1.856,-6.55 -4.365,-8.187 -3.75,-2.455 -8.134,-3.431 -12.493,-4.206 2.771,-0.149 5.537,-0.366 8.263,-0.849 C -6.852,9.13 -3.638,8.387 -1.338,6.615 0.611,5.094 1.477,2.127 0,0"
           style="fill:#fde3cb;fill-opacity:1;fill-rule:nonzero;stroke:none"
           id="path3062" />
      </g>
      <g
         id="g3064"
         transform="matrix(1.3333333,0,0,-1.3333333,1635.3057,273.40073)"
         style="display:inline">
        <path
           d="m 0,0 c 0,-2.819 -2.285,-5.104 -5.103,-5.104 -2.819,0 -5.104,2.285 -5.104,5.104 0,2.819 2.285,5.103 5.104,5.103 C -2.285,5.103 0,2.819 0,0"
           style="fill:#6c59b2;fill-opacity:1;fill-rule:nonzero;stroke:none"
           id="path3066" />
      </g>
      <g
         id="g3068"
         transform="matrix(1.3333333,0,0,-1.3333333,1631.7569,273.40073)"
         style="display:inline">
        <path
           d="m 0,0 c 0,-1.349 -1.093,-2.442 -2.442,-2.442 -1.348,0 -2.442,1.093 -2.442,2.442 0,1.349 1.094,2.442 2.442,2.442 C -1.093,2.442 0,1.349 0,0"
           style="fill:#feaa7c;fill-opacity:1;fill-rule:nonzero;stroke:none"
           id="path3070" />
      </g>
    </g>
    <g
       inkscape:groupmode="layer"
       id="layer19"
       inkscape:label="Sombrero"
       style="display:none"
       transform="matrix(0.26458333,0,0,0.26458333,-310.31646,-11.552123)">
      <g
         id="g2958"
         transform="matrix(1.3333333,0,0,-1.3333333,1690.2307,129.54348)"
         style="display:inline">
        <path
           d="m 0,0 c -7.808,9.97 7.559,17.357 15.831,13.303 11.787,-5.777 9.474,-21.625 4.136,-31.136 -8.609,-15.34 -24.997,-25.085 -33.803,-40.192 -10.635,-18.247 0.932,-41.834 25.91,-43.095 23.561,-1.189 31.462,42.122 5.072,43.454 -12.775,0.645 -19.42,-17.216 -6.176,-20.606"
           style="fill:none;stroke:#ffffff;stroke-width:1.495;stroke-linecap:round;stroke-linejoin:round;stroke-miterlimit:10;stroke-dasharray:none;stroke-opacity:1"
           id="path2960" />
      </g>
      <g
         id="g2962"
         transform="matrix(1.3333333,0,0,-1.3333333,1725.6546,107.53975)"
         style="display:inline">
        <path
           d="m 0,0 c -2.064,0 -3.737,1.673 -3.737,3.737 0,2.064 1.673,3.736 3.737,3.736 2.064,0 3.737,-1.672 3.737,-3.736 C 3.737,1.673 2.064,0 0,0"
           style="fill:#ffffff;fill-opacity:1;fill-rule:nonzero;stroke:none"
           id="path2964" />
      </g>
      <g
         id="g2966"
         transform="matrix(1.3333333,0,0,-1.3333333,1738.2467,123.95935)"
         style="display:inline">
        <path
           d="M 0,0 C -1.633,0 -2.957,1.324 -2.957,2.957 -2.957,4.59 -1.633,5.914 0,5.914 1.633,5.914 2.957,4.59 2.957,2.957 2.957,1.324 1.633,0 0,0"
           style="fill:#ffffff;fill-opacity:1;fill-rule:nonzero;stroke:none"
           id="path2968" />
      </g>
      <g
         id="g2970"
         transform="matrix(1.3333333,0,0,-1.3333333,1739.9762,144.57335)"
         style="display:inline">
        <path
           d="M 0,0 C -1.203,0 -2.178,0.975 -2.178,2.177 -2.178,3.38 -1.203,4.355 0,4.355 1.202,4.355 2.177,3.38 2.177,2.177 2.177,0.975 1.202,0 0,0"
           style="fill:#ffffff;fill-opacity:1;fill-rule:nonzero;stroke:none"
           id="path2972" />
      </g>
      <g
         id="g2974"
         transform="matrix(1.3333333,0,0,-1.3333333,1732.7851,164.12908)"
         style="display:inline">
        <path
           d="M 0,0 C -0.772,0 -1.398,0.626 -1.398,1.398 -1.398,2.17 -0.772,2.796 0,2.796 0.772,2.796 1.398,2.17 1.398,1.398 1.398,0.626 0.772,0 0,0"
           style="fill:#ffffff;fill-opacity:1;fill-rule:nonzero;stroke:none"
           id="path2976" />
      </g>
      <g
         id="g2978"
         transform="matrix(1.3333333,0,0,-1.3333333,1719.7467,180.65601)"
         style="display:inline">
        <path
           d="m 0,0 c -0.341,0 -0.618,0.277 -0.618,0.618 0,0.341 0.277,0.618 0.618,0.618 0.341,0 0.618,-0.277 0.618,-0.618 C 0.618,0.277 0.341,0 0,0"
           style="fill:#ffffff;fill-opacity:1;fill-rule:nonzero;stroke:none"
           id="path2980" />
      </g>
      <g
         id="g2982"
         transform="matrix(1.3333333,0,0,-1.3333333,1303.6507,129.54348)"
         style="display:inline">
        <path
           d="m 0,0 c 7.808,9.97 -7.559,17.357 -15.831,13.303 -11.787,-5.777 -9.474,-21.625 -4.136,-31.136 8.609,-15.34 24.997,-25.085 33.803,-40.192 10.635,-18.247 -0.932,-41.834 -25.91,-43.095 -23.561,-1.189 -31.462,42.122 -5.072,43.454 12.775,0.645 19.42,-17.216 6.177,-20.606"
           style="fill:none;stroke:#ffffff;stroke-width:1.495;stroke-linecap:round;stroke-linejoin:round;stroke-miterlimit:10;stroke-dasharray:none;stroke-opacity:1"
           id="path2984" />
      </g>
      <g
         id="g2986"
         transform="matrix(1.3333333,0,0,-1.3333333,1268.2268,107.53975)"
         style="display:inline">
        <path
           d="m 0,0 c -2.064,0 -3.737,1.673 -3.737,3.737 0,2.064 1.673,3.736 3.737,3.736 2.064,0 3.737,-1.672 3.737,-3.736 C 3.737,1.673 2.064,0 0,0"
           style="fill:#ffffff;fill-opacity:1;fill-rule:nonzero;stroke:none"
           id="path2988" />
      </g>
      <g
         id="g2990"
         transform="matrix(1.3333333,0,0,-1.3333333,1255.6348,123.95935)"
         style="display:inline">
        <path
           d="M 0,0 C -1.633,0 -2.957,1.324 -2.957,2.957 -2.957,4.59 -1.633,5.914 0,5.914 1.633,5.914 2.957,4.59 2.957,2.957 2.957,1.324 1.633,0 0,0"
           style="fill:#ffffff;fill-opacity:1;fill-rule:nonzero;stroke:none"
           id="path2992" />
      </g>
      <g
         id="g2994"
         transform="matrix(1.3333333,0,0,-1.3333333,1253.9054,144.57335)"
         style="display:inline">
        <path
           d="M 0,0 C -1.202,0 -2.177,0.975 -2.177,2.177 -2.177,3.38 -1.202,4.355 0,4.355 1.203,4.355 2.177,3.38 2.177,2.177 2.177,0.975 1.203,0 0,0"
           style="fill:#ffffff;fill-opacity:1;fill-rule:nonzero;stroke:none"
           id="path2996" />
      </g>
      <g
         id="g2998"
         transform="matrix(1.3333333,0,0,-1.3333333,1261.0964,164.12908)"
         style="display:inline">
        <path
           d="M 0,0 C -0.772,0 -1.398,0.626 -1.398,1.398 -1.398,2.17 -0.772,2.796 0,2.796 0.772,2.796 1.398,2.17 1.398,1.398 1.398,0.626 0.772,0 0,0"
           style="fill:#ffffff;fill-opacity:1;fill-rule:nonzero;stroke:none"
           id="path3000" />
      </g>
      <g
         id="g3002"
         transform="matrix(1.3333333,0,0,-1.3333333,1274.1347,180.65601)"
         style="display:inline">
        <path
           d="m 0,0 c -0.341,0 -0.618,0.277 -0.618,0.618 0,0.341 0.277,0.618 0.618,0.618 0.341,0 0.618,-0.277 0.618,-0.618 C 0.618,0.277 0.341,0 0,0"
           style="fill:#ffffff;fill-opacity:1;fill-rule:nonzero;stroke:none"
           id="path3004" />
      </g>
      <g
         id="g2410"
         transform="matrix(1.3333333,0,0,-1.3333333,1436.2288,140.00721)"
         style="display:inline">
        <path
           d="m 0,0 c 14.304,-1.009 27.709,-1.324 40.841,-1.366 3.076,0.028 6.13,0.045 9.206,0.05 13.113,0.184 26.496,0.636 40.806,1.803 -3.651,4.943 -6.807,9.742 -9.543,14.348 -0.354,0.598 -0.707,1.196 -1.054,1.78 -0.887,1.528 -1.726,3.039 -2.53,4.528 -1.214,2.224 -2.31,4.4 -3.345,6.529 -0.811,1.674 -1.573,3.329 -2.333,4.954 -0.68,1.48 -1.329,2.936 -1.98,4.362 -0.271,0.578 -0.542,1.173 -0.793,1.739 -2.846,6.122 -5.608,11.431 -9.146,15.267 -3.943,4.296 -8.636,6.401 -13.162,6.843 -1.246,0.118 -2.498,0.111 -3.73,-0.02 C 38.702,60.328 34.045,58.171 30.135,53.835 26.594,49.919 23.861,44.474 21.064,38.23 20.803,37.647 20.539,37.066 20.273,36.469 19.637,35.053 19.002,33.591 18.338,32.104 17.633,30.544 16.913,28.957 16.164,27.363 15.147,25.176 14.032,22.932 12.817,20.637 12.047,19.167 11.23,17.679 10.363,16.173 10.038,15.582 9.711,14.992 9.347,14.395 6.677,9.772 3.594,4.967 0,0"
           style="fill:#fde3cb;fill-opacity:1;fill-rule:nonzero;stroke:none"
           id="path2412" />
      </g>
      <g
         id="g2414"
         transform="matrix(1.3333333,0,0,-1.3333333,1496.5231,88.452948)"
         style="display:inline">
        <path
           d="M 0,0 C 8.632,0.055 16.651,-0.455 24.847,-1.677 24.576,-1.1 24.305,-0.505 24.055,0.061 16.146,1.188 8.352,1.641 -0.008,1.589 -7.842,1.554 -15.637,0.846 -24.156,-0.436 -24.418,-1.018 -24.681,-1.6 -24.948,-2.196 -16.104,-0.809 -8.072,-0.035 0,0 m -35.874,-24.271 c 1.617,0.212 3.226,0.448 4.826,0.709 11.435,1.89 21.376,3.046 31.158,3.082 14.103,0.116 24.273,-1.379 30.976,-2.565 1.658,-0.288 3.326,-0.55 5.003,-0.785 -0.354,0.597 -0.706,1.195 -1.054,1.779 -1.186,0.177 -2.367,0.368 -3.544,0.572 -6.792,1.208 -17.097,2.706 -31.39,2.588 -9.907,-0.037 -19.973,-1.196 -31.549,-3.081 -1.133,-0.186 -2.269,-0.359 -3.41,-0.52 -0.325,-0.591 -0.652,-1.182 -1.016,-1.779"
           style="fill:#feaa7c;fill-opacity:1;fill-rule:nonzero;stroke:none"
           id="path2416" />
      </g>
      <g
         id="g2418"
         transform="matrix(1.3333333,0,0,-1.3333333,1453.3088,112.49108)"
         style="display:inline">
        <path
           d="m 0,0 c 8.558,1.333 19.754,3.031 32.484,3.109 13.958,0.12 24.248,-1.195 32.425,-2.605 -1.214,2.224 -2.309,4.4 -3.344,6.529 -0.811,1.674 -1.572,3.329 -2.334,4.954 -7.112,1.22 -15.735,2.15 -26.805,2.068 C 22.204,13.997 13.07,12.719 5.521,11.467 4.817,9.907 4.097,8.32 3.348,6.726 2.329,4.539 1.216,2.296 0,0"
           style="fill:#da66a1;fill-opacity:1;fill-rule:nonzero;stroke:none"
           id="path2420" />
      </g>
      <g
         id="g2422"
         transform="matrix(1.3333333,0,0,-1.3333333,1351.8302,167.14308)"
         style="display:inline">
        <path
           d="m 0,0 0.874,-2.951 c 0.76,-2.442 1.567,-4.869 2.422,-7.279 0.419,-1.206 0.855,-2.411 1.306,-3.616 0.403,-1.031 0.806,-2.077 1.224,-3.108 0.081,-0.206 0.162,-0.396 0.242,-0.602 1.015,-2.537 2.077,-5.057 3.234,-7.546 0.467,-1.046 0.965,-2.092 1.463,-3.138 28.289,13.371 59.31,20.989 90.572,22.221 1.287,0.039 2.589,0.093 3.892,0.116 2.415,0.061 4.846,0.074 7.261,0.039 1.303,-0.009 2.606,-0.049 3.893,-0.074 31.289,-0.897 62.39,-8.182 90.821,-21.249 0.487,1.051 0.974,2.103 1.429,3.154 1.131,2.5 2.166,5.032 3.153,7.58 0.063,0.159 0.126,0.318 0.188,0.477 0.408,1.035 0.799,2.086 1.191,3.121 0.454,1.257 0.892,2.499 1.315,3.757 0.829,2.419 1.61,4.854 2.344,7.305 l 0.842,2.96 c -23.932,12.455 -50.08,20.64 -76.824,24.199 -9.54,1.268 -19.14,1.947 -28.768,2.023 -2.257,0.035 -4.513,0.023 -6.769,-0.037 C 95.678,27.173 86.069,26.391 76.544,25.022 49.84,21.176 23.796,12.711 0,0"
           style="fill:#fde3cb;fill-opacity:1;fill-rule:nonzero;stroke:none"
           id="path2424" />
      </g>
      <g
         id="g2426"
         transform="matrix(1.3333333,0,0,-1.3333333,1357.9664,185.60468)"
         style="display:inline">
        <path
           d="m 0,0 c 0.403,-1.03 0.806,-2.077 1.224,-3.107 l 6.036,0.366 6.608,12.206 13.574,-4.027 7.961,11.705 13.105,-5.348 9.077,10.869 12.524,-6.574 10.068,9.952 11.847,-7.754 10.978,8.957 11.058,-8.839 11.763,7.881 10.174,-9.844 12.468,6.708 9.178,-10.771 13.062,5.488 8.087,-11.619 13.514,4.172 6.754,-12.135 8.312,-0.416 c 0.408,1.035 0.799,2.086 1.191,3.121 l -7.581,0.388 -7.139,12.832 -13.769,-4.237 -8.23,11.824 L 158.56,16.214 149.222,27.175 136.548,20.338 126.199,30.356 114.23,22.332 102.98,31.328 91.828,22.212 79.774,30.107 69.532,19.979 56.786,26.68 47.566,15.619 34.222,21.061 26.119,9.149 12.306,13.238 5.305,0.33 Z"
           style="fill:#feaa7c;fill-opacity:1;fill-rule:nonzero;stroke:none"
           id="path2428" />
      </g>
      <g
         id="g2430"
         transform="matrix(1.3333333,0,0,-1.3333333,1351.8302,167.14308)"
         style="display:inline">
        <path
           d="m 0,0 0.874,-2.951 c 31.103,15.992 65.151,25.104 99.494,26.559 1.43,0.039 2.859,0.111 4.305,0.134 2.669,0.078 5.37,0.093 8.039,0.043 1.446,-0.008 2.877,-0.064 4.306,-0.088 34.373,-1.087 68.517,-9.833 99.806,-25.49 l 0.842,2.96 c -23.932,12.455 -50.08,20.64 -76.824,24.199 -9.54,1.268 -19.14,1.947 -28.768,2.023 -2.257,0.035 -4.513,0.023 -6.769,-0.037 C 95.678,27.173 86.069,26.391 76.544,25.022 49.84,21.176 23.796,12.711 0,0"
           style="fill:#feaa7c;fill-opacity:1;fill-rule:nonzero;stroke:none"
           id="path2432" />
      </g>
      <g
         id="g2434"
         transform="matrix(1.3333333,0,0,-1.3333333,1364.2331,200.61215)"
         style="display:inline">
        <path
           d="m 0,0 c 0.466,-1.046 0.964,-2.092 1.463,-3.138 28.289,13.371 59.31,20.989 90.572,22.221 1.287,0.039 2.589,0.093 3.892,0.116 2.415,0.061 4.846,0.074 7.261,0.039 1.302,-0.009 2.606,-0.05 3.893,-0.074 31.289,-0.897 62.39,-8.182 90.821,-21.249 0.487,1.051 0.974,2.102 1.429,3.153 -20.546,9.249 -42.188,15.583 -64.211,18.802 -10.558,1.548 -21.176,2.381 -31.838,2.467 -2.495,0.05 -4.989,0.036 -7.483,-0.04 C 85.139,22.096 74.515,21.15 63.974,19.488 42.003,16.034 20.445,9.468 0,0"
           style="fill:#feaa7c;fill-opacity:1;fill-rule:nonzero;stroke:none"
           id="path2436" />
      </g>
      <g
         id="g2438"
         transform="matrix(1.3333333,0,0,-1.3333333,1627.9534,176.50615)"
         style="display:inline">
        <path
           d="M 0,0 C 0.006,-1.135 0.932,-2.051 2.067,-2.045 3.203,-2.039 4.118,-1.113 4.112,0.022 4.106,1.158 3.181,2.073 2.045,2.067 0.91,2.061 -0.006,1.135 0,0"
           style="fill:#6c59b2;fill-opacity:1;fill-rule:nonzero;stroke:none"
           id="path2440" />
      </g>
      <g
         id="g2442"
         transform="matrix(1.3333333,0,0,-1.3333333,1607.607,181.78681)"
         style="display:inline">
        <path
           d="M 0,0 C 0.006,-1.135 0.932,-2.051 2.067,-2.045 3.203,-2.039 4.118,-1.113 4.112,0.022 4.106,1.158 3.181,2.073 2.045,2.067 0.91,2.061 -0.006,1.136 0,0"
           style="fill:#6c59b2;fill-opacity:1;fill-rule:nonzero;stroke:none"
           id="path2444" />
      </g>
      <g
         id="g2446"
         transform="matrix(1.3333333,0,0,-1.3333333,1598.536,163.37268)"
         style="display:inline">
        <path
           d="M 0,0 C 0.006,-1.136 0.931,-2.051 2.067,-2.045 3.203,-2.039 4.118,-1.114 4.112,0.022 4.106,1.157 3.181,2.073 2.045,2.067 0.91,2.061 -0.006,1.135 0,0"
           style="fill:#6c59b2;fill-opacity:1;fill-rule:nonzero;stroke:none"
           id="path2448" />
      </g>
      <g
         id="g2450"
         transform="matrix(1.3333333,0,0,-1.3333333,1579.951,171.76361)"
         style="display:inline">
        <path
           d="M 0,0 C 0.006,-1.135 0.932,-2.051 2.067,-2.045 3.203,-2.039 4.118,-1.113 4.112,0.022 4.106,1.158 3.181,2.073 2.045,2.067 0.91,2.061 -0.006,1.136 0,0"
           style="fill:#6c59b2;fill-opacity:1;fill-rule:nonzero;stroke:none"
           id="path2452" />
      </g>
      <g
         id="g2454"
         transform="matrix(1.3333333,0,0,-1.3333333,1568.8894,153.95108)"
         style="display:inline">
        <path
           d="M 0,0 C 0.006,-1.136 0.931,-2.051 2.067,-2.045 3.203,-2.039 4.118,-1.113 4.112,0.022 4.106,1.158 3.181,2.073 2.045,2.067 0.909,2.061 -0.006,1.136 0,0"
           style="fill:#6c59b2;fill-opacity:1;fill-rule:nonzero;stroke:none"
           id="path2456" />
      </g>
      <g
         id="g2458"
         transform="matrix(1.3333333,0,0,-1.3333333,1551.2631,164.31521)"
         style="display:inline">
        <path
           d="M 0,0 C 0.006,-1.136 0.932,-2.051 2.067,-2.045 3.203,-2.039 4.118,-1.113 4.112,0.022 4.106,1.158 3.181,2.073 2.045,2.067 0.91,2.061 -0.006,1.136 0,0"
           style="fill:#6c59b2;fill-opacity:1;fill-rule:nonzero;stroke:none"
           id="path2460" />
      </g>
      <g
         id="g2462"
         transform="matrix(1.3333333,0,0,-1.3333333,1538.5206,149.31615)"
         style="display:inline">
        <path
           d="M 0,0 C 0.006,-1.136 0.932,-2.051 2.067,-2.045 3.203,-2.039 4.118,-1.113 4.112,0.022 4.106,1.158 3.181,2.073 2.045,2.067 0.91,2.061 -0.006,1.136 0,0"
           style="fill:#6c59b2;fill-opacity:1;fill-rule:nonzero;stroke:none"
           id="path2464" />
      </g>
      <g
         id="g2466"
         transform="matrix(1.3333333,0,0,-1.3333333,1522.3348,161.03975)"
         style="display:inline">
        <path
           d="M 0,0 C 0.006,-1.136 0.932,-2.051 2.067,-2.045 3.203,-2.039 4.118,-1.114 4.112,0.022 4.106,1.158 3.181,2.073 2.045,2.067 0.91,2.061 -0.006,1.136 0,0"
           style="fill:#6c59b2;fill-opacity:1;fill-rule:nonzero;stroke:none"
           id="path2468" />
      </g>
      <g
         id="g2470"
         transform="matrix(1.3333333,0,0,-1.3333333,1507.6022,146.74015)"
         style="display:inline">
        <path
           d="M 0,0 C 0.006,-1.136 0.932,-2.051 2.067,-2.045 3.203,-2.039 4.118,-1.114 4.112,0.022 4.106,1.158 3.181,2.073 2.045,2.067 0.91,2.061 -0.006,1.135 0,0"
           style="fill:#6c59b2;fill-opacity:1;fill-rule:nonzero;stroke:none"
           id="path2472" />
      </g>
      <g
         id="g2474"
         transform="matrix(1.3333333,0,0,-1.3333333,1492.4824,158.78655)"
         style="display:inline">
        <path
           d="M 0,0 C 0.006,-1.136 0.932,-2.051 2.067,-2.045 3.203,-2.039 4.118,-1.114 4.112,0.022 4.106,1.158 3.181,2.073 2.045,2.067 0.91,2.061 -0.006,1.135 0,0"
           style="fill:#6c59b2;fill-opacity:1;fill-rule:nonzero;stroke:none"
           id="path2476" />
      </g>
      <g
         id="g2478"
         transform="matrix(1.3333333,0,0,-1.3333333,1477.1346,146.90348)"
         style="display:inline">
        <path
           d="M 0,0 C 0.006,-1.136 0.932,-2.051 2.067,-2.045 3.203,-2.039 4.118,-1.114 4.112,0.022 4.106,1.158 3.181,2.073 2.045,2.067 0.91,2.061 -0.006,1.136 0,0"
           style="fill:#6c59b2;fill-opacity:1;fill-rule:nonzero;stroke:none"
           id="path2480" />
      </g>
      <g
         id="g2482"
         transform="matrix(1.3333333,0,0,-1.3333333,1463.2082,160.68815)"
         style="display:inline">
        <path
           d="M 0,0 C 0.006,-1.136 0.932,-2.051 2.067,-2.045 3.202,-2.039 4.118,-1.113 4.112,0.022 4.106,1.158 3.18,2.073 2.045,2.067 0.91,2.061 -0.006,1.136 0,0"
           style="fill:#6c59b2;fill-opacity:1;fill-rule:nonzero;stroke:none"
           id="path2484" />
      </g>
      <g
         id="g2486"
         transform="matrix(1.3333333,0,0,-1.3333333,1446.5414,149.43628)"
         style="display:inline">
        <path
           d="M 0,0 C 0.006,-1.135 0.931,-2.051 2.067,-2.045 3.203,-2.039 4.118,-1.114 4.112,0.022 4.106,1.158 3.181,2.073 2.045,2.067 0.91,2.061 -0.006,1.135 0,0"
           style="fill:#6c59b2;fill-opacity:1;fill-rule:nonzero;stroke:none"
           id="path2488" />
      </g>
      <g
         id="g2490"
         transform="matrix(1.3333333,0,0,-1.3333333,1433.6191,164.58521)"
         style="display:inline">
        <path
           d="M 0,0 C 0.006,-1.135 0.932,-2.051 2.067,-2.045 3.203,-2.039 4.118,-1.113 4.112,0.022 4.106,1.158 3.181,2.073 2.045,2.067 0.909,2.061 -0.006,1.136 0,0"
           style="fill:#6c59b2;fill-opacity:1;fill-rule:nonzero;stroke:none"
           id="path2492" />
      </g>
      <g
         id="g2494"
         transform="matrix(1.3333333,0,0,-1.3333333,1416.2934,155.70468)"
         style="display:inline">
        <path
           d="M 0,0 C 0.006,-1.135 0.932,-2.051 2.067,-2.045 3.203,-2.039 4.118,-1.113 4.112,0.022 4.106,1.158 3.181,2.073 2.045,2.067 0.91,2.061 -0.006,1.136 0,0"
           style="fill:#6c59b2;fill-opacity:1;fill-rule:nonzero;stroke:none"
           id="path2496" />
      </g>
      <g
         id="g2498"
         transform="matrix(1.3333333,0,0,-1.3333333,1405.1238,172.33935)"
         style="display:inline">
        <path
           d="M 0,0 C 0.006,-1.136 0.932,-2.051 2.067,-2.045 3.203,-2.039 4.118,-1.113 4.112,0.022 4.106,1.158 3.18,2.073 2.045,2.067 0.91,2.061 -0.006,1.135 0,0"
           style="fill:#6c59b2;fill-opacity:1;fill-rule:nonzero;stroke:none"
           id="path2500" />
      </g>
      <g
         id="g2502"
         transform="matrix(1.3333333,0,0,-1.3333333,1387.3099,165.39321)"
         style="display:inline">
        <path
           d="M 0,0 C 0.006,-1.135 0.931,-2.051 2.067,-2.045 3.203,-2.039 4.118,-1.113 4.112,0.022 4.106,1.158 3.181,2.073 2.045,2.067 0.909,2.061 -0.006,1.136 0,0"
           style="fill:#6c59b2;fill-opacity:1;fill-rule:nonzero;stroke:none"
           id="path2504" />
      </g>
      <g
         id="g2506"
         transform="matrix(1.3333333,0,0,-1.3333333,1376.576,181.95575)"
         style="display:inline">
        <path
           d="M 0,0 C 0.006,-1.136 0.932,-2.051 2.067,-2.045 3.203,-2.039 4.118,-1.113 4.112,0.022 4.106,1.158 3.181,2.073 2.045,2.067 0.91,2.061 -0.006,1.135 0,0"
           style="fill:#6c59b2;fill-opacity:1;fill-rule:nonzero;stroke:none"
           id="path2508" />
      </g>
      <g
         id="g2510"
         transform="matrix(1.3333333,0,0,-1.3333333,1357.926,178.07535)"
         style="display:inline">
        <path
           d="M 0,0 C 0.006,-1.136 0.932,-2.051 2.067,-2.045 3.203,-2.039 4.118,-1.114 4.112,0.022 4.106,1.158 3.181,2.073 2.045,2.067 0.91,2.061 -0.006,1.135 0,0"
           style="fill:#6c59b2;fill-opacity:1;fill-rule:nonzero;stroke:none"
           id="path2512" />
      </g>
      <g
         id="g2514"
         transform="matrix(1.3333333,0,0,-1.3333333,1366.1727,204.82735)"
         style="display:inline">
        <path
           d="m 0,0 c 0,0 0.016,0 0.032,-0.016 38.15,-15.287 58.222,-18.528 98.305,-18.313 40.083,0.215 60.118,3.671 98.103,19.366 l 0.016,0.016 -10e-4,0.016 c -28.431,13.067 -59.532,20.352 -90.821,21.248 -1.287,0.025 -2.59,0.066 -3.893,0.075 -2.415,0.035 -4.846,0.022 -7.261,-0.039 C 93.177,22.33 91.875,22.275 90.588,22.237 59.326,21.005 28.305,13.387 0.016,0.016 Z"
           style="fill:#da66a1;fill-opacity:1;fill-rule:nonzero;stroke:none"
           id="path2516" />
      </g>
      <g
         id="g2518"
         transform="matrix(1.3333333,0,0,-1.3333333,1382.7335,204.44201)"
         style="display:inline">
        <path
           d="m 0,0 c 30.042,-11.215 49.075,-14.053 85.888,-13.855 36.828,0.197 55.815,3.238 85.735,14.775 -9.124,3.637 -18.515,6.701 -28.061,9.16 -16.531,4.265 -33.561,6.7 -50.485,7.181 l -1.239,0.025 c -0.858,0.028 -1.7,0.039 -2.542,0.05 -1.224,0.025 -2.4,0.019 -3.575,0.013 -1.192,-0.007 -2.368,-0.013 -3.543,-0.051 -0.89,-0.021 -1.732,-0.041 -2.59,-0.077 l -1.27,-0.039 C 61.416,16.52 44.445,13.902 27.961,9.46 18.441,6.899 9.068,3.735 0,0"
           style="fill:#fde3cb;fill-opacity:1;fill-rule:nonzero;stroke:none"
           id="path2520" />
      </g>
      <g
         id="g2522"
         transform="matrix(1.3333333,0,0,-1.3333333,1420.0144,191.82801)"
         style="display:inline">
        <path
           d="m 0,0 c 17.054,-4.04 33.585,-5.222 57.83,-5.092 24.261,0.13 40.777,1.489 57.771,5.712 C 99.07,4.884 82.041,7.319 65.117,7.801 L 63.878,7.826 C 63.02,7.853 62.177,7.864 61.335,7.876 60.111,7.901 58.936,7.895 57.76,7.888 56.568,7.882 55.393,7.876 54.217,7.838 53.327,7.817 52.485,7.797 51.628,7.76 L 50.357,7.722 C 33.455,7.059 16.484,4.442 0,0"
           style="fill:#feaa7c;fill-opacity:1;fill-rule:nonzero;stroke:none"
           id="path2524" />
      </g>
    </g>
    <g
       inkscape:groupmode="layer"
       id="layer6"
       inkscape:label="Scrollabels_superiores"
       style="display:none">
      <g
         id="g3208"
         transform="matrix(0.35277777,0,0,-0.35277777,67.061407,75.647801)"
         style="display:inline">
        <path
           d="M 0,0 C -18.812,11.765 -20.873,20.122 -17.9,33.454 -3.714,29.979 2.49,21.468 0,0"
           style="fill:#feaa7c;fill-opacity:1;fill-rule:nonzero;stroke:none"
           id="path3210" />
      </g>
      <g
         id="g3212"
         transform="matrix(0.35277777,0,0,-0.35277777,66.408732,74.287526)"
         style="display:inline">
        <path
           d="M 0,0 C -3.654,11.23 -7.968,21.922 -14.398,27.35 -9.395,20.18 -5.461,10.865 0,0"
           style="fill:#fde3cb;fill-opacity:1;fill-rule:nonzero;stroke:none"
           id="path3214" />
      </g>
      <g
         id="g3216"
         transform="matrix(0.35277777,0,0,-0.35277777,130.09177,3.4822765)"
         style="display:inline">
        <path
           d="M 0,0 C -13.218,-17.821 -21.712,-19.214 -34.767,-15.195 -30.179,-1.328 -21.203,4.182 0,0"
           style="fill:#feaa7c;fill-opacity:1;fill-rule:nonzero;stroke:none"
           id="path3218" />
      </g>
      <g
         id="g3220"
         transform="matrix(0.35277777,0,0,-0.35277777,128.68413,4.0252015)"
         style="display:inline">
        <path
           d="M 0,0 C -11.484,-2.753 -22.484,-6.206 -28.405,-12.186 -20.861,-7.767 -11.264,-4.583 0,0"
           style="fill:#fde3cb;fill-opacity:1;fill-rule:nonzero;stroke:none"
           id="path3222" />
      </g>
      <g
         id="g3272"
         transform="matrix(0.35277777,0,0,-0.35277777,42.764005,59.667778)"
         style="display:inline">
        <path
           d="M 0,0 C 21.94,3.307 27.157,10.154 29.735,23.568 15.337,26.025 6.259,20.685 0,0"
           style="fill:#feaa7c;fill-opacity:1;fill-rule:nonzero;stroke:none"
           id="path3274" />
      </g>
      <g
         id="g3276"
         transform="matrix(0.35277777,0,0,-0.35277777,43.904121,58.679614)"
         style="display:inline">
        <path
           d="M 0,0 C 7.821,8.848 16.033,16.94 24.093,19.362 16.65,14.775 9.334,7.795 0,0"
           style="fill:#fde3cb;fill-opacity:1;fill-rule:nonzero;stroke:none"
           id="path3278" />
      </g>
    </g>
  </g>
</svg>
