<?xml version="1.0" encoding="UTF-8" standalone="no"?>
<!-- Created with Inkscape (http://www.inkscape.org/) -->

<svg
   width="151.5mm"
   height="15mm"
   viewBox="0 0 151.5 15"
   version="1.1"
   id="svg2045"
   inkscape:export-filename="flores_superior.svg"
   inkscape:export-xdpi="96"
   inkscape:export-ydpi="96"
   xmlns:inkscape="http://www.inkscape.org/namespaces/inkscape"
   xmlns:sodipodi="http://sodipodi.sourceforge.net/DTD/sodipodi-0.dtd"
   xmlns="http://www.w3.org/2000/svg"
   xmlns:svg="http://www.w3.org/2000/svg">
  <sodipodi:namedview
     id="namedview2047"
     pagecolor="#ffffff"
     bordercolor="#000000"
     borderopacity="0.25"
     inkscape:showpageshadow="2"
     inkscape:pageopacity="0.0"
     inkscape:pagecheckerboard="0"
     inkscape:deskcolor="#d1d1d1"
     inkscape:document-units="mm"
     showgrid="false" />
  <defs
     id="defs2042" />
  <g
     inkscape:label="Layer 1"
     inkscape:groupmode="layer"
     id="layer1"
     transform="translate(-203.4721,-92.624811)">
    <g
       inkscape:groupmode="layer"
       id="layer9"
       inkscape:label="Garigoleados 4"
       style="display:inline"
       transform="matrix(0.26458333,0,0,0.26458333,37.469552,-2.6117207)">
      <g
         id="g968"
         transform="matrix(0.61717449,0,0,-0.61717449,957.67679,386.20395)"
         style="display:inline">
        <path
           d="m 0,0 c -0.063,-1.368 -1.29,-2.639 -2.735,-3.648 -2.633,-1.861 -6.064,-3.09 -9.264,-3.266 1.623,-0.893 3.144,-1.876 4.299,-3.103 1.611,-1.696 2.317,-4.019 1.173,-6.293 -1.147,-2.294 -3.857,-4.198 -6.442,-5.172 -1.768,-0.678 -3.55,-0.977 -5.322,-1.145 1.221,-1.351 2.23,-2.795 2.757,-4.46 1.016,-3.146 -0.139,-7.401 -3.323,-10.948 -3.461,-3.867 -7.96,-5.415 -11.131,-4.026 -2.213,0.925 -3.963,2.957 -5.509,5.344 -0.04,-3.223 -1.122,-6.523 -2.887,-9.064 -0.873,-1.237 -1.976,-2.361 -3.234,-2.469 -1.372,-0.118 -2.706,0.927 -3.802,2.232 -1.969,2.386 -3.38,5.668 -3.755,8.877 -0.776,-1.727 -1.647,-3.386 -2.774,-4.689 -1.576,-1.826 -3.77,-2.836 -6.046,-1.95 -2.248,0.881 -4.27,3.424 -5.428,6.027 -0.784,1.74 -1.234,3.532 -1.563,5.334 -1.179,-1.419 -2.448,-2.578 -3.972,-3.303 -2.87,-1.411 -6.904,-0.656 -10.551,2.375 -3.968,3.338 -6.118,8.017 -5.26,11.359 0.582,2.373 2.284,4.265 4.418,5.997 -3.161,-0.191 -6.473,0.751 -9.176,2.437 -1.33,0.822 -2.564,1.877 -2.871,3.148 -0.349,1.389 0.482,2.762 1.627,3.888 2.07,2.06 5.177,3.621 8.356,4.188 -1.801,0.675 -3.573,1.426 -5.056,2.474 -2.019,1.457 -3.372,3.55 -2.757,5.774 0.611,2.223 3.005,4.27 5.542,5.559 1.714,0.862 3.515,1.435 5.322,1.872 -1.533,1.032 -2.893,2.162 -3.785,3.536 -1.77,2.602 -1.42,6.356 1.516,10.001 3.212,3.964 8.074,6.567 11.599,6.246 2.488,-0.238 4.513,-1.595 6.393,-3.437 -0.373,2.99 0.452,6.271 2.064,9.097 0.815,1.384 1.875,2.746 3.152,3.252 1.396,0.554 2.779,-0.037 3.953,-0.965 2.113,-1.702 3.76,-4.554 4.48,-7.617 0.579,1.904 1.266,3.756 2.244,5.346 1.358,2.255 3.373,3.972 5.555,3.705 2.181,-0.262 4.227,-2.401 5.608,-4.84 0.714,-1.28 1.237,-2.649 1.688,-4.035 1.819,2.245 4.203,3.386 6.814,2.991 1.263,-0.196 2.656,-0.774 3.813,-2.084 1.223,-1.403 1.908,-3.323 2.146,-5.062 0.199,-1.397 0.146,-2.751 -0.138,-3.985 1.003,0.569 2.079,0.99 3.228,1.187 3.312,0.615 7.724,-0.944 11.161,-4.202 3.72,-3.539 4.806,-7.836 3.008,-10.795 C -6.088,9.612 -8.345,8.051 -10.936,6.703 -7.652,6.44 -4.43,5.162 -2.099,3.327 -0.922,2.392 0.04,1.254 0,0"
           style="fill:#da66a1;fill-opacity:1;fill-rule:nonzero;stroke:none"
           id="path970" />
      </g>
      <g
         id="g972"
         transform="matrix(0.61717449,0,0,-0.61717449,941.1702,408.1895)"
         style="display:inline">
        <path
           d="m 0,0 c -1.025,-0.469 -2.417,-0.049 -3.699,0.629 -2.353,1.227 -4.543,3.275 -5.877,5.551 -0.042,-1.524 -0.19,-3.007 -0.652,-4.315 -0.636,-1.817 -2.07,-3.208 -4.165,-3.226 -2.11,-0.024 -4.524,1.243 -6.209,2.768 -1.162,1.039 -2.051,2.23 -2.84,3.464 -0.53,-1.402 -1.207,-2.683 -2.228,-3.696 -1.919,-1.927 -5.468,-2.683 -9.262,-1.688 -4.133,1.077 -6.958,3.788 -7.135,6.631 -0.156,1.968 0.672,4.013 1.837,6.043 -2.373,-1.184 -5.196,-1.633 -7.72,-1.298 -1.233,0.174 -2.471,0.558 -3.024,1.437 -0.602,0.96 -0.339,2.33 0.203,3.623 1.006,2.339 2.876,4.607 5.083,6.089 -1.555,-0.082 -3.097,-0.069 -4.475,0.265 -1.929,0.467 -3.494,1.692 -3.702,3.691 -0.202,1.977 0.899,4.414 2.368,6.241 0.979,1.228 2.12,2.232 3.316,3.152 -1.482,0.328 -2.809,0.82 -3.912,1.663 -2.113,1.569 -3.078,4.806 -2.233,8.615 0.95,4.161 3.565,7.495 6.334,8.124 1.956,0.468 3.981,-0.066 6.051,-0.976 -1.329,2.242 -1.886,5.02 -1.669,7.632 0.101,1.284 0.409,2.583 1.224,3.286 0.884,0.778 2.202,0.687 3.457,0.273 2.287,-0.74 4.598,-2.426 6.209,-4.539 -0.184,1.572 -0.301,3.151 -0.092,4.631 0.307,2.026 1.33,3.804 3.189,4.19 1.857,0.389 4.255,-0.592 6.153,-1.964 1.276,-0.929 2.374,-2.032 3.374,-3.189 0.177,1.509 0.493,2.93 1.163,4.099 1.238,2.276 4.117,3.432 7.889,2.655 4.11,-0.859 7.845,-3.438 8.936,-6.138 0.762,-1.911 0.532,-3.903 -0.109,-5.972 2.048,1.397 4.759,2.028 7.434,1.912 1.32,-0.076 2.715,-0.339 3.567,-1.083 0.93,-0.813 1.018,-2.047 0.781,-3.256 -0.451,-2.187 -1.918,-4.465 -3.889,-6.145 1.612,0.293 3.225,0.487 4.757,0.37 2.161,-0.145 4.176,-0.974 4.803,-2.672 0.628,-1.695 -0.168,-3.997 -1.433,-5.925 -0.668,-1.004 -1.473,-1.903 -2.317,-2.754 2.327,-0.486 4.059,-1.802 4.753,-3.862 0.331,-0.997 0.433,-2.234 -0.09,-3.574 -0.567,-1.423 -1.715,-2.647 -2.897,-3.476 -0.948,-0.671 -1.959,-1.142 -2.968,-1.398 0.793,-0.52 1.506,-1.149 2.082,-1.916 1.697,-2.193 2.216,-6.008 1.125,-9.749 C 12.301,10.168 9.565,7.757 6.723,7.959 4.744,8.073 2.752,9.137 0.79,10.526 1.834,8.023 2.111,5.184 1.645,2.788 1.403,1.575 0.933,0.442 0,0"
           style="fill:#6c59b2;fill-opacity:1;fill-rule:nonzero;stroke:none"
           id="path974" />
      </g>
      <g
         id="g976"
         transform="matrix(0.61717449,0,0,-0.61717449,917.99511,398.70797)"
         inkscape:label="g976"
         style="display:inline">
        <path
           d="M 0,0 C -0.454,0.586 -0.394,1.54 -0.153,2.464 0.28,4.154 1.264,5.865 2.52,7.06 1.538,6.859 0.566,6.73 -0.34,6.83 c -1.259,0.135 -2.365,0.844 -2.691,2.183 -0.333,1.348 0.116,3.084 0.84,4.392 0.491,0.9 1.121,1.648 1.793,2.339 -0.978,0.129 -1.9,0.37 -2.702,0.872 -1.522,0.94 -2.539,3.099 -2.471,5.679 0.07,2.808 1.382,5.024 3.176,5.564 1.237,0.395 2.671,0.172 4.146,-0.27 -1.114,1.343 -1.826,3.083 -1.99,4.75 -0.074,0.816 -0.014,1.666 0.467,2.152 0.524,0.529 1.441,0.567 2.35,0.414 1.649,-0.294 3.382,-1.151 4.662,-2.342 -0.286,0.984 -0.509,1.973 -0.501,2.906 0.009,1.305 0.559,2.491 1.808,2.925 1.236,0.426 2.961,0.086 4.352,-0.58 0.934,-0.443 1.748,-1.023 2.516,-1.651 -0.012,0.999 0.104,1.922 0.478,2.755 0.688,1.589 2.616,2.693 5.183,2.723 2.807,0.016 5.334,-1.158 6.153,-2.837 0.593,-1.182 0.555,-2.56 0.283,-4.022 1.236,1.188 2.932,1.961 4.638,2.214 0.836,0.128 1.715,0.126 2.288,-0.29 0.63,-0.45 0.77,-1.308 0.693,-2.174 -0.131,-1.575 -0.864,-3.308 -1.975,-4.657 0.979,0.354 1.973,0.665 2.952,0.753 1.343,0.108 2.636,-0.28 3.162,-1.412 0.528,-1.131 0.26,-2.815 -0.334,-4.236 -0.404,-0.957 -0.946,-1.825 -1.537,-2.639 0.994,0.113 1.951,0.124 2.8,-0.13 1.643,-0.451 2.816,-2.122 2.884,-4.654 0.067,-2.761 -1.024,-5.54 -2.59,-6.644 -1.109,-0.775 -2.419,-0.926 -3.841,-0.826 1.203,-1.102 2.014,-2.744 2.341,-4.474 0.149,-0.857 0.19,-1.79 -0.158,-2.447 -0.381,-0.718 -1.159,-0.959 -1.969,-0.989 -1.468,-0.04 -3.147,0.558 -4.518,1.568 0.429,-0.988 0.795,-1.992 0.95,-2.991 0.232,-1.406 0.003,-2.82 -0.99,-3.476 -0.991,-0.657 -2.585,-0.493 -4.01,0.028 -0.743,0.277 -1.439,0.658 -2.111,1.071 0.038,-1.564 -0.545,-2.87 -1.76,-3.624 -0.589,-0.362 -1.366,-0.613 -2.303,-0.478 -0.996,0.149 -1.952,0.7 -2.66,1.333 -0.572,0.507 -1.026,1.083 -1.341,1.691 -0.214,-0.586 -0.51,-1.137 -0.915,-1.621 -1.149,-1.416 -3.515,-2.321 -6.075,-2.184 -2.775,0.154 -4.73,1.544 -5.027,3.395 -0.224,1.285 0.158,2.72 0.754,4.185 C 5.414,0.03 3.637,-0.574 2.033,-0.635 1.219,-0.663 0.423,-0.531 0,0"
           style="fill:#feaa7c;fill-opacity:1;fill-rule:nonzero;stroke:none"
           id="path978" />
      </g>
      <g
         id="g980"
         transform="matrix(0.61717449,0,0,-0.61717449,936.4614,389.69118)"
         style="display:inline">
        <path
           d="m 0,0 c -0.596,-1.352 -2.108,-2.131 -3.575,-2.246 -1.214,-0.114 -2.429,0.138 -3.62,0.459 0.045,-1.559 0.023,-3.14 -0.55,-4.56 -0.665,-1.673 -2.269,-3.071 -4.056,-2.911 -1.467,0.138 -2.658,1.329 -3.231,2.681 -0.527,1.215 -0.665,2.567 -0.733,3.896 -1.398,-0.573 -2.842,-1.054 -4.354,-0.985 -1.788,0.068 -3.667,1.122 -4.079,2.841 -0.367,1.444 0.344,2.956 1.443,3.964 0.894,0.848 2.017,1.375 3.163,1.879 -1.146,1.054 -2.269,2.177 -2.865,3.598 -0.71,1.65 -0.572,3.781 0.802,4.927 1.146,0.939 3.186,1.031 4.561,0.481 1.237,-0.481 2.978,-1.558 4.124,-2.475 1.054,1.237 2.177,2.498 3.644,3.208 1.604,0.756 3.758,0.71 4.926,-0.619 0.986,-1.1 1.077,-2.795 0.573,-4.17 C -4.239,8.753 -5.041,7.699 -5.843,6.714 -4.285,6.279 -2.727,5.774 -1.49,4.743 -0.115,3.598 0.71,1.627 0,0"
           style="fill:#fde3cb;fill-opacity:1;fill-rule:nonzero;stroke:none"
           id="path982" />
      </g>
      <g
         id="g1898"
         transform="matrix(0.61717449,0,0,-0.61717449,1014.0078,391.25466)"
         style="display:inline">
        <path
           d="M 0,0 C -19.081,-11.324 -27.453,-9.324 -37.938,-0.57 -28.345,10.444 -17.937,12.055 0,0"
           style="fill:#feaa7c;fill-opacity:1;fill-rule:nonzero;stroke:none"
           id="path1900" />
      </g>
      <g
         id="g1902"
         transform="matrix(0.61717449,0,0,-0.61717449,1011.3694,391.17832)"
         style="display:inline">
        <path
           d="M 0,0 C -11.655,1.902 -23.135,2.97 -30.907,-0.255 -22.242,0.903 -12.16,0.129 0,0"
           style="fill:#fde3cb;fill-opacity:1;fill-rule:nonzero;stroke:none"
           id="path1904" />
      </g>
      <g
         id="g1906"
         transform="matrix(0.61717449,0,0,-0.61717449,1010.4627,410.21717)"
         style="display:inline">
        <path
           d="M 0,0 C -21.874,-3.716 -28.97,1.157 -35.612,13.093 -22.703,19.927 -12.411,17.693 0,0"
           style="fill:#feaa7c;fill-opacity:1;fill-rule:nonzero;stroke:none"
           id="path1908" />
      </g>
      <g
         id="g1910"
         transform="matrix(0.61717449,0,0,-0.61717449,1008.0277,409.19839)"
         style="display:inline">
        <path
           d="M 0,0 C -10.195,5.961 -20.525,11.08 -28.937,10.861 -20.434,8.831 -11.302,4.487 0,0"
           style="fill:#fde3cb;fill-opacity:1;fill-rule:nonzero;stroke:none"
           id="path1912" />
      </g>
      <g
         id="g1914"
         transform="matrix(0.61717449,0,0,-0.61717449,813.41122,379.77284)"
         style="display:inline">
        <path
           d="M 0,0 C 21.94,3.307 27.157,10.154 29.735,23.568 15.337,26.025 6.259,20.685 0,0"
           style="fill:#feaa7c;fill-opacity:1;fill-rule:nonzero;stroke:none"
           id="path1916" />
      </g>
      <g
         id="g1918"
         transform="matrix(0.61717449,0,0,-0.61717449,815.4058,378.04408)"
         style="display:inline">
        <path
           d="M 0,0 C 7.821,8.848 16.034,16.94 24.093,19.362 16.65,14.775 9.334,7.795 0,0"
           style="fill:#fde3cb;fill-opacity:1;fill-rule:nonzero;stroke:none"
           id="path1920" />
      </g>
    </g>
  </g>
</svg>
