<?xml version="1.0" encoding="UTF-8" standalone="no"?>
<!-- Created with Inkscape (http://www.inkscape.org/) -->

<svg
   width="151.5mm"
   height="15.679037mm"
   viewBox="0 0 151.5 15.679037"
   version="1.1"
   id="svg2045"
   inkscape:export-filename="garigoles_inferior.svg"
   inkscape:export-xdpi="96"
   inkscape:export-ydpi="96"
   xmlns:inkscape="http://www.inkscape.org/namespaces/inkscape"
   xmlns:sodipodi="http://sodipodi.sourceforge.net/DTD/sodipodi-0.dtd"
   xmlns="http://www.w3.org/2000/svg"
   xmlns:svg="http://www.w3.org/2000/svg">
  <sodipodi:namedview
     id="namedview2047"
     pagecolor="#ffffff"
     bordercolor="#000000"
     borderopacity="0.25"
     inkscape:showpageshadow="2"
     inkscape:pageopacity="0.0"
     inkscape:pagecheckerboard="0"
     inkscape:deskcolor="#d1d1d1"
     inkscape:document-units="mm"
     showgrid="false" />
  <defs
     id="defs2042" />
  <g
     inkscape:label="Layer 1"
     inkscape:groupmode="layer"
     id="layer1"
     transform="translate(-203.4721,-92.624811)">
    <g
       inkscape:groupmode="layer"
       id="layer9"
       inkscape:label="Garigoleados 4"
       style="display:inline"
       transform="matrix(0.26458333,0,0,0.26458333,37.469552,-2.6117207)">
      <g
         id="g984"
         transform="matrix(0.57587703,0,0,-0.57587703,926.15884,400.5188)"
         style="display:inline">
        <path
           d="m 0,0 c -0.814,-5.008 -7.196,-6.346 -11.409,-6.365 -6.329,-0.054 -12.259,2.134 -18.009,4.557 3.164,-2.278 6.274,-4.647 9.149,-7.323 2.929,-2.73 6.166,-6.057 7.522,-9.908 1.157,-3.291 -0.073,-7.468 -3.454,-8.86 -4.683,-1.953 -9.185,2.766 -11.427,6.328 -3.381,5.37 -4.629,11.608 -5.605,17.792 -0.289,-3.924 -0.651,-7.847 -1.411,-11.699 -0.759,-3.941 -1.88,-8.443 -4.447,-11.626 -2.188,-2.712 -6.383,-3.869 -9.367,-1.736 -4.104,2.966 -2.477,9.276 -0.632,13.055 2.784,5.678 7.359,10.017 12.078,14.085 -3.454,-1.808 -6.943,-3.543 -10.596,-4.918 -3.761,-1.41 -8.172,-2.838 -12.241,-2.332 -3.453,0.416 -6.635,3.381 -6.4,7.033 0.343,5.063 6.581,6.998 10.758,7.414 6.274,0.633 12.386,-0.977 18.316,-2.821 -3.345,1.971 -6.654,4.05 -9.728,6.401 -3.2,2.441 -6.726,5.442 -8.443,9.167 -1.465,3.164 -0.633,7.431 2.603,9.149 4.484,2.369 9.403,-1.898 11.97,-5.243 3.96,-5.136 6.346,-11.97 7.938,-18.19 0.687,4.213 1.464,8.407 2.658,12.512 1.139,3.851 2.694,8.227 5.532,11.156 2.441,2.495 6.727,3.255 9.493,0.85 3.815,-3.345 1.591,-9.457 -0.615,-13.055 -3.29,-5.388 -8.281,-9.275 -13.362,-12.892 3.616,1.483 7.269,2.875 11.03,3.906 3.869,1.049 8.408,2.043 12.403,1.175 C -2.296,6.853 0.597,3.598 0,0"
           style="fill:#da66a1;fill-opacity:1;fill-rule:nonzero;stroke:none"
           id="path986" />
      </g>
      <g
         id="g988"
         transform="matrix(0.57587703,0,0,-0.57587703,924.32224,408.68318)"
         style="display:inline">
        <path
           d="m 0,0 c -2.881,-4.177 -9.221,-2.652 -13.036,-0.863 -5.741,2.662 -10.163,7.18 -14.32,11.832 1.883,-3.414 3.678,-6.886 5.129,-10.536 1.477,-3.722 2.977,-8.115 2.552,-12.176 -0.364,-3.469 -3.265,-6.716 -6.916,-6.526 -5.068,0.242 -7.115,6.435 -7.614,10.614 -0.755,6.301 0.79,12.472 2.557,18.478 -1.942,-3.421 -3.95,-6.812 -6.286,-9.966 -2.375,-3.237 -5.317,-6.824 -9,-8.6 -3.139,-1.513 -7.425,-0.762 -9.207,2.444 -2.438,4.438 1.736,9.443 5.021,12.067 4.949,3.937 10.941,5.899 16.948,7.553 -3.895,-0.154 -7.792,-0.228 -11.681,0.095 -4.002,0.337 -8.6,0.937 -12.06,3.137 -2.942,1.855 -4.547,5.898 -2.77,9.098 2.479,4.427 8.945,3.503 12.897,2.089 5.94,-2.116 10.773,-6.188 15.342,-10.396 -2.178,3.214 -4.277,6.511 -6.048,9.952 -1.846,3.576 -3.746,7.799 -3.702,11.9 0.032,3.487 2.612,6.986 6.272,7.152 5.067,0.219 7.682,-5.744 8.569,-9.866 1.378,-6.337 0.607,-13.535 -0.62,-19.837 2.426,3.513 4.925,6.97 7.762,10.167 2.679,2.992 5.959,6.28 9.779,7.71 3.274,1.209 7.472,0.06 8.941,-3.299 2.014,-4.657 -2.613,-9.226 -6.148,-11.532 -5.282,-3.459 -11.456,-4.834 -17.597,-5.924 3.903,-0.21 7.8,-0.517 11.639,-1.197 3.946,-0.71 8.473,-1.755 11.712,-4.252 C 0.861,7.176 2.081,2.996 0,0"
           style="fill:#fde3cb;fill-opacity:1;fill-rule:nonzero;stroke:none"
           id="path990" />
      </g>
      <g
         id="g992"
         transform="matrix(0.57587703,0,0,-0.57587703,911.24194,400.10906)"
         style="display:inline">
        <path
           d="m 0,0 c 0,-3.97 -3.218,-7.189 -7.189,-7.189 -3.97,0 -7.189,3.219 -7.189,7.189 0,3.97 3.219,7.189 7.189,7.189 C -3.218,7.189 0,3.97 0,0"
           style="fill:#6c59b2;fill-opacity:1;fill-rule:nonzero;stroke:none"
           id="path994" />
      </g>
      <g
         id="g996"
         transform="matrix(0.57587703,0,0,-0.57587703,909.08294,400.10906)"
         style="display:inline">
        <path
           d="m 0,0 c 0,-1.9 -1.54,-3.44 -3.44,-3.44 -1.899,0 -3.439,1.54 -3.439,3.44 0,1.9 1.54,3.44 3.439,3.44 C -1.54,3.44 0,1.9 0,0"
           style="fill:#feaa7c;fill-opacity:1;fill-rule:nonzero;stroke:none"
           id="path998" />
      </g>
      <g
         id="g1986"
         transform="matrix(0.55265568,0,0,-0.55265568,783.21468,373.28032)"
         style="display:inline">
        <path
           d="M 0,0 C 21.94,3.307 27.157,10.154 29.735,23.568 15.337,26.025 6.259,20.685 0,0"
           style="fill:#feaa7c;fill-opacity:1;fill-rule:nonzero;stroke:none"
           id="path1988" />
      </g>
      <g
         id="g1990"
         transform="matrix(0.34620977,0,0,-0.34620977,787.4877,369.73367)"
         style="display:inline">
        <path
           d="M 0,0 C 7.821,8.848 16.033,16.94 24.093,19.362 16.65,14.775 9.334,7.795 0,0"
           style="fill:#fde3cb;fill-opacity:1;fill-rule:nonzero;stroke:none"
           id="path1992" />
      </g>
      <g
         id="g1922"
         transform="matrix(0.55265568,0,0,-0.55265568,1043.9101,413.29028)"
         style="display:inline">
        <path
           d="M 0,0 C -18.812,11.765 -20.873,20.122 -17.901,33.454 -3.714,29.979 2.489,21.468 0,0"
           style="fill:#feaa7c;fill-opacity:1;fill-rule:nonzero;stroke:none"
           id="path1924" />
      </g>
      <g
         id="g1926"
         transform="matrix(0.55265568,0,0,-0.55265568,1042.8876,411.15935)"
         style="display:inline">
        <path
           d="M 0,0 C -3.654,11.23 -7.968,21.922 -14.398,27.35 -9.395,20.18 -5.461,10.865 0,0"
           style="fill:#fde3cb;fill-opacity:1;fill-rule:nonzero;stroke:none"
           id="path1928" />
      </g>
    </g>
  </g>
</svg>
