<?xml version="1.0" encoding="UTF-8" standalone="no"?>
<!-- Created with Inkscape (http://www.inkscape.org/) -->

<svg
   width="151.5mm"
   height="15mm"
   viewBox="0 0 151.5 15"
   version="1.1"
   id="svg2045"
   inkscape:export-filename="garigoles_superior.svg"
   inkscape:export-xdpi="96"
   inkscape:export-ydpi="96"
   xmlns:inkscape="http://www.inkscape.org/namespaces/inkscape"
   xmlns:sodipodi="http://sodipodi.sourceforge.net/DTD/sodipodi-0.dtd"
   xmlns="http://www.w3.org/2000/svg"
   xmlns:svg="http://www.w3.org/2000/svg">
  <sodipodi:namedview
     id="namedview2047"
     pagecolor="#ffffff"
     bordercolor="#000000"
     borderopacity="0.25"
     inkscape:showpageshadow="2"
     inkscape:pageopacity="0.0"
     inkscape:pagecheckerboard="0"
     inkscape:deskcolor="#d1d1d1"
     inkscape:document-units="mm"
     showgrid="false" />
  <defs
     id="defs2042" />
  <g
     inkscape:label="Layer 1"
     inkscape:groupmode="layer"
     id="layer1"
     transform="translate(-76.790594,-51.97562)">
    <g
       inkscape:groupmode="layer"
       id="layer9"
       inkscape:label="Garigoleados 4"
       style="display:inline"
       transform="matrix(0.26458333,0,0,0.26458333,37.469552,-2.6117207)">
      <g
         id="g240"
         transform="matrix(0.65739832,0,0,-0.65739832,255.1902,240.11511)">
        <path
           d="m 0,0 c 1.566,4.592 0.99,10.11 -1.736,14.474 -2.698,4.368 -7.135,7.598 -12.197,9.029 -2.529,0.726 -5.224,1.064 -7.943,0.864 -1.354,-0.12 -2.719,-0.3 -4.058,-0.648 -1.321,-0.326 -2.574,-0.733 -3.849,-1.219 -5.065,-1.963 -9.738,-5.74 -12.766,-10.547 -3.052,-4.799 -4.559,-10.387 -4.583,-15.847 -0.023,-5.461 1.347,-10.901 4.205,-15.577 2.867,-4.639 6.863,-8.202 11.324,-10.752 4.465,-2.553 9.467,-4.117 14.638,-4.512 5.167,-0.39 10.521,0.525 15.306,2.759 4.701,2.174 8.969,5.469 12.21,9.526 3.252,4.055 5.501,8.737 6.916,13.519 1.403,4.797 2.008,9.715 1.982,14.572 -0.089,9.735 -3.003,19.214 -8.017,27.127 -4.95,7.987 -12.085,14.371 -20.225,18.597 -0.229,0.118 -0.515,0.024 -0.64,-0.21 C -9.551,50.932 -9.476,50.66 -9.274,50.532 -1.649,45.728 4.71,39.064 8.908,31.214 13.148,23.396 15.209,14.434 14.717,5.587 14.29,-3.224 11.46,-12.12 5.812,-18.421 c -2.774,-3.163 -6.247,-5.584 -10.07,-7.149 -3.745,-1.535 -7.809,-2.039 -11.763,-1.545 -7.9,0.938 -15.311,6.013 -18.763,12.6 -3.407,6.505 -3.464,15.253 0.155,21.751 1.782,3.279 4.542,5.921 7.972,7.768 0.859,0.442 1.78,0.866 2.684,1.2 0.879,0.342 1.798,0.56 2.727,0.756 1.864,0.314 3.81,0.437 5.739,0.161 3.839,-0.538 7.646,-2.28 10.392,-5.25 2.806,-2.917 4.345,-7.136 4.189,-11.73 -0.009,-0.265 0.196,-0.481 0.459,-0.482 0.213,0 0.4,0.146 0.467,0.341"
           style="fill:#feaa7c;fill-opacity:1;fill-rule:nonzero;stroke:none"
           id="path242" />
      </g>
      <g
         id="g244"
         transform="matrix(0.65739832,0,0,-0.65739832,247.59206,240.78303)">
        <path
           d="m 0,0 c 1.05,3.26 -0.691,6.681 -3.888,7.639 -3.196,0.959 -6.639,-0.907 -7.689,-4.167 -1.05,-3.261 0.691,-6.681 3.888,-7.639 C -4.492,-5.126 -1.05,-3.26 0,0"
           style="fill:#fde3cb;fill-opacity:1;fill-rule:nonzero;stroke:none"
           id="path246" />
      </g>
      <g
         id="g248"
         transform="matrix(0.65739832,0,0,-0.65739832,247.38241,254.86608)">
        <path
           d="M 0,0 C -4.785,-1.15 -15.035,0.771 -20.029,11.594 -13.21,7.482 -5.71,8.224 -2.24,9.844 6.446,13.901 9.555,2.297 0,0"
           style="fill:#da66a1;fill-opacity:1;fill-rule:nonzero;stroke:none"
           id="path250" />
      </g>
      <g
         id="g252"
         transform="matrix(0.65739832,0,0,-0.65739832,282.4863,230.59763)">
        <path
           d="m 0,0 c -3.245,3.918 -11.571,8.704 -21.291,6.583 5.158,-2.157 11.195,-7.88 13.68,-11.506 C -1.717,-13.525 5.943,-7.175 0,0"
           style="fill:#da66a1;fill-opacity:1;fill-rule:nonzero;stroke:none"
           id="path254" />
      </g>
      <g
         id="g256"
         transform="matrix(0.65739832,0,0,-0.65739832,279.12555,239.38468)">
        <path
           d="M 0,0 C -1.227,3.827 -5.833,9.133 -13.349,8.722 -10.271,6.128 -7.555,0.35 -6.789,-3.116 -4.973,-11.34 2.246,-7.009 0,0"
           style="fill:#da66a1;fill-opacity:1;fill-rule:nonzero;stroke:none"
           id="path258" />
      </g>
      <g
         id="g260"
         transform="matrix(0.65739832,0,0,-0.65739832,273.53168,247.62865)">
        <path
           d="M 0,0 C 0.981,2.856 0.465,8.154 -4.574,11.368 -3.79,8.398 -4.712,3.688 -5.824,1.261 -8.46,-4.498 -1.796,-5.23 0,0"
           style="fill:#da66a1;fill-opacity:1;fill-rule:nonzero;stroke:none"
           id="path262" />
      </g>
      <g
         id="g264"
         transform="matrix(0.65739832,0,0,-0.65739832,257.75892,247.35715)">
        <path
           d="m 0,0 c 0.44,-2.393 -0.943,-7.698 -7.168,-9.389 2.571,3.024 2.642,6.222 1.886,8.01 C -7.174,3.098 -0.878,4.779 0,0"
           style="fill:#da66a1;fill-opacity:1;fill-rule:nonzero;stroke:none"
           id="path266" />
      </g>
      <g
         id="g268"
         transform="matrix(0.65739832,0,0,-0.65739832,614.63694,240.11511)">
        <path
           d="m 0,0 c -1.566,4.592 -0.99,10.11 1.735,14.474 2.699,4.368 7.136,7.598 12.198,9.029 2.529,0.726 5.224,1.064 7.943,0.864 1.354,-0.12 2.719,-0.3 4.058,-0.648 1.32,-0.326 2.573,-0.733 3.849,-1.219 5.065,-1.963 9.738,-5.74 12.766,-10.547 3.052,-4.799 4.559,-10.387 4.582,-15.847 0.024,-5.461 -1.346,-10.901 -4.204,-15.577 -2.867,-4.639 -6.863,-8.202 -11.324,-10.752 -4.465,-2.553 -9.467,-4.117 -14.638,-4.512 -5.167,-0.39 -10.521,0.525 -15.306,2.759 -4.701,2.174 -8.969,5.469 -12.21,9.526 -3.252,4.055 -5.501,8.737 -6.916,13.519 -1.403,4.797 -2.008,9.715 -1.982,14.572 0.089,9.735 3.003,19.214 8.017,27.127 4.95,7.987 12.085,14.371 20.225,18.597 0.229,0.118 0.515,0.024 0.64,-0.21 C 9.551,50.932 9.476,50.66 9.274,50.532 1.649,45.728 -4.71,39.064 -8.908,31.214 c -4.24,-7.818 -6.301,-16.78 -5.809,-25.627 0.427,-8.811 3.257,-17.707 8.905,-24.008 2.774,-3.163 6.247,-5.584 10.07,-7.149 3.745,-1.535 7.809,-2.039 11.763,-1.545 7.9,0.938 15.311,6.013 18.763,12.6 3.407,6.505 3.464,15.253 -0.155,21.751 -1.782,3.279 -4.542,5.921 -7.972,7.768 -0.859,0.442 -1.78,0.866 -2.684,1.2 -0.879,0.342 -1.798,0.56 -2.727,0.756 -1.864,0.314 -3.81,0.437 -5.739,0.161 C 11.668,16.583 7.861,14.841 5.116,11.871 2.309,8.954 0.77,4.735 0.926,0.141 0.935,-0.124 0.73,-0.34 0.467,-0.341 0.254,-0.341 0.067,-0.195 0,0"
           style="fill:#feaa7c;fill-opacity:1;fill-rule:nonzero;stroke:none"
           id="path270" />
      </g>
      <g
         id="g272"
         transform="matrix(0.65739832,0,0,-0.65739832,622.23502,240.78303)">
        <path
           d="M 0,0 C -1.05,3.26 0.691,6.681 3.888,7.639 7.085,8.598 10.527,6.732 11.577,3.472 12.627,0.211 10.886,-3.209 7.689,-4.167 4.492,-5.126 1.05,-3.26 0,0"
           style="fill:#fde3cb;fill-opacity:1;fill-rule:nonzero;stroke:none"
           id="path274" />
      </g>
      <g
         id="g276"
         transform="matrix(0.65739832,0,0,-0.65739832,622.44473,254.86608)">
        <path
           d="M 0,0 C 4.785,-1.15 15.034,0.771 20.029,11.594 13.21,7.482 5.71,8.224 2.24,9.844 -6.446,13.901 -9.555,2.297 0,0"
           style="fill:#da66a1;fill-opacity:1;fill-rule:nonzero;stroke:none"
           id="path278" />
      </g>
      <g
         id="g280"
         transform="matrix(0.65739832,0,0,-0.65739832,587.34084,230.59763)">
        <path
           d="M 0,0 C 3.245,3.918 11.571,8.704 21.291,6.583 16.133,4.426 10.096,-1.297 7.611,-4.923 1.717,-13.525 -5.943,-7.175 0,0"
           style="fill:#da66a1;fill-opacity:1;fill-rule:nonzero;stroke:none"
           id="path282" />
      </g>
      <g
         id="g284"
         transform="matrix(0.65739832,0,0,-0.65739832,590.70159,239.38468)">
        <path
           d="M 0,0 C 1.227,3.827 5.833,9.133 13.349,8.722 10.271,6.128 7.555,0.35 6.789,-3.116 4.973,-11.34 -2.246,-7.009 0,0"
           style="fill:#da66a1;fill-opacity:1;fill-rule:nonzero;stroke:none"
           id="path286" />
      </g>
      <g
         id="g288"
         transform="matrix(0.65739832,0,0,-0.65739832,596.2954,247.62865)">
        <path
           d="M 0,0 C -0.98,2.856 -0.465,8.154 4.574,11.368 3.79,8.398 4.713,3.688 5.824,1.261 8.46,-4.498 1.796,-5.23 0,0"
           style="fill:#da66a1;fill-opacity:1;fill-rule:nonzero;stroke:none"
           id="path290" />
      </g>
      <g
         id="g292"
         transform="matrix(0.65739832,0,0,-0.65739832,612.06815,247.35715)">
        <path
           d="M 0,0 C -0.439,-2.393 0.944,-7.698 7.168,-9.389 4.597,-6.365 4.526,-3.167 5.282,-1.379 7.174,3.098 0.878,4.779 0,0"
           style="fill:#da66a1;fill-opacity:1;fill-rule:nonzero;stroke:none"
           id="path294" />
      </g>
    </g>
  </g>
</svg>
