<?xml version="1.0" encoding="UTF-8" standalone="no"?>
<!-- Created with Inkscape (http://www.inkscape.org/) -->

<svg
   width="151.5mm"
   height="15mm"
   viewBox="0 0 151.5 15"
   version="1.1"
   id="svg2045"
   inkscape:export-filename="garigoles_superior.svg"
   inkscape:export-xdpi="96"
   inkscape:export-ydpi="96"
   xmlns:inkscape="http://www.inkscape.org/namespaces/inkscape"
   xmlns:sodipodi="http://sodipodi.sourceforge.net/DTD/sodipodi-0.dtd"
   xmlns="http://www.w3.org/2000/svg"
   xmlns:svg="http://www.w3.org/2000/svg">
  <sodipodi:namedview
     id="namedview2047"
     pagecolor="#ffffff"
     bordercolor="#000000"
     borderopacity="0.25"
     inkscape:showpageshadow="2"
     inkscape:pageopacity="0.0"
     inkscape:pagecheckerboard="0"
     inkscape:deskcolor="#d1d1d1"
     inkscape:document-units="mm"
     showgrid="false" />
  <defs
     id="defs2042" />
  <g
     inkscape:label="Layer 1"
     inkscape:groupmode="layer"
     id="layer1"
     transform="translate(-56.790595,-126.50818)">
    <g
       inkscape:groupmode="layer"
       id="layer9"
       inkscape:label="Garigoleados 4"
       style="display:inline"
       transform="matrix(0.26458333,0,0,0.26458333,37.469552,-2.6117207)">
      <g
         id="g184"
         transform="matrix(0.65739789,0,0,-0.65739789,179.59963,510.90443)">
        <path
           d="m 0,0 c 1.566,-4.592 0.99,-10.109 -1.736,-14.474 -2.698,-4.367 -7.135,-7.598 -12.197,-9.029 -2.529,-0.726 -5.224,-1.064 -7.943,-0.864 -1.354,0.12 -2.719,0.3 -4.058,0.648 -1.321,0.326 -2.574,0.733 -3.849,1.219 -5.065,1.963 -9.738,5.74 -12.766,10.547 -3.052,4.799 -4.559,10.387 -4.583,15.847 -0.023,5.461 1.347,10.901 4.205,15.577 2.867,4.639 6.863,8.202 11.324,10.752 4.465,2.554 9.467,4.117 14.638,4.512 5.167,0.39 10.521,-0.524 15.306,-2.759 4.701,-2.174 8.969,-5.469 12.21,-9.526 3.252,-4.055 5.501,-8.737 6.916,-13.519 1.403,-4.797 2.008,-9.715 1.982,-14.572 -0.089,-9.735 -3.003,-19.214 -8.017,-27.127 -4.95,-7.987 -12.085,-14.371 -20.225,-18.597 -0.229,-0.118 -0.515,-0.024 -0.64,0.21 -0.118,0.223 -0.043,0.495 0.159,0.623 7.625,4.804 13.984,11.468 18.182,19.318 4.24,7.818 6.301,16.78 5.809,25.627 -0.427,8.811 -3.257,17.707 -8.905,24.008 -2.774,3.163 -6.247,5.584 -10.07,7.149 -3.745,1.535 -7.809,2.039 -11.763,1.545 -7.9,-0.938 -15.311,-6.013 -18.763,-12.6 -3.407,-6.504 -3.464,-15.253 0.155,-21.751 1.782,-3.278 4.542,-5.921 7.972,-7.768 0.859,-0.442 1.78,-0.866 2.684,-1.2 0.879,-0.341 1.798,-0.56 2.727,-0.756 1.864,-0.314 3.81,-0.437 5.739,-0.161 3.839,0.538 7.646,2.28 10.392,5.251 2.806,2.916 4.345,7.135 4.189,11.729 -0.009,0.265 0.196,0.481 0.459,0.482 0.213,0 0.4,-0.146 0.467,-0.341"
           style="fill:#feaa7c;fill-opacity:1;fill-rule:nonzero;stroke:none"
           id="path186" />
      </g>
      <g
         id="g188"
         transform="matrix(0.65739789,0,0,-0.65739789,172.00149,510.23645)">
        <path
           d="m 0,0 c 1.05,-3.26 -0.691,-6.681 -3.888,-7.639 -3.196,-0.959 -6.639,0.907 -7.689,4.167 -1.05,3.26 0.691,6.681 3.888,7.639 C -4.492,5.126 -1.05,3.26 0,0"
           style="fill:#fde3cb;fill-opacity:1;fill-rule:nonzero;stroke:none"
           id="path190" />
      </g>
      <g
         id="g192"
         transform="matrix(0.65739789,0,0,-0.65739789,171.79185,496.15341)">
        <path
           d="M 0,0 C -4.785,1.15 -15.035,-0.771 -20.029,-11.593 -13.21,-7.482 -5.71,-8.224 -2.24,-9.844 6.446,-13.901 9.555,-2.297 0,0"
           style="fill:#da66a1;fill-opacity:1;fill-rule:nonzero;stroke:none"
           id="path194" />
      </g>
      <g
         id="g196"
         transform="matrix(0.65739789,0,0,-0.65739789,206.89571,520.42184)">
        <path
           d="m 0,0 c -3.245,-3.918 -11.571,-8.704 -21.291,-6.583 5.158,2.157 11.195,7.88 13.68,11.506 C -1.717,13.525 5.943,7.175 0,0"
           style="fill:#da66a1;fill-opacity:1;fill-rule:nonzero;stroke:none"
           id="path198" />
      </g>
      <g
         id="g200"
         transform="matrix(0.65739789,0,0,-0.65739789,203.53496,511.6348)">
        <path
           d="m 0,0 c -1.227,-3.827 -5.833,-9.133 -13.349,-8.722 3.078,2.594 5.794,8.372 6.56,11.838 C -4.973,11.34 2.246,7.009 0,0"
           style="fill:#da66a1;fill-opacity:1;fill-rule:nonzero;stroke:none"
           id="path202" />
      </g>
      <g
         id="g204"
         transform="matrix(0.65739789,0,0,-0.65739789,197.9411,503.3909)">
        <path
           d="m 0,0 c 0.981,-2.856 0.465,-8.154 -4.574,-11.368 0.784,2.97 -0.138,7.68 -1.25,10.107 C -8.46,4.499 -1.796,5.23 0,0"
           style="fill:#da66a1;fill-opacity:1;fill-rule:nonzero;stroke:none"
           id="path206" />
      </g>
      <g
         id="g208"
         transform="matrix(0.65739789,0,0,-0.65739789,182.16835,503.66234)">
        <path
           d="M 0,0 C 0.44,2.393 -0.943,7.698 -7.168,9.389 -4.597,6.365 -4.526,3.167 -5.282,1.379 -7.174,-3.098 -0.878,-4.779 0,0"
           style="fill:#da66a1;fill-opacity:1;fill-rule:nonzero;stroke:none"
           id="path210" />
      </g>
      <g
         id="g212"
         transform="matrix(0.65739789,0,0,-0.65739789,539.04636,510.90443)">
        <path
           d="m 0,0 c -1.566,-4.592 -0.99,-10.109 1.735,-14.474 2.699,-4.367 7.136,-7.598 12.198,-9.029 2.529,-0.726 5.224,-1.064 7.943,-0.864 1.354,0.12 2.719,0.3 4.058,0.648 1.32,0.326 2.573,0.733 3.849,1.219 5.065,1.963 9.738,5.74 12.766,10.547 3.052,4.799 4.559,10.387 4.582,15.847 0.024,5.461 -1.346,10.901 -4.204,15.577 -2.867,4.639 -6.863,8.202 -11.324,10.752 -4.465,2.554 -9.467,4.117 -14.638,4.512 -5.167,0.39 -10.521,-0.524 -15.306,-2.759 -4.701,-2.174 -8.969,-5.469 -12.21,-9.526 -3.252,-4.055 -5.501,-8.737 -6.916,-13.519 -1.403,-4.797 -2.008,-9.715 -1.982,-14.572 0.089,-9.735 3.003,-19.214 8.017,-27.127 4.95,-7.987 12.085,-14.371 20.225,-18.597 0.229,-0.118 0.515,-0.024 0.64,0.21 0.118,0.223 0.043,0.495 -0.159,0.623 -7.625,4.804 -13.984,11.468 -18.182,19.318 -4.24,7.818 -6.301,16.78 -5.809,25.627 0.427,8.811 3.257,17.707 8.905,24.008 2.774,3.163 6.247,5.584 10.07,7.149 3.745,1.535 7.809,2.039 11.763,1.545 7.9,-0.938 15.311,-6.013 18.763,-12.6 3.407,-6.504 3.464,-15.253 -0.155,-21.751 -1.782,-3.278 -4.542,-5.921 -7.972,-7.768 -0.859,-0.442 -1.78,-0.866 -2.684,-1.2 -0.879,-0.341 -1.798,-0.56 -2.727,-0.756 -1.864,-0.314 -3.81,-0.437 -5.739,-0.161 -3.839,0.538 -7.646,2.28 -10.391,5.251 C 2.309,-8.954 0.77,-4.735 0.926,-0.141 0.935,0.124 0.73,0.34 0.467,0.341 0.254,0.341 0.067,0.195 0,0"
           style="fill:#feaa7c;fill-opacity:1;fill-rule:nonzero;stroke:none"
           id="path214" />
      </g>
      <g
         id="g216"
         transform="matrix(0.65739789,0,0,-0.65739789,546.64443,510.23645)">
        <path
           d="m 0,0 c -1.05,-3.26 0.691,-6.681 3.888,-7.639 3.197,-0.959 6.639,0.907 7.689,4.167 1.05,3.26 -0.691,6.681 -3.888,7.639 C 4.492,5.126 1.05,3.26 0,0"
           style="fill:#fde3cb;fill-opacity:1;fill-rule:nonzero;stroke:none"
           id="path218" />
      </g>
      <g
         id="g220"
         transform="matrix(0.65739789,0,0,-0.65739789,546.85415,496.15341)">
        <path
           d="M 0,0 C 4.785,1.15 15.034,-0.771 20.029,-11.593 13.21,-7.482 5.71,-8.224 2.24,-9.844 -6.446,-13.901 -9.555,-2.297 0,0"
           style="fill:#da66a1;fill-opacity:1;fill-rule:nonzero;stroke:none"
           id="path222" />
      </g>
      <g
         id="g224"
         transform="matrix(0.65739789,0,0,-0.65739789,511.75028,520.42184)">
        <path
           d="M 0,0 C 3.245,-3.918 11.571,-8.704 21.291,-6.583 16.133,-4.426 10.096,1.297 7.611,4.923 1.717,13.525 -5.943,7.175 0,0"
           style="fill:#da66a1;fill-opacity:1;fill-rule:nonzero;stroke:none"
           id="path226" />
      </g>
      <g
         id="g228"
         transform="matrix(0.65739789,0,0,-0.65739789,515.11103,511.6348)">
        <path
           d="M 0,0 C 1.227,-3.827 5.833,-9.133 13.349,-8.722 10.271,-6.128 7.555,-0.35 6.789,3.116 4.973,11.34 -2.246,7.009 0,0"
           style="fill:#da66a1;fill-opacity:1;fill-rule:nonzero;stroke:none"
           id="path230" />
      </g>
      <g
         id="g232"
         transform="matrix(0.65739789,0,0,-0.65739789,520.70483,503.3909)">
        <path
           d="m 0,0 c -0.98,-2.856 -0.465,-8.154 4.574,-11.368 -0.784,2.97 0.139,7.68 1.25,10.107 C 8.46,4.499 1.796,5.23 0,0"
           style="fill:#da66a1;fill-opacity:1;fill-rule:nonzero;stroke:none"
           id="path234" />
      </g>
      <g
         id="g236"
         transform="matrix(0.65739789,0,0,-0.65739789,536.47758,503.66234)">
        <path
           d="M 0,0 C -0.439,2.393 0.944,7.698 7.168,9.389 4.597,6.365 4.526,3.167 5.282,1.379 7.174,-3.098 0.878,-4.779 0,0"
           style="fill:#da66a1;fill-opacity:1;fill-rule:nonzero;stroke:none"
           id="path238" />
      </g>
    </g>
  </g>
</svg>
