<?xml version="1.0" encoding="UTF-8" standalone="no"?>
<!-- Created with Inkscape (http://www.inkscape.org/) -->

<svg
   width="151.5mm"
   height="118.028mm"
   viewBox="0 0 151.5 118.028"
   version="1.1"
   id="svg18260"
   xml:space="preserve"
   inkscape:version="1.2.1 (9c6d41e, 2022-07-14)"
   sodipodi:docname="Pagina_2.svg.2022_10_30_14_26_15.1.svg"
   inkscape:export-filename="../../Página dia de muertos/Código/Recursos/Pagina_3/flores.svg"
   inkscape:export-xdpi="96"
   inkscape:export-ydpi="96"
   xmlns:inkscape="http://www.inkscape.org/namespaces/inkscape"
   xmlns:sodipodi="http://sodipodi.sourceforge.net/DTD/sodipodi-0.dtd"
   xmlns="http://www.w3.org/2000/svg"
   xmlns:svg="http://www.w3.org/2000/svg"><sodipodi:namedview
     id="namedview18262"
     pagecolor="#ffffff"
     bordercolor="#000000"
     borderopacity="0.25"
     inkscape:showpageshadow="2"
     inkscape:pageopacity="0.0"
     inkscape:pagecheckerboard="0"
     inkscape:deskcolor="#d1d1d1"
     inkscape:document-units="mm"
     showgrid="false"
     inkscape:zoom="1.1712514"
     inkscape:cx="232.65713"
     inkscape:cy="318.88969"
     inkscape:window-width="1680"
     inkscape:window-height="997"
     inkscape:window-x="-4"
     inkscape:window-y="26"
     inkscape:window-maximized="0"
     inkscape:current-layer="layer16" /><defs
     id="defs18257" /><g
     inkscape:label="Layer 1"
     inkscape:groupmode="layer"
     id="layer1"
     transform="translate(0.32410948,0.32410948)"><rect
       style="display:none;fill:#362955;fill-opacity:1;stroke:#efbed7;stroke-width:0.524129;stroke-opacity:1"
       id="rect22117-8-8"
       width="150.97588"
       height="196.81587"
       x="-0.062044993"
       y="-0.062044993" /><g
       inkscape:groupmode="layer"
       id="layer23"
       inkscape:label="Scrollables 2"
       transform="matrix(0.26458333,0,0,0.26458333,-464.19669,-10.960258)"
       style="display:none"><g
         id="g3240"
         transform="matrix(1.3333333,0,0,-1.3333333,1753.336,409.38584)"
         style="display:inline"><path
           d="M 0,0 C 21.94,3.307 27.157,10.154 29.735,23.567 15.337,26.025 6.259,20.685 0,0"
           style="fill:#feaa7c;fill-opacity:1;fill-rule:nonzero;stroke:none"
           id="path3242" /></g><g
         id="g3244"
         transform="matrix(1.3333333,0,0,-1.3333333,1757.645,405.65104)"
         style="display:inline"><path
           d="M 0,0 C 7.821,8.848 16.034,16.94 24.093,19.362 16.65,14.775 9.334,7.795 0,0"
           style="fill:#fde3cb;fill-opacity:1;fill-rule:nonzero;stroke:none"
           id="path3246" /></g><g
         id="g3248"
         transform="matrix(1.3333333,0,0,-1.3333333,1911.1094,276.49025)"
         style="display:inline"><path
           d="M 0,0 C -18.812,11.765 -20.873,20.122 -17.901,33.454 -3.714,29.979 2.489,21.468 0,0"
           style="fill:#feaa7c;fill-opacity:1;fill-rule:nonzero;stroke:none"
           id="path3250" /></g><g
         id="g3252"
         transform="matrix(1.3333333,0,0,-1.3333333,1908.6425,271.34905)"
         style="display:inline"><path
           d="M 0,0 C -3.654,11.23 -7.968,21.922 -14.398,27.35 -9.395,20.18 -5.461,10.865 0,0"
           style="fill:#fde3cb;fill-opacity:1;fill-rule:nonzero;stroke:none"
           id="path3254" /></g><g
         id="g3264"
         transform="matrix(1.3333333,0,0,-1.3333333,2134.1802,49.792925)"
         style="display:inline"><path
           d="M 0,0 C -13.218,-17.821 -21.712,-19.214 -34.767,-15.194 -30.179,-1.328 -21.203,4.182 0,0"
           style="fill:#feaa7c;fill-opacity:1;fill-rule:nonzero;stroke:none"
           id="path3266" /></g><g
         id="g3268"
         transform="matrix(1.3333333,0,0,-1.3333333,2128.8598,51.844795)"
         style="display:inline"><path
           d="M 0,0 C -11.484,-2.753 -22.484,-6.206 -28.405,-12.186 -20.861,-7.767 -11.264,-4.583 0,0"
           style="fill:#fde3cb;fill-opacity:1;fill-rule:nonzero;stroke:none"
           id="path3270" /></g></g><g
       inkscape:groupmode="layer"
       id="layer15"
       inkscape:label="Guitarra"
       transform="matrix(0.26458333,0,0,0.26458333,-459.58821,-10.654175)"
       style="display:none"><g
         id="g3288"
         transform="matrix(1.3333333,0,0,-1.3333333,2219.1946,77.413078)"><path
           d="M 0,0 17.036,-0.024 17.03,-4.464 -0.006,-4.44 Z"
           style="fill:#6c59b2;fill-opacity:1;fill-rule:nonzero;stroke:none"
           id="path3290" /></g><g
         id="g3292"
         transform="matrix(1.3333333,0,0,-1.3333333,2237.4038,74.523611)"><path
           d="m 0,0 c 0.692,2.339 2.122,3.922 4.667,3.18 2.574,-0.751 4.718,-2.859 5.499,-5.405 0.78,-2.547 0.172,-5.45 -1.56,-7.444 -2.099,-2.416 -6.431,-4.026 -8.184,-0.36 C -0.481,-8.14 -0.98,-3.312 0,0"
           style="fill:#fde3cb;fill-opacity:1;fill-rule:nonzero;stroke:none"
           id="path3294" /></g><g
         id="g3296"
         transform="matrix(1.3333333,0,0,-1.3333333,2222.9571,104.55228)"><path
           d="M 0,0 17.036,-0.024 17.03,-4.464 -0.006,-4.44 Z"
           style="fill:#6c59b2;fill-opacity:1;fill-rule:nonzero;stroke:none"
           id="path3298" /></g><g
         id="g3300"
         transform="matrix(1.3333333,0,0,-1.3333333,2241.1662,101.66268)"><path
           d="M 0,0 C 0.692,2.339 2.122,3.922 4.667,3.179 7.24,2.429 9.385,0.321 10.165,-2.225 10.946,-4.772 10.338,-7.675 8.606,-9.669 6.507,-12.085 2.175,-13.695 0.422,-10.029 -0.481,-8.14 -0.98,-3.312 0,0"
           style="fill:#fde3cb;fill-opacity:1;fill-rule:nonzero;stroke:none"
           id="path3302" /></g><g
         id="g3304"
         transform="matrix(1.3333333,0,0,-1.3333333,2226.6509,131.69148)"><path
           d="M 0,0 17.036,-0.024 17.03,-4.464 -0.006,-4.44 Z"
           style="fill:#6c59b2;fill-opacity:1;fill-rule:nonzero;stroke:none"
           id="path3306" /></g><g
         id="g3308"
         transform="matrix(1.3333333,0,0,-1.3333333,2244.8598,128.80188)"><path
           d="m 0,0 c 0.692,2.339 2.122,3.922 4.667,3.18 2.574,-0.751 4.718,-2.859 5.499,-5.405 0.78,-2.546 0.172,-5.45 -1.56,-7.444 -2.099,-2.415 -6.431,-4.026 -8.184,-0.36 C -0.481,-8.14 -0.98,-3.312 0,0"
           style="fill:#fde3cb;fill-opacity:1;fill-rule:nonzero;stroke:none"
           id="path3310" /></g><g
         id="g3312"
         transform="matrix(1.3333333,0,0,-1.3333333,2195.3483,77.379211)"><path
           d="m 0,0 -17.036,0.024 -0.007,-4.44 17.037,-0.024 z"
           style="fill:#6c59b2;fill-opacity:1;fill-rule:nonzero;stroke:none"
           id="path3314" /></g><g
         id="g3316"
         transform="matrix(1.3333333,0,0,-1.3333333,2177.1473,74.438145)"><path
           d="m 0,0 c -0.685,2.341 -2.111,3.928 -4.658,3.193 -2.576,-0.743 -4.726,-2.845 -5.514,-5.389 -0.787,-2.545 -0.187,-5.45 1.539,-7.449 2.092,-2.421 6.419,-4.043 8.182,-0.383 C 0.458,-8.141 0.971,-3.315 0,0"
           style="fill:#fde3cb;fill-opacity:1;fill-rule:nonzero;stroke:none"
           id="path3318" /></g><g
         id="g3320"
         transform="matrix(1.3333333,0,0,-1.3333333,2191.5089,104.50775)"><path
           d="m 0,0 -17.036,0.024 -0.007,-4.44 17.037,-0.024 z"
           style="fill:#6c59b2;fill-opacity:1;fill-rule:nonzero;stroke:none"
           id="path3322" /></g><g
         id="g3324"
         transform="matrix(1.3333333,0,0,-1.3333333,2173.3081,101.56655)"><path
           d="m 0,0 c -0.685,2.341 -2.111,3.928 -4.658,3.193 -2.576,-0.743 -4.726,-2.845 -5.514,-5.389 -0.788,-2.544 -0.187,-5.45 1.539,-7.449 2.092,-2.421 6.419,-4.043 8.182,-0.383 C 0.458,-8.141 0.971,-3.315 0,0"
           style="fill:#fde3cb;fill-opacity:1;fill-rule:nonzero;stroke:none"
           id="path3326" /></g><g
         id="g3328"
         transform="matrix(1.3333333,0,0,-1.3333333,2187.7383,131.63615)"><path
           d="m 0,0 -17.036,0.024 -0.007,-4.44 17.037,-0.024 z"
           style="fill:#6c59b2;fill-opacity:1;fill-rule:nonzero;stroke:none"
           id="path3330" /></g><g
         id="g3332"
         transform="matrix(1.3333333,0,0,-1.3333333,2169.5375,128.69508)"><path
           d="m 0,0 c -0.685,2.341 -2.11,3.928 -4.658,3.193 -2.576,-0.743 -4.726,-2.845 -5.514,-5.39 -0.788,-2.544 -0.187,-5.449 1.539,-7.448 2.092,-2.421 6.419,-4.043 8.182,-0.383 C 0.458,-8.141 0.971,-3.315 0,0"
           style="fill:#fde3cb;fill-opacity:1;fill-rule:nonzero;stroke:none"
           id="path3334" /></g><g
         id="g3336"
         transform="matrix(1.3333333,0,0,-1.3333333,2333.9302,709.68293)"><path
           d="m 0,0 c -23.531,-20.674 -64.297,-32.54 -95.408,-33.252 -57.287,-1.311 -140.907,42.689 -120.147,111.882 0.184,0.604 0.374,1.206 0.573,1.806 10.498,31.538 44.327,54.36 47.298,87.391 3.151,35.486 -26.435,69.283 3.421,100.752 17.151,18.078 44.123,22.393 68.47,22.275 25.24,-0.122 52.595,-3.559 70.438,-22.472 29.766,-31.553 0.085,-65.266 3.135,-100.761 2.877,-33.039 36.641,-55.958 47.051,-87.525 C 34.092,52.046 22.619,19.874 0,0"
           style="fill:#da66a1;fill-opacity:1;fill-rule:nonzero;stroke:none"
           id="path3338" /></g><g
         id="g3340"
         transform="matrix(1.3333333,0,0,-1.3333333,2251.6387,454.06134)"><path
           d="m 0,0 c -0.026,-18.502 -15.047,-33.48 -33.549,-33.454 -18.502,0.026 -33.48,15.047 -33.454,33.549 0.026,18.502 15.047,33.48 33.549,33.454 C -14.952,33.523 0.026,18.502 0,0"
           style="fill:#fde3cb;fill-opacity:1;fill-rule:nonzero;stroke:none"
           id="path3342" /></g><g
         id="g3344"
         transform="matrix(1.3333333,0,0,-1.3333333,2223.5959,410.13694)"><path
           d="m 0,0 c -0.305,-5.939 -5.367,-10.507 -11.306,-10.203 -5.939,0.305 -10.507,5.367 -10.202,11.306 0.304,5.94 5.366,10.508 11.305,10.203 C -4.263,11.001 0.305,5.939 0,0"
           style="fill:#6c59b2;fill-opacity:1;fill-rule:nonzero;stroke:none"
           id="path3346" /></g><g
         id="g3348"
         transform="matrix(1.3333333,0,0,-1.3333333,2245.9718,427.93067)"><path
           d="m 0,0 c -3.695,-4.66 -10.468,-5.442 -15.128,-1.747 -4.66,3.695 -5.443,10.468 -1.748,15.128 3.695,4.66 10.468,5.442 15.129,1.747 C 2.912,11.433 3.695,4.66 0,0"
           style="fill:#6c59b2;fill-opacity:1;fill-rule:nonzero;stroke:none"
           id="path3350" /></g><g
         id="g3352"
         transform="matrix(1.3333333,0,0,-1.3333333,2253.8674,455.40707)"><path
           d="m 0,0 c -5.714,-1.651 -11.684,1.643 -13.334,7.357 -1.651,5.713 1.643,11.683 7.356,13.334 5.714,1.65 11.684,-1.643 13.334,-7.357 C 9.007,7.621 5.714,1.651 0,0"
           style="fill:#6c59b2;fill-opacity:1;fill-rule:nonzero;stroke:none"
           id="path3354" /></g><g
         id="g3356"
         transform="matrix(1.3333333,0,0,-1.3333333,2244.3518,482.36507)"><path
           d="M 0,0 C -5.611,1.971 -8.561,8.118 -6.59,13.729 -4.618,19.34 1.529,22.29 7.14,20.319 12.75,18.347 15.701,12.2 13.729,6.59 11.758,0.979 5.611,-1.972 0,0"
           style="fill:#6c59b2;fill-opacity:1;fill-rule:nonzero;stroke:none"
           id="path3358" /></g><g
         id="g3360"
         transform="matrix(1.3333333,0,0,-1.3333333,2220.9575,498.7968)"><path
           d="M 0,0 C -3.425,4.862 -2.26,11.58 2.601,15.005 7.463,18.43 14.181,17.266 17.606,12.404 21.031,7.542 19.867,0.824 15.005,-2.601 10.143,-6.026 3.425,-4.862 0,0"
           style="fill:#6c59b2;fill-opacity:1;fill-rule:nonzero;stroke:none"
           id="path3362" /></g><g
         id="g3364"
         transform="matrix(1.3333333,0,0,-1.3333333,2192.3701,498.60174)"><path
           d="M 0,0 C 0.032,5.947 4.879,10.742 10.826,10.71 16.773,10.678 21.568,5.831 21.536,-0.116 21.504,-6.063 16.657,-10.858 10.71,-10.826 4.763,-10.794 -0.032,-5.947 0,0"
           style="fill:#6c59b2;fill-opacity:1;fill-rule:nonzero;stroke:none"
           id="path3366" /></g><g
         id="g3368"
         transform="matrix(1.3333333,0,0,-1.3333333,2169.2022,481.85227)"><path
           d="M 0,0 C 3.477,4.825 10.208,5.917 15.032,2.439 19.857,-1.039 20.949,-7.769 17.471,-12.593 13.994,-17.418 7.263,-18.51 2.439,-15.032 -2.385,-11.555 -3.477,-4.824 0,0"
           style="fill:#6c59b2;fill-opacity:1;fill-rule:nonzero;stroke:none"
           id="path3370" /></g><g
         id="g3372"
         transform="matrix(1.3333333,0,0,-1.3333333,2160.0554,454.76667)"><path
           d="M 0,0 C 5.632,1.911 11.746,-1.106 13.657,-6.738 15.568,-12.37 12.552,-18.484 6.92,-20.395 1.288,-22.306 -4.827,-19.289 -6.737,-13.657 -8.648,-8.025 -5.632,-1.911 0,0"
           style="fill:#6c59b2;fill-opacity:1;fill-rule:nonzero;stroke:none"
           id="path3374" /></g><g
         id="g3376"
         transform="matrix(1.3333333,0,0,-1.3333333,2168.3255,427.40094)"><path
           d="m 0,0 c 5.695,-1.712 8.924,-7.717 7.212,-13.413 -1.712,-5.695 -7.717,-8.924 -13.413,-7.212 -5.695,1.713 -8.924,7.718 -7.212,13.413 C -11.7,-1.517 -5.695,1.712 0,0"
           style="fill:#6c59b2;fill-opacity:1;fill-rule:nonzero;stroke:none"
           id="path3378" /></g><g
         id="g3380"
         transform="matrix(1.3333333,0,0,-1.3333333,2190.9419,409.91414)"><path
           d="m 0,0 c 3.644,-4.7 2.789,-11.464 -1.911,-15.108 -4.699,-3.645 -11.464,-2.789 -15.108,1.91 -3.645,4.7 -2.789,11.464 1.911,15.109 C -10.409,5.555 -3.644,4.7 0,0"
           style="fill:#6c59b2;fill-opacity:1;fill-rule:nonzero;stroke:none"
           id="path3382" /></g><g
         id="g3384"
         transform="matrix(1.3333333,0,0,-1.3333333,2251.6387,454.06134)"><path
           d="m 0,0 c -0.026,-18.502 -15.047,-33.48 -33.549,-33.454 -18.502,0.026 -33.48,15.047 -33.454,33.549 0.026,18.502 15.047,33.48 33.549,33.454 C -14.952,33.523 0.026,18.502 0,0"
           style="fill:#fde3cb;fill-opacity:1;fill-rule:nonzero;stroke:none"
           id="path3386" /></g><g
         id="g3388"
         transform="matrix(1.3333333,0,0,-1.3333333,2238.8765,454.04321)"><path
           d="m 0,0 c -0.019,-13.216 -10.747,-23.915 -23.964,-23.896 -13.215,0.019 -23.914,10.748 -23.895,23.964 0.019,13.216 10.747,23.914 23.963,23.895 C -10.68,23.945 0.019,13.216 0,0"
           style="fill:#362955;fill-opacity:1;fill-rule:nonzero;stroke:none"
           id="path3390" /></g><g
         id="g3392"
         transform="matrix(1.3333333,0,0,-1.3333333,2216.9439,430.06734)"><path
           d="m 0,0 -14.836,0.021 c -1.41,0.002 -2.551,1.146 -2.549,2.556 L -17.082,216.648 2.859,216.62 2.556,2.549 C 2.554,1.139 1.41,-0.002 0,0"
           style="fill:#feaa7c;fill-opacity:1;fill-rule:nonzero;stroke:none"
           id="path3394" /></g><g
         id="g3396"
         transform="matrix(1.3333333,0,0,-1.3333333,2237.1842,145.65681)"><path
           d="m 0,0 c -1.56,-4.173 -7.337,-6.352 -11.256,-7.772 -3.616,-1.287 -7.432,-2.011 -11.248,-2.105 -3.85,0.072 -7.665,0.84 -11.276,2.137 -3.915,1.431 -9.687,3.626 -11.234,7.804 -1.48,3.912 0.182,8.947 0.761,12.89 2.046,14.213 4.126,28.394 6.173,42.574 0.647,4.407 1.431,9.343 5.015,12.42 2.84,2.448 6.898,3.333 10.676,3.312 3.771,-0.022 7.799,-0.886 10.632,-3.342 3.575,-3.087 4.345,-8.026 4.98,-12.434 C -4.771,41.298 -2.731,27.111 -0.725,12.892 -0.156,8.948 1.491,3.908 0,0"
           style="fill:#da66a1;fill-opacity:1;fill-rule:nonzero;stroke:none"
           id="path3398" /></g><g
         id="g3400"
         transform="matrix(1.3333333,0,0,-1.3333333,2222.2922,132.98215)"><path
           d="m 0,0 v 0 c -1.479,0.002 -2.828,1.083 -3.013,2.415 l -5.248,37.694 c -0.186,1.332 0.863,2.41 2.342,2.408 1.479,-0.003 2.828,-1.084 3.013,-2.415 L 2.342,2.407 C 2.527,1.076 1.479,-0.002 0,0"
           style="fill:#362955;fill-opacity:1;fill-rule:nonzero;stroke:none"
           id="path3402" /></g><g
         id="g3404"
         transform="matrix(1.3333333,0,0,-1.3333333,2192.0933,132.93935)"><path
           d="M 0,0 V 0 C 1.479,-0.002 2.831,1.075 3.02,2.406 L 8.375,40.085 C 8.564,41.417 7.518,42.497 6.04,42.5 4.561,42.502 3.209,41.424 3.02,40.093 L -2.335,2.414 C -2.524,1.083 -1.479,0.002 0,0"
           style="fill:#362955;fill-opacity:1;fill-rule:nonzero;stroke:none"
           id="path3406" /></g><g
         id="g3412"
         transform="matrix(1.3333333,0,0,-1.3333333,2296.2759,417.71667)"><path
           d="M 0,0 C 0.224,7.933 -2.093,14.122 -8.058,18.973 -8.094,19.003 -8.14,18.961 -8.127,18.921 -6.267,13.331 -5.958,6.693 -7.638,1.125 -9.924,-6.448 -0.208,-7.378 0,0"
           style="fill:#feaa7c;fill-opacity:1;fill-rule:nonzero;stroke:none"
           id="path3414" /></g><g
         id="g3416"
         transform="matrix(1.3333333,0,0,-1.3333333,2302.3274,374.21281)"><path
           d="m 0,0 c -8.417,7.596 -17.292,10.814 -28.094,8.826 -0.065,-0.012 -0.063,-0.101 -0.007,-0.124 7.8,-3.159 15.303,-8.975 19.798,-15.963 C -2.189,-16.764 7.828,-7.065 0,0"
           style="fill:#fde3cb;fill-opacity:1;fill-rule:nonzero;stroke:none"
           id="path3418" /></g><g
         id="g3420"
         transform="matrix(1.3333333,0,0,-1.3333333,2267.5411,339.58374)"><path
           d="m 0,0 c -11.319,0.653 -20.254,-2.393 -27.432,-10.707 -0.044,-0.05 0.014,-0.118 0.072,-0.1 8.06,2.419 17.551,2.581 25.431,-0.053 C 8.789,-14.443 10.527,-0.608 0,0"
           style="fill:#feaa7c;fill-opacity:1;fill-rule:nonzero;stroke:none"
           id="path3422" /></g><g
         id="g3424"
         transform="matrix(1.3333333,0,0,-1.3333333,2117.8653,417.46387)"><path
           d="M 0,0 C -0.201,7.934 2.133,14.116 8.112,18.95 8.148,18.98 8.194,18.938 8.18,18.898 6.305,13.313 5.977,6.676 7.642,1.104 9.906,-6.476 0.187,-7.379 0,0"
           style="fill:#feaa7c;fill-opacity:1;fill-rule:nonzero;stroke:none"
           id="path3426" /></g><g
         id="g3428"
         transform="matrix(1.3333333,0,0,-1.3333333,2111.9371,373.94307)"><path
           d="M 0,0 C 8.439,7.572 17.322,10.765 28.119,8.746 28.184,8.734 28.182,8.645 28.125,8.623 20.317,5.486 12.797,-0.31 8.283,-7.284 2.142,-16.77 -7.848,-7.042 0,0"
           style="fill:#fde3cb;fill-opacity:1;fill-rule:nonzero;stroke:none"
           id="path3430" /></g><g
         id="g3432"
         transform="matrix(1.3333333,0,0,-1.3333333,2146.8215,339.41268)"><path
           d="m 0,0 c 11.321,0.621 20.247,-2.451 27.402,-10.784 0.043,-0.051 -0.014,-0.119 -0.072,-0.101 C 19.276,-8.442 9.785,-8.254 1.898,-10.866 -8.83,-14.418 -10.529,-0.578 0,0"
           style="fill:#feaa7c;fill-opacity:1;fill-rule:nonzero;stroke:none"
           id="path3434" /></g><g
         id="g3512"
         transform="matrix(1.3333333,0,0,-1.3333333,2266.5335,420.93427)"><path
           d="m 0,0 c -0.867,0.001 -1.75,0.117 -2.642,0.349 -4.386,1.138 -8.502,5.242 -7.8,10.139 0.289,2.014 1.599,3.877 3.419,4.864 1.559,0.843 3.265,0.917 4.802,0.202 2.228,-1.036 3.411,-3.774 2.582,-5.98 -0.124,-0.332 -0.492,-0.5 -0.826,-0.375 -0.331,0.125 -0.499,0.495 -0.375,0.826 0.591,1.574 -0.307,3.614 -1.922,4.366 -1.16,0.538 -2.457,0.479 -3.65,-0.168 C -7.86,13.439 -8.943,11.901 -9.171,10.305 -9.772,6.12 -6.159,2.588 -2.319,1.59 0.057,0.974 2.362,1.295 4.348,2.519 c 2.255,1.39 3.908,3.854 4.534,6.76 2.285,10.611 -4.89,21.997 -13.157,27.759 -5.97,4.161 -13.387,6.011 -20.356,5.069 -0.353,-0.044 -0.674,0.2 -0.722,0.551 -0.047,0.351 0.199,0.674 0.551,0.721 7.278,0.982 15.03,-0.945 21.26,-5.288 C 5.075,32.086 12.54,20.168 10.136,9.009 9.437,5.762 7.572,2.999 5.021,1.426 3.481,0.478 1.778,-0.002 0,0"
           style="fill:#6c59b2;fill-opacity:1;fill-rule:nonzero;stroke:none"
           id="path3514" /></g><g
         id="g3516"
         transform="matrix(1.3333333,0,0,-1.3333333,2237.9963,388.06094)"><path
           d="m 0,0 c -1.538,0.001 -2.891,0.655 -3.853,1.874 -1.244,1.576 -1.605,3.88 -0.921,5.87 1.093,3.175 4.677,5.303 8.365,4.922 C 7.826,12.24 12.029,9.491 13.812,5.982 13.973,5.666 13.847,5.28 13.531,5.119 13.213,4.96 12.829,5.085 12.669,5.401 11.072,8.542 7.287,11.004 3.462,11.389 0.835,11.65 -2.529,10.32 -3.56,7.326 -4.107,5.738 -3.826,3.91 -2.846,2.669 -2.049,1.659 -0.876,1.177 0.432,1.304 1.303,1.389 2.172,1.889 2.757,2.641 3.292,3.327 3.523,4.12 3.409,4.874 3.355,5.224 3.596,5.552 3.947,5.604 4.293,5.661 4.625,5.417 4.677,5.066 4.845,3.961 4.523,2.82 3.77,1.852 2.961,0.813 1.79,0.147 0.557,0.027 0.369,0.008 0.183,0 0,0"
           style="fill:#6c59b2;fill-opacity:1;fill-rule:nonzero;stroke:none"
           id="path3518" /></g><g
         id="g3520"
         transform="matrix(1.3333333,0,0,-1.3333333,2147.5011,420.76574)"><path
           d="M 0,0 C -1.778,0.003 -3.479,0.487 -5.017,1.441 -7.564,3.02 -9.42,5.789 -10.11,9.038 -12.483,20.203 -4.984,32.1 3.65,38.081 c 6.242,4.325 13.996,6.231 21.274,5.228 0.352,-0.049 0.597,-0.372 0.549,-0.723 C 25.424,42.234 25.102,41.99 24.749,42.037 17.785,42.999 10.362,41.17 4.38,37.026 -3.904,31.287 -11.111,19.921 -8.856,9.305 -8.238,6.396 -6.592,3.927 -4.341,2.531 -2.357,1.302 -0.053,0.974 2.324,1.585 6.166,2.57 9.789,6.092 9.2,10.279 8.977,11.876 7.898,13.416 6.452,14.205 5.26,14.855 3.965,14.919 2.804,14.383 1.186,13.636 0.281,11.599 0.868,10.023 0.992,9.691 0.823,9.321 0.491,9.198 0.156,9.075 -0.211,9.244 -0.334,9.575 c -0.822,2.208 0.368,4.943 2.6,5.973 1.538,0.709 3.245,0.633 4.801,-0.216 1.817,-0.992 3.122,-2.859 3.404,-4.874 C 11.16,5.56 7.032,1.468 2.643,0.342 1.75,0.112 0.866,-0.001 0,0"
           style="fill:#6c59b2;fill-opacity:1;fill-rule:nonzero;stroke:none"
           id="path3522" /></g><g
         id="g3524"
         transform="matrix(1.3333333,0,0,-1.3333333,2176.1311,387.97347)"><path
           d="m 0,0 c -0.183,0 -0.369,0.009 -0.557,0.029 -1.232,0.123 -2.401,0.792 -3.207,1.834 -0.751,0.97 -1.069,2.112 -0.899,3.217 0.054,0.35 0.383,0.593 0.732,0.536 0.35,-0.054 0.591,-0.382 0.536,-0.732 -0.116,-0.753 0.113,-1.547 0.646,-2.235 0.583,-0.754 1.45,-1.256 2.32,-1.344 1.318,-0.133 2.484,0.349 3.283,1.356 0.983,1.239 1.269,3.066 0.727,4.655 -1.022,2.997 -4.368,4.341 -7.011,4.083 -3.825,-0.374 -7.618,-2.825 -9.223,-5.962 -0.162,-0.315 -0.549,-0.44 -0.863,-0.279 -0.316,0.162 -0.441,0.548 -0.279,0.863 1.793,3.505 6.004,6.241 10.24,6.655 C 0.124,13.034 3.712,10.909 4.796,7.73 5.475,5.738 5.107,3.435 3.859,1.863 2.893,0.647 1.538,-0.002 0,0"
           style="fill:#6c59b2;fill-opacity:1;fill-rule:nonzero;stroke:none"
           id="path3526" /></g><g
         id="g3564"
         transform="matrix(1.3333333,0,0,-1.3333333,2291.7003,460.27481)"><path
           d="m 0,0 c -0.004,-2.738 -2.227,-4.954 -4.964,-4.95 -2.738,0.004 -4.955,2.226 -4.951,4.964 0.004,2.738 2.227,4.954 4.965,4.951 C -2.212,4.961 0.004,2.738 0,0"
           style="fill:#feaa7c;fill-opacity:1;fill-rule:nonzero;stroke:none"
           id="path3566" /></g><g
         id="g3568"
         transform="matrix(1.3333333,0,0,-1.3333333,2283.271,442.52334)"><path
           d="m 0,0 c -0.002,-1.534 -1.248,-2.776 -2.782,-2.774 -1.534,0.002 -2.776,1.248 -2.774,2.782 0.002,1.534 1.248,2.776 2.782,2.774 C -1.24,2.78 0.002,1.534 0,0"
           style="fill:#fde3cb;fill-opacity:1;fill-rule:nonzero;stroke:none"
           id="path3570" /></g><g
         id="g3572"
         transform="matrix(1.3333333,0,0,-1.3333333,2278.4557,477.99521)"><path
           d="m 0,0 c -0.002,-1.534 -1.248,-2.776 -2.782,-2.774 -1.535,0.002 -2.777,1.248 -2.774,2.782 0.002,1.534 1.247,2.776 2.782,2.774 C -1.24,2.78 0.002,1.534 0,0"
           style="fill:#fde3cb;fill-opacity:1;fill-rule:nonzero;stroke:none"
           id="path3574" /></g><g
         id="g3576"
         transform="matrix(1.3333333,0,0,-1.3333333,2122.2229,460.03467)"><path
           d="m 0,0 c -0.004,-2.738 2.212,-4.96 4.95,-4.964 2.738,-0.004 4.961,2.212 4.965,4.95 C 9.919,2.724 7.702,4.947 4.964,4.951 2.227,4.954 0.004,2.738 0,0"
           style="fill:#feaa7c;fill-opacity:1;fill-rule:nonzero;stroke:none"
           id="path3578" /></g><g
         id="g3580"
         transform="matrix(1.3333333,0,0,-1.3333333,2130.7023,442.30721)"><path
           d="m 0,0 c -0.002,-1.534 1.24,-2.78 2.774,-2.782 1.534,-0.002 2.78,1.24 2.782,2.774 C 5.558,1.526 4.316,2.772 2.782,2.774 1.248,2.776 0.002,1.534 0,0"
           style="fill:#fde3cb;fill-opacity:1;fill-rule:nonzero;stroke:none"
           id="path3582" /></g><g
         id="g3584"
         transform="matrix(1.3333333,0,0,-1.3333333,2135.4175,477.79254)"><path
           d="m 0,0 c -0.002,-1.534 1.24,-2.78 2.774,-2.782 1.534,-0.002 2.78,1.24 2.782,2.774 C 5.558,1.526 4.316,2.772 2.782,2.774 1.248,2.776 0.002,1.534 0,0"
           style="fill:#fde3cb;fill-opacity:1;fill-rule:nonzero;stroke:none"
           id="path3586" /></g><g
         id="g3588"
         transform="matrix(1.3333333,0,0,-1.3333333,2256.6769,392.28721)"><path
           d="m 0,0 c -0.002,-1.401 -1.14,-2.536 -2.541,-2.534 -1.402,0.002 -2.536,1.14 -2.534,2.541 0.002,1.402 1.139,2.536 2.541,2.534 C -1.133,2.539 0.002,1.401 0,0"
           style="fill:#fde3cb;fill-opacity:1;fill-rule:nonzero;stroke:none"
           id="path3590" /></g><g
         id="g3592"
         transform="matrix(1.3333333,0,0,-1.3333333,2153.2185,388.7966)"
         style="display:inline"
         inkscape:label="g3592"><path
           d="M 0,0 C -0.002,-1.401 1.133,-2.539 2.534,-2.541 3.935,-2.543 5.073,-1.409 5.075,-0.007 5.077,1.394 3.943,2.532 2.541,2.534 1.14,2.536 0.002,1.401 0,0"
           style="fill:#fde3cb;fill-opacity:1;fill-rule:nonzero;stroke:none"
           id="path3594" /></g></g><g
       inkscape:groupmode="layer"
       id="layer14"
       inkscape:label="Flores 2"
       transform="matrix(0.26458333,0,0,0.26458333,-460.70485,-11.540548)"
       style="display:none"><g
         id="g3600"
         transform="matrix(1.3333333,0,0,-1.3333333,2292.5791,82.154255)"><path
           d="m 0,0 c -0.687,-4.23 -6.077,-5.359 -9.635,-5.375 -5.344,-0.046 -10.352,1.802 -15.208,3.848 2.672,-1.924 5.298,-3.924 7.726,-6.184 2.474,-2.306 5.207,-5.115 6.352,-8.367 0.977,-2.78 -0.061,-6.307 -2.916,-7.482 -3.955,-1.65 -7.757,2.336 -9.65,5.344 -2.856,4.535 -3.909,9.803 -4.734,15.025 -0.244,-3.314 -0.55,-6.627 -1.191,-9.879 -0.641,-3.329 -1.588,-7.131 -3.756,-9.819 -1.848,-2.29 -5.39,-3.267 -7.91,-1.465 -3.466,2.504 -2.091,7.833 -0.534,11.024 2.351,4.794 6.215,8.459 10.2,11.895 -2.916,-1.527 -5.864,-2.993 -8.948,-4.154 -3.176,-1.191 -6.902,-2.397 -10.337,-1.969 -2.917,0.351 -5.604,2.855 -5.405,5.94 0.29,4.275 5.558,5.909 9.085,6.26 5.298,0.534 10.459,-0.825 15.467,-2.382 -2.824,1.664 -5.619,3.42 -8.214,5.405 -2.703,2.062 -5.681,4.596 -7.131,7.742 -1.237,2.672 -0.535,6.275 2.199,7.726 3.786,2 7.94,-1.603 10.108,-4.428 3.344,-4.337 5.359,-10.108 6.703,-15.361 0.58,3.558 1.237,7.1 2.245,10.566 0.962,3.253 2.275,6.948 4.672,9.421 2.061,2.108 5.68,2.749 8.016,0.718 3.222,-2.825 1.344,-7.986 -0.519,-11.024 -2.779,-4.551 -6.993,-7.834 -11.284,-10.887 3.054,1.252 6.138,2.427 9.315,3.298 3.267,0.886 7.1,1.725 10.474,0.992 C -1.939,5.787 0.504,3.039 0,0"
           style="fill:#da66a1;fill-opacity:1;fill-rule:nonzero;stroke:none"
           id="path3602" /></g><g
         id="g3604"
         transform="matrix(1.3333333,0,0,-1.3333333,2288.9881,98.117585)"><path
           d="m 0,0 c -2.433,-3.527 -7.787,-2.239 -11.008,-0.729 -4.849,2.248 -8.583,6.063 -12.094,9.992 1.59,-2.883 3.106,-5.815 4.332,-8.897 1.247,-3.143 2.513,-6.853 2.155,-10.282 -0.308,-2.93 -2.757,-5.673 -5.841,-5.512 -4.28,0.205 -6.008,5.435 -6.43,8.964 -0.637,5.321 0.668,10.532 2.16,15.604 -1.64,-2.889 -3.336,-5.753 -5.309,-8.416 -2.005,-2.734 -4.49,-5.763 -7.6,-7.263 -2.651,-1.278 -6.27,-0.643 -7.775,2.064 -2.059,3.748 1.466,7.974 4.24,10.191 4.179,3.324 9.24,4.981 14.313,6.378 -3.29,-0.13 -6.581,-0.192 -9.865,0.08 -3.38,0.285 -7.263,0.791 -10.184,2.649 -2.485,1.567 -3.84,4.981 -2.34,7.683 2.094,3.739 7.554,2.958 10.892,1.765 5.016,-1.788 9.097,-5.227 12.956,-8.78 -1.84,2.715 -3.612,5.498 -5.108,8.404 -1.559,3.02 -3.163,6.586 -3.126,10.05 0.027,2.944 2.205,5.9 5.297,6.039 4.278,0.185 6.487,-4.85 7.236,-8.332 1.164,-5.35 0.512,-11.429 -0.524,-16.751 2.049,2.966 4.159,5.886 6.555,8.586 2.263,2.527 5.032,5.303 8.258,6.511 2.766,1.021 6.31,0.05 7.551,-2.786 1.701,-3.933 -2.207,-7.791 -5.192,-9.739 -4.46,-2.921 -9.675,-4.082 -14.86,-5.003 3.296,-0.177 6.586,-0.436 9.829,-1.01 3.332,-0.6 7.155,-1.483 9.89,-3.591 C 0.727,6.06 1.757,2.53 0,0"
           style="fill:#fde3cb;fill-opacity:1;fill-rule:nonzero;stroke:none"
           id="path3606" /></g><g
         id="g3608"
         transform="matrix(1.3333333,0,0,-1.3333333,2263.413,81.353185)"><path
           d="m 0,0 c 0,-3.353 -2.718,-6.071 -6.071,-6.071 -3.352,0 -6.071,2.718 -6.071,6.071 0,3.353 2.719,6.071 6.071,6.071 C -2.718,6.071 0,3.353 0,0"
           style="fill:#6c59b2;fill-opacity:1;fill-rule:nonzero;stroke:none"
           id="path3610" /></g><g
         id="g3612"
         transform="matrix(1.3333333,0,0,-1.3333333,2259.1917,81.353185)"><path
           d="m 0,0 c 0,-1.604 -1.3,-2.905 -2.905,-2.905 -1.604,0 -2.904,1.301 -2.904,2.905 0,1.604 1.3,2.905 2.904,2.905 C -1.3,2.905 0,1.604 0,0"
           style="fill:#feaa7c;fill-opacity:1;fill-rule:nonzero;stroke:none"
           id="path3614" /></g><g
         id="g3072"
         transform="matrix(1.3333333,0,0,-1.3333333,1796.8982,452.29464)"
         style="display:inline"><path
           d="m 0,0 c -0.509,-3.134 -4.504,-3.972 -7.14,-3.983 -3.961,-0.034 -7.672,1.335 -11.271,2.851 1.98,-1.425 3.927,-2.908 5.726,-4.582 1.833,-1.709 3.859,-3.791 4.707,-6.201 0.725,-2.06 -0.045,-4.674 -2.161,-5.545 -2.931,-1.222 -5.748,1.731 -7.151,3.96 -2.117,3.361 -2.897,7.265 -3.508,11.135 -0.181,-2.455 -0.408,-4.911 -0.883,-7.321 -0.475,-2.467 -1.177,-5.285 -2.784,-7.276 -1.369,-1.698 -3.994,-2.422 -5.861,-1.087 -2.569,1.856 -1.551,5.805 -0.396,8.17 1.742,3.553 4.605,6.269 7.559,8.815 -2.162,-1.131 -4.346,-2.217 -6.632,-3.078 -2.353,-0.882 -5.114,-1.776 -7.66,-1.459 -2.162,0.26 -4.153,2.116 -4.006,4.402 0.215,3.168 4.119,4.379 6.733,4.639 3.926,0.396 7.751,-0.611 11.463,-1.765 -2.094,1.233 -4.165,2.535 -6.088,4.006 -2.003,1.527 -4.21,3.406 -5.285,5.737 -0.916,1.98 -0.396,4.65 1.63,5.726 2.806,1.482 5.884,-1.189 7.491,-3.282 2.478,-3.214 3.972,-7.491 4.968,-11.384 0.43,2.637 0.916,5.262 1.663,7.831 0.713,2.41 1.686,5.148 3.463,6.982 1.527,1.561 4.209,2.036 5.94,0.531 2.388,-2.093 0.996,-5.918 -0.384,-8.17 -2.06,-3.372 -5.183,-5.805 -8.363,-8.068 2.263,0.928 4.549,1.799 6.903,2.444 2.421,0.657 5.262,1.279 7.763,0.736 C -1.437,4.289 0.373,2.252 0,0"
           style="fill:#da66a1;fill-opacity:1;fill-rule:nonzero;stroke:none"
           id="path3074" /></g><g
         id="g3076"
         transform="matrix(1.3333333,0,0,-1.3333333,1794.237,464.12477)"
         style="display:inline"><path
           d="m 0,0 c -1.803,-2.614 -5.771,-1.66 -8.158,-0.54 -3.593,1.666 -6.361,4.493 -8.963,7.405 1.179,-2.137 2.303,-4.31 3.211,-6.594 0.924,-2.329 1.863,-5.078 1.597,-7.62 -0.228,-2.171 -2.043,-4.204 -4.329,-4.084 -3.172,0.151 -4.452,4.027 -4.765,6.642 -0.472,3.944 0.495,7.806 1.601,11.564 -1.216,-2.141 -2.473,-4.263 -3.935,-6.237 -1.486,-2.025 -3.327,-4.271 -5.632,-5.382 -1.964,-0.947 -4.647,-0.477 -5.762,1.53 -1.526,2.777 1.086,5.909 3.143,7.552 3.096,2.464 6.847,3.691 10.606,4.726 -2.438,-0.096 -4.876,-0.142 -7.31,0.06 -2.505,0.211 -5.383,0.586 -7.548,1.963 -1.841,1.161 -2.846,3.691 -1.733,5.694 1.551,2.771 5.597,2.192 8.071,1.307 3.717,-1.324 6.742,-3.873 9.601,-6.506 -1.363,2.012 -2.677,4.075 -3.785,6.228 -1.155,2.239 -2.344,4.881 -2.316,7.448 0.02,2.182 1.634,4.372 3.925,4.476 3.171,0.137 4.808,-3.595 5.363,-6.175 0.862,-3.965 0.379,-8.47 -0.389,-12.414 1.519,2.198 3.083,4.362 4.858,6.363 1.677,1.872 3.73,3.93 6.12,4.825 2.05,0.757 4.676,0.037 5.596,-2.065 1.261,-2.914 -1.636,-5.774 -3.848,-7.217 -3.305,-2.165 -7.17,-3.025 -11.012,-3.708 2.442,-0.131 4.881,-0.323 7.284,-0.748 C -6.04,8.048 -3.207,7.394 -1.18,5.832 0.539,4.491 1.302,1.875 0,0"
           style="fill:#fde3cb;fill-opacity:1;fill-rule:nonzero;stroke:none"
           id="path3078" /></g><g
         id="g3080"
         transform="matrix(1.3333333,0,0,-1.3333333,1775.2838,451.70091)"
         style="display:inline"><path
           d="m 0,0 c 0,-2.485 -2.014,-4.499 -4.499,-4.499 -2.485,0 -4.499,2.014 -4.499,4.499 0,2.485 2.014,4.499 4.499,4.499 C -2.014,4.499 0,2.485 0,0"
           style="fill:#6c59b2;fill-opacity:1;fill-rule:nonzero;stroke:none"
           id="path3082" /></g><g
         id="g3084"
         transform="matrix(1.3333333,0,0,-1.3333333,1772.1553,451.70091)"
         style="display:inline"><path
           d="m 0,0 c 0,-1.189 -0.964,-2.153 -2.153,-2.153 -1.188,0 -2.152,0.964 -2.152,2.153 0,1.189 0.964,2.153 2.152,2.153 C -0.964,2.153 0,1.189 0,0"
           style="fill:#feaa7c;fill-opacity:1;fill-rule:nonzero;stroke:none"
           id="path3086" /></g><g
         id="g2116"
         transform="matrix(1.3333333,0,0,-1.3333333,1879.5359,205.99171)"><path
           d="m 0,0 c -0.069,-1.504 -1.418,-2.902 -3.007,-4.011 -2.895,-2.046 -6.667,-3.396 -10.185,-3.591 1.785,-0.981 3.457,-2.062 4.727,-3.411 1.77,-1.865 2.547,-4.418 1.289,-6.918 -1.261,-2.522 -4.24,-4.615 -7.082,-5.686 -1.943,-0.746 -3.902,-1.074 -5.851,-1.258 1.342,-1.486 2.452,-3.073 3.031,-4.904 1.117,-3.458 -0.153,-8.136 -3.653,-12.036 -3.805,-4.252 -8.751,-5.952 -12.237,-4.426 -2.433,1.017 -4.357,3.251 -6.056,5.875 -0.044,-3.543 -1.234,-7.171 -3.174,-9.965 -0.961,-1.359 -2.173,-2.596 -3.556,-2.714 -1.508,-0.129 -2.975,1.019 -4.18,2.453 -2.164,2.625 -3.716,6.231 -4.128,9.759 -0.853,-1.897 -1.81,-3.722 -3.049,-5.154 -1.733,-2.007 -4.145,-3.118 -6.647,-2.144 -2.472,0.968 -4.694,3.765 -5.967,6.626 -0.862,1.913 -1.358,3.883 -1.72,5.865 -1.295,-1.56 -2.69,-2.835 -4.365,-3.632 -3.156,-1.552 -7.591,-0.721 -11.6,2.611 -4.363,3.669 -6.726,8.813 -5.782,12.488 0.638,2.609 2.51,4.689 4.856,6.593 -3.476,-0.21 -7.116,0.826 -10.087,2.679 -1.463,0.904 -2.82,2.063 -3.157,3.461 -0.384,1.526 0.53,3.037 1.789,4.275 2.276,2.264 5.691,3.98 9.186,4.603 -1.981,0.742 -3.928,1.568 -5.558,2.72 -2.221,1.602 -3.708,3.903 -3.031,6.348 0.672,2.444 3.303,4.695 6.092,6.111 1.884,0.948 3.864,1.578 5.851,2.059 -1.685,1.134 -3.18,2.377 -4.161,3.887 -1.946,2.861 -1.562,6.988 1.667,10.994 3.531,4.359 8.876,7.22 12.751,6.867 2.735,-0.262 4.962,-1.753 7.028,-3.778 -0.409,3.287 0.498,6.894 2.269,10.001 0.897,1.521 2.062,3.018 3.466,3.576 1.534,0.608 3.055,-0.042 4.346,-1.062 2.322,-1.871 4.133,-5.006 4.925,-8.373 0.637,2.092 1.392,4.128 2.467,5.877 1.492,2.479 3.708,4.366 6.107,4.073 2.398,-0.289 4.647,-2.64 6.165,-5.322 0.785,-1.406 1.361,-2.912 1.856,-4.435 2,2.468 4.621,3.722 7.492,3.288 1.387,-0.216 2.919,-0.851 4.191,-2.291 1.345,-1.542 2.098,-3.654 2.359,-5.565 0.219,-1.536 0.161,-3.025 -0.151,-4.381 1.103,0.626 2.286,1.089 3.548,1.304 3.642,0.676 8.492,-1.037 12.271,-4.619 4.09,-3.891 5.283,-8.615 3.306,-11.867 C -6.693,10.567 -9.174,8.851 -12.023,7.369 -8.412,7.08 -4.87,5.675 -2.308,3.658 -1.013,2.629 0.044,1.378 0,0"
           style="fill:#da66a1;fill-opacity:1;fill-rule:nonzero;stroke:none"
           id="path2118" /></g><g
         id="g2120"
         transform="matrix(1.3333333,0,0,-1.3333333,1840.3315,258.20905)"><path
           d="m 0,0 c -1.127,-0.516 -2.657,-0.054 -4.067,0.691 -2.587,1.349 -4.995,3.601 -6.46,6.103 -0.047,-1.676 -0.209,-3.306 -0.718,-4.743 -0.699,-1.998 -2.275,-3.527 -4.578,-3.547 -2.32,-0.026 -4.974,1.366 -6.827,3.043 -1.276,1.142 -2.254,2.452 -3.122,3.808 -0.583,-1.541 -1.326,-2.95 -2.449,-4.063 -2.11,-2.119 -6.011,-2.95 -10.183,-1.856 -4.543,1.185 -7.649,4.165 -7.844,7.29 -0.171,2.163 0.74,4.412 2.02,6.643 -2.609,-1.301 -5.712,-1.795 -8.487,-1.427 -1.356,0.192 -2.717,0.614 -3.324,1.581 -0.662,1.055 -0.374,2.561 0.222,3.983 1.106,2.571 3.162,5.064 5.589,6.693 -1.71,-0.09 -3.405,-0.075 -4.92,0.292 -2.121,0.513 -3.841,1.86 -4.07,4.058 -0.222,2.173 0.989,4.852 2.604,6.86 1.075,1.351 2.33,2.455 3.645,3.466 -1.63,0.361 -3.088,0.902 -4.301,1.828 -2.323,1.725 -3.384,5.284 -2.455,9.472 1.044,4.573 3.92,8.239 6.964,8.931 2.149,0.514 4.376,-0.073 6.652,-1.073 -1.461,2.464 -2.073,5.519 -1.835,8.391 0.111,1.41 0.449,2.839 1.345,3.612 0.973,0.855 2.422,0.755 3.802,0.3 2.513,-0.814 5.054,-2.668 6.826,-4.991 -0.203,1.729 -0.331,3.465 -0.101,5.092 0.336,2.227 1.461,4.182 3.505,4.607 2.041,0.428 4.678,-0.651 6.765,-2.159 1.403,-1.022 2.609,-2.235 3.708,-3.507 0.196,1.66 0.543,3.222 1.279,4.507 1.361,2.502 4.527,3.773 8.674,2.918 4.519,-0.944 8.624,-3.779 9.823,-6.748 0.838,-2.1 0.585,-4.291 -0.119,-6.565 2.251,1.536 5.232,2.23 8.173,2.103 1.451,-0.084 2.985,-0.373 3.921,-1.191 1.023,-0.894 1.119,-2.251 0.858,-3.58 -0.495,-2.404 -2.108,-4.909 -4.274,-6.756 1.771,0.322 3.545,0.535 5.229,0.407 2.376,-0.16 4.591,-1.071 5.279,-2.937 0.691,-1.864 -0.183,-4.394 -1.574,-6.514 -0.734,-1.105 -1.62,-2.092 -2.548,-3.028 2.559,-0.535 4.463,-1.981 5.225,-4.245 0.365,-1.097 0.477,-2.457 -0.099,-3.93 -0.622,-1.564 -1.884,-2.91 -3.185,-3.821 -1.041,-0.738 -2.153,-1.255 -3.263,-1.537 0.873,-0.572 1.657,-1.264 2.29,-2.107 1.865,-2.41 2.436,-6.604 1.237,-10.718 C 13.524,11.178 10.516,8.527 7.391,8.75 5.215,8.875 3.025,10.045 0.869,11.572 2.016,8.821 2.321,5.7 1.809,3.065 1.543,1.731 1.025,0.486 0,0"
           style="fill:#6c59b2;fill-opacity:1;fill-rule:nonzero;stroke:none"
           id="path2122" /></g><g
         id="g2124"
         transform="matrix(1.3333333,0,0,-1.3333333,1785.2889,235.68971)"><path
           d="M 0,0 C -0.499,0.644 -0.433,1.694 -0.168,2.708 0.308,4.567 1.389,6.447 2.771,7.762 1.691,7.54 0.623,7.399 -0.374,7.509 c -1.384,0.148 -2.6,0.928 -2.959,2.4 -0.365,1.482 0.129,3.39 0.925,4.829 0.539,0.989 1.232,1.812 1.97,2.571 -1.074,0.142 -2.089,0.406 -2.97,0.958 -1.674,1.034 -2.791,3.408 -2.717,6.243 0.077,3.088 1.52,5.524 3.492,6.118 1.36,0.434 2.937,0.188 4.558,-0.297 -1.225,1.476 -2.007,3.389 -2.188,5.221 -0.081,0.897 -0.015,1.832 0.513,2.367 0.577,0.582 1.585,0.623 2.585,0.455 1.812,-0.323 3.717,-1.265 5.125,-2.575 -0.314,1.081 -0.559,2.169 -0.551,3.195 0.01,1.435 0.614,2.739 1.987,3.215 1.359,0.468 3.256,0.095 4.785,-0.638 1.026,-0.486 1.922,-1.124 2.766,-1.814 -0.013,1.098 0.115,2.113 0.526,3.029 0.756,1.747 2.876,2.96 5.697,2.993 3.086,0.018 5.865,-1.273 6.765,-3.119 0.652,-1.3 0.61,-2.814 0.311,-4.422 1.359,1.306 3.223,2.156 5.099,2.435 0.92,0.141 1.885,0.139 2.515,-0.319 0.694,-0.495 0.847,-1.438 0.762,-2.39 -0.144,-1.732 -0.949,-3.637 -2.171,-5.12 1.076,0.388 2.169,0.731 3.245,0.828 1.477,0.119 2.898,-0.308 3.477,-1.553 0.58,-1.243 0.285,-3.094 -0.368,-4.656 -0.444,-1.052 -1.039,-2.007 -1.689,-2.902 1.092,0.124 2.144,0.136 3.078,-0.142 1.807,-0.497 3.096,-2.333 3.171,-5.117 0.073,-3.036 -1.126,-6.091 -2.848,-7.304 -1.219,-0.852 -2.66,-1.019 -4.222,-0.909 C 41.617,9.878 42.508,8.073 42.868,6.17 43.032,5.229 43.077,4.203 42.694,3.481 42.275,2.691 41.42,2.426 40.53,2.393 38.916,2.35 37.07,3.007 35.562,4.117 c 0.472,-1.086 0.875,-2.19 1.045,-3.288 0.255,-1.545 0.003,-3.101 -1.088,-3.822 -1.09,-0.722 -2.842,-0.542 -4.409,0.031 -0.817,0.305 -1.582,0.723 -2.321,1.177 0.042,-1.718 -0.599,-3.155 -1.935,-3.983 -0.647,-0.398 -1.501,-0.674 -2.531,-0.526 -1.095,0.164 -2.147,0.77 -2.925,1.466 -0.629,0.556 -1.127,1.191 -1.474,1.859 -0.235,-0.645 -0.561,-1.251 -1.006,-1.783 -1.264,-1.556 -3.864,-2.551 -6.678,-2.4 -3.051,0.169 -5.201,1.697 -5.527,3.732 -0.246,1.412 0.174,2.99 0.829,4.6 C 5.952,0.033 3.999,-0.631 2.235,-0.698 1.34,-0.728 0.465,-0.584 0,0"
           style="fill:#feaa7c;fill-opacity:1;fill-rule:nonzero;stroke:none"
           id="path2126" /></g><g
         id="g2128"
         transform="matrix(1.3333333,0,0,-1.3333333,1829.1478,214.27425)"><path
           d="m 0,0 c -0.655,-1.486 -2.318,-2.343 -3.93,-2.469 -1.335,-0.126 -2.67,0.151 -3.98,0.504 0.05,-1.713 0.025,-3.451 -0.605,-5.013 -0.73,-1.839 -2.494,-3.376 -4.459,-3.2 -1.612,0.152 -2.922,1.462 -3.552,2.948 -0.579,1.335 -0.731,2.821 -0.806,4.282 -1.537,-0.629 -3.124,-1.158 -4.787,-1.083 -1.965,0.076 -4.03,1.235 -4.484,3.124 -0.403,1.587 0.378,3.25 1.587,4.358 0.983,0.932 2.217,1.512 3.477,2.066 -1.26,1.159 -2.494,2.393 -3.149,3.955 -0.781,1.814 -0.63,4.157 0.881,5.416 1.26,1.033 3.502,1.134 5.014,0.53 1.36,-0.53 3.275,-1.714 4.534,-2.721 1.159,1.36 2.394,2.746 4.006,3.527 1.763,0.831 4.131,0.781 5.416,-0.681 1.083,-1.209 1.184,-3.073 0.63,-4.585 C -4.661,9.623 -5.542,8.465 -6.424,7.381 -4.711,6.903 -2.998,6.348 -1.638,5.215 -0.126,3.955 0.781,1.789 0,0"
           style="fill:#fde3cb;fill-opacity:1;fill-rule:nonzero;stroke:none"
           id="path2130" /></g><g
         id="g2132"
         transform="matrix(1.3333333,0,0,-1.3333333,1753.603,89.935855)"><path
           d="m 0,0 c -1.411,9.82 0.702,18.95 3.8,28.064 0.004,0.049 0.023,0.089 0.032,0.131 0.295,0.881 0.607,1.763 0.92,2.647 0.002,0.01 0.008,0.014 0.01,0.025 0.036,0.097 0.065,0.189 0.112,0.284 0.002,0.01 0.01,0.025 0.018,0.04 0.584,1.282 1.873,2.107 3.303,2.123 0.016,0.002 0.027,0 0.044,0.002 1.54,0 3.1,-0.016 4.655,-0.052 0.059,-0.006 0.12,-0.002 0.179,-0.008 0.626,-0.01 1.261,-0.033 1.889,-0.06 0.755,-0.024 1.507,-0.059 2.258,-0.105 1.253,-0.074 2.516,-0.178 3.779,-0.31 6.295,-0.625 12.503,-1.964 18.122,-4.727 C 57.586,19.346 49.806,7.022 35.621,9.185 53.901,-10.637 36.053,-24.655 19.671,-2.408 18.995,-25.259 1.34,-15.472 0,0"
           style="fill:#feaa7c;fill-opacity:1;fill-rule:nonzero;stroke:none"
           id="path2134" /></g><g
         id="g2136"
         transform="matrix(1.3333333,0,0,-1.3333333,1757.7502,86.485185)"><path
           d="m 0,0 c -1.683,3.761 -2.338,7.907 -2.081,12.025 0.195,3.201 0.816,6.404 1.66,9.547 0.631,2.372 1.385,4.707 2.184,6.991 0.002,0.01 0.011,0.025 0.019,0.04 0.583,1.282 1.873,2.107 3.302,2.123 0.017,0.002 0.027,0 0.044,0.002 1.541,0 3.101,-0.016 4.656,-0.052 0.059,-0.006 0.12,-0.002 0.178,-0.008 0.627,-0.01 1.262,-0.033 1.89,-0.06 0.755,-0.024 1.507,-0.059 2.257,-0.105 1.253,-0.074 2.516,-0.178 3.78,-0.31 3.258,-0.539 6.432,-1.444 9.395,-2.946 C 39.962,20.56 39.964,11.511 24.668,12.431 34.315,0.403 28.287,-10.286 14.782,2.483 12.588,-12.078 4.332,-9.664 0,0"
           style="fill:#fde3cb;fill-opacity:1;fill-rule:nonzero;stroke:none"
           id="path2138" /></g><g
         id="g2140"
         transform="matrix(1.3333333,0,0,-1.3333333,1756.2596,64.807325)"><path
           d="m 0,0 c -0.208,1.73 0.283,3.533 0.697,5.314 0.308,1.326 0.689,2.638 1.111,3.904 0.004,0.048 0.023,0.088 0.031,0.13 0.296,0.881 0.608,1.764 0.92,2.647 0.003,0.011 0.009,0.015 0.011,0.025 0.036,0.097 0.065,0.19 0.111,0.284 0.002,0.011 0.011,0.025 0.019,0.04 0.583,1.283 1.873,2.108 3.302,2.124 0.017,0.002 0.027,0 0.044,0.002 1.541,-0.001 3.1,-0.016 4.656,-0.053 0.059,-0.006 0.119,-0.002 0.178,-0.008 3.851,-0.116 7.65,-1.069 11.035,-2.89 C 32.854,5.742 28.462,-1.912 16.642,2.495 27.689,-11.232 17.957,-13.622 9.702,-2.259 9.381,-17.291 1.698,-14.112 0,0"
           style="fill:#da66a1;fill-opacity:1;fill-rule:nonzero;stroke:none"
           id="path2142" /></g></g><g
       inkscape:groupmode="layer"
       id="layer16"
       inkscape:label="Garigoleos 2"
       transform="matrix(0.26458333,0,0,0.26458333,-464.3121,-9.5324294)"
       style="display:none"><g
         id="g2198"
         transform="matrix(1.3333333,0,0,-1.3333333,2027.5705,217.94958)"
         style="display:inline"><path
           d="m 0,0 c -8.411,7.846 -15.893,16.681 -21.699,26.539 -5.758,9.832 -10.073,20.714 -11.029,32.259 -0.447,5.744 -0.178,11.619 1.1,17.334 1.254,5.722 3.495,11.392 6.974,16.455 6.957,10.014 18.081,17.673 30.951,19.981 1.56,0.347 3.328,0.367 5.006,0.52 0.849,0.111 1.701,-0.051 2.554,-0.07 0.85,-0.072 1.714,-0.076 2.553,-0.216 l 2.506,-0.511 c 0.416,-0.093 0.84,-0.167 1.249,-0.278 l 1.197,-0.414 2.393,-0.852 c 0.756,-0.355 1.496,-0.742 2.244,-1.118 5.986,-3.055 10.553,-7.956 13.648,-13.489 3.114,-5.548 4.503,-12.009 3.814,-18.481 l -0.122,-1.212 c -0.073,-0.401 -0.174,-0.801 -0.262,-1.202 l -0.563,-2.399 c -0.495,-1.561 -1.034,-3.122 -1.793,-4.572 -1.457,-2.925 -3.307,-5.637 -5.519,-8.07 -2.265,-2.39 -4.858,-4.511 -7.766,-6.243 -2.893,-1.734 -6.149,-3.08 -9.626,-3.674 -6.956,-1.252 -14.401,0.403 -19.539,4.708 -5.144,4.15 -8.293,10.297 -7.932,16.628 0.204,3.132 1.376,6.273 3.508,8.649 2.107,2.408 4.98,3.925 7.885,4.81 0.232,0.071 0.48,-0.048 0.552,-0.266 0.063,-0.189 -0.027,-0.39 -0.204,-0.487 l -0.019,-0.01 c -2.553,-1.392 -4.743,-3.217 -6.089,-5.435 -1.353,-2.211 -1.865,-4.734 -1.61,-7.182 0.415,-4.938 3.656,-9.438 7.75,-12.088 2.051,-1.33 4.415,-2.199 6.853,-2.592 2.426,-0.357 4.876,-0.22 7.237,0.389 4.761,1.136 9.054,4.275 12.276,8.048 1.623,1.901 2.955,4.015 3.961,6.209 0.519,1.096 0.915,2.212 1.263,3.339 l 0.381,1.714 0.194,0.857 0.07,0.881 c 0.511,4.661 -0.311,9.611 -2.539,13.99 -2.147,4.384 -5.475,8.379 -9.82,10.83 l -1.628,0.914 -1.735,0.688 -0.867,0.355 c -0.297,0.092 -0.605,0.15 -0.907,0.229 l -1.821,0.46 c -0.612,0.133 -1.248,0.14 -1.873,0.224 -0.629,0.032 -1.25,0.217 -1.89,0.138 -1.287,-0.096 -2.518,0.005 -3.884,-0.246 -10.743,-1.501 -20.862,-7.807 -27.295,-16.402 -6.413,-8.64 -8.852,-19.814 -8.421,-30.536 0.337,-10.845 3.911,-21.514 9.041,-31.353 2.556,-4.945 5.633,-9.653 8.977,-14.184 C -6.976,9.028 -3.313,4.687 0.639,0.578 0.802,0.411 0.788,0.149 0.608,-0.007 0.434,-0.158 0.165,-0.151 0,0"
           style="fill:#6c59b2;fill-opacity:1;fill-rule:nonzero;stroke:none"
           id="path2200" /></g><g
         id="g2202"
         transform="matrix(1.3333333,0,0,-1.3333333,2049.4501,35.869595)"
         style="display:inline"><path
           d="m 0,0 c -15.1,-3.735 -25.568,-11.052 -31.587,-24.123 -0.037,-0.079 0.066,-0.139 0.135,-0.095 9.577,6.198 21.95,10.2 33.35,10.128 C 17.403,-14.189 14.043,3.473 0,0"
           style="fill:#fde3cb;fill-opacity:1;fill-rule:nonzero;stroke:none"
           id="path2204" /></g><g
         id="g2206"
         transform="matrix(1.3333333,0,0,-1.3333333,1991.3411,42.055455)"
         style="display:inline"><path
           d="m 0,0 c -7.77,-12.776 -9.533,-24.864 -3.755,-37.872 0.035,-0.079 0.154,-0.051 0.168,0.027 1.994,10.719 7.638,21.832 15.72,29.502 C 23.126,2.089 7.226,11.883 0,0"
           style="fill:#fde3cb;fill-opacity:1;fill-rule:nonzero;stroke:none"
           id="path2208" /></g><g
         id="g2210"
         transform="matrix(1.3333333,0,0,-1.3333333,1952.3043,83.431055)"
         style="display:inline"><path
           d="m 0,0 c 0.138,-14.623 5.125,-25.794 17.163,-34.158 0.074,-0.051 0.161,0.03 0.132,0.103 -4.049,10.112 -5.136,22.3 -2.248,32.707 C 18.976,12.807 -0.128,13.6 0,0"
           style="fill:#fde3cb;fill-opacity:1;fill-rule:nonzero;stroke:none"
           id="path2212" /></g><g
         id="g2214"
         transform="matrix(1.3333333,0,0,-1.3333333,1992.7285,401.04598)"
         style="display:inline"><path
           d="m 0,0 c -10.079,5.77 -20.791,10.461 -31.93,13.384 -11.099,2.886 -22.726,4.212 -33.902,2.328 -5.551,-0.964 -10.997,-2.61 -15.969,-5.133 -4.986,-2.504 -9.608,-5.892 -13.262,-10.259 -7.202,-8.708 -10.854,-20.64 -8.91,-32.881 0.173,-1.501 0.719,-3.111 1.113,-4.672 0.167,-0.798 0.592,-1.533 0.883,-2.304 0.339,-0.755 0.619,-1.539 1.019,-2.268 l 1.284,-2.154 c 0.22,-0.356 0.425,-0.723 0.661,-1.068 l 0.773,-0.989 1.567,-1.971 c 0.577,-0.602 1.178,-1.182 1.771,-1.771 4.792,-4.71 10.867,-7.691 17.067,-9.183 6.22,-1.506 12.748,-1.227 18.621,0.943 l 1.102,0.399 c 0.355,0.162 0.699,0.35 1.048,0.525 l 2.079,1.083 c 1.312,0.822 2.609,1.684 3.731,2.719 2.288,2.021 4.25,4.349 5.832,6.938 1.526,2.627 2.693,5.489 3.394,8.543 0.707,3.042 0.932,6.321 0.379,9.621 -1.046,6.618 -4.987,12.986 -10.684,16.627 -5.553,3.684 -12.349,5.079 -18.194,3.241 -2.883,-0.932 -5.466,-2.745 -7.021,-5.249 -1.593,-2.488 -2.102,-5.459 -2.006,-8.309 0.007,-0.229 0.199,-0.425 0.427,-0.439 0.198,-0.011 0.359,0.118 0.393,0.302 l 0.004,0.02 c 0.493,2.651 1.511,5.075 3.168,6.827 1.649,1.756 3.861,2.822 6.248,3.175 4.782,0.8 10.055,-1.071 13.861,-4.158 1.909,-1.547 3.483,-3.487 4.633,-5.608 1.112,-2.118 1.767,-4.377 1.949,-6.667 0.454,-4.595 -1.128,-9.244 -3.649,-13.071 -1.271,-1.927 -2.836,-3.642 -4.58,-5.078 -0.866,-0.733 -1.79,-1.359 -2.739,-1.944 l -1.492,-0.755 -0.745,-0.38 -0.807,-0.274 c -4.225,-1.576 -9.148,-2.009 -13.985,-1.029 -4.814,0.905 -9.64,2.975 -13.338,6.338 l -1.382,1.261 -1.202,1.412 -0.612,0.703 c -0.182,0.248 -0.335,0.514 -0.506,0.77 l -1.016,1.544 c -0.321,0.524 -0.532,1.101 -0.81,1.648 -0.232,0.564 -0.604,1.084 -0.735,1.685 -0.321,1.191 -0.81,2.286 -1.011,3.587 -2.024,10.117 0.676,20.812 6.711,28.706 6.083,7.886 15.823,12.766 26.056,14.931 10.319,2.28 21.508,1.577 32.413,-0.737 5.473,-1.143 10.891,-2.815 16.227,-4.773 5.341,-1.951 10.6,-4.244 15.733,-6.854 0.21,-0.109 0.452,-0.034 0.541,0.167 C 0.287,-0.357 0.195,-0.114 0,0"
           style="fill:#6c59b2;fill-opacity:1;fill-rule:nonzero;stroke:none"
           id="path2216" /></g><g
         id="g2218"
         transform="matrix(1.3333333,0,0,-1.3333333,1828.293,464.33784)"
         style="display:inline"><path
           d="m 0,0 c -1.315,14.608 2.225,25.862 12.606,34.447 0.063,0.052 0.153,-0.027 0.133,-0.101 C 9.968,24.169 10.158,11.974 13.874,1.636 18.927,-12.426 1.223,-13.586 0,0"
           style="fill:#fde3cb;fill-opacity:1;fill-rule:nonzero;stroke:none"
           id="path2220" /></g><g
         id="g2222"
         transform="matrix(1.3333333,0,0,-1.3333333,1815.5253,410.07464)"
         style="display:inline"><path
           d="m 0,0 c 9.544,10.104 20.361,14.589 34.457,12.441 0.086,-0.013 0.097,-0.127 0.028,-0.158 C 25.031,7.915 16.373,0.137 11.738,-9.033 5.433,-21.506 -8.876,-9.398 0,0"
           style="fill:#fde3cb;fill-opacity:1;fill-rule:nonzero;stroke:none"
           id="path2224" /></g><g
         id="g2226"
         transform="matrix(1.3333333,0,0,-1.3333333,1841.9923,364.74664)"
         style="display:inline"><path
           d="M 0,0 C 13.812,3.362 25.926,1.495 37.652,-7.447 37.724,-7.502 37.676,-7.6 37.598,-7.591 26.782,-6.324 14.958,-8.243 6.083,-13.348 -5.987,-20.292 -12.846,-3.126 0,0"
           style="fill:#fde3cb;fill-opacity:1;fill-rule:nonzero;stroke:none"
           id="path2228" /></g></g><g
       inkscape:groupmode="layer"
       id="layer8"
       inkscape:label="Scrollables_superiores"
       style="display:none"><g
         id="g3224"
         transform="matrix(0.35277777,0,0,-0.35277777,96.813288,3.9314486)"
         style="display:inline"><path
           d="M 0,0 C -14.981,-16.367 -23.573,-16.879 -36.145,-11.539 -30.155,1.782 -20.661,6.34 0,0"
           style="fill:#feaa7c;fill-opacity:1;fill-rule:nonzero;stroke:none"
           id="path3226" /></g><g
         id="g3228"
         transform="matrix(0.35277777,0,0,-0.35277777,95.357286,4.3267006)"
         style="display:inline"><path
           d="M 0,0 C -11.706,-1.557 -23.003,-3.862 -29.507,-9.201 -21.549,-5.581 -11.675,-3.401 0,0"
           style="fill:#fde3cb;fill-opacity:1;fill-rule:nonzero;stroke:none"
           id="path3230" /></g><g
         id="g3232"
         transform="matrix(0.35277777,0,0,-0.35277777,141.79023,11.477717)"
         style="display:inline"><path
           d="M 0,0 C -18.812,11.765 -20.873,20.122 -17.9,33.454 -3.714,29.979 2.489,21.468 0,0"
           style="fill:#feaa7c;fill-opacity:1;fill-rule:nonzero;stroke:none"
           id="path3234" /></g><g
         id="g3236"
         transform="matrix(0.35277777,0,0,-0.35277777,141.13753,10.117477)"
         style="display:inline"><path
           d="M 0,0 C -3.654,11.23 -7.968,21.922 -14.398,27.35 -9.395,20.18 -5.461,10.865 0,0"
           style="fill:#fde3cb;fill-opacity:1;fill-rule:nonzero;stroke:none"
           id="path3238" /></g></g><g
       inkscape:groupmode="layer"
       id="layer25"
       inkscape:label="Enredaderas 2"
       transform="matrix(0.26458333,0,0,0.26458333,-460.66138,-6.9581)"
       style="display:inline"><g
         id="g2230"
         transform="matrix(1.3333333,0,0,-1.3333333,1978.4994,351.28584)"
         style="display:inline"><path
           d="m 0,0 c 2.484,-0.393 5.252,1.63 6.126,2.912 2.994,4.411 1.219,6.315 6.288,10.824 0.053,0.052 0.109,0.1 0.17,0.149 -0.015,0.077 -0.025,0.153 -0.031,0.227 -0.908,6.723 1.679,7.011 2.281,12.309 0.172,1.542 -0.61,4.879 -2.751,6.199 -3.084,1.906 -5.04,-0.558 -5.244,-4.587 -0.102,-2.014 0.234,-4.419 1.086,-6.864 0.852,-2.446 2.22,-4.932 4.181,-7.107 C 9.201,13.69 6.544,12.695 4.305,11.395 2.066,10.096 0.244,8.49 -0.991,6.896 -3.46,3.707 -3.581,0.564 0,0"
           style="fill:#da66a1;fill-opacity:1;fill-rule:nonzero;stroke:none"
           id="path2232" /></g><g
         id="g2234"
         transform="matrix(1.3333333,0,0,-1.3333333,1967.9406,301.51145)"
         style="display:inline"><path
           d="m 0,0 c -3.17,1.371 -4.705,-1.231 -4.388,-5.103 0.017,-0.2 0.038,-0.404 0.065,-0.61 0.231,-1.797 0.84,-3.819 1.847,-5.82 0.095,-0.188 0.193,-0.376 0.295,-0.564 1.111,-2.041 2.64,-4.033 4.608,-5.71 -2.531,-0.586 -4.813,-1.66 -6.741,-2.97 -0.165,-0.112 -0.327,-0.225 -0.486,-0.34 -1.811,-1.311 -3.279,-2.824 -4.309,-4.311 -0.119,-0.172 -0.232,-0.343 -0.339,-0.514 -2.057,-3.289 -1.887,-6.289 1.553,-6.54 1.995,-0.145 4.078,1.329 5.137,2.597 0.226,0.27 0.409,0.529 0.539,0.762 2.347,4.209 0.889,5.972 4.381,10.084 0.066,0.077 0.133,0.155 0.203,0.234 0.043,0.05 0.087,0.1 0.132,0.15 0.05,0.061 0.101,0.123 0.153,0.185 0.011,0.013 0.022,0.027 0.034,0.041 0.012,0.016 0.025,0.031 0.037,0.047 0.05,0.062 0.1,0.124 0.152,0.187 0.023,0.029 0.046,0.059 0.069,0.088 0.018,0.025 0.036,0.049 0.054,0.072 0.025,0.031 0.051,0.061 0.078,0.093 -0.024,0.072 -0.045,0.144 -0.061,0.214 -1.783,6.325 0.626,6.989 0.461,12.172 C 3.423,-4.046 2.212,-0.957 0,0"
           style="fill:#da66a1;fill-opacity:1;fill-rule:nonzero;stroke:none"
           id="path2236" /></g><g
         id="g2238"
         transform="matrix(1.3333333,0,0,-1.3333333,1945.0041,299.23171)"
         style="display:inline"><path
           d="m 0,0 c -3.141,0.961 -4.349,-1.675 -3.682,-5.353 0.034,-0.191 0.074,-0.384 0.119,-0.58 0.392,-1.703 1.166,-3.587 2.317,-5.411 0.108,-0.172 0.22,-0.343 0.336,-0.514 1.258,-1.859 2.913,-3.63 4.954,-5.055 -2.392,-0.716 -4.523,-1.886 -6.3,-3.263 -0.152,-0.117 -0.301,-0.236 -0.447,-0.357 -1.659,-1.368 -2.98,-2.91 -3.882,-4.401 -0.104,-0.172 -0.203,-0.344 -0.295,-0.514 -1.776,-3.278 -1.449,-6.128 1.826,-6.22 1.928,-0.053 3.904,1.49 4.855,2.782 0.203,0.275 0.368,0.537 0.484,0.772 2.058,4.182 0.584,5.838 3.794,9.983 0.061,0.078 0.123,0.157 0.187,0.237 0.04,0.05 0.08,0.101 0.122,0.151 0.043,0.064 0.086,0.13 0.131,0.194 0.01,0.014 0.02,0.029 0.03,0.043 0.01,0.017 0.02,0.033 0.03,0.05 0.041,0.065 0.082,0.13 0.125,0.197 0.017,0.03 0.034,0.06 0.051,0.091 0.013,0.025 0.026,0.049 0.04,0.073 0.018,0.032 0.038,0.064 0.059,0.096 -0.031,0.068 -0.058,0.135 -0.082,0.201 C 2.407,-10.891 4.623,-9.969 3.908,-4.976 3.696,-3.52 2.207,-0.675 0,0"
           style="fill:#da66a1;fill-opacity:1;fill-rule:nonzero;stroke:none"
           id="path2240" /></g><g
         id="g2242"
         transform="matrix(1.3333333,0,0,-1.3333333,1923.8261,299.22318)"
         style="display:inline"><path
           d="m 0,0 c -3.069,0.554 -3.945,-2.085 -2.946,-5.535 0.053,-0.179 0.11,-0.361 0.173,-0.544 0.545,-1.594 1.472,-3.322 2.751,-4.956 0.121,-0.154 0.245,-0.307 0.372,-0.46 1.391,-1.661 3.152,-3.198 5.243,-4.362 -2.247,-0.836 -4.22,-2.093 -5.844,-3.528 -0.138,-0.122 -0.273,-0.246 -0.406,-0.371 -1.505,-1.416 -2.677,-2.978 -3.453,-4.467 -0.089,-0.171 -0.173,-0.342 -0.251,-0.511 -1.497,-3.249 -1.024,-5.946 2.082,-5.891 1.862,0.033 3.725,1.646 4.565,2.957 0.181,0.28 0.327,0.544 0.428,0.78 1.771,4.144 0.288,5.695 3.214,9.868 0.054,0.078 0.112,0.158 0.171,0.239 0.036,0.051 0.073,0.103 0.111,0.153 0.035,0.067 0.071,0.135 0.109,0.202 0.008,0.014 0.016,0.03 0.024,0.045 0.008,0.017 0.016,0.033 0.024,0.051 0.03,0.068 0.063,0.135 0.096,0.205 0.01,0.03 0.021,0.06 0.033,0.091 0.007,0.025 0.016,0.049 0.025,0.074 0.012,0.032 0.025,0.063 0.039,0.096 -0.037,0.062 -0.07,0.124 -0.1,0.185 C 3.548,-10.252 5.54,-9.093 4.288,-4.348 3.918,-2.963 2.174,-0.393 0,0"
           style="fill:#da66a1;fill-opacity:1;fill-rule:nonzero;stroke:none"
           id="path2244" /></g><g
         id="g2246"
         transform="matrix(1.3333333,0,0,-1.3333333,1904.3017,300.70585)"
         style="display:inline"><path
           d="m 0,0 c -2.951,0.159 -3.497,-2.449 -2.188,-5.638 0.069,-0.167 0.143,-0.334 0.222,-0.503 0.688,-1.47 1.752,-3.026 3.14,-4.457 0.131,-0.135 0.266,-0.269 0.403,-0.402 1.505,-1.45 3.347,-2.742 5.463,-3.641 -2.096,-0.945 -3.908,-2.277 -5.376,-3.759 -0.124,-0.126 -0.246,-0.254 -0.366,-0.382 -1.349,-1.453 -2.374,-3.025 -3.025,-4.503 -0.075,-0.17 -0.145,-0.339 -0.209,-0.507 -1.225,-3.201 -0.619,-5.741 2.316,-5.556 1.796,0.113 3.541,1.797 4.271,3.119 0.158,0.283 0.285,0.548 0.371,0.785 1.489,4.094 10e-4,5.546 2.645,9.74 0.049,0.078 0.102,0.159 0.155,0.24 0.033,0.052 0.066,0.104 0.102,0.154 0.026,0.069 0.054,0.139 0.085,0.208 0.006,0.014 0.012,0.031 0.019,0.046 0.004,0.018 0.011,0.034 0.016,0.052 0.02,0.07 0.043,0.138 0.066,0.209 0.005,0.029 0.01,0.059 0.015,0.089 0.003,0.024 0.007,0.048 0.011,0.072 0.006,0.031 0.012,0.063 0.02,0.095 -0.043,0.056 -0.082,0.111 -0.118,0.167 C 4.628,-9.486 6.369,-8.114 4.602,-3.677 4.081,-2.382 2.11,-0.113 0,0"
           style="fill:#da66a1;fill-opacity:1;fill-rule:nonzero;stroke:none"
           id="path2248" /></g><g
         id="g2250"
         transform="matrix(1.3333333,0,0,-1.3333333,1886.8677,303.62785)"
         style="display:inline"><path
           d="m 0,0 c -2.793,-0.144 -3.08,-2.68 -1.568,-5.617 0.079,-0.154 0.164,-0.308 0.253,-0.463 0.781,-1.352 1.928,-2.754 3.37,-4.011 0.137,-0.119 0.276,-0.236 0.418,-0.352 1.563,-1.27 3.434,-2.359 5.529,-3.048 -1.969,-0.987 -3.655,-2.337 -5.006,-3.82 -0.114,-0.126 -0.226,-0.253 -0.336,-0.381 -1.234,-1.446 -2.155,-2.993 -2.723,-4.438 -0.065,-0.166 -0.126,-0.331 -0.181,-0.494 -1.052,-3.107 -0.384,-5.511 2.386,-5.286 1.737,0.14 3.405,1.85 4.06,3.16 0.141,0.281 0.256,0.544 0.334,0.779 1.32,3.999 -0.132,5.396 2.346,9.537 0.046,0.078 0.096,0.158 0.146,0.239 0.032,0.051 0.062,0.102 0.096,0.152 0.019,0.07 0.041,0.14 0.066,0.209 0.005,0.015 0.009,0.032 0.015,0.047 0.002,0.018 0.007,0.033 0.009,0.052 0.013,0.069 0.027,0.137 0.042,0.208 0,0.028 0,0.056 0,0.085 -10e-4,0.023 -10e-4,0.046 -10e-4,0.068 0,0.03 10e-4,0.06 0.003,0.091 -0.047,0.05 -0.09,0.101 -0.13,0.151 C 5.395,-8.741 6.9,-7.227 4.759,-3.1 4.129,-1.894 2.018,0.104 0,0"
           style="fill:#da66a1;fill-opacity:1;fill-rule:nonzero;stroke:none"
           id="path2252" /></g><g
         id="g2254"
         transform="matrix(1.3333333,0,0,-1.3333333,1867.7687,308.21931)"
         style="display:inline"><path
           d="m 0,0 c -2.595,-0.492 -2.578,-2.938 -0.816,-5.563 0.093,-0.138 0.191,-0.276 0.293,-0.414 0.894,-1.205 2.14,-2.417 3.647,-3.459 0.143,-0.099 0.289,-0.196 0.437,-0.291 1.632,-1.046 3.535,-1.884 5.603,-2.315 -1.817,-1.067 -3.345,-2.466 -4.547,-3.973 -0.102,-0.128 -0.201,-0.256 -0.297,-0.385 -1.087,-1.46 -1.872,-2.997 -2.327,-4.417 -0.052,-0.163 -0.1,-0.324 -0.143,-0.484 -0.811,-3.028 -0.041,-5.281 2.563,-4.965 1.678,0.204 3.227,1.98 3.776,3.289 0.119,0.282 0.216,0.544 0.28,0.78 1.062,3.928 -0.386,5.244 1.836,9.39 0.041,0.078 0.086,0.158 0.131,0.24 0.029,0.051 0.055,0.103 0.086,0.152 0.012,0.071 0.026,0.142 0.043,0.211 0.004,0.015 0.005,0.031 0.009,0.046 0,0.018 0.002,0.034 0.002,0.052 0.003,0.069 0.008,0.136 0.013,0.206 -0.006,0.025 -0.012,0.052 -0.018,0.078 -0.005,0.022 -0.01,0.043 -0.014,0.063 -0.006,0.028 -0.011,0.056 -0.015,0.085 -0.051,0.043 -0.098,0.086 -0.143,0.13 C 6.291,-7.775 7.506,-6.112 4.927,-2.39 4.167,-1.302 1.898,0.36 0,0"
           style="fill:#da66a1;fill-opacity:1;fill-rule:nonzero;stroke:none"
           id="path2256" /></g><g
         id="g2258"
         transform="matrix(1.3333333,0,0,-1.3333333,1849.1427,311.93465)"
         style="display:inline"><path
           d="m 0,0 c -2.426,-0.571 -2.345,-2.911 -0.612,-5.387 0.092,-0.13 0.188,-0.26 0.288,-0.391 0.881,-1.14 2.097,-2.279 3.556,-3.251 0.139,-0.092 0.28,-0.183 0.424,-0.272 1.586,-0.978 3.427,-1.75 5.411,-2.128 -1.769,-0.961 -3.277,-2.252 -4.478,-3.66 -0.101,-0.119 -0.2,-0.239 -0.297,-0.36 -1.084,-1.36 -1.886,-2.806 -2.369,-4.152 -0.055,-0.154 -0.107,-0.307 -0.153,-0.459 -0.873,-2.862 -0.228,-5.041 2.242,-4.895 1.639,0.098 3.24,1.789 3.813,3.04 0.124,0.269 0.229,0.522 0.301,0.751 1.194,3.748 -0.118,5.129 2.256,9.057 0.045,0.073 0.093,0.15 0.141,0.228 0.03,0.048 0.058,0.097 0.092,0.144 0.01,0.069 0.022,0.139 0.038,0.206 0.004,0.015 0.005,0.031 0.009,0.046 -0.001,0.017 10e-4,0.032 0,0.05 -0.001,0.067 10e-4,0.132 0.002,0.201 -0.008,0.023 -0.017,0.048 -0.025,0.072 -0.008,0.02 -0.015,0.04 -0.021,0.058 -0.009,0.026 -0.018,0.052 -0.025,0.079 -0.05,0.04 -0.098,0.081 -0.143,0.123 C 6.373,-7.373 7.451,-5.697 4.82,-2.154 4.043,-1.116 1.798,0.424 0,0"
           style="fill:#da66a1;fill-opacity:1;fill-rule:nonzero;stroke:none"
           id="path2260" /></g><g
         id="g2262"
         transform="matrix(1.3333333,0,0,-1.3333333,1830.4306,316.11665)"
         style="display:inline"><path
           d="m 0,0 c -2.251,-0.675 -2.08,-2.909 -0.35,-5.216 0.092,-0.123 0.188,-0.244 0.289,-0.366 0.879,-1.066 2.077,-2.119 3.498,-3.005 0.136,-0.084 0.274,-0.167 0.413,-0.248 1.551,-0.893 3.337,-1.581 5.242,-1.884 -1.709,-0.873 -3.184,-2.074 -4.369,-3.395 -0.099,-0.111 -0.197,-0.224 -0.292,-0.337 -1.068,-1.273 -1.87,-2.636 -2.368,-3.913 -0.056,-0.146 -0.109,-0.291 -0.157,-0.435 -0.904,-2.705 -0.36,-4.81 1.973,-4.801 1.601,0.006 3.234,1.632 3.817,2.83 0.128,0.26 0.236,0.503 0.316,0.726 1.281,3.583 0.093,5.013 2.578,8.748 0.046,0.07 0.097,0.143 0.147,0.218 0.032,0.046 0.06,0.093 0.096,0.137 0.008,0.068 0.018,0.136 0.033,0.202 0.003,0.014 0.004,0.031 0.007,0.045 -0.002,0.017 -10e-4,0.031 -0.003,0.049 -0.005,0.065 -0.007,0.128 -0.009,0.195 -0.012,0.022 -0.024,0.044 -0.035,0.066 -0.011,0.019 -0.02,0.037 -0.029,0.054 -0.012,0.024 -0.024,0.047 -0.035,0.072 -0.05,0.037 -0.097,0.075 -0.143,0.113 -4.085,3.243 -3.162,4.943 -5.884,8.28 C 3.932,-0.887 1.694,0.508 0,0"
           style="fill:#da66a1;fill-opacity:1;fill-rule:nonzero;stroke:none"
           id="path2264" /></g><g
         id="g2266"
         transform="matrix(1.3333333,0,0,-1.3333333,1813.4826,318.55865)"
         style="display:inline"><path
           d="m 0,0 c -2.115,-0.659 -1.971,-2.8 -0.366,-5.031 0.085,-0.119 0.175,-0.237 0.268,-0.355 0.823,-1.038 1.946,-2.069 3.283,-2.945 0.128,-0.083 0.257,-0.165 0.389,-0.246 1.468,-0.89 3.163,-1.587 4.973,-1.917 -1.692,-0.694 -3.192,-1.722 -4.429,-2.89 -0.103,-0.098 -0.205,-0.198 -0.305,-0.298 -1.115,-1.126 -1.988,-2.36 -2.566,-3.539 -0.065,-0.134 -0.128,-0.268 -0.185,-0.402 -1.075,-2.493 -0.745,-4.55 1.442,-4.796 1.556,-0.174 3.306,1.296 3.962,2.408 0.144,0.241 0.269,0.469 0.368,0.682 1.553,3.338 0.576,4.875 3.362,8.269 0.053,0.063 0.109,0.13 0.166,0.198 0.035,0.043 0.068,0.085 0.107,0.125 0.009,0.066 0.021,0.133 0.038,0.197 0.004,0.013 0.004,0.03 0.008,0.043 -0.002,0.017 -0.001,0.031 -0.003,0.048 -0.006,0.064 -0.008,0.125 -0.01,0.191 -0.014,0.02 -0.028,0.041 -0.041,0.062 -0.012,0.017 -0.023,0.034 -0.033,0.051 -0.015,0.022 -0.029,0.044 -0.042,0.067 -0.048,0.037 -0.094,0.075 -0.139,0.112 C 6.326,-6.788 7.189,-5.11 4.555,-1.83 3.776,-0.867 1.619,0.505 0,0"
           style="fill:#da66a1;fill-opacity:1;fill-rule:nonzero;stroke:none"
           id="path2268" /></g><g
         id="g2270"
         transform="matrix(1.3333333,0,0,-1.3333333,1795.1985,320.97491)"
         style="display:inline"><path
           d="m 0,0 c -1.98,-0.667 -1.842,-2.719 -0.34,-4.859 0.081,-0.115 0.165,-0.229 0.253,-0.343 0.775,-1.003 1.836,-2.001 3.097,-2.853 0.121,-0.082 0.244,-0.162 0.368,-0.241 1.395,-0.875 3.006,-1.565 4.724,-1.903 -1.658,-0.528 -3.166,-1.391 -4.436,-2.412 -0.106,-0.086 -0.21,-0.173 -0.313,-0.261 -1.145,-0.984 -2.073,-2.09 -2.716,-3.169 -0.073,-0.124 -0.143,-0.246 -0.208,-0.369 -1.214,-2.278 -1.083,-4.276 0.942,-4.745 1.499,-0.347 3.349,0.974 4.065,2 0.157,0.223 0.297,0.435 0.413,0.636 1.784,3.088 1.019,4.708 4.063,7.758 0.057,0.057 0.119,0.117 0.18,0.179 0.039,0.039 0.074,0.077 0.117,0.112 0.01,0.065 0.024,0.13 0.041,0.191 0.005,0.013 0.005,0.03 0.01,0.042 -0.003,0.017 -0.002,0.03 -0.004,0.047 -0.007,0.064 -0.01,0.123 -0.013,0.187 -0.016,0.019 -0.033,0.039 -0.048,0.059 -0.014,0.016 -0.026,0.033 -0.038,0.048 -0.017,0.021 -0.033,0.042 -0.049,0.064 -0.047,0.036 -0.091,0.073 -0.135,0.11 C 6.182,-6.637 6.975,-4.967 4.399,-1.76 3.637,-0.815 1.544,0.52 0,0"
           style="fill:#da66a1;fill-opacity:1;fill-rule:nonzero;stroke:none"
           id="path2272" /></g><g
         id="g2274"
         transform="matrix(1.3333333,0,0,-1.3333333,1777.927,321.05411)"
         style="display:inline"><path
           d="m 0,0 c -1.87,-0.633 -1.779,-2.604 -0.429,-4.69 0.073,-0.112 0.149,-0.224 0.23,-0.336 0.705,-0.986 1.68,-1.975 2.847,-2.832 0.113,-0.083 0.227,-0.164 0.343,-0.243 1.3,-0.891 2.812,-1.612 4.432,-1.996 -1.623,-0.32 -3.146,-0.98 -4.462,-1.817 -0.11,-0.07 -0.218,-0.141 -0.324,-0.213 -1.188,-0.81 -2.187,-1.758 -2.915,-2.715 -0.083,-0.109 -0.162,-0.218 -0.237,-0.327 -1.393,-2.019 -1.511,-3.947 0.321,-4.671 1.412,-0.559 3.385,0.559 4.18,1.473 0.175,0.2 0.333,0.391 0.471,0.575 2.072,2.771 1.574,4.471 4.922,7.068 0.063,0.049 0.131,0.1 0.199,0.153 0.042,0.034 0.081,0.067 0.128,0.096 0.012,0.062 0.029,0.125 0.05,0.184 0.005,0.012 0.006,0.028 0.011,0.04 -0.003,0.017 -10e-4,0.029 -0.004,0.046 -0.006,0.063 -0.008,0.122 -0.01,0.185 -0.018,0.018 -0.036,0.038 -0.054,0.057 C 9.684,-9.947 9.67,-9.931 9.657,-9.916 9.638,-9.895 9.62,-9.874 9.602,-9.853 9.558,-9.816 9.515,-9.779 9.474,-9.742 5.881,-6.654 6.652,-5.002 4.211,-1.796 3.487,-0.85 1.488,0.504 0,0"
           style="fill:#da66a1;fill-opacity:1;fill-rule:nonzero;stroke:none"
           id="path2276" /></g><g
         id="g2278"
         transform="matrix(1.3333333,0,0,-1.3333333,1761.9877,317.68945)"
         style="display:inline"><path
           d="m 0,0 c -1.821,-0.436 -1.959,-2.329 -0.948,-4.461 0.054,-0.115 0.113,-0.231 0.174,-0.347 0.543,-1.025 1.338,-2.083 2.326,-3.039 0.096,-0.093 0.193,-0.184 0.292,-0.274 1.116,-1.015 2.452,-1.893 3.927,-2.462 -1.572,0.035 -3.127,-0.269 -4.528,-0.783 -0.116,-0.043 -0.231,-0.087 -0.345,-0.133 -1.269,-0.509 -2.395,-1.188 -3.272,-1.932 -0.1,-0.084 -0.196,-0.17 -0.289,-0.256 -1.704,-1.586 -2.25,-3.374 -0.734,-4.481 1.215,-0.888 3.376,-0.194 4.314,0.512 0.206,0.155 0.397,0.306 0.571,0.455 2.551,2.187 2.506,3.947 6.301,5.694 0.072,0.033 0.149,0.068 0.227,0.104 0.048,0.023 0.092,0.046 0.144,0.063 0.021,0.059 0.046,0.118 0.075,0.171 0.006,0.011 0.01,0.027 0.016,0.037 0,0.017 0.002,0.029 0.002,0.046 10e-4,0.063 0.005,0.12 0.01,0.182 -0.019,0.02 -0.037,0.042 -0.054,0.063 -0.015,0.018 -0.029,0.035 -0.042,0.051 -0.019,0.023 -0.037,0.046 -0.055,0.069 -0.038,0.041 -0.074,0.083 -0.11,0.124 C 4.915,-7.191 5.825,-5.63 3.838,-2.211 3.248,-1.2 1.479,0.354 0,0"
           style="fill:#da66a1;fill-opacity:1;fill-rule:nonzero;stroke:none"
           id="path2280" /></g><g
         id="g2282"
         transform="matrix(1.3333333,0,0,-1.3333333,1746.0004,332.69264)"
         style="display:inline"><path
           d="M 0,0 C 3.599,1.362 3.914,3.151 8.286,3.801 8.363,3.81 8.447,3.822 8.531,3.834 8.584,3.842 8.632,3.851 8.686,3.852 8.719,3.904 8.755,3.955 8.794,3.999 8.803,4.007 8.809,4.022 8.818,4.031 8.82,4.048 8.825,4.058 8.827,4.075 8.839,4.136 8.853,4.191 8.869,4.251 8.839,4.294 8.811,4.343 8.785,4.384 8.739,4.459 8.697,4.532 8.654,4.604 6.345,8.43 7.495,9.82 6.227,13.496 5.85,14.587 4.447,16.414 2.972,16.298 1.094,16.15 0.678,14.187 1.361,11.856 1.703,10.69 2.319,9.433 3.166,8.264 4.012,7.096 5.089,6.016 6.35,5.206 4.932,5.671 3.427,5.819 2.001,5.732 0.576,5.644 -0.771,5.321 -1.871,4.842 -4.072,3.884 -5.292,2.305 -4.202,0.747 -3.346,-0.485 -1.065,-0.404 0,0"
           style="fill:#da66a1;fill-opacity:1;fill-rule:nonzero;stroke:none"
           id="path2284" /></g><g
         id="g2286"
         transform="matrix(1.3333333,0,0,-1.3333333,1754.8552,326.46411)"
         style="display:inline"><path
           d="m 0,0 c 1.724,-0.957 3.494,-1.835 5.321,-2.579 1.834,-0.723 3.694,-1.393 5.602,-1.891 3.801,-1.062 7.713,-1.647 11.628,-2.004 7.847,-0.656 15.72,-0.279 23.523,0.409 7.809,0.702 15.572,1.761 23.313,2.917 7.741,1.162 15.46,2.437 23.173,3.731 15.355,2.633 30.986,3.769 46.492,2.655 7.744,-0.561 15.45,-1.667 22.986,-3.465 7.528,-1.805 14.914,-4.258 21.843,-7.627 0.65,-0.318 1.436,-0.048 1.754,0.602 0.319,0.651 0.049,1.437 -0.602,1.755 l -0.014,0.007 C 177.842,-2.084 170.272,0.344 162.584,2.112 154.888,3.87 147.052,4.917 139.197,5.411 123.475,6.391 107.693,5.087 92.265,2.29 84.569,0.918 76.871,-0.433 69.158,-1.671 61.445,-2.903 53.716,-4.037 45.955,-4.814 38.2,-5.577 30.39,-6.028 22.634,-5.458 18.764,-5.144 14.903,-4.607 11.158,-3.6 9.276,-3.13 7.444,-2.489 5.635,-1.798 3.833,-1.086 2.088,-0.241 0.384,0.682 L 0.376,0.686 C 0.186,0.789 -0.051,0.718 -0.154,0.528 -0.256,0.339 -0.187,0.104 0,0"
           style="fill:#fde3cb;fill-opacity:1;fill-rule:nonzero;stroke:none"
           id="path2288" /></g><g
         id="g2008"
         transform="matrix(1.3333333,0,0,-1.3333333,1867.5677,100.46025)"><path
           d="m 0,0 c 4.883,0.488 9.202,-0.581 12.86,-2.261 3.679,-1.696 6.834,-3.987 9.714,-6.515 5.728,-5.1 10.439,-11.109 14.598,-17.515 4.159,-6.404 7.673,-13.335 10.85,-20.453 3.258,-7.062 6.484,-14.185 9.872,-21.189 3.375,-7.012 6.876,-13.931 10.607,-20.66 1.855,-3.372 3.762,-6.701 5.744,-9.969 0.993,-1.631 2.005,-3.247 3.039,-4.845 0.517,-0.799 1.039,-1.594 1.567,-2.384 0.545,-0.757 1.071,-1.512 1.657,-2.233 2.338,-2.882 5.071,-5.469 8.134,-7.736 3.065,-2.268 6.421,-4.27 10.112,-5.924 7.331,-3.333 16.209,-5.155 24.949,-6.486 0.082,-0.013 0.123,-0.081 0.092,-0.153 -0.03,-0.069 -0.117,-0.116 -0.195,-0.11 -9.043,0.722 -18.421,2.053 -26.031,5.189 -7.696,3.076 -14.121,7.559 -19.165,13.423 -0.626,0.735 -1.209,1.523 -1.793,2.29 -0.556,0.771 -1.107,1.546 -1.653,2.326 -1.092,1.559 -2.152,3.144 -3.175,4.758 -2.036,3.237 -4.029,6.511 -5.867,9.907 -3.702,6.771 -7.035,13.838 -10.241,21 -3.202,7.165 -6.289,14.42 -9.37,21.656 -3.001,7.285 -6.269,14.289 -10.253,20.787 -3.977,6.485 -8.483,12.586 -14.061,17.739 -2.799,2.56 -5.877,4.88 -9.463,6.623 -3.569,1.726 -7.77,2.86 -12.559,2.475 -0.09,-0.008 -0.156,0.043 -0.147,0.115 C -0.17,-0.074 -0.089,-0.01 0,0"
           style="fill:#6c59b2;fill-opacity:1;fill-rule:nonzero;stroke:none"
           id="path2010" /></g><g
         id="g2012"
         transform="matrix(1.3333333,0,0,-1.3333333,1872.8981,91.627325)"><path
           d="M 0,0 C 1.729,-1.321 2.304,-3.433 1.327,-5.31 -4.602,-6.291 -6.946,-1.858 -7.714,1.604 -4.664,1.885 -1.797,1.375 0,0"
           style="fill:#feaa7c;fill-opacity:1;fill-rule:nonzero;stroke:none"
           id="path2014" /></g><g
         id="g2016"
         transform="matrix(1.3333333,0,0,-1.3333333,1866.363,107.85972)"><path
           d="M 0,0 C 2.674,1.209 4.706,2.918 5.085,4.335 0.317,4.976 -5.103,1.191 -8.613,-1.996 -5.968,-1.95 -2.77,-1.251 0,0"
           style="fill:#feaa7c;fill-opacity:1;fill-rule:nonzero;stroke:none"
           id="path2018" /></g><g
         id="g2020"
         transform="matrix(1.3333333,0,0,-1.3333333,1892.5447,98.361855)"><path
           d="M 0,0 C 0.881,-1.961 0.632,-4.097 -0.93,-5.514 -6.13,-4.041 -6.038,1.264 -5.162,4.9 -2.822,3.83 -0.923,2.032 0,0"
           style="fill:#feaa7c;fill-opacity:1;fill-rule:nonzero;stroke:none"
           id="path2022" /></g><g
         id="g2024"
         transform="matrix(1.3333333,0,0,-1.3333333,1880.8831,113.55652)"><path
           d="M 0,0 C 2.792,0.664 5.104,1.957 5.824,3.34 1.836,5.394 -4.187,2.672 -8.556,-0.191 -6.043,-0.715 -2.89,-0.683 0,0"
           style="fill:#feaa7c;fill-opacity:1;fill-rule:nonzero;stroke:none"
           id="path2026" /></g><g
         id="g2028"
         transform="matrix(1.3333333,0,0,-1.3333333,1906.3113,109.62118)"><path
           d="M 0,0 C 0.932,-2.039 0.806,-4.125 -0.653,-5.409 -5.523,-3.292 -5.324,2.278 -4.898,5.607 -2.793,4.16 -0.972,2.116 0,0"
           style="fill:#feaa7c;fill-opacity:1;fill-rule:nonzero;stroke:none"
           id="path2030" /></g><g
         id="g2032"
         transform="matrix(1.3333333,0,0,-1.3333333,1893.3277,122.94532)"><path
           d="M 0,0 C 2.737,0.112 5.198,0.983 6.161,2.263 2.869,5.395 -3.15,3.967 -7.934,1.641 -5.742,0.531 -2.834,-0.109 0,0"
           style="fill:#feaa7c;fill-opacity:1;fill-rule:nonzero;stroke:none"
           id="path2034" /></g><g
         id="g2036"
         transform="matrix(1.3333333,0,0,-1.3333333,1917.6334,122.42292)"><path
           d="M 0,0 C 0.473,-2.115 -0.393,-4.085 -2.323,-4.962 -6.54,-1.3 -4.661,4.218 -3.861,6.594 -2.048,4.549 -0.479,2.207 0,0"
           style="fill:#feaa7c;fill-opacity:1;fill-rule:nonzero;stroke:none"
           id="path2038" /></g><g
         id="g2040"
         transform="matrix(1.3333333,0,0,-1.3333333,1902.8922,135.98052)"><path
           d="M 0,0 C 2.875,0.458 5.312,1.671 6.158,3.164 2.485,6.116 -3.642,3.82 -8.683,0.673 -6.177,-0.182 -2.971,-0.465 0,0"
           style="fill:#feaa7c;fill-opacity:1;fill-rule:nonzero;stroke:none"
           id="path2042" /></g><g
         id="g2044"
         transform="matrix(1.3333333,0,0,-1.3333333,1927.9015,136.57052)"><path
           d="m 0,0 c -0.003,-2.201 -1.463,-4.188 -3.623,-4.853 -3.506,4.41 -0.606,9.75 0.738,11.78 C -1.236,4.747 0.024,2.302 0,0"
           style="fill:#feaa7c;fill-opacity:1;fill-rule:nonzero;stroke:none"
           id="path2046" /></g><g
         id="g2048"
         transform="matrix(1.3333333,0,0,-1.3333333,1910.9342,151.28652)"><path
           d="M 0,0 C 2.868,0.452 5.389,1.735 6.358,3.33 2.798,6.376 -3.447,3.982 -8.542,0.791 -6.105,-0.123 -2.967,-0.461 0,0"
           style="fill:#feaa7c;fill-opacity:1;fill-rule:nonzero;stroke:none"
           id="path2050" /></g><g
         id="g2052"
         transform="matrix(1.3333333,0,0,-1.3333333,1936.4953,148.76932)"><path
           d="M 0,0 C -0.203,-2.505 -1.982,-4.844 -4.359,-5.672 -7.968,-1.003 -4.529,5.032 -2.697,7.589 -0.978,5.293 0.232,2.619 0,0"
           style="fill:#feaa7c;fill-opacity:1;fill-rule:nonzero;stroke:none"
           id="path2054" /></g><g
         id="g2056"
         transform="matrix(1.3333333,0,0,-1.3333333,1917.6154,166.19292)"><path
           d="M 0,0 C 3.016,1.044 5.502,2.898 6.305,4.782 2.012,7.067 -4.521,3.082 -9.547,-1.041 -6.617,-1.38 -3.121,-1.077 0,0"
           style="fill:#feaa7c;fill-opacity:1;fill-rule:nonzero;stroke:none"
           id="path2058" /></g><g
         id="g2060"
         transform="matrix(1.3333333,0,0,-1.3333333,1946.3139,167.77985)"><path
           d="M 0,0 C -0.344,-2.994 -2.094,-5.581 -4.026,-7.094 -8.311,-2.761 -4.517,4.583 -1.887,8.528 0.05,6.238 0.381,3.128 0,0"
           style="fill:#feaa7c;fill-opacity:1;fill-rule:nonzero;stroke:none"
           id="path2062" /></g><g
         id="g2064"
         transform="matrix(1.3333333,0,0,-1.3333333,1924.8134,187.73785)"><path
           d="M 0,0 C 2.982,0.161 5.834,1.398 7.192,3.233 3.681,7.01 -3.331,4.801 -8.618,1.947 -6.217,0.63 -3.094,-0.164 0,0"
           style="fill:#feaa7c;fill-opacity:1;fill-rule:nonzero;stroke:none"
           id="path2066" /></g><g
         id="g2068"
         transform="matrix(1.3333333,0,0,-1.3333333,1957.3035,184.84225)"><path
           d="M 0,0 C -0.54,-3.344 -2.922,-6.792 -5.754,-8.343 -8.685,-3.587 -6.316,3.993 -2.717,9.002 -0.653,6.652 0.574,3.484 0,0"
           style="fill:#feaa7c;fill-opacity:1;fill-rule:nonzero;stroke:none"
           id="path2070" /></g><g
         id="g2072"
         transform="matrix(1.3333333,0,0,-1.3333333,1934.2081,207.04331)"><path
           d="M 0,0 C 2.909,0.731 5.539,2.588 6.541,4.695 1.868,7.289 -4.909,3.464 -9.104,0.192 -6.278,-0.543 -3.029,-0.767 0,0"
           style="fill:#feaa7c;fill-opacity:1;fill-rule:nonzero;stroke:none"
           id="path2074" /></g><g
         id="g2076"
         transform="matrix(1.3333333,0,0,-1.3333333,1969.9583,205.35505)"><path
           d="M 0,0 C -0.953,-3.717 -3.785,-7.45 -6.83,-9.012 -11.752,-4.488 -7.064,3.893 -2.035,9.923 0.05,7.406 0.997,3.867 0,0"
           style="fill:#feaa7c;fill-opacity:1;fill-rule:nonzero;stroke:none"
           id="path2078" /></g><g
         id="g2080"
         transform="matrix(1.3333333,0,0,-1.3333333,1945.053,224.49718)"><path
           d="M 0,0 C 2.644,-0.952 5.448,-0.683 7.111,0.855 4.276,5.899 -2.699,5.895 -7.196,5.204 -5.321,2.975 -2.751,0.986 0,0"
           style="fill:#feaa7c;fill-opacity:1;fill-rule:nonzero;stroke:none"
           id="path2082" /></g><g
         id="g2084"
         transform="matrix(1.3333333,0,0,-1.3333333,1979.9849,220.57118)"><path
           d="M 0,0 C -1.191,-3.966 -4.266,-7.849 -7.464,-9.404 -12.715,-4.755 -7.749,3.807 -1.65,10.619 0.469,7.952 1.237,4.118 0,0"
           style="fill:#feaa7c;fill-opacity:1;fill-rule:nonzero;stroke:none"
           id="path2086" /></g><g
         id="g2088"
         transform="matrix(1.3333333,0,0,-1.3333333,1955.6061,242.77291)"><path
           d="M 0,0 C 2.621,-0.198 5.242,1.001 6.394,2.962 1.606,6.435 -4.974,4.374 -7.904,3.184 -5.494,1.545 -2.745,0.185 0,0"
           style="fill:#feaa7c;fill-opacity:1;fill-rule:nonzero;stroke:none"
           id="path2090" /></g><g
         id="g2092"
         transform="matrix(1.3333333,0,0,-1.3333333,1992.4534,236.15558)"><path
           d="M 0,0 C -0.735,-3.991 -3.558,-8.18 -6.839,-10.171 -13.419,-6.497 -9.479,2.377 -3.4,10.022 -0.643,7.743 0.763,4.145 0,0"
           style="fill:#feaa7c;fill-opacity:1;fill-rule:nonzero;stroke:none"
           id="path2094" /></g><g
         id="g2096"
         transform="matrix(1.3333333,0,0,-1.3333333,1968.9029,258.70251)"><path
           d="M 0,0 C 2.778,-0.407 5.671,0.68 6.981,2.615 1.873,6.256 -5.234,4.572 -8.043,4.019 -5.688,2.078 -2.915,0.398 0,0"
           style="fill:#feaa7c;fill-opacity:1;fill-rule:nonzero;stroke:none"
           id="path2098" /></g><g
         id="g2100"
         transform="matrix(1.3333333,0,0,-1.3333333,2012.5343,245.87438)"><path
           d="M 0,0 C -1.384,-4.362 -4.702,-9.538 -8.103,-12.058 -16.537,-9.942 -10.478,3.663 -3.679,12.82 -0.08,11.165 1.489,4.859 0,0"
           style="fill:#feaa7c;fill-opacity:1;fill-rule:nonzero;stroke:none"
           id="path2102" /></g><g
         id="g2104"
         transform="matrix(1.3333333,0,0,-1.3333333,1986.4146,272.60638)"><path
           d="M 0,0 C 3.397,0.247 6.834,2.03 8.183,4.225 1.794,6.968 -6.383,3.884 -9.523,2.642 -6.881,0.899 -3.561,-0.284 0,0"
           style="fill:#feaa7c;fill-opacity:1;fill-rule:nonzero;stroke:none"
           id="path2106" /></g><g
         id="g2108"
         transform="matrix(1.3333333,0,0,-1.3333333,2020.6059,267.56011)"><path
           d="M 0,0 C -8.805,2.177 -5.851,8.77 0.182,17.359 8.544,9.481 3.409,2.478 0,0"
           style="fill:#feaa7c;fill-opacity:1;fill-rule:nonzero;stroke:none"
           id="path2110" /></g><g
         id="g2112"
         transform="matrix(1.3333333,0,0,-1.3333333,2004.8345,279.70385)"><path
           d="M 0,0 C 4.134,1.188 7.814,3.625 8.956,5.992 1.334,7.701 -7.936,2.71 -11.976,-0.029 -8.65,-1.127 -4.309,-1.248 0,0"
           style="fill:#feaa7c;fill-opacity:1;fill-rule:nonzero;stroke:none"
           id="path2114" /></g></g></g></svg>
