<?xml version="1.0" encoding="UTF-8" standalone="no"?>
<!-- Created with Inkscape (http://www.inkscape.org/) -->

<svg
   width="87.080872mm"
   height="186.1116mm"
   viewBox="0 0 87.080872 186.1116"
   version="1.1"
   id="svg18260"
   xml:space="preserve"
   inkscape:version="1.2.1 (9c6d41e, 2022-07-14)"
   sodipodi:docname="Pagina_2.svg.2022_10_30_14_26_15.1.svg"
   xmlns:inkscape="http://www.inkscape.org/namespaces/inkscape"
   xmlns:sodipodi="http://sodipodi.sourceforge.net/DTD/sodipodi-0.dtd"
   xmlns="http://www.w3.org/2000/svg"
   xmlns:svg="http://www.w3.org/2000/svg"><sodipodi:namedview
     id="namedview18262"
     pagecolor="#ffffff"
     bordercolor="#000000"
     borderopacity="0.25"
     inkscape:showpageshadow="2"
     inkscape:pageopacity="0.0"
     inkscape:pagecheckerboard="0"
     inkscape:deskcolor="#d1d1d1"
     inkscape:document-units="mm"
     showgrid="false"
     inkscape:zoom="1.1712514"
     inkscape:cx="232.65713"
     inkscape:cy="318.88969"
     inkscape:window-width="1680"
     inkscape:window-height="997"
     inkscape:window-x="-4"
     inkscape:window-y="26"
     inkscape:window-maximized="0"
     inkscape:current-layer="layer16" /><defs
     id="defs18257" /><g
     inkscape:label="Layer 1"
     inkscape:groupmode="layer"
     id="layer1"
     transform="translate(-80.745155,-2.7451169)"><rect
       style="display:none;fill:#362955;fill-opacity:1;stroke:#efbed7;stroke-width:0.524129;stroke-opacity:1"
       id="rect22117-8-8"
       width="150.97588"
       height="196.81587"
       x="-0.062044993"
       y="-0.062044993" /><g
       inkscape:groupmode="layer"
       id="layer23"
       inkscape:label="Scrollables 2"
       transform="matrix(0.26458333,0,0,0.26458333,-464.19669,-10.960258)"
       style="display:none"><g
         id="g3264"
         transform="matrix(1.3333333,0,0,-1.3333333,2179.0602,49.792925)"
         style="display:inline"><path
           d="M 0,0 C -13.218,-17.821 -21.712,-19.214 -34.767,-15.194 -30.179,-1.328 -21.203,4.182 0,0"
           style="fill:#feaa7c;fill-opacity:1;fill-rule:nonzero;stroke:none"
           id="path3266" /></g><g
         id="g3268"
         transform="matrix(1.3333333,0,0,-1.3333333,2173.7398,51.844795)"
         style="display:inline"><path
           d="M 0,0 C -11.484,-2.753 -22.484,-6.206 -28.405,-12.186 -20.861,-7.767 -11.264,-4.583 0,0"
           style="fill:#fde3cb;fill-opacity:1;fill-rule:nonzero;stroke:none"
           id="path3270" /></g></g><g
       inkscape:groupmode="layer"
       id="layer15"
       inkscape:label="Guitarra"
       transform="matrix(0.26458333,0,0,0.26458333,-459.58821,-10.654175)"
       style="display:inline"><g
         id="g3288"
         transform="matrix(1.3333333,0,0,-1.3333333,2219.1946,77.413078)"><path
           d="M 0,0 17.036,-0.024 17.03,-4.464 -0.006,-4.44 Z"
           style="fill:#6c59b2;fill-opacity:1;fill-rule:nonzero;stroke:none"
           id="path3290" /></g><g
         id="g3292"
         transform="matrix(1.3333333,0,0,-1.3333333,2237.4038,74.523611)"><path
           d="m 0,0 c 0.692,2.339 2.122,3.922 4.667,3.18 2.574,-0.751 4.718,-2.859 5.499,-5.405 0.78,-2.547 0.172,-5.45 -1.56,-7.444 -2.099,-2.416 -6.431,-4.026 -8.184,-0.36 C -0.481,-8.14 -0.98,-3.312 0,0"
           style="fill:#fde3cb;fill-opacity:1;fill-rule:nonzero;stroke:none"
           id="path3294" /></g><g
         id="g3296"
         transform="matrix(1.3333333,0,0,-1.3333333,2222.9571,104.55228)"><path
           d="M 0,0 17.036,-0.024 17.03,-4.464 -0.006,-4.44 Z"
           style="fill:#6c59b2;fill-opacity:1;fill-rule:nonzero;stroke:none"
           id="path3298" /></g><g
         id="g3300"
         transform="matrix(1.3333333,0,0,-1.3333333,2241.1662,101.66268)"><path
           d="M 0,0 C 0.692,2.339 2.122,3.922 4.667,3.179 7.24,2.429 9.385,0.321 10.165,-2.225 10.946,-4.772 10.338,-7.675 8.606,-9.669 6.507,-12.085 2.175,-13.695 0.422,-10.029 -0.481,-8.14 -0.98,-3.312 0,0"
           style="fill:#fde3cb;fill-opacity:1;fill-rule:nonzero;stroke:none"
           id="path3302" /></g><g
         id="g3304"
         transform="matrix(1.3333333,0,0,-1.3333333,2226.6509,131.69148)"><path
           d="M 0,0 17.036,-0.024 17.03,-4.464 -0.006,-4.44 Z"
           style="fill:#6c59b2;fill-opacity:1;fill-rule:nonzero;stroke:none"
           id="path3306" /></g><g
         id="g3308"
         transform="matrix(1.3333333,0,0,-1.3333333,2244.8598,128.80188)"><path
           d="m 0,0 c 0.692,2.339 2.122,3.922 4.667,3.18 2.574,-0.751 4.718,-2.859 5.499,-5.405 0.78,-2.546 0.172,-5.45 -1.56,-7.444 -2.099,-2.415 -6.431,-4.026 -8.184,-0.36 C -0.481,-8.14 -0.98,-3.312 0,0"
           style="fill:#fde3cb;fill-opacity:1;fill-rule:nonzero;stroke:none"
           id="path3310" /></g><g
         id="g3312"
         transform="matrix(1.3333333,0,0,-1.3333333,2195.3483,77.379211)"><path
           d="m 0,0 -17.036,0.024 -0.007,-4.44 17.037,-0.024 z"
           style="fill:#6c59b2;fill-opacity:1;fill-rule:nonzero;stroke:none"
           id="path3314" /></g><g
         id="g3316"
         transform="matrix(1.3333333,0,0,-1.3333333,2177.1473,74.438145)"><path
           d="m 0,0 c -0.685,2.341 -2.111,3.928 -4.658,3.193 -2.576,-0.743 -4.726,-2.845 -5.514,-5.389 -0.787,-2.545 -0.187,-5.45 1.539,-7.449 2.092,-2.421 6.419,-4.043 8.182,-0.383 C 0.458,-8.141 0.971,-3.315 0,0"
           style="fill:#fde3cb;fill-opacity:1;fill-rule:nonzero;stroke:none"
           id="path3318" /></g><g
         id="g3320"
         transform="matrix(1.3333333,0,0,-1.3333333,2191.5089,104.50775)"><path
           d="m 0,0 -17.036,0.024 -0.007,-4.44 17.037,-0.024 z"
           style="fill:#6c59b2;fill-opacity:1;fill-rule:nonzero;stroke:none"
           id="path3322" /></g><g
         id="g3324"
         transform="matrix(1.3333333,0,0,-1.3333333,2173.3081,101.56655)"><path
           d="m 0,0 c -0.685,2.341 -2.111,3.928 -4.658,3.193 -2.576,-0.743 -4.726,-2.845 -5.514,-5.389 -0.788,-2.544 -0.187,-5.45 1.539,-7.449 2.092,-2.421 6.419,-4.043 8.182,-0.383 C 0.458,-8.141 0.971,-3.315 0,0"
           style="fill:#fde3cb;fill-opacity:1;fill-rule:nonzero;stroke:none"
           id="path3326" /></g><g
         id="g3328"
         transform="matrix(1.3333333,0,0,-1.3333333,2187.7383,131.63615)"><path
           d="m 0,0 -17.036,0.024 -0.007,-4.44 17.037,-0.024 z"
           style="fill:#6c59b2;fill-opacity:1;fill-rule:nonzero;stroke:none"
           id="path3330" /></g><g
         id="g3332"
         transform="matrix(1.3333333,0,0,-1.3333333,2169.5375,128.69508)"><path
           d="m 0,0 c -0.685,2.341 -2.11,3.928 -4.658,3.193 -2.576,-0.743 -4.726,-2.845 -5.514,-5.39 -0.788,-2.544 -0.187,-5.449 1.539,-7.448 2.092,-2.421 6.419,-4.043 8.182,-0.383 C 0.458,-8.141 0.971,-3.315 0,0"
           style="fill:#fde3cb;fill-opacity:1;fill-rule:nonzero;stroke:none"
           id="path3334" /></g><g
         id="g3336"
         transform="matrix(1.3333333,0,0,-1.3333333,2333.9302,709.68293)"><path
           d="m 0,0 c -23.531,-20.674 -64.297,-32.54 -95.408,-33.252 -57.287,-1.311 -140.907,42.689 -120.147,111.882 0.184,0.604 0.374,1.206 0.573,1.806 10.498,31.538 44.327,54.36 47.298,87.391 3.151,35.486 -26.435,69.283 3.421,100.752 17.151,18.078 44.123,22.393 68.47,22.275 25.24,-0.122 52.595,-3.559 70.438,-22.472 29.766,-31.553 0.085,-65.266 3.135,-100.761 2.877,-33.039 36.641,-55.958 47.051,-87.525 C 34.092,52.046 22.619,19.874 0,0"
           style="fill:#da66a1;fill-opacity:1;fill-rule:nonzero;stroke:none"
           id="path3338" /></g><g
         id="g3340"
         transform="matrix(1.3333333,0,0,-1.3333333,2251.6387,454.06134)"><path
           d="m 0,0 c -0.026,-18.502 -15.047,-33.48 -33.549,-33.454 -18.502,0.026 -33.48,15.047 -33.454,33.549 0.026,18.502 15.047,33.48 33.549,33.454 C -14.952,33.523 0.026,18.502 0,0"
           style="fill:#fde3cb;fill-opacity:1;fill-rule:nonzero;stroke:none"
           id="path3342" /></g><g
         id="g3344"
         transform="matrix(1.3333333,0,0,-1.3333333,2223.5959,410.13694)"><path
           d="m 0,0 c -0.305,-5.939 -5.367,-10.507 -11.306,-10.203 -5.939,0.305 -10.507,5.367 -10.202,11.306 0.304,5.94 5.366,10.508 11.305,10.203 C -4.263,11.001 0.305,5.939 0,0"
           style="fill:#6c59b2;fill-opacity:1;fill-rule:nonzero;stroke:none"
           id="path3346" /></g><g
         id="g3348"
         transform="matrix(1.3333333,0,0,-1.3333333,2245.9718,427.93067)"><path
           d="m 0,0 c -3.695,-4.66 -10.468,-5.442 -15.128,-1.747 -4.66,3.695 -5.443,10.468 -1.748,15.128 3.695,4.66 10.468,5.442 15.129,1.747 C 2.912,11.433 3.695,4.66 0,0"
           style="fill:#6c59b2;fill-opacity:1;fill-rule:nonzero;stroke:none"
           id="path3350" /></g><g
         id="g3352"
         transform="matrix(1.3333333,0,0,-1.3333333,2253.8674,455.40707)"><path
           d="m 0,0 c -5.714,-1.651 -11.684,1.643 -13.334,7.357 -1.651,5.713 1.643,11.683 7.356,13.334 5.714,1.65 11.684,-1.643 13.334,-7.357 C 9.007,7.621 5.714,1.651 0,0"
           style="fill:#6c59b2;fill-opacity:1;fill-rule:nonzero;stroke:none"
           id="path3354" /></g><g
         id="g3356"
         transform="matrix(1.3333333,0,0,-1.3333333,2244.3518,482.36507)"><path
           d="M 0,0 C -5.611,1.971 -8.561,8.118 -6.59,13.729 -4.618,19.34 1.529,22.29 7.14,20.319 12.75,18.347 15.701,12.2 13.729,6.59 11.758,0.979 5.611,-1.972 0,0"
           style="fill:#6c59b2;fill-opacity:1;fill-rule:nonzero;stroke:none"
           id="path3358" /></g><g
         id="g3360"
         transform="matrix(1.3333333,0,0,-1.3333333,2220.9575,498.7968)"><path
           d="M 0,0 C -3.425,4.862 -2.26,11.58 2.601,15.005 7.463,18.43 14.181,17.266 17.606,12.404 21.031,7.542 19.867,0.824 15.005,-2.601 10.143,-6.026 3.425,-4.862 0,0"
           style="fill:#6c59b2;fill-opacity:1;fill-rule:nonzero;stroke:none"
           id="path3362" /></g><g
         id="g3364"
         transform="matrix(1.3333333,0,0,-1.3333333,2192.3701,498.60174)"><path
           d="M 0,0 C 0.032,5.947 4.879,10.742 10.826,10.71 16.773,10.678 21.568,5.831 21.536,-0.116 21.504,-6.063 16.657,-10.858 10.71,-10.826 4.763,-10.794 -0.032,-5.947 0,0"
           style="fill:#6c59b2;fill-opacity:1;fill-rule:nonzero;stroke:none"
           id="path3366" /></g><g
         id="g3368"
         transform="matrix(1.3333333,0,0,-1.3333333,2169.2022,481.85227)"><path
           d="M 0,0 C 3.477,4.825 10.208,5.917 15.032,2.439 19.857,-1.039 20.949,-7.769 17.471,-12.593 13.994,-17.418 7.263,-18.51 2.439,-15.032 -2.385,-11.555 -3.477,-4.824 0,0"
           style="fill:#6c59b2;fill-opacity:1;fill-rule:nonzero;stroke:none"
           id="path3370" /></g><g
         id="g3372"
         transform="matrix(1.3333333,0,0,-1.3333333,2160.0554,454.76667)"><path
           d="M 0,0 C 5.632,1.911 11.746,-1.106 13.657,-6.738 15.568,-12.37 12.552,-18.484 6.92,-20.395 1.288,-22.306 -4.827,-19.289 -6.737,-13.657 -8.648,-8.025 -5.632,-1.911 0,0"
           style="fill:#6c59b2;fill-opacity:1;fill-rule:nonzero;stroke:none"
           id="path3374" /></g><g
         id="g3376"
         transform="matrix(1.3333333,0,0,-1.3333333,2168.3255,427.40094)"><path
           d="m 0,0 c 5.695,-1.712 8.924,-7.717 7.212,-13.413 -1.712,-5.695 -7.717,-8.924 -13.413,-7.212 -5.695,1.713 -8.924,7.718 -7.212,13.413 C -11.7,-1.517 -5.695,1.712 0,0"
           style="fill:#6c59b2;fill-opacity:1;fill-rule:nonzero;stroke:none"
           id="path3378" /></g><g
         id="g3380"
         transform="matrix(1.3333333,0,0,-1.3333333,2190.9419,409.91414)"><path
           d="m 0,0 c 3.644,-4.7 2.789,-11.464 -1.911,-15.108 -4.699,-3.645 -11.464,-2.789 -15.108,1.91 -3.645,4.7 -2.789,11.464 1.911,15.109 C -10.409,5.555 -3.644,4.7 0,0"
           style="fill:#6c59b2;fill-opacity:1;fill-rule:nonzero;stroke:none"
           id="path3382" /></g><g
         id="g3384"
         transform="matrix(1.3333333,0,0,-1.3333333,2251.6387,454.06134)"><path
           d="m 0,0 c -0.026,-18.502 -15.047,-33.48 -33.549,-33.454 -18.502,0.026 -33.48,15.047 -33.454,33.549 0.026,18.502 15.047,33.48 33.549,33.454 C -14.952,33.523 0.026,18.502 0,0"
           style="fill:#fde3cb;fill-opacity:1;fill-rule:nonzero;stroke:none"
           id="path3386" /></g><g
         id="g3388"
         transform="matrix(1.3333333,0,0,-1.3333333,2238.8765,454.04321)"><path
           d="m 0,0 c -0.019,-13.216 -10.747,-23.915 -23.964,-23.896 -13.215,0.019 -23.914,10.748 -23.895,23.964 0.019,13.216 10.747,23.914 23.963,23.895 C -10.68,23.945 0.019,13.216 0,0"
           style="fill:#362955;fill-opacity:1;fill-rule:nonzero;stroke:none"
           id="path3390" /></g><g
         id="g3392"
         transform="matrix(1.3333333,0,0,-1.3333333,2216.9439,430.06734)"><path
           d="m 0,0 -14.836,0.021 c -1.41,0.002 -2.551,1.146 -2.549,2.556 L -17.082,216.648 2.859,216.62 2.556,2.549 C 2.554,1.139 1.41,-0.002 0,0"
           style="fill:#feaa7c;fill-opacity:1;fill-rule:nonzero;stroke:none"
           id="path3394" /></g><g
         id="g3396"
         transform="matrix(1.3333333,0,0,-1.3333333,2237.1842,145.65681)"><path
           d="m 0,0 c -1.56,-4.173 -7.337,-6.352 -11.256,-7.772 -3.616,-1.287 -7.432,-2.011 -11.248,-2.105 -3.85,0.072 -7.665,0.84 -11.276,2.137 -3.915,1.431 -9.687,3.626 -11.234,7.804 -1.48,3.912 0.182,8.947 0.761,12.89 2.046,14.213 4.126,28.394 6.173,42.574 0.647,4.407 1.431,9.343 5.015,12.42 2.84,2.448 6.898,3.333 10.676,3.312 3.771,-0.022 7.799,-0.886 10.632,-3.342 3.575,-3.087 4.345,-8.026 4.98,-12.434 C -4.771,41.298 -2.731,27.111 -0.725,12.892 -0.156,8.948 1.491,3.908 0,0"
           style="fill:#da66a1;fill-opacity:1;fill-rule:nonzero;stroke:none"
           id="path3398" /></g><g
         id="g3400"
         transform="matrix(1.3333333,0,0,-1.3333333,2222.2922,132.98215)"><path
           d="m 0,0 v 0 c -1.479,0.002 -2.828,1.083 -3.013,2.415 l -5.248,37.694 c -0.186,1.332 0.863,2.41 2.342,2.408 1.479,-0.003 2.828,-1.084 3.013,-2.415 L 2.342,2.407 C 2.527,1.076 1.479,-0.002 0,0"
           style="fill:#362955;fill-opacity:1;fill-rule:nonzero;stroke:none"
           id="path3402" /></g><g
         id="g3404"
         transform="matrix(1.3333333,0,0,-1.3333333,2192.0933,132.93935)"><path
           d="M 0,0 V 0 C 1.479,-0.002 2.831,1.075 3.02,2.406 L 8.375,40.085 C 8.564,41.417 7.518,42.497 6.04,42.5 4.561,42.502 3.209,41.424 3.02,40.093 L -2.335,2.414 C -2.524,1.083 -1.479,0.002 0,0"
           style="fill:#362955;fill-opacity:1;fill-rule:nonzero;stroke:none"
           id="path3406" /></g><g
         id="g3408"
         transform="matrix(1.3333333,0,0,-1.3333333,2176.4951,646.48987)"><path
           d="m 0,0 45.377,-0.064 c 3.685,-0.006 6.677,2.978 6.682,6.663 l 0.009,6.101 c 0.005,3.686 -2.978,6.678 -6.664,6.683 L 0.028,19.447 c -3.686,0.005 -6.678,-2.978 -6.683,-6.664 l -0.009,-6.1 C -6.669,2.997 -3.686,0.005 0,0"
           style="fill:#fde3cb;fill-opacity:1;fill-rule:nonzero;stroke:none"
           id="path3410" /></g><g
         id="g3412"
         transform="matrix(1.3333333,0,0,-1.3333333,2296.2759,417.71667)"><path
           d="M 0,0 C 0.224,7.933 -2.093,14.122 -8.058,18.973 -8.094,19.003 -8.14,18.961 -8.127,18.921 -6.267,13.331 -5.958,6.693 -7.638,1.125 -9.924,-6.448 -0.208,-7.378 0,0"
           style="fill:#feaa7c;fill-opacity:1;fill-rule:nonzero;stroke:none"
           id="path3414" /></g><g
         id="g3416"
         transform="matrix(1.3333333,0,0,-1.3333333,2302.3274,374.21281)"><path
           d="m 0,0 c -8.417,7.596 -17.292,10.814 -28.094,8.826 -0.065,-0.012 -0.063,-0.101 -0.007,-0.124 7.8,-3.159 15.303,-8.975 19.798,-15.963 C -2.189,-16.764 7.828,-7.065 0,0"
           style="fill:#fde3cb;fill-opacity:1;fill-rule:nonzero;stroke:none"
           id="path3418" /></g><g
         id="g3420"
         transform="matrix(1.3333333,0,0,-1.3333333,2267.5411,339.58374)"><path
           d="m 0,0 c -11.319,0.653 -20.254,-2.393 -27.432,-10.707 -0.044,-0.05 0.014,-0.118 0.072,-0.1 8.06,2.419 17.551,2.581 25.431,-0.053 C 8.789,-14.443 10.527,-0.608 0,0"
           style="fill:#feaa7c;fill-opacity:1;fill-rule:nonzero;stroke:none"
           id="path3422" /></g><g
         id="g3424"
         transform="matrix(1.3333333,0,0,-1.3333333,2117.8653,417.46387)"><path
           d="M 0,0 C -0.201,7.934 2.133,14.116 8.112,18.95 8.148,18.98 8.194,18.938 8.18,18.898 6.305,13.313 5.977,6.676 7.642,1.104 9.906,-6.476 0.187,-7.379 0,0"
           style="fill:#feaa7c;fill-opacity:1;fill-rule:nonzero;stroke:none"
           id="path3426" /></g><g
         id="g3428"
         transform="matrix(1.3333333,0,0,-1.3333333,2111.9371,373.94307)"><path
           d="M 0,0 C 8.439,7.572 17.322,10.765 28.119,8.746 28.184,8.734 28.182,8.645 28.125,8.623 20.317,5.486 12.797,-0.31 8.283,-7.284 2.142,-16.77 -7.848,-7.042 0,0"
           style="fill:#fde3cb;fill-opacity:1;fill-rule:nonzero;stroke:none"
           id="path3430" /></g><g
         id="g3432"
         transform="matrix(1.3333333,0,0,-1.3333333,2146.8215,339.41268)"><path
           d="m 0,0 c 11.321,0.621 20.247,-2.451 27.402,-10.784 0.043,-0.051 -0.014,-0.119 -0.072,-0.101 C 19.276,-8.442 9.785,-8.254 1.898,-10.866 -8.83,-14.418 -10.529,-0.578 0,0"
           style="fill:#feaa7c;fill-opacity:1;fill-rule:nonzero;stroke:none"
           id="path3434" /></g><g
         id="g3436"
         transform="matrix(1.3333333,0,0,-1.3333333,2144.1043,599.0364)"><path
           d="M 0,0 C 7.051,13.1 15.895,17.427 24.532,20.089 43.338,25.884 34.642,41.167 22.661,36.868 9.523,32.154 -1.11,20.238 0,0"
           style="fill:#6c59b2;fill-opacity:1;fill-rule:nonzero;stroke:none"
           id="path3438" /></g><g
         id="g3440"
         transform="matrix(1.3333333,0,0,-1.3333333,2142.7475,569.8916)"><path
           d="M 0,0 C 4.011,10.193 10.099,14.13 16.182,16.83 29.425,22.709 21.733,33.123 13.349,28.934 4.154,24.34 -2.579,14.7 0,0"
           style="fill:#feaa7c;fill-opacity:1;fill-rule:nonzero;stroke:none"
           id="path3442" /></g><g
         id="g3444"
         transform="matrix(1.3333333,0,0,-1.3333333,2136.7213,552.076)"><path
           d="M 0,0 C -0.168,7.61 2.676,11.769 5.848,15.134 12.755,22.46 5.028,27.067 0.78,22.129 -3.878,16.715 -5.603,8.728 0,0"
           style="fill:#6c59b2;fill-opacity:1;fill-rule:nonzero;stroke:none"
           id="path3446" /></g><g
         id="g3448"
         transform="matrix(1.3333333,0,0,-1.3333333,2269.5226,599.214)"><path
           d="m 0,0 c -7.014,13.12 -15.845,17.472 -24.475,20.159 -18.789,5.848 -10.05,21.106 1.919,16.773 C -9.431,32.181 1.168,20.235 0,0"
           style="fill:#6c59b2;fill-opacity:1;fill-rule:nonzero;stroke:none"
           id="path3450" /></g><g
         id="g3452"
         transform="matrix(1.3333333,0,0,-1.3333333,2270.9619,570.07347)"><path
           d="m 0,0 c -3.983,10.205 -10.059,14.158 -16.134,16.876 -13.227,5.916 -5.505,16.309 2.867,12.096 C -4.086,24.352 2.621,14.693 0,0"
           style="fill:#feaa7c;fill-opacity:1;fill-rule:nonzero;stroke:none"
           id="path3454" /></g><g
         id="g3456"
         transform="matrix(1.3333333,0,0,-1.3333333,2277.0386,552.2748)"><path
           d="m 0,0 c 0.19,7.61 -2.642,11.776 -5.805,15.15 -6.887,7.346 0.854,11.931 5.088,6.982 C 3.925,16.704 5.627,8.712 0,0"
           style="fill:#6c59b2;fill-opacity:1;fill-rule:nonzero;stroke:none"
           id="path3458" /></g><g
         id="g3460"
         transform="matrix(1.3333333,0,0,-1.3333333,2327.2491,566.6856)"><path
           d="m 0,0 c -0.007,-5.128 -4.17,-9.279 -9.298,-9.272 -5.128,0.008 -9.279,4.17 -9.272,9.298 0.008,5.128 4.171,9.279 9.298,9.272 C -4.144,9.291 0.007,5.128 0,0"
           style="fill:#feaa7c;fill-opacity:1;fill-rule:nonzero;stroke:none"
           id="path3462" /></g><g
         id="g3464"
         transform="matrix(1.3333333,0,0,-1.3333333,2314.8599,573.9148)"><path
           d="M 0,0 C -2.996,0.004 -5.432,2.446 -5.427,5.443 -5.423,8.44 -2.981,10.874 0.015,10.87 3.012,10.866 5.447,8.424 5.443,5.427 5.439,2.43 2.996,-0.004 0,0"
           style="fill:#fde3cb;fill-opacity:1;fill-rule:nonzero;stroke:none"
           id="path3466" /></g><g
         id="g3468"
         transform="matrix(1.3333333,0,0,-1.3333333,2240.1619,733.58467)"><path
           d="M 0,0 C -0.003,-2.418 -1.966,-4.375 -4.384,-4.372 -6.802,-4.369 -8.76,-2.406 -8.756,0.012 -8.753,2.43 -6.79,4.388 -4.372,4.384 -1.954,4.381 0.003,2.418 0,0"
           style="fill:#feaa7c;fill-opacity:1;fill-rule:nonzero;stroke:none"
           id="path3470" /></g><g
         id="g3472"
         transform="matrix(1.3333333,0,0,-1.3333333,2251.4029,713.974)"><path
           d="m 0,0 c -0.002,-1.185 -0.963,-2.143 -2.147,-2.141 -1.185,10e-4 -2.144,0.963 -2.142,2.147 0.002,1.184 0.963,2.143 2.148,2.141 C -0.957,2.146 0.002,1.184 0,0"
           style="fill:#fde3cb;fill-opacity:1;fill-rule:nonzero;stroke:none"
           id="path3474" /></g><g
         id="g3476"
         transform="matrix(1.3333333,0,0,-1.3333333,2086.4701,566.34454)"><path
           d="m 0,0 c -0.007,-5.128 4.144,-9.291 9.272,-9.298 5.128,-0.007 9.29,4.144 9.298,9.272 0.007,5.128 -4.144,9.29 -9.272,9.298 C 4.17,9.279 0.007,5.128 0,0"
           style="fill:#feaa7c;fill-opacity:1;fill-rule:nonzero;stroke:none"
           id="path3478" /></g><g
         id="g3480"
         transform="matrix(1.3333333,0,0,-1.3333333,2098.8395,573.6088)"><path
           d="M 0,0 C -2.997,0.004 -5.432,2.446 -5.427,5.443 -5.423,8.44 -2.982,10.874 0.015,10.87 3.012,10.866 5.447,8.424 5.443,5.428 5.439,2.43 2.997,-0.004 0,0"
           style="fill:#fde3cb;fill-opacity:1;fill-rule:nonzero;stroke:none"
           id="path3482" /></g><g
         id="g3484"
         transform="matrix(1.3333333,0,0,-1.3333333,2077.1459,682.88267)"><path
           d="M 0,0 C -0.003,-2.418 1.954,-4.381 4.372,-4.384 6.79,-4.388 8.753,-2.43 8.756,-0.012 8.76,2.406 6.802,4.369 4.384,4.372 1.966,4.376 0.003,2.418 0,0"
           style="fill:#6c59b2;fill-opacity:1;fill-rule:nonzero;stroke:none"
           id="path3486" /></g><g
         id="g3488"
         transform="matrix(1.3333333,0,0,-1.3333333,2173.0841,733.4896)"><path
           d="M 0,0 C -0.003,-2.418 1.954,-4.381 4.372,-4.385 6.79,-4.388 8.753,-2.43 8.756,-0.012 8.76,2.406 6.802,4.368 4.384,4.372 1.966,4.375 0.004,2.418 0,0"
           style="fill:#feaa7c;fill-opacity:1;fill-rule:nonzero;stroke:none"
           id="path3490" /></g><g
         id="g3492"
         transform="matrix(1.3333333,0,0,-1.3333333,2161.8986,713.8472)"><path
           d="M 0,0 C -0.002,-1.184 0.957,-2.146 2.142,-2.148 3.326,-2.149 4.287,-1.19 4.289,-0.006 4.291,1.178 3.332,2.14 2.148,2.142 0.963,2.143 0.002,1.184 0,0"
           style="fill:#fde3cb;fill-opacity:1;fill-rule:nonzero;stroke:none"
           id="path3494" /></g><g
         id="g3496"
         transform="matrix(1.3333333,0,0,-1.3333333,2314.7209,663.00627)"><path
           d="m 0,0 c -4.319,0.006 -8.644,1.036 -12.711,3.097 -8.967,4.544 -15.028,13.253 -16.213,23.298 -1.784,15.122 2.069,29.885 5.796,44.161 2.046,7.841 4.163,15.948 5.302,23.985 0.974,6.867 2.803,29.544 -14.552,33.041 -3.55,0.712 -8.026,-0.387 -9.474,-4.494 -1.275,-3.619 0.754,-6.517 3.331,-7.785 2.541,-1.251 6.031,-1.083 8.103,2.109 0.193,0.298 0.589,0.382 0.887,0.189 0.297,-0.193 0.382,-0.59 0.189,-0.887 -2.5,-3.853 -6.693,-4.064 -9.746,-2.563 -2.986,1.469 -5.503,5.026 -3.974,9.363 1.704,4.831 6.864,6.148 10.938,5.326 18.456,-3.719 16.582,-27.331 15.568,-34.479 -1.15,-8.109 -3.275,-16.254 -5.331,-24.13 C -25.583,56.07 -29.406,41.427 -27.649,26.545 -26.515,16.929 -20.714,8.591 -12.131,4.242 -3.957,0.1 5.313,0.32 13.308,4.846 24.446,11.155 29.861,26.754 25.132,38.909 22.594,45.434 16.145,50.414 8.702,51.596 2.176,52.628 -3.812,50.481 -7.731,45.694 c -2.902,-3.544 -3.163,-8.297 -0.716,-13.039 2.356,-4.567 6.693,-6.36 11.896,-4.917 0.342,0.094 0.695,-0.105 0.79,-0.446 0.094,-0.342 -0.105,-0.696 -0.447,-0.79 -5.843,-1.621 -10.72,0.408 -13.379,5.564 -2.693,5.219 -2.378,10.482 0.863,14.441 4.216,5.149 10.64,7.468 17.627,6.356 C 16.788,51.611 23.628,46.317 26.328,39.375 31.276,26.658 25.602,10.334 13.94,3.73 9.543,1.24 4.776,-0.007 0,0"
           style="fill:#6c59b2;fill-opacity:1;fill-rule:nonzero;stroke:none"
           id="path3498" /></g><g
         id="g3500"
         transform="matrix(1.3333333,0,0,-1.3333333,2216.2419,732.8768)"><path
           d="m 0,0 c -0.355,0.001 -0.641,0.288 -0.641,0.643 0.03,21.095 13.902,42.458 30.922,47.621 9.502,2.881 23.961,3.239 33.445,-5.238 C 69.496,37.87 72.27,29.569 70.472,22.84 68.306,14.732 59.853,7.59 49.451,9.687 c -5.476,1.102 -10.572,4.916 -12.679,9.492 -1.644,3.567 -1.056,8.016 1.462,11.07 2.177,2.638 5.314,3.687 8.597,2.884 0.345,-0.084 0.555,-0.432 0.471,-0.775 -0.084,-0.345 -0.432,-0.558 -0.776,-0.471 -2.795,0.684 -5.452,-0.211 -7.302,-2.455 -2.212,-2.681 -2.729,-6.586 -1.287,-9.716 1.914,-4.155 6.753,-7.762 11.768,-8.771 9.652,-1.943 17.514,4.691 19.527,12.227 1.679,6.279 -0.937,14.05 -6.36,18.898 -9.088,8.122 -23.036,7.751 -32.218,4.966 C 14.135,42.025 0.672,21.212 0.643,0.641 0.642,0.286 0.355,-0.001 0,0"
           style="fill:#6c59b2;fill-opacity:1;fill-rule:nonzero;stroke:none"
           id="path3502" /></g><g
         id="g3504"
         transform="matrix(1.3333333,0,0,-1.3333333,2098.7258,662.70027)"><path
           d="m 0,0 c -4.777,0.007 -9.539,1.266 -13.93,3.769 -11.643,6.637 -17.27,22.977 -12.287,35.681 2.72,6.933 9.575,12.208 17.464,13.439 6.988,1.089 13.409,-1.246 17.609,-6.407 3.228,-3.968 3.528,-9.232 0.822,-14.443 -2.675,-5.148 -7.556,-7.163 -13.395,-5.526 -0.341,0.095 -0.54,0.449 -0.444,0.791 0.095,0.34 0.45,0.539 0.79,0.444 5.202,-1.46 9.542,0.322 11.911,4.883 2.459,4.735 2.211,9.489 -0.679,13.041 -3.906,4.797 -9.886,6.966 -16.417,5.949 -7.446,-1.162 -13.91,-6.123 -16.466,-12.641 -4.764,-12.142 0.607,-27.756 11.728,-34.096 7.98,-4.55 17.25,-4.795 25.437,-0.677 8.595,4.326 14.42,12.647 15.581,22.259 1.799,14.878 -1.982,29.532 -5.639,43.704 -2.033,7.882 -4.136,16.031 -5.263,24.144 -0.993,7.151 -2.799,30.768 15.667,34.435 4.078,0.806 9.233,-0.522 10.923,-5.357 1.516,-4.341 -1.011,-7.891 -4.001,-9.352 -3.053,-1.493 -7.25,-1.27 -9.739,2.59 -0.192,0.298 -0.107,0.695 0.191,0.887 0.297,0.192 0.696,0.107 0.887,-0.192 2.062,-3.198 5.553,-3.374 8.099,-2.132 2.58,1.261 4.617,4.154 3.352,7.776 -1.438,4.111 -5.914,5.225 -9.462,4.521 -17.364,-3.448 -15.6,-26.13 -14.646,-33 C 19.21,86.451 21.304,78.337 23.328,70.491 27.014,56.204 30.826,41.43 28.998,26.313 27.785,16.272 21.7,7.58 12.72,3.061 8.648,1.012 4.318,-0.006 0,0"
           style="fill:#6c59b2;fill-opacity:1;fill-rule:nonzero;stroke:none"
           id="path3506" /></g><g
         id="g3508"
         transform="matrix(1.3333333,0,0,-1.3333333,2197.0054,732.8496)"><path
           d="m 0,0 c -0.355,0.001 -0.641,0.288 -0.641,0.643 0.029,20.571 -13.374,41.422 -29.879,46.48 -9.175,2.811 -23.121,3.22 -32.232,-4.876 -5.436,-4.831 -8.074,-12.595 -6.414,-18.879 1.993,-7.542 9.827,-14.194 19.493,-12.283 5.017,0.995 9.866,4.589 11.793,8.739 1.45,3.125 0.944,7.031 -1.26,9.719 -1.843,2.249 -4.502,3.151 -7.296,2.476 -0.346,-0.085 -0.691,0.129 -0.774,0.472 -0.084,0.345 0.128,0.691 0.473,0.775 3.288,0.798 6.42,-0.264 8.59,-2.909 2.509,-3.061 3.084,-7.511 1.43,-11.074 -2.121,-4.569 -7.227,-8.37 -12.706,-9.456 -10.407,-2.063 -18.84,5.097 -20.984,13.213 -1.779,6.733 1.019,15.026 6.803,20.166 9.51,8.45 23.968,8.053 33.461,5.143 C -13.138,43.139 0.672,21.736 0.643,0.641 0.642,0.286 0.355,0 0,0"
           style="fill:#6c59b2;fill-opacity:1;fill-rule:nonzero;stroke:none"
           id="path3510" /></g><g
         id="g3512"
         transform="matrix(1.3333333,0,0,-1.3333333,2266.5335,420.93427)"><path
           d="m 0,0 c -0.867,0.001 -1.75,0.117 -2.642,0.349 -4.386,1.138 -8.502,5.242 -7.8,10.139 0.289,2.014 1.599,3.877 3.419,4.864 1.559,0.843 3.265,0.917 4.802,0.202 2.228,-1.036 3.411,-3.774 2.582,-5.98 -0.124,-0.332 -0.492,-0.5 -0.826,-0.375 -0.331,0.125 -0.499,0.495 -0.375,0.826 0.591,1.574 -0.307,3.614 -1.922,4.366 -1.16,0.538 -2.457,0.479 -3.65,-0.168 C -7.86,13.439 -8.943,11.901 -9.171,10.305 -9.772,6.12 -6.159,2.588 -2.319,1.59 0.057,0.974 2.362,1.295 4.348,2.519 c 2.255,1.39 3.908,3.854 4.534,6.76 2.285,10.611 -4.89,21.997 -13.157,27.759 -5.97,4.161 -13.387,6.011 -20.356,5.069 -0.353,-0.044 -0.674,0.2 -0.722,0.551 -0.047,0.351 0.199,0.674 0.551,0.721 7.278,0.982 15.03,-0.945 21.26,-5.288 C 5.075,32.086 12.54,20.168 10.136,9.009 9.437,5.762 7.572,2.999 5.021,1.426 3.481,0.478 1.778,-0.002 0,0"
           style="fill:#6c59b2;fill-opacity:1;fill-rule:nonzero;stroke:none"
           id="path3514" /></g><g
         id="g3516"
         transform="matrix(1.3333333,0,0,-1.3333333,2237.9963,388.06094)"><path
           d="m 0,0 c -1.538,0.001 -2.891,0.655 -3.853,1.874 -1.244,1.576 -1.605,3.88 -0.921,5.87 1.093,3.175 4.677,5.303 8.365,4.922 C 7.826,12.24 12.029,9.491 13.812,5.982 13.973,5.666 13.847,5.28 13.531,5.119 13.213,4.96 12.829,5.085 12.669,5.401 11.072,8.542 7.287,11.004 3.462,11.389 0.835,11.65 -2.529,10.32 -3.56,7.326 -4.107,5.738 -3.826,3.91 -2.846,2.669 -2.049,1.659 -0.876,1.177 0.432,1.304 1.303,1.389 2.172,1.889 2.757,2.641 3.292,3.327 3.523,4.12 3.409,4.874 3.355,5.224 3.596,5.552 3.947,5.604 4.293,5.661 4.625,5.417 4.677,5.066 4.845,3.961 4.523,2.82 3.77,1.852 2.961,0.813 1.79,0.147 0.557,0.027 0.369,0.008 0.183,0 0,0"
           style="fill:#6c59b2;fill-opacity:1;fill-rule:nonzero;stroke:none"
           id="path3518" /></g><g
         id="g3520"
         transform="matrix(1.3333333,0,0,-1.3333333,2147.5011,420.76574)"><path
           d="M 0,0 C -1.778,0.003 -3.479,0.487 -5.017,1.441 -7.564,3.02 -9.42,5.789 -10.11,9.038 -12.483,20.203 -4.984,32.1 3.65,38.081 c 6.242,4.325 13.996,6.231 21.274,5.228 0.352,-0.049 0.597,-0.372 0.549,-0.723 C 25.424,42.234 25.102,41.99 24.749,42.037 17.785,42.999 10.362,41.17 4.38,37.026 -3.904,31.287 -11.111,19.921 -8.856,9.305 -8.238,6.396 -6.592,3.927 -4.341,2.531 -2.357,1.302 -0.053,0.974 2.324,1.585 6.166,2.57 9.789,6.092 9.2,10.279 8.977,11.876 7.898,13.416 6.452,14.205 5.26,14.855 3.965,14.919 2.804,14.383 1.186,13.636 0.281,11.599 0.868,10.023 0.992,9.691 0.823,9.321 0.491,9.198 0.156,9.075 -0.211,9.244 -0.334,9.575 c -0.822,2.208 0.368,4.943 2.6,5.973 1.538,0.709 3.245,0.633 4.801,-0.216 1.817,-0.992 3.122,-2.859 3.404,-4.874 C 11.16,5.56 7.032,1.468 2.643,0.342 1.75,0.112 0.866,-0.001 0,0"
           style="fill:#6c59b2;fill-opacity:1;fill-rule:nonzero;stroke:none"
           id="path3522" /></g><g
         id="g3524"
         transform="matrix(1.3333333,0,0,-1.3333333,2176.1311,387.97347)"><path
           d="m 0,0 c -0.183,0 -0.369,0.009 -0.557,0.029 -1.232,0.123 -2.401,0.792 -3.207,1.834 -0.751,0.97 -1.069,2.112 -0.899,3.217 0.054,0.35 0.383,0.593 0.732,0.536 0.35,-0.054 0.591,-0.382 0.536,-0.732 -0.116,-0.753 0.113,-1.547 0.646,-2.235 0.583,-0.754 1.45,-1.256 2.32,-1.344 1.318,-0.133 2.484,0.349 3.283,1.356 0.983,1.239 1.269,3.066 0.727,4.655 -1.022,2.997 -4.368,4.341 -7.011,4.083 -3.825,-0.374 -7.618,-2.825 -9.223,-5.962 -0.162,-0.315 -0.549,-0.44 -0.863,-0.279 -0.316,0.162 -0.441,0.548 -0.279,0.863 1.793,3.505 6.004,6.241 10.24,6.655 C 0.124,13.034 3.712,10.909 4.796,7.73 5.475,5.738 5.107,3.435 3.859,1.863 2.893,0.647 1.538,-0.002 0,0"
           style="fill:#6c59b2;fill-opacity:1;fill-rule:nonzero;stroke:none"
           id="path3526" /></g><g
         id="g3528"
         transform="matrix(1.3333333,0,0,-1.3333333,2206.8397,692.2796)"><path
           d="m 0,0 c -1.943,-0.079 -3.498,1.697 -3.949,3.842 -0.294,1.399 -0.157,2.926 0.043,4.33 0.258,1.813 0.68,3.59 1.102,5.357 0.498,2.08 1.013,4.155 1.452,6.255 0.479,2.296 0.87,4.62 1.088,6.972 0.026,0.269 0.355,0.269 0.379,-0.001 0.203,-2.241 0.561,-4.459 1.003,-6.651 0.424,-2.097 0.928,-4.17 1.42,-6.246 C 2.959,12.084 3.383,10.302 3.658,8.486 4.012,6.148 4.149,3.579 2.794,1.633 2.081,0.609 1.053,0.043 0,0"
           style="fill:#feaa7c;fill-opacity:1;fill-rule:nonzero;stroke:none"
           id="path3530" /></g><g
         id="g3532"
         transform="matrix(1.3333333,0,0,-1.3333333,2230.7691,669.412)"><path
           d="m 0,0 c -0.003,-2.043 -1.661,-3.696 -3.704,-3.694 -2.043,0.003 -3.697,1.662 -3.694,3.704 0.003,2.043 1.661,3.697 3.704,3.694 C -1.651,3.701 0.003,2.043 0,0"
           style="fill:#6c59b2;fill-opacity:1;fill-rule:nonzero;stroke:none"
           id="path3534" /></g><g
         id="g3536"
         transform="matrix(1.3333333,0,0,-1.3333333,2192.5223,669.35787)"><path
           d="m 0,0 c -0.003,-2.043 -1.661,-3.697 -3.704,-3.693 -2.043,0.002 -3.697,1.661 -3.694,3.703 0.003,2.043 1.662,3.697 3.704,3.694 C -1.651,3.701 0.003,2.043 0,0"
           style="fill:#6c59b2;fill-opacity:1;fill-rule:nonzero;stroke:none"
           id="path3538" /></g><g
         id="g3540"
         transform="matrix(1.3333333,0,0,-1.3333333,2173.2786,596.21827)"><path
           d="M 0,0 C 0.003,2.418 1.966,4.375 4.384,4.372 6.802,4.368 8.76,2.406 8.756,-0.012 8.753,-2.43 6.79,-4.388 4.372,-4.384 1.954,-4.381 -0.003,-2.418 0,0"
           style="fill:#fde3cb;fill-opacity:1;fill-rule:nonzero;stroke:none"
           id="path3542" /></g><g
         id="g3544"
         transform="matrix(1.3333333,0,0,-1.3333333,2240.3565,596.31334)"><path
           d="M 0,0 C 0.003,2.418 -1.954,4.381 -4.372,4.384 -6.79,4.388 -8.753,2.43 -8.756,0.012 -8.76,-2.406 -6.802,-4.369 -4.384,-4.372 -1.966,-4.375 -0.003,-2.418 0,0"
           style="fill:#fde3cb;fill-opacity:1;fill-rule:nonzero;stroke:none"
           id="path3546" /></g><g
         id="g3548"
         transform="matrix(1.3333333,0,0,-1.3333333,2173.3867,519.87387)"><path
           d="M 0,0 C 0.003,2.418 1.967,4.375 4.384,4.372 6.802,4.369 8.76,2.406 8.756,-0.012 8.753,-2.43 6.79,-4.388 4.372,-4.384 1.954,-4.381 -0.003,-2.418 0,0"
           style="fill:#fde3cb;fill-opacity:1;fill-rule:nonzero;stroke:none"
           id="path3550" /></g><g
         id="g3552"
         transform="matrix(1.3333333,0,0,-1.3333333,2240.4646,519.9688)"><path
           d="M 0,0 C 0.003,2.418 -1.954,4.381 -4.372,4.384 -6.79,4.388 -8.753,2.43 -8.756,0.012 -8.76,-2.406 -6.802,-4.369 -4.384,-4.372 -1.966,-4.376 -0.003,-2.418 0,0"
           style="fill:#fde3cb;fill-opacity:1;fill-rule:nonzero;stroke:none"
           id="path3554" /></g><g
         id="g3556"
         transform="matrix(1.3333333,0,0,-1.3333333,2161.3354,602.03907)"><path
           d="M 0,0 C 0.002,1.184 0.963,2.143 2.147,2.142 3.332,2.14 4.291,1.178 4.289,-0.006 4.287,-1.19 3.326,-2.149 2.141,-2.147 0.957,-2.146 -0.002,-1.184 0,0"
           style="fill:#6c59b2;fill-opacity:1;fill-rule:nonzero;stroke:none"
           id="path3558" /></g><g
         id="g3560"
         transform="matrix(1.3333333,0,0,-1.3333333,2252.283,602.16787)"><path
           d="M 0,0 C 0.002,1.184 -0.957,2.146 -2.141,2.148 -3.326,2.149 -4.287,1.19 -4.289,0.006 -4.291,-1.178 -3.332,-2.14 -2.148,-2.142 -0.963,-2.143 -0.002,-1.184 0,0"
           style="fill:#6c59b2;fill-opacity:1;fill-rule:nonzero;stroke:none"
           id="path3562" /></g><g
         id="g3564"
         transform="matrix(1.3333333,0,0,-1.3333333,2291.7003,460.27481)"><path
           d="m 0,0 c -0.004,-2.738 -2.227,-4.954 -4.964,-4.95 -2.738,0.004 -4.955,2.226 -4.951,4.964 0.004,2.738 2.227,4.954 4.965,4.951 C -2.212,4.961 0.004,2.738 0,0"
           style="fill:#feaa7c;fill-opacity:1;fill-rule:nonzero;stroke:none"
           id="path3566" /></g><g
         id="g3568"
         transform="matrix(1.3333333,0,0,-1.3333333,2283.271,442.52334)"><path
           d="m 0,0 c -0.002,-1.534 -1.248,-2.776 -2.782,-2.774 -1.534,0.002 -2.776,1.248 -2.774,2.782 0.002,1.534 1.248,2.776 2.782,2.774 C -1.24,2.78 0.002,1.534 0,0"
           style="fill:#fde3cb;fill-opacity:1;fill-rule:nonzero;stroke:none"
           id="path3570" /></g><g
         id="g3572"
         transform="matrix(1.3333333,0,0,-1.3333333,2278.4557,477.99521)"><path
           d="m 0,0 c -0.002,-1.534 -1.248,-2.776 -2.782,-2.774 -1.535,0.002 -2.777,1.248 -2.774,2.782 0.002,1.534 1.247,2.776 2.782,2.774 C -1.24,2.78 0.002,1.534 0,0"
           style="fill:#fde3cb;fill-opacity:1;fill-rule:nonzero;stroke:none"
           id="path3574" /></g><g
         id="g3576"
         transform="matrix(1.3333333,0,0,-1.3333333,2122.2229,460.03467)"><path
           d="m 0,0 c -0.004,-2.738 2.212,-4.96 4.95,-4.964 2.738,-0.004 4.961,2.212 4.965,4.95 C 9.919,2.724 7.702,4.947 4.964,4.951 2.227,4.954 0.004,2.738 0,0"
           style="fill:#feaa7c;fill-opacity:1;fill-rule:nonzero;stroke:none"
           id="path3578" /></g><g
         id="g3580"
         transform="matrix(1.3333333,0,0,-1.3333333,2130.7023,442.30721)"><path
           d="m 0,0 c -0.002,-1.534 1.24,-2.78 2.774,-2.782 1.534,-0.002 2.78,1.24 2.782,2.774 C 5.558,1.526 4.316,2.772 2.782,2.774 1.248,2.776 0.002,1.534 0,0"
           style="fill:#fde3cb;fill-opacity:1;fill-rule:nonzero;stroke:none"
           id="path3582" /></g><g
         id="g3584"
         transform="matrix(1.3333333,0,0,-1.3333333,2135.4175,477.79254)"><path
           d="m 0,0 c -0.002,-1.534 1.24,-2.78 2.774,-2.782 1.534,-0.002 2.78,1.24 2.782,2.774 C 5.558,1.526 4.316,2.772 2.782,2.774 1.248,2.776 0.002,1.534 0,0"
           style="fill:#fde3cb;fill-opacity:1;fill-rule:nonzero;stroke:none"
           id="path3586" /></g><g
         id="g3588"
         transform="matrix(1.3333333,0,0,-1.3333333,2256.6769,392.28721)"><path
           d="m 0,0 c -0.002,-1.401 -1.14,-2.536 -2.541,-2.534 -1.402,0.002 -2.536,1.14 -2.534,2.541 0.002,1.402 1.139,2.536 2.541,2.534 C -1.133,2.539 0.002,1.401 0,0"
           style="fill:#fde3cb;fill-opacity:1;fill-rule:nonzero;stroke:none"
           id="path3590" /></g><g
         id="g3596"
         transform="matrix(1.3333333,0,0,-1.3333333,2202.741,603.01432)"
         style="display:inline"><path
           d="m 0,0 c -1.943,-0.172 -3.496,3.636 -3.943,8.237 -0.292,2.999 -0.152,6.277 0.05,9.288 0.261,3.89 0.686,7.703 1.111,11.494 0.501,4.464 1.02,8.916 1.462,13.421 0.482,4.926 0.877,9.913 1.1,14.959 0.025,0.577 0.355,0.576 0.379,-10e-4 0.198,-4.809 0.553,-9.566 0.992,-14.266 0.42,-4.5 0.92,-8.946 1.41,-13.398 C 2.979,25.928 3.4,22.107 3.672,18.212 4.022,13.196 4.155,7.684 2.796,3.507 2.082,1.309 1.053,0.093 0,0"
           style="fill:#feaa7c;fill-opacity:1;fill-rule:nonzero;stroke:none"
           id="path3598" /></g><g
         id="g3592"
         transform="matrix(1.3333333,0,0,-1.3333333,2153.2185,388.7966)"
         style="display:inline"
         inkscape:label="g3592"><path
           d="M 0,0 C -0.002,-1.401 1.133,-2.539 2.534,-2.541 3.935,-2.543 5.073,-1.409 5.075,-0.007 5.077,1.394 3.943,2.532 2.541,2.534 1.14,2.536 0.002,1.401 0,0"
           style="fill:#fde3cb;fill-opacity:1;fill-rule:nonzero;stroke:none"
           id="path3594" /></g></g><g
       inkscape:groupmode="layer"
       id="layer14"
       inkscape:label="Flores 2"
       transform="matrix(0.26458333,0,0,0.26458333,-460.70485,-11.540548)"
       style="display:none"><g
         id="g3600"
         transform="matrix(1.3333333,0,0,-1.3333333,2337.4591,82.154255)"><path
           d="m 0,0 c -0.687,-4.23 -6.077,-5.359 -9.635,-5.375 -5.344,-0.046 -10.352,1.802 -15.208,3.848 2.672,-1.924 5.298,-3.924 7.726,-6.184 2.474,-2.306 5.207,-5.115 6.352,-8.367 0.977,-2.78 -0.061,-6.307 -2.916,-7.482 -3.955,-1.65 -7.757,2.336 -9.65,5.344 -2.856,4.535 -3.909,9.803 -4.734,15.025 -0.244,-3.314 -0.55,-6.627 -1.191,-9.879 -0.641,-3.329 -1.588,-7.131 -3.756,-9.819 -1.848,-2.29 -5.39,-3.267 -7.91,-1.465 -3.466,2.504 -2.091,7.833 -0.534,11.024 2.351,4.794 6.215,8.459 10.2,11.895 -2.916,-1.527 -5.864,-2.993 -8.948,-4.154 -3.176,-1.191 -6.902,-2.397 -10.337,-1.969 -2.917,0.351 -5.604,2.855 -5.405,5.94 0.29,4.275 5.558,5.909 9.085,6.26 5.298,0.534 10.459,-0.825 15.467,-2.382 -2.824,1.664 -5.619,3.42 -8.214,5.405 -2.703,2.062 -5.681,4.596 -7.131,7.742 -1.237,2.672 -0.535,6.275 2.199,7.726 3.786,2 7.94,-1.603 10.108,-4.428 3.344,-4.337 5.359,-10.108 6.703,-15.361 0.58,3.558 1.237,7.1 2.245,10.566 0.962,3.253 2.275,6.948 4.672,9.421 2.061,2.108 5.68,2.749 8.016,0.718 3.222,-2.825 1.344,-7.986 -0.519,-11.024 -2.779,-4.551 -6.993,-7.834 -11.284,-10.887 3.054,1.252 6.138,2.427 9.315,3.298 3.267,0.886 7.1,1.725 10.474,0.992 C -1.939,5.787 0.504,3.039 0,0"
           style="fill:#da66a1;fill-opacity:1;fill-rule:nonzero;stroke:none"
           id="path3602" /></g><g
         id="g3604"
         transform="matrix(1.3333333,0,0,-1.3333333,2333.8681,98.117585)"><path
           d="m 0,0 c -2.433,-3.527 -7.787,-2.239 -11.008,-0.729 -4.849,2.248 -8.583,6.063 -12.094,9.992 1.59,-2.883 3.106,-5.815 4.332,-8.897 1.247,-3.143 2.513,-6.853 2.155,-10.282 -0.308,-2.93 -2.757,-5.673 -5.841,-5.512 -4.28,0.205 -6.008,5.435 -6.43,8.964 -0.637,5.321 0.668,10.532 2.16,15.604 -1.64,-2.889 -3.336,-5.753 -5.309,-8.416 -2.005,-2.734 -4.49,-5.763 -7.6,-7.263 -2.651,-1.278 -6.27,-0.643 -7.775,2.064 -2.059,3.748 1.466,7.974 4.24,10.191 4.179,3.324 9.24,4.981 14.313,6.378 -3.29,-0.13 -6.581,-0.192 -9.865,0.08 -3.38,0.285 -7.263,0.791 -10.184,2.649 -2.485,1.567 -3.84,4.981 -2.34,7.683 2.094,3.739 7.554,2.958 10.892,1.765 5.016,-1.788 9.097,-5.227 12.956,-8.78 -1.84,2.715 -3.612,5.498 -5.108,8.404 -1.559,3.02 -3.163,6.586 -3.126,10.05 0.027,2.944 2.205,5.9 5.297,6.039 4.278,0.185 6.487,-4.85 7.236,-8.332 1.164,-5.35 0.512,-11.429 -0.524,-16.751 2.049,2.966 4.159,5.886 6.555,8.586 2.263,2.527 5.032,5.303 8.258,6.511 2.766,1.021 6.31,0.05 7.551,-2.786 1.701,-3.933 -2.207,-7.791 -5.192,-9.739 -4.46,-2.921 -9.675,-4.082 -14.86,-5.003 3.296,-0.177 6.586,-0.436 9.829,-1.01 3.332,-0.6 7.155,-1.483 9.89,-3.591 C 0.727,6.06 1.757,2.53 0,0"
           style="fill:#fde3cb;fill-opacity:1;fill-rule:nonzero;stroke:none"
           id="path3606" /></g><g
         id="g3608"
         transform="matrix(1.3333333,0,0,-1.3333333,2308.293,81.353185)"><path
           d="m 0,0 c 0,-3.353 -2.718,-6.071 -6.071,-6.071 -3.352,0 -6.071,2.718 -6.071,6.071 0,3.353 2.719,6.071 6.071,6.071 C -2.718,6.071 0,3.353 0,0"
           style="fill:#6c59b2;fill-opacity:1;fill-rule:nonzero;stroke:none"
           id="path3610" /></g><g
         id="g3612"
         transform="matrix(1.3333333,0,0,-1.3333333,2304.0717,81.353185)"><path
           d="m 0,0 c 0,-1.604 -1.3,-2.905 -2.905,-2.905 -1.604,0 -2.904,1.301 -2.904,2.905 0,1.604 1.3,2.905 2.904,2.905 C -1.3,2.905 0,1.604 0,0"
           style="fill:#feaa7c;fill-opacity:1;fill-rule:nonzero;stroke:none"
           id="path3614" /></g><g
         inkscape:groupmode="layer"
         id="layer25"
         inkscape:label="Enredaderas 2"
         transform="translate(0.16429646,17.319489)"
         style="display:inline"><g
           id="g2286"
           transform="matrix(1.3333333,0,0,-1.3333333,1799.7352,326.46411)"
           style="display:inline"><path
             d="m 0,0 c 1.724,-0.957 3.494,-1.835 5.321,-2.579 1.834,-0.723 3.694,-1.393 5.602,-1.891 3.801,-1.062 7.713,-1.647 11.628,-2.004 7.847,-0.656 15.72,-0.279 23.523,0.409 7.809,0.702 15.572,1.761 23.313,2.917 7.741,1.162 15.46,2.437 23.173,3.731 15.355,2.633 30.986,3.769 46.492,2.655 7.744,-0.561 15.45,-1.667 22.986,-3.465 7.528,-1.805 14.914,-4.258 21.843,-7.627 0.65,-0.318 1.436,-0.048 1.754,0.602 0.319,0.651 0.049,1.437 -0.602,1.755 l -0.014,0.007 C 177.842,-2.084 170.272,0.344 162.584,2.112 154.888,3.87 147.052,4.917 139.197,5.411 123.475,6.391 107.693,5.087 92.265,2.29 84.569,0.918 76.871,-0.433 69.158,-1.671 61.445,-2.903 53.716,-4.037 45.955,-4.814 38.2,-5.577 30.39,-6.028 22.634,-5.458 18.764,-5.144 14.903,-4.607 11.158,-3.6 9.276,-3.13 7.444,-2.489 5.635,-1.798 3.833,-1.086 2.088,-0.241 0.384,0.682 L 0.376,0.686 C 0.186,0.789 -0.051,0.718 -0.154,0.528 -0.256,0.339 -0.187,0.104 0,0"
             style="fill:#fde3cb;fill-opacity:1;fill-rule:nonzero;stroke:none"
             id="path2288" /></g><g
           id="g2008"
           transform="matrix(1.3333333,0,0,-1.3333333,1912.4477,100.46025)"><path
             d="m 0,0 c 4.883,0.488 9.202,-0.581 12.86,-2.261 3.679,-1.696 6.834,-3.987 9.714,-6.515 5.728,-5.1 10.439,-11.109 14.598,-17.515 4.159,-6.404 7.673,-13.335 10.85,-20.453 3.258,-7.062 6.484,-14.185 9.872,-21.189 3.375,-7.012 6.876,-13.931 10.607,-20.66 1.855,-3.372 3.762,-6.701 5.744,-9.969 0.993,-1.631 2.005,-3.247 3.039,-4.845 0.517,-0.799 1.039,-1.594 1.567,-2.384 0.545,-0.757 1.071,-1.512 1.657,-2.233 2.338,-2.882 5.071,-5.469 8.134,-7.736 3.065,-2.268 6.421,-4.27 10.112,-5.924 7.331,-3.333 16.209,-5.155 24.949,-6.486 0.082,-0.013 0.123,-0.081 0.092,-0.153 -0.03,-0.069 -0.117,-0.116 -0.195,-0.11 -9.043,0.722 -18.421,2.053 -26.031,5.189 -7.696,3.076 -14.121,7.559 -19.165,13.423 -0.626,0.735 -1.209,1.523 -1.793,2.29 -0.556,0.771 -1.107,1.546 -1.653,2.326 -1.092,1.559 -2.152,3.144 -3.175,4.758 -2.036,3.237 -4.029,6.511 -5.867,9.907 -3.702,6.771 -7.035,13.838 -10.241,21 -3.202,7.165 -6.289,14.42 -9.37,21.656 -3.001,7.285 -6.269,14.289 -10.253,20.787 -3.977,6.485 -8.483,12.586 -14.061,17.739 -2.799,2.56 -5.877,4.88 -9.463,6.623 -3.569,1.726 -7.77,2.86 -12.559,2.475 -0.09,-0.008 -0.156,0.043 -0.147,0.115 C -0.17,-0.074 -0.089,-0.01 0,0"
             style="fill:#6c59b2;fill-opacity:1;fill-rule:nonzero;stroke:none"
             id="path2010" /></g><g
           id="g2100"
           transform="matrix(1.3333333,0,0,-1.3333333,2057.4143,245.87438)"><path
             d="M 0,0 C -1.384,-4.362 -4.702,-9.538 -8.103,-12.058 -16.537,-9.942 -10.478,3.663 -3.679,12.82 -0.08,11.165 1.489,4.859 0,0"
             style="fill:#feaa7c;fill-opacity:1;fill-rule:nonzero;stroke:none"
             id="path2102" /></g><g
           id="g2108"
           transform="matrix(1.3333333,0,0,-1.3333333,2065.4859,267.56011)"><path
             d="M 0,0 C -8.805,2.177 -5.851,8.77 0.182,17.359 8.544,9.481 3.409,2.478 0,0"
             style="fill:#feaa7c;fill-opacity:1;fill-rule:nonzero;stroke:none"
             id="path2110" /></g><g
           id="g2112"
           transform="matrix(1.3333333,0,0,-1.3333333,2049.7145,279.70385)"><path
             d="M 0,0 C 4.134,1.188 7.814,3.625 8.956,5.992 1.334,7.701 -7.936,2.71 -11.976,-0.029 -8.65,-1.127 -4.309,-1.248 0,0"
             style="fill:#feaa7c;fill-opacity:1;fill-rule:nonzero;stroke:none"
             id="path2114" /></g></g></g><g
       inkscape:groupmode="layer"
       id="layer16"
       inkscape:label="Garigoleos 2"
       transform="matrix(0.26458333,0,0,0.26458333,-464.3121,-9.5324294)"
       style="display:none"><g
         id="g2198"
         transform="matrix(1.3333333,0,0,-1.3333333,2072.4505,217.94958)"
         style="display:inline"><path
           d="m 0,0 c -8.411,7.846 -15.893,16.681 -21.699,26.539 -5.758,9.832 -10.073,20.714 -11.029,32.259 -0.447,5.744 -0.178,11.619 1.1,17.334 1.254,5.722 3.495,11.392 6.974,16.455 6.957,10.014 18.081,17.673 30.951,19.981 1.56,0.347 3.328,0.367 5.006,0.52 0.849,0.111 1.701,-0.051 2.554,-0.07 0.85,-0.072 1.714,-0.076 2.553,-0.216 l 2.506,-0.511 c 0.416,-0.093 0.84,-0.167 1.249,-0.278 l 1.197,-0.414 2.393,-0.852 c 0.756,-0.355 1.496,-0.742 2.244,-1.118 5.986,-3.055 10.553,-7.956 13.648,-13.489 3.114,-5.548 4.503,-12.009 3.814,-18.481 l -0.122,-1.212 c -0.073,-0.401 -0.174,-0.801 -0.262,-1.202 l -0.563,-2.399 c -0.495,-1.561 -1.034,-3.122 -1.793,-4.572 -1.457,-2.925 -3.307,-5.637 -5.519,-8.07 -2.265,-2.39 -4.858,-4.511 -7.766,-6.243 -2.893,-1.734 -6.149,-3.08 -9.626,-3.674 -6.956,-1.252 -14.401,0.403 -19.539,4.708 -5.144,4.15 -8.293,10.297 -7.932,16.628 0.204,3.132 1.376,6.273 3.508,8.649 2.107,2.408 4.98,3.925 7.885,4.81 0.232,0.071 0.48,-0.048 0.552,-0.266 0.063,-0.189 -0.027,-0.39 -0.204,-0.487 l -0.019,-0.01 c -2.553,-1.392 -4.743,-3.217 -6.089,-5.435 -1.353,-2.211 -1.865,-4.734 -1.61,-7.182 0.415,-4.938 3.656,-9.438 7.75,-12.088 2.051,-1.33 4.415,-2.199 6.853,-2.592 2.426,-0.357 4.876,-0.22 7.237,0.389 4.761,1.136 9.054,4.275 12.276,8.048 1.623,1.901 2.955,4.015 3.961,6.209 0.519,1.096 0.915,2.212 1.263,3.339 l 0.381,1.714 0.194,0.857 0.07,0.881 c 0.511,4.661 -0.311,9.611 -2.539,13.99 -2.147,4.384 -5.475,8.379 -9.82,10.83 l -1.628,0.914 -1.735,0.688 -0.867,0.355 c -0.297,0.092 -0.605,0.15 -0.907,0.229 l -1.821,0.46 c -0.612,0.133 -1.248,0.14 -1.873,0.224 -0.629,0.032 -1.25,0.217 -1.89,0.138 -1.287,-0.096 -2.518,0.005 -3.884,-0.246 -10.743,-1.501 -20.862,-7.807 -27.295,-16.402 -6.413,-8.64 -8.852,-19.814 -8.421,-30.536 0.337,-10.845 3.911,-21.514 9.041,-31.353 2.556,-4.945 5.633,-9.653 8.977,-14.184 C -6.976,9.028 -3.313,4.687 0.639,0.578 0.802,0.411 0.788,0.149 0.608,-0.007 0.434,-0.158 0.165,-0.151 0,0"
           style="fill:#6c59b2;fill-opacity:1;fill-rule:nonzero;stroke:none"
           id="path2200" /></g><g
         id="g2202"
         transform="matrix(1.3333333,0,0,-1.3333333,2094.3301,35.869595)"
         style="display:inline"><path
           d="m 0,0 c -15.1,-3.735 -25.568,-11.052 -31.587,-24.123 -0.037,-0.079 0.066,-0.139 0.135,-0.095 9.577,6.198 21.95,10.2 33.35,10.128 C 17.403,-14.189 14.043,3.473 0,0"
           style="fill:#fde3cb;fill-opacity:1;fill-rule:nonzero;stroke:none"
           id="path2204" /></g></g><g
       inkscape:groupmode="layer"
       id="layer8"
       inkscape:label="Scrollables_superiores"
       style="display:none"><g
         id="g3224"
         transform="matrix(0.35277777,0,0,-0.35277777,96.813288,3.9314486)"
         style="display:inline"><path
           d="M 0,0 C -14.981,-16.367 -23.573,-16.879 -36.145,-11.539 -30.155,1.782 -20.661,6.34 0,0"
           style="fill:#feaa7c;fill-opacity:1;fill-rule:nonzero;stroke:none"
           id="path3226" /></g><g
         id="g3228"
         transform="matrix(0.35277777,0,0,-0.35277777,95.357286,4.3267006)"
         style="display:inline"><path
           d="M 0,0 C -11.706,-1.557 -23.003,-3.862 -29.507,-9.201 -21.549,-5.581 -11.675,-3.401 0,0"
           style="fill:#fde3cb;fill-opacity:1;fill-rule:nonzero;stroke:none"
           id="path3230" /></g><g
         id="g3232"
         transform="matrix(0.35277777,0,0,-0.35277777,141.79023,11.477717)"
         style="display:inline"><path
           d="M 0,0 C -18.812,11.765 -20.873,20.122 -17.9,33.454 -3.714,29.979 2.489,21.468 0,0"
           style="fill:#feaa7c;fill-opacity:1;fill-rule:nonzero;stroke:none"
           id="path3234" /></g><g
         id="g3236"
         transform="matrix(0.35277777,0,0,-0.35277777,141.13753,10.117477)"
         style="display:inline"><path
           d="M 0,0 C -3.654,11.23 -7.968,21.922 -14.398,27.35 -9.395,20.18 -5.461,10.865 0,0"
           style="fill:#fde3cb;fill-opacity:1;fill-rule:nonzero;stroke:none"
           id="path3238" /></g></g></g></svg>
