<?xml version="1.0" encoding="UTF-8" standalone="no"?>
<!-- Created with Inkscape (http://www.inkscape.org/) -->

<svg
   width="57.917416mm"
   height="11.801827mm"
   viewBox="0 0 57.917416 11.801827"
   version="1.1"
   id="svg18260"
   xml:space="preserve"
   inkscape:version="1.2.1 (9c6d41e, 2022-07-14)"
   sodipodi:docname="Pagina_2.svg.2022_10_30_14_26_15.1.svg"
   inkscape:export-filename="../../Página dia de muertos/Código/Recursos/Pagina_3/scrollables.svg"
   inkscape:export-xdpi="96"
   inkscape:export-ydpi="96"
   xmlns:inkscape="http://www.inkscape.org/namespaces/inkscape"
   xmlns:sodipodi="http://sodipodi.sourceforge.net/DTD/sodipodi-0.dtd"
   xmlns="http://www.w3.org/2000/svg"
   xmlns:svg="http://www.w3.org/2000/svg"><sodipodi:namedview
     id="namedview18262"
     pagecolor="#ffffff"
     bordercolor="#000000"
     borderopacity="0.25"
     inkscape:showpageshadow="2"
     inkscape:pageopacity="0.0"
     inkscape:pagecheckerboard="0"
     inkscape:deskcolor="#d1d1d1"
     inkscape:document-units="mm"
     showgrid="false"
     inkscape:zoom="1.1712514"
     inkscape:cx="232.65713"
     inkscape:cy="318.88969"
     inkscape:window-width="1680"
     inkscape:window-height="997"
     inkscape:window-x="-4"
     inkscape:window-y="26"
     inkscape:window-maximized="0"
     inkscape:current-layer="layer16" /><defs
     id="defs18257" /><g
     inkscape:label="Layer 1"
     inkscape:groupmode="layer"
     id="layer1"
     transform="translate(-84.062136,0.32411052)"><rect
       style="display:none;fill:#362955;fill-opacity:1;stroke:#efbed7;stroke-width:0.524129;stroke-opacity:1"
       id="rect22117-8-8"
       width="150.97588"
       height="196.81587"
       x="-0.062044993"
       y="-0.062044993" /><g
       inkscape:groupmode="layer"
       id="layer23"
       inkscape:label="Scrollables"
       transform="matrix(0.26458333,0,0,0.26458333,-464.19669,-10.960258)"
       style="display:none"><g
         id="g3264"
         transform="matrix(1.3333333,0,0,-1.3333333,2179.0602,49.792925)"
         style="display:inline"><path
           d="M 0,0 C -13.218,-17.821 -21.712,-19.214 -34.767,-15.194 -30.179,-1.328 -21.203,4.182 0,0"
           style="fill:#feaa7c;fill-opacity:1;fill-rule:nonzero;stroke:none"
           id="path3266" /></g><g
         id="g3268"
         transform="matrix(1.3333333,0,0,-1.3333333,2173.7398,51.844795)"
         style="display:inline"><path
           d="M 0,0 C -11.484,-2.753 -22.484,-6.206 -28.405,-12.186 -20.861,-7.767 -11.264,-4.583 0,0"
           style="fill:#fde3cb;fill-opacity:1;fill-rule:nonzero;stroke:none"
           id="path3270" /></g></g><g
       inkscape:groupmode="layer"
       id="layer15"
       inkscape:label="Guitarra"
       transform="matrix(0.26458333,0,0,0.26458333,-459.58821,-10.654175)"
       style="display:none"><g
         id="g3288"
         transform="matrix(1.3333333,0,0,-1.3333333,2219.1946,77.413078)"><path
           d="M 0,0 17.036,-0.024 17.03,-4.464 -0.006,-4.44 Z"
           style="fill:#6c59b2;fill-opacity:1;fill-rule:nonzero;stroke:none"
           id="path3290" /></g><g
         id="g3292"
         transform="matrix(1.3333333,0,0,-1.3333333,2237.4038,74.523611)"><path
           d="m 0,0 c 0.692,2.339 2.122,3.922 4.667,3.18 2.574,-0.751 4.718,-2.859 5.499,-5.405 0.78,-2.547 0.172,-5.45 -1.56,-7.444 -2.099,-2.416 -6.431,-4.026 -8.184,-0.36 C -0.481,-8.14 -0.98,-3.312 0,0"
           style="fill:#fde3cb;fill-opacity:1;fill-rule:nonzero;stroke:none"
           id="path3294" /></g><g
         id="g3312"
         transform="matrix(1.3333333,0,0,-1.3333333,2195.3483,77.379211)"><path
           d="m 0,0 -17.036,0.024 -0.007,-4.44 17.037,-0.024 z"
           style="fill:#6c59b2;fill-opacity:1;fill-rule:nonzero;stroke:none"
           id="path3314" /></g><g
         id="g3316"
         transform="matrix(1.3333333,0,0,-1.3333333,2177.1473,74.438145)"><path
           d="m 0,0 c -0.685,2.341 -2.111,3.928 -4.658,3.193 -2.576,-0.743 -4.726,-2.845 -5.514,-5.389 -0.787,-2.545 -0.187,-5.45 1.539,-7.449 2.092,-2.421 6.419,-4.043 8.182,-0.383 C 0.458,-8.141 0.971,-3.315 0,0"
           style="fill:#fde3cb;fill-opacity:1;fill-rule:nonzero;stroke:none"
           id="path3318" /></g><g
         id="g3396"
         transform="matrix(1.3333333,0,0,-1.3333333,2237.1842,145.65681)"><path
           d="m 0,0 c -1.56,-4.173 -7.337,-6.352 -11.256,-7.772 -3.616,-1.287 -7.432,-2.011 -11.248,-2.105 -3.85,0.072 -7.665,0.84 -11.276,2.137 -3.915,1.431 -9.687,3.626 -11.234,7.804 -1.48,3.912 0.182,8.947 0.761,12.89 2.046,14.213 4.126,28.394 6.173,42.574 0.647,4.407 1.431,9.343 5.015,12.42 2.84,2.448 6.898,3.333 10.676,3.312 3.771,-0.022 7.799,-0.886 10.632,-3.342 3.575,-3.087 4.345,-8.026 4.98,-12.434 C -4.771,41.298 -2.731,27.111 -0.725,12.892 -0.156,8.948 1.491,3.908 0,0"
           style="fill:#da66a1;fill-opacity:1;fill-rule:nonzero;stroke:none"
           id="path3398" /></g><g
         id="g3400"
         transform="matrix(1.3333333,0,0,-1.3333333,2222.2922,132.98215)"><path
           d="m 0,0 v 0 c -1.479,0.002 -2.828,1.083 -3.013,2.415 l -5.248,37.694 c -0.186,1.332 0.863,2.41 2.342,2.408 1.479,-0.003 2.828,-1.084 3.013,-2.415 L 2.342,2.407 C 2.527,1.076 1.479,-0.002 0,0"
           style="fill:#362955;fill-opacity:1;fill-rule:nonzero;stroke:none"
           id="path3402" /></g><g
         id="g3404"
         transform="matrix(1.3333333,0,0,-1.3333333,2192.0933,132.93935)"><path
           d="M 0,0 V 0 C 1.479,-0.002 2.831,1.075 3.02,2.406 L 8.375,40.085 C 8.564,41.417 7.518,42.497 6.04,42.5 4.561,42.502 3.209,41.424 3.02,40.093 L -2.335,2.414 C -2.524,1.083 -1.479,0.002 0,0"
           style="fill:#362955;fill-opacity:1;fill-rule:nonzero;stroke:none"
           id="path3406" /></g></g><g
       inkscape:groupmode="layer"
       id="layer14"
       inkscape:label="Flores 2"
       transform="matrix(0.26458333,0,0,0.26458333,-460.70485,-11.540548)"
       style="display:none"><g
         id="g3600"
         transform="matrix(1.3333333,0,0,-1.3333333,2337.4591,82.154255)"><path
           d="m 0,0 c -0.687,-4.23 -6.077,-5.359 -9.635,-5.375 -5.344,-0.046 -10.352,1.802 -15.208,3.848 2.672,-1.924 5.298,-3.924 7.726,-6.184 2.474,-2.306 5.207,-5.115 6.352,-8.367 0.977,-2.78 -0.061,-6.307 -2.916,-7.482 -3.955,-1.65 -7.757,2.336 -9.65,5.344 -2.856,4.535 -3.909,9.803 -4.734,15.025 -0.244,-3.314 -0.55,-6.627 -1.191,-9.879 -0.641,-3.329 -1.588,-7.131 -3.756,-9.819 -1.848,-2.29 -5.39,-3.267 -7.91,-1.465 -3.466,2.504 -2.091,7.833 -0.534,11.024 2.351,4.794 6.215,8.459 10.2,11.895 -2.916,-1.527 -5.864,-2.993 -8.948,-4.154 -3.176,-1.191 -6.902,-2.397 -10.337,-1.969 -2.917,0.351 -5.604,2.855 -5.405,5.94 0.29,4.275 5.558,5.909 9.085,6.26 5.298,0.534 10.459,-0.825 15.467,-2.382 -2.824,1.664 -5.619,3.42 -8.214,5.405 -2.703,2.062 -5.681,4.596 -7.131,7.742 -1.237,2.672 -0.535,6.275 2.199,7.726 3.786,2 7.94,-1.603 10.108,-4.428 3.344,-4.337 5.359,-10.108 6.703,-15.361 0.58,3.558 1.237,7.1 2.245,10.566 0.962,3.253 2.275,6.948 4.672,9.421 2.061,2.108 5.68,2.749 8.016,0.718 3.222,-2.825 1.344,-7.986 -0.519,-11.024 -2.779,-4.551 -6.993,-7.834 -11.284,-10.887 3.054,1.252 6.138,2.427 9.315,3.298 3.267,0.886 7.1,1.725 10.474,0.992 C -1.939,5.787 0.504,3.039 0,0"
           style="fill:#da66a1;fill-opacity:1;fill-rule:nonzero;stroke:none"
           id="path3602" /></g><g
         id="g3604"
         transform="matrix(1.3333333,0,0,-1.3333333,2333.8681,98.117585)"><path
           d="m 0,0 c -2.433,-3.527 -7.787,-2.239 -11.008,-0.729 -4.849,2.248 -8.583,6.063 -12.094,9.992 1.59,-2.883 3.106,-5.815 4.332,-8.897 1.247,-3.143 2.513,-6.853 2.155,-10.282 -0.308,-2.93 -2.757,-5.673 -5.841,-5.512 -4.28,0.205 -6.008,5.435 -6.43,8.964 -0.637,5.321 0.668,10.532 2.16,15.604 -1.64,-2.889 -3.336,-5.753 -5.309,-8.416 -2.005,-2.734 -4.49,-5.763 -7.6,-7.263 -2.651,-1.278 -6.27,-0.643 -7.775,2.064 -2.059,3.748 1.466,7.974 4.24,10.191 4.179,3.324 9.24,4.981 14.313,6.378 -3.29,-0.13 -6.581,-0.192 -9.865,0.08 -3.38,0.285 -7.263,0.791 -10.184,2.649 -2.485,1.567 -3.84,4.981 -2.34,7.683 2.094,3.739 7.554,2.958 10.892,1.765 5.016,-1.788 9.097,-5.227 12.956,-8.78 -1.84,2.715 -3.612,5.498 -5.108,8.404 -1.559,3.02 -3.163,6.586 -3.126,10.05 0.027,2.944 2.205,5.9 5.297,6.039 4.278,0.185 6.487,-4.85 7.236,-8.332 1.164,-5.35 0.512,-11.429 -0.524,-16.751 2.049,2.966 4.159,5.886 6.555,8.586 2.263,2.527 5.032,5.303 8.258,6.511 2.766,1.021 6.31,0.05 7.551,-2.786 1.701,-3.933 -2.207,-7.791 -5.192,-9.739 -4.46,-2.921 -9.675,-4.082 -14.86,-5.003 3.296,-0.177 6.586,-0.436 9.829,-1.01 3.332,-0.6 7.155,-1.483 9.89,-3.591 C 0.727,6.06 1.757,2.53 0,0"
           style="fill:#fde3cb;fill-opacity:1;fill-rule:nonzero;stroke:none"
           id="path3606" /></g></g><g
       inkscape:groupmode="layer"
       id="layer16"
       inkscape:label="Garigoleos 2"
       transform="matrix(0.26458333,0,0,0.26458333,-464.3121,-9.5324294)"
       style="display:none"><g
         id="g2198"
         transform="matrix(1.3333333,0,0,-1.3333333,2072.4505,217.94958)"
         style="display:inline"><path
           d="m 0,0 c -8.411,7.846 -15.893,16.681 -21.699,26.539 -5.758,9.832 -10.073,20.714 -11.029,32.259 -0.447,5.744 -0.178,11.619 1.1,17.334 1.254,5.722 3.495,11.392 6.974,16.455 6.957,10.014 18.081,17.673 30.951,19.981 1.56,0.347 3.328,0.367 5.006,0.52 0.849,0.111 1.701,-0.051 2.554,-0.07 0.85,-0.072 1.714,-0.076 2.553,-0.216 l 2.506,-0.511 c 0.416,-0.093 0.84,-0.167 1.249,-0.278 l 1.197,-0.414 2.393,-0.852 c 0.756,-0.355 1.496,-0.742 2.244,-1.118 5.986,-3.055 10.553,-7.956 13.648,-13.489 3.114,-5.548 4.503,-12.009 3.814,-18.481 l -0.122,-1.212 c -0.073,-0.401 -0.174,-0.801 -0.262,-1.202 l -0.563,-2.399 c -0.495,-1.561 -1.034,-3.122 -1.793,-4.572 -1.457,-2.925 -3.307,-5.637 -5.519,-8.07 -2.265,-2.39 -4.858,-4.511 -7.766,-6.243 -2.893,-1.734 -6.149,-3.08 -9.626,-3.674 -6.956,-1.252 -14.401,0.403 -19.539,4.708 -5.144,4.15 -8.293,10.297 -7.932,16.628 0.204,3.132 1.376,6.273 3.508,8.649 2.107,2.408 4.98,3.925 7.885,4.81 0.232,0.071 0.48,-0.048 0.552,-0.266 0.063,-0.189 -0.027,-0.39 -0.204,-0.487 l -0.019,-0.01 c -2.553,-1.392 -4.743,-3.217 -6.089,-5.435 -1.353,-2.211 -1.865,-4.734 -1.61,-7.182 0.415,-4.938 3.656,-9.438 7.75,-12.088 2.051,-1.33 4.415,-2.199 6.853,-2.592 2.426,-0.357 4.876,-0.22 7.237,0.389 4.761,1.136 9.054,4.275 12.276,8.048 1.623,1.901 2.955,4.015 3.961,6.209 0.519,1.096 0.915,2.212 1.263,3.339 l 0.381,1.714 0.194,0.857 0.07,0.881 c 0.511,4.661 -0.311,9.611 -2.539,13.99 -2.147,4.384 -5.475,8.379 -9.82,10.83 l -1.628,0.914 -1.735,0.688 -0.867,0.355 c -0.297,0.092 -0.605,0.15 -0.907,0.229 l -1.821,0.46 c -0.612,0.133 -1.248,0.14 -1.873,0.224 -0.629,0.032 -1.25,0.217 -1.89,0.138 -1.287,-0.096 -2.518,0.005 -3.884,-0.246 -10.743,-1.501 -20.862,-7.807 -27.295,-16.402 -6.413,-8.64 -8.852,-19.814 -8.421,-30.536 0.337,-10.845 3.911,-21.514 9.041,-31.353 2.556,-4.945 5.633,-9.653 8.977,-14.184 C -6.976,9.028 -3.313,4.687 0.639,0.578 0.802,0.411 0.788,0.149 0.608,-0.007 0.434,-0.158 0.165,-0.151 0,0"
           style="fill:#6c59b2;fill-opacity:1;fill-rule:nonzero;stroke:none"
           id="path2200" /></g><g
         id="g2202"
         transform="matrix(1.3333333,0,0,-1.3333333,2094.3301,35.869595)"
         style="display:inline"><path
           d="m 0,0 c -15.1,-3.735 -25.568,-11.052 -31.587,-24.123 -0.037,-0.079 0.066,-0.139 0.135,-0.095 9.577,6.198 21.95,10.2 33.35,10.128 C 17.403,-14.189 14.043,3.473 0,0"
           style="fill:#fde3cb;fill-opacity:1;fill-rule:nonzero;stroke:none"
           id="path2204" /></g></g><g
       inkscape:groupmode="layer"
       id="layer8"
       inkscape:label="Scrollables_superiores"
       style="display:inline"><g
         id="g3224"
         transform="matrix(0.35277777,0,0,-0.35277777,96.813288,3.9314486)"
         style="display:inline"><path
           d="M 0,0 C -14.981,-16.367 -23.573,-16.879 -36.145,-11.539 -30.155,1.782 -20.661,6.34 0,0"
           style="fill:#feaa7c;fill-opacity:1;fill-rule:nonzero;stroke:none"
           id="path3226" /></g><g
         id="g3228"
         transform="matrix(0.35277777,0,0,-0.35277777,95.357286,4.3267006)"
         style="display:inline"><path
           d="M 0,0 C -11.706,-1.557 -23.003,-3.862 -29.507,-9.201 -21.549,-5.581 -11.675,-3.401 0,0"
           style="fill:#fde3cb;fill-opacity:1;fill-rule:nonzero;stroke:none"
           id="path3230" /></g><g
         id="g3232"
         transform="matrix(0.35277777,0,0,-0.35277777,141.79023,11.477717)"
         style="display:inline"><path
           d="M 0,0 C -18.812,11.765 -20.873,20.122 -17.9,33.454 -3.714,29.979 2.489,21.468 0,0"
           style="fill:#feaa7c;fill-opacity:1;fill-rule:nonzero;stroke:none"
           id="path3234" /></g><g
         id="g3236"
         transform="matrix(0.35277777,0,0,-0.35277777,141.13753,10.117477)"
         style="display:inline"><path
           d="M 0,0 C -3.654,11.23 -7.968,21.922 -14.398,27.35 -9.395,20.18 -5.461,10.865 0,0"
           style="fill:#fde3cb;fill-opacity:1;fill-rule:nonzero;stroke:none"
           id="path3238" /></g></g></g></svg>
