<?xml version="1.0" encoding="UTF-8" standalone="no"?>
<svg
   viewBox="0 0 512 512"
   version="1.1"
   id="svg182"
   sodipodi:docname="circle-plus.svg"
   inkscape:version="1.2.1 (9c6d41e, 2022-07-14)"
   xmlns:inkscape="http://www.inkscape.org/namespaces/inkscape"
   xmlns:sodipodi="http://sodipodi.sourceforge.net/DTD/sodipodi-0.dtd"
   xmlns="http://www.w3.org/2000/svg"
   xmlns:svg="http://www.w3.org/2000/svg">
  <defs
     id="defs186" />
  <sodipodi:namedview
     id="namedview184"
     pagecolor="#ffffff"
     bordercolor="#000000"
     borderopacity="0.25"
     inkscape:showpageshadow="2"
     inkscape:pageopacity="0.0"
     inkscape:pagecheckerboard="0"
     inkscape:deskcolor="#d1d1d1"
     showgrid="false"
     inkscape:zoom="0.4609375"
     inkscape:cx="240.81356"
     inkscape:cy="257.08475"
     inkscape:window-width="1680"
     inkscape:window-height="997"
     inkscape:window-x="0"
     inkscape:window-y="25"
     inkscape:window-maximized="1"
     inkscape:current-layer="svg182" />
  <!--! Font Awesome Free 6.2.1 by @fontawesome - https://fontawesome.com License - https://fontawesome.com/license/free (Icons: CC BY 4.0, Fonts: SIL OFL 1.1, Code: MIT License) Copyright 2022 Fonticons, Inc. -->
  <path
     d="M256 512c141.4 0 256-114.6 256-256S397.4 0 256 0S0 114.6 0 256S114.6 512 256 512zM232 344V280H168c-13.3 0-24-10.7-24-24s10.7-24 24-24h64V168c0-13.3 10.7-24 24-24s24 10.7 24 24v64h64c13.3 0 24 10.7 24 24s-10.7 24-24 24H280v64c0 13.3-10.7 24-24 24s-24-10.7-24-24z"
     id="path180" />
  <path
     style="fill:#2c78bb;stroke:#2c78bb;stroke-width:0;fill-opacity:1"
     d="M 220.38725,508.51445 C 155.06944,498.98787 92.818942,462.15179 53.497823,409.75941 18.175492,362.69512 2.1379692,314.02882 2.1979926,254.0887 2.242726,209.41721 12.631351,169.3013 33.753333,132.23703 69.99045,68.649151 123.84316,27.762163 197.26396,8.0936504 215.81336,3.1245032 222.09291,2.529646 256,2.529646 c 33.90709,0 40.18664,0.5948572 58.73603,5.5640044 38.87729,10.4147346 67.73374,24.2584086 96.8058,46.4418816 48.4796,36.992424 84.60528,96.447768 95.07208,156.468808 4.12227,23.63897 4.12227,66.35235 0,89.99133 C 488.22543,406.443 402.22713,490.1724 294.33843,507.67063 c -21.46716,3.48171 -53.36895,3.84573 -73.95118,0.84382 z m 50.79919,-144.99857 c 8.53478,-5.95873 10.59141,-15.65549 10.72501,-50.56673 l 0.12245,-32 34.16949,-0.009 c 30.32363,-0.007 34.96917,-0.49566 41.27442,-4.33998 3.90769,-2.38251 8.13987,-7.01615 9.40482,-10.29697 3.46975,-8.99931 0.93435,-22.04867 -5.54386,-28.53341 -5.55368,-5.5593 -6.12233,-5.64426 -42.28287,-6.31804 l -36.65345,-0.68295 -0.72665,-35.50284 c -0.65486,-31.99528 -1.1758,-36.1074 -5.27284,-41.62213 -9.84695,-13.25424 -30.95897,-13.25424 -40.80592,0 -4.09704,5.51473 -4.61798,9.62685 -5.27284,41.62213 l -0.72665,35.5034 -36.65346,0.68296 -36.65346,0.68295 -6.00972,6.01542 c -5.0969,5.10171 -6.00972,7.81281 -6.00972,17.84899 0,10.03618 0.91282,12.74728 6.00972,17.84899 l 6.00972,6.01542 36.65346,0.68295 36.65346,0.68296 0.72665,35.50284 c 0.6546,31.98266 1.17701,36.10958 5.26883,41.62213 8.26812,11.1389 23.80424,13.39144 35.59341,5.16059 z"
     id="path307" />
  <path
     style="fill:#ffffff;fill-opacity:1;stroke:#2c78bb;stroke-width:0"
     d="m 246.92006,364.55342 c -11.91691,-5.18301 -13.69972,-11.81391 -13.69972,-50.95416 v -34.8196 h -34.8196 c -37.16385,0 -44.90917,-1.72648 -49.94321,-11.13266 -3.1443,-5.87519 -3.1443,-17.41881 0,-23.294 5.03404,-9.40618 12.77936,-11.13266 49.94321,-11.13266 h 34.8196 v -34.8196 c 0,-39.68985 1.73772,-45.84914 14.43183,-51.15307 10.24634,-4.2812 21.21484,-0.76576 26.9483,8.63701 3.65237,5.98981 4.16397,11.15121 4.17108,42.08142 l 0.008,35.25424 35.25424,0.008 c 30.93021,0.007 36.09161,0.5187 42.08142,4.17107 9.40276,5.73347 12.9182,16.70197 8.63702,26.94831 -5.30395,12.69419 -11.46323,14.43191 -51.15308,14.43191 h -34.8196 v 34.8196 c 0,39.49001 -1.76971,45.86251 -14.17611,51.04623 -8.85928,3.70165 -8.96213,3.70111 -17.68349,-0.092 z"
     id="path1001" />
</svg>
