<?xml version="1.0" encoding="UTF-8" standalone="no"?>
<svg
   viewBox="0 0 516.0946 449.56577"
   version="1.1"
   id="svg1399"
   sodipodi:docname="image.svg"
   inkscape:version="1.2.1 (9c6d41e, 2022-07-14)"
   width="516.0946"
   height="449.56577"
   xmlns:inkscape="http://www.inkscape.org/namespaces/inkscape"
   xmlns:sodipodi="http://sodipodi.sourceforge.net/DTD/sodipodi-0.dtd"
   xmlns="http://www.w3.org/2000/svg"
   xmlns:svg="http://www.w3.org/2000/svg">
  <defs
     id="defs1403" />
  <sodipodi:namedview
     id="namedview1401"
     pagecolor="#ffffff"
     bordercolor="#000000"
     borderopacity="0.25"
     inkscape:showpageshadow="2"
     inkscape:pageopacity="0.0"
     inkscape:pagecheckerboard="0"
     inkscape:deskcolor="#d1d1d1"
     showgrid="false"
     inkscape:zoom="0.66382779"
     inkscape:cx="246.29882"
     inkscape:cy="274.9207"
     inkscape:window-width="1680"
     inkscape:window-height="997"
     inkscape:window-x="0"
     inkscape:window-y="25"
     inkscape:window-maximized="1"
     inkscape:current-layer="svg1399" />
  <!--! Font Awesome Free 6.2.1 by @fontawesome - https://fontawesome.com License - https://fontawesome.com/license/free (Icons: CC BY 4.0, Fonts: SIL OFL 1.1, Code: MIT License) Copyright 2022 Fonticons, Inc. -->
  <path
     d="m 1.6238666,64.838214 c 0,-35.3 28.7000004,-63.99999988 64.0000004,-63.99999988 H 449.62387 c 35.3,0 64,28.69999988 64,63.99999988 V 384.83821 c 0,35.3 -28.7,64 -64,64 H 65.623867 c -35.3,0 -64.0000004,-28.7 -64.0000004,-64 z M 325.42387,171.33821 c -4.5,-6.6 -11.9,-10.5 -19.8,-10.5 -7.9,0 -15.4,3.9 -19.8,10.5 l -87,127.6 -26.5,-33.1 c -4.6,-5.7 -11.5,-9 -18.7,-9 -7.2,0 -14.2,3.3 -18.7,9 l -64.000003,80 c -5.8,7.2 -6.9,17.1 -2.9,25.4 4,8.3 12.4,13.6 21.6,13.6 h 96.000003 32 208 c 8.9,0 17.1,-4.9 21.2,-12.8 4.1,-7.9 3.6,-17.4 -1.4,-24.7 z m -211.8,-10.5 c 26.5,0 48,-21.5 48,-48 0,-26.499996 -21.5,-47.999996 -48,-47.999996 -26.500003,0 -48.000003,21.5 -48.000003,47.999996 0,26.5 21.5,48 48.000003,48 z"
     id="path1397" />
  <path
     style="fill:#142840;fill-opacity:1;stroke:#2c78bb;stroke-width:4.91979"
     d="M 46.098443,444.56976 C 28.29908,438.28309 10.685169,420.33823 5.4795329,403.18766 1.4533489,389.92293 1.4533489,59.753483 5.4795329,46.488763 10.897053,28.640129 29.457283,10.201952 47.42563,4.8185041 c 5.401806,-1.61842 71.16111,-2.353171 210.60584,-2.353171 224.97278,0 213.85746,-0.691512 231.49035,14.4015869 12.18082,10.426338 19.07733,23.033477 21.79141,39.835701 3.09528,19.162083 3.09528,317.109109 0,336.271179 -2.71408,16.80222 -9.61059,29.40937 -21.79141,39.83571 -17.65736,15.11402 -6.30875,14.42041 -232.8268,14.2303 -137.74234,-0.11563 -206.203903,-0.91856 -210.596577,-2.47005 z m 390.818537,-61.6512 c 9.476,-4.49666 14.61342,-14.11122 13.19418,-24.69253 -0.79963,-5.96163 -16.69324,-30.95523 -62.20216,-97.81642 -33.62046,-49.39478 -63.56322,-92.0053 -66.53946,-94.69004 -6.36455,-5.74119 -23.2528,-6.76663 -30.17819,-1.8324 -2.35364,1.67693 -23.80477,31.9078 -47.66917,67.17972 -23.86441,35.27191 -43.98098,64.16427 -44.70348,64.20527 -0.72251,0.041 -7.34019,-7.59163 -14.70595,-16.96136 -7.36576,-9.36973 -15.85106,-18.15618 -18.85623,-19.52543 -7.02275,-3.19978 -18.06926,-3.06234 -24.04784,0.29922 -2.57751,1.44924 -20.4872,22.40325 -39.79931,46.56451 -38.035615,47.58608 -41.019525,53.48246 -33.966929,67.12068 7.309746,14.1355 -0.257273,13.59159 189.853549,13.64615 154.90098,0.0445 172.89548,-0.30592 179.62099,-3.49737 z M 133.49016,157.46889 c 17.82627,-7.44646 28.58079,-24.13827 28.58079,-44.35949 0,-15.372616 -5.53226,-27.423726 -17.15728,-37.374316 -32.09579,-27.472801 -80.461213,-4.17244 -80.353355,38.710766 0.04352,17.30211 13.947774,37.40598 30.416519,43.97861 8.294856,3.31045 29.564106,2.78273 38.513326,-0.95557 z"
     id="path1534" />
</svg>
