<?xml version="1.0" encoding="UTF-8" standalone="no"?>
<!-- Created with Inkscape (http://www.inkscape.org/) -->

<svg
   width="25.742186mm"
   height="24.791821mm"
   viewBox="0 0 25.742186 24.791821"
   version="1.1"
   id="svg4056"
   inkscape:export-filename="scrolleables_1.svg"
   inkscape:export-xdpi="96"
   inkscape:export-ydpi="96"
   xmlns:inkscape="http://www.inkscape.org/namespaces/inkscape"
   xmlns:sodipodi="http://sodipodi.sourceforge.net/DTD/sodipodi-0.dtd"
   xmlns="http://www.w3.org/2000/svg"
   xmlns:svg="http://www.w3.org/2000/svg">
  <sodipodi:namedview
     id="namedview4058"
     pagecolor="#ffffff"
     bordercolor="#000000"
     borderopacity="0.25"
     inkscape:showpageshadow="2"
     inkscape:pageopacity="0.0"
     inkscape:pagecheckerboard="0"
     inkscape:deskcolor="#d1d1d1"
     inkscape:document-units="mm"
     showgrid="false" />
  <defs
     id="defs4053" />
  <g
     inkscape:label="Portada"
     inkscape:groupmode="layer"
     id="layer1"
     style="display:none"
     transform="translate(-9.628998,-4.000003)">
    <g
       inkscape:groupmode="layer"
       id="layer5"
       inkscape:label="Garigoleados 1"
       transform="matrix(0.26458333,0,0,0.26458333,-193.28105,-13.397821)"
       style="display:none">
      <g
         id="g1214"
         transform="matrix(1.3333333,0,0,-1.3333333,808.71645,107.55746)">
        <path
           d="m 0,0 c -1.024,-3.93 -1.519,-8.294 0.017,-12.553 0.748,-2.109 2.09,-4.094 3.871,-5.611 1.774,-1.532 3.941,-2.562 6.17,-3.139 4.499,-1.122 9.171,-0.556 13.409,1.01 4.247,1.584 8.123,4.358 11.013,8.111 0.718,0.94 1.369,1.939 1.942,2.989 0.566,1.069 1.012,2.037 1.454,3.102 0.895,2.089 1.475,4.342 1.848,6.637 0.745,4.6 0.3,9.489 -1.302,13.922 -1.563,4.461 -4.222,8.421 -7.423,11.723 -3.209,3.314 -7.008,5.974 -11.152,7.959 -2.074,0.99 -4.243,1.807 -6.494,2.393 -1.121,0.298 -2.277,0.535 -3.419,0.73 -1.123,0.175 -2.251,0.329 -3.394,0.419 -4.558,0.395 -9.275,0.013 -13.759,-1.3 -9.043,-2.529 -16.743,-8.684 -21.725,-16.207 -5.032,-7.544 -7.662,-16.463 -7.682,-25.421 -0.004,-4.477 0.649,-8.984 2.076,-13.267 1.414,-4.283 3.586,-8.329 6.381,-11.856 2.783,-3.544 6.196,-6.527 9.902,-8.919 1.859,-1.206 3.787,-2.215 5.789,-3.145 2.035,-0.922 4.143,-1.658 6.276,-2.216 8.596,-2.228 17.243,-1.69 25.382,-0.529 8.177,1.198 16.055,3.102 23.879,4.659 7.805,1.54 15.637,2.851 23.279,2.37 3.805,-0.243 7.539,-0.963 10.992,-2.387 1.726,-0.707 3.379,-1.584 4.933,-2.624 1.588,-1.066 2.947,-2.154 4.113,-3.566 2.356,-2.766 3.979,-6.279 4.698,-9.933 0.736,-3.647 0.545,-7.527 -0.894,-10.878 -0.709,-1.677 -1.771,-3.177 -3.073,-4.441 -1.329,-1.223 -2.927,-2.243 -4.637,-2.899 -1.705,-0.651 -3.505,-0.906 -5.179,-0.46 -1.696,0.422 -3.27,1.437 -4.367,2.834 -1.102,1.384 -1.711,3.18 -1.585,4.941 0.138,1.773 0.912,3.591 2.138,4.92 1.202,1.346 3.028,2.085 4.748,1.59 1.707,-0.45 3.139,-1.988 3.433,-3.79 0.045,-0.271 0.301,-0.456 0.572,-0.411 0.264,0.043 0.445,0.289 0.415,0.552 -0.262,2.209 -1.886,4.181 -4.054,4.874 -1.079,0.353 -2.281,0.358 -3.375,0.026 -1.097,-0.335 -2.064,-0.974 -2.854,-1.747 -1.569,-1.568 -2.567,-3.609 -2.859,-5.835 -0.269,-2.258 0.402,-4.565 1.718,-6.395 1.319,-1.829 3.252,-3.2 5.439,-3.844 2.223,-0.687 4.62,-0.419 6.684,0.283 2.079,0.705 3.987,1.81 5.679,3.244 1.651,1.468 3.03,3.271 3.973,5.268 1.909,4.007 2.28,8.538 1.606,12.787 -0.671,4.265 -2.349,8.392 -5.072,11.881 -5.731,6.917 -14.366,10.207 -22.778,11.017 -8.468,0.789 -16.728,-0.38 -24.734,-1.69 -8.017,-1.34 -15.876,-2.972 -23.678,-3.861 -7.767,-0.879 -15.578,-1.004 -22.59,1.075 -1.747,0.517 -3.434,1.168 -5.043,1.96 -1.623,0.82 -3.246,1.73 -4.733,2.768 -2.986,2.075 -5.651,4.544 -7.738,7.426 -4.23,5.722 -6.239,12.901 -5.912,20.047 0.31,7.145 2.815,14.209 6.935,19.925 2.058,2.861 4.534,5.368 7.293,7.41 2.772,2.028 5.85,3.551 9.096,4.515 6.482,1.838 13.871,1.504 20.148,-1.224 6.386,-2.664 11.896,-7.714 14.538,-13.861 1.339,-3.068 1.878,-6.427 1.561,-9.81 -0.155,-1.692 -0.497,-3.389 -1.039,-5.065 -0.257,-0.819 -0.59,-1.714 -0.899,-2.457 -0.326,-0.752 -0.712,-1.483 -1.155,-2.188 -1.768,-2.834 -4.506,-5.163 -7.643,-6.767 -3.141,-1.586 -6.775,-2.391 -10.21,-1.949 -1.711,0.213 -3.368,0.751 -4.789,1.685 -1.427,0.925 -2.604,2.242 -3.466,3.821 C 0.97,-8.18 0.651,-4.113 0.981,-0.174 1.008,0.101 0.806,0.345 0.532,0.371 0.286,0.395 0.063,0.23 0,0"
           style="fill:#6c59b2;fill-opacity:1;fill-rule:nonzero;stroke:none"
           id="path1216" />
      </g>
      <g
         id="g1218"
         transform="matrix(1.3333333,0,0,-1.3333333,853.04752,143.88333)">
        <path
           d="m 0,0 c 7.544,5.274 9.568,11.02 10.583,16.519 2.21,11.973 12.227,7.728 10.446,0.056 C 19.075,8.162 12.517,0.772 0,0"
           style="fill:#feaa7c;fill-opacity:1;fill-rule:nonzero;stroke:none"
           id="path1220" />
      </g>
      <g
         id="g1242"
         transform="matrix(1.3333333,0,0,-1.3333333,823.48552,112.3312)">
        <path
           d="M 0,0 C 2.212,-2.043 5.662,-1.906 7.705,0.307 9.747,2.519 9.61,5.968 7.398,8.011 5.186,10.054 1.736,9.917 -0.306,7.704 -2.349,5.492 -2.212,2.043 0,0"
           style="fill:#fde3cb;fill-opacity:1;fill-rule:nonzero;stroke:none"
           id="path1244" />
      </g>
      <g
         id="g1274"
         transform="matrix(1.3333333,0,0,-1.3333333,869.43339,73.956529)">
        <path
           d="M 0,0 C 1.042,1.128 0.972,2.888 -0.156,3.93 -1.285,4.972 -3.044,4.902 -4.087,3.774 -5.129,2.645 -5.059,0.886 -3.93,-0.156 -2.802,-1.199 -1.042,-1.129 0,0"
           style="fill:#fde3cb;fill-opacity:1;fill-rule:nonzero;stroke:none"
           id="path1276" />
      </g>
    </g>
  </g>
  <g
     inkscape:groupmode="layer"
     id="layer9"
     inkscape:label="Titulo"
     transform="translate(-9.628998,-4.000003)">
    <g
       inkscape:groupmode="layer"
       id="layer4"
       inkscape:label="Flores 1"
       transform="matrix(0.26458333,0,0,0.26458333,-193.28075,-145.55793)"
       style="display:inline">
      <g
         id="g1774"
         transform="matrix(1.3333333,0,0,-1.3333333,799.53645,650.45812)">
        <path
           d="m 0,0 c -10.302,7.657 -16.758,17.919 -22.301,29.072 -0.04,0.048 -0.06,0.102 -0.091,0.148 -0.539,1.074 -1.065,2.166 -1.591,3.258 -0.008,0.011 -0.006,0.021 -0.014,0.032 -0.056,0.121 -0.114,0.232 -0.159,0.361 -0.008,0.012 -0.013,0.033 -0.019,0.054 -0.646,1.704 -0.228,3.641 1.06,4.967 0.014,0.018 0.025,0.025 0.038,0.043 1.406,1.414 2.841,2.831 4.293,4.226 0.059,0.048 0.111,0.108 0.17,0.156 0.58,0.566 1.18,1.129 1.777,1.681 0.71,0.671 1.429,1.329 2.154,1.977 1.211,1.082 2.458,2.147 3.73,3.187 6.313,5.21 13.201,9.688 20.86,12.327 C 34.735,70.504 38.956,52.127 24.04,41.076 58.902,39.788 55.501,10.623 20.142,15.864 40.506,-5.587 15.426,-12.874 0,0"
           style="fill:#feaa7c;fill-opacity:1;fill-rule:nonzero;stroke:none"
           id="path1776" />
      </g>
      <g
         id="g1778"
         transform="matrix(1.3333333,0,0,-1.3333333,800.14912,643.50518)">
        <path
           d="m 0,0 c -4.986,1.883 -9.39,5.062 -12.936,9.051 -2.762,3.097 -5.137,6.588 -7.252,10.228 -1.603,2.741 -3.059,5.563 -4.427,8.377 -0.008,0.012 -0.014,0.033 -0.02,0.054 -0.646,1.705 -0.227,3.641 1.061,4.968 0.013,0.017 0.025,0.025 0.038,0.042 1.405,1.414 2.841,2.831 4.292,4.226 0.06,0.049 0.111,0.108 0.171,0.157 0.58,0.566 1.179,1.128 1.777,1.68 0.71,0.671 1.428,1.33 2.154,1.977 1.21,1.082 2.457,2.147 3.73,3.187 3.465,2.5 7.19,4.589 11.27,5.94 C 17.554,55.43 25.862,47.183 11.075,33.979 30.912,31.871 35.229,16.592 11.196,15.834 22.564,0.546 12.822,-4.833 0,0"
           style="fill:#fde3cb;fill-opacity:1;fill-rule:nonzero;stroke:none"
           id="path1780" />
      </g>
      <g
         id="g1782"
         transform="matrix(1.3333333,0,0,-1.3333333,778.88845,625.11212)">
        <path
           d="m 0,0 c -1.777,1.386 -2.986,3.48 -4.243,5.484 -0.937,1.492 -1.794,3.038 -2.572,4.579 -0.04,0.048 -0.06,0.101 -0.091,0.147 -0.539,1.075 -1.065,2.166 -1.591,3.258 -0.008,0.012 -0.006,0.021 -0.014,0.033 -0.056,0.121 -0.114,0.232 -0.159,0.36 -0.008,0.012 -0.014,0.033 -0.019,0.054 -0.646,1.705 -0.228,3.641 1.06,4.968 0.014,0.017 0.025,0.025 0.038,0.042 1.406,1.414 2.841,2.832 4.293,4.226 0.059,0.049 0.111,0.109 0.17,0.157 3.617,3.429 7.955,6.048 12.713,7.496 C 24.678,35.397 27.702,24.387 12.88,17.553 35.553,15.18 28.876,4.068 10.918,6.847 24.427,-7.15 14.504,-11.305 0,0"
           style="fill:#da66a1;fill-opacity:1;fill-rule:nonzero;stroke:none"
           id="path1784" />
      </g>
    </g>
  </g>
</svg>
