<?xml version="1.0" encoding="UTF-8" standalone="no"?>
<!-- Created with Inkscape (http://www.inkscape.org/) -->

<svg
   width="151.5mm"
   height="132mm"
   viewBox="0 0 151.5 132"
   version="1.1"
   id="svg4056"
   inkscape:export-filename="craneo.svg"
   inkscape:export-xdpi="96"
   inkscape:export-ydpi="96"
   xmlns:inkscape="http://www.inkscape.org/namespaces/inkscape"
   xmlns:sodipodi="http://sodipodi.sourceforge.net/DTD/sodipodi-0.dtd"
   xmlns="http://www.w3.org/2000/svg"
   xmlns:svg="http://www.w3.org/2000/svg">
  <sodipodi:namedview
     id="namedview4058"
     pagecolor="#ffffff"
     bordercolor="#000000"
     borderopacity="0.25"
     inkscape:showpageshadow="2"
     inkscape:pageopacity="0.0"
     inkscape:pagecheckerboard="0"
     inkscape:deskcolor="#d1d1d1"
     inkscape:document-units="mm"
     showgrid="false" />
  <defs
     id="defs4053">
    <clipPath
       clipPathUnits="userSpaceOnUse"
       id="clipPath1512-4">
      <path
         d="m 668.411,369.408 h 53.268 v -71.006 h -53.268 z"
         id="path1510-8" />
    </clipPath>
    <clipPath
       clipPathUnits="userSpaceOnUse"
       id="clipPath1668-6">
      <path
         d="m 561.383,369.408 h 53.266 v -71.006 h -53.266 z"
         id="path1666-1" />
    </clipPath>
  </defs>
  <g
     inkscape:label="Layer 1"
     inkscape:groupmode="layer"
     id="layer1">
    <g
       inkscape:groupmode="layer"
       id="layer3"
       inkscape:label="Craneo 1"
       style="display:none"
       transform="matrix(0.26458333,0,0,0.26458333,-193.2809,-12.949629)">
      <g
         id="g1798"
         transform="matrix(1.3333333,0,0,-1.3333333,1133.7245,500.89945)">
        <path
           d="m 0,0 c -10.477,4.179 -12.946,-10.806 -7.41,-16.863 7.888,-8.631 20.857,-2.686 27.652,4.257 10.959,11.198 15.188,27.647 25.899,38.955 12.937,13.659 35.996,9.674 43.325,-11.363 6.913,-19.844 -28.135,-37.438 -35.878,-15.212 -3.749,10.76 9.857,20.911 16.07,10.438"
           style="fill:none;stroke:#ffffff;stroke-width:1.331;stroke-linecap:round;stroke-linejoin:round;stroke-miterlimit:10;stroke-dasharray:none;stroke-opacity:1"
           id="path1800" />
      </g>
      <g
         id="g1802"
         transform="matrix(1.3333333,0,0,-1.3333333,1119.5205,542.37385)">
        <path
           d="m 0,0 c -1.838,0 -3.329,1.49 -3.329,3.329 0,1.838 1.491,3.328 3.329,3.328 1.838,0 3.328,-1.49 3.328,-3.328 C 3.328,1.49 1.838,0 0,0"
           style="fill:#ffffff;fill-opacity:1;fill-rule:nonzero;stroke:none"
           id="path1804" />
      </g>
      <g
         id="g1806"
         transform="matrix(1.3333333,0,0,-1.3333333,1137.5971,547.84292)">
        <path
           d="m 0,0 c -1.455,0 -2.634,1.179 -2.634,2.634 0,1.455 1.179,2.634 2.634,2.634 1.455,0 2.634,-1.179 2.634,-2.634 C 2.634,1.179 1.455,0 0,0"
           style="fill:#ffffff;fill-opacity:1;fill-rule:nonzero;stroke:none"
           id="path1808" />
      </g>
      <g
         id="g1810"
         transform="matrix(1.3333333,0,0,-1.3333333,1156.5409,542.97625)">
        <path
           d="m 0,0 c -1.071,0 -1.939,0.868 -1.939,1.94 0,1.071 0.868,1.939 1.939,1.939 1.071,0 1.94,-0.868 1.94,-1.939 C 1.94,0.868 1.071,0 0,0"
           style="fill:#ffffff;fill-opacity:1;fill-rule:nonzero;stroke:none"
           id="path1812" />
      </g>
      <g
         id="g1814"
         transform="matrix(1.3333333,0,0,-1.3333333,1172.3491,530.74679)">
        <path
           d="M 0,0 C -0.688,0 -1.245,0.557 -1.245,1.245 -1.245,1.933 -0.688,2.49 0,2.49 0.688,2.49 1.245,1.933 1.245,1.245 1.245,0.557 0.688,0 0,0"
           style="fill:#ffffff;fill-opacity:1;fill-rule:nonzero;stroke:none"
           id="path1816" />
      </g>
      <g
         id="g1818"
         transform="matrix(1.3333333,0,0,-1.3333333,1184.1026,514.27799)">
        <path
           d="m 0,0 c -0.304,0 -0.551,0.247 -0.551,0.551 0,0.304 0.247,0.55 0.551,0.55 0.304,0 0.55,-0.246 0.55,-0.55 C 0.55,0.247 0.304,0 0,0"
           style="fill:#ffffff;fill-opacity:1;fill-rule:nonzero;stroke:none"
           id="path1820" />
      </g>
      <g
         id="g1822"
         transform="matrix(1.3333333,0,0,-1.3333333,893.42205,500.89945)">
        <path
           d="m 0,0 c 10.477,4.179 12.946,-10.806 7.41,-16.863 -7.888,-8.631 -20.857,-2.686 -27.652,4.257 -10.959,11.198 -15.188,27.647 -25.899,38.955 -12.937,13.659 -35.996,9.674 -43.325,-11.363 -6.913,-19.844 28.135,-37.438 35.878,-15.212 3.749,10.76 -9.857,20.911 -16.07,10.438"
           style="fill:none;stroke:#ffffff;stroke-width:1.331;stroke-linecap:round;stroke-linejoin:round;stroke-miterlimit:10;stroke-dasharray:none;stroke-opacity:1"
           id="path1824" />
      </g>
      <g
         id="g1826"
         transform="matrix(1.3333333,0,0,-1.3333333,907.62592,542.37385)">
        <path
           d="m 0,0 c -1.838,0 -3.328,1.49 -3.328,3.329 0,1.838 1.49,3.328 3.328,3.328 1.838,0 3.329,-1.49 3.329,-3.328 C 3.329,1.49 1.838,0 0,0"
           style="fill:#ffffff;fill-opacity:1;fill-rule:nonzero;stroke:none"
           id="path1828" />
      </g>
      <g
         id="g1830"
         transform="matrix(1.3333333,0,0,-1.3333333,889.54925,547.84292)">
        <path
           d="m 0,0 c -1.455,0 -2.634,1.179 -2.634,2.634 0,1.455 1.179,2.634 2.634,2.634 1.455,0 2.634,-1.179 2.634,-2.634 C 2.634,1.179 1.455,0 0,0"
           style="fill:#ffffff;fill-opacity:1;fill-rule:nonzero;stroke:none"
           id="path1832" />
      </g>
      <g
         id="g1834"
         transform="matrix(1.3333333,0,0,-1.3333333,870.60565,542.97625)">
        <path
           d="m 0,0 c -1.071,0 -1.94,0.868 -1.94,1.94 0,1.071 0.869,1.939 1.94,1.939 1.071,0 1.939,-0.868 1.939,-1.939 C 1.939,0.868 1.071,0 0,0"
           style="fill:#ffffff;fill-opacity:1;fill-rule:nonzero;stroke:none"
           id="path1836" />
      </g>
      <g
         id="g1838"
         transform="matrix(1.3333333,0,0,-1.3333333,854.79739,530.74679)">
        <path
           d="M 0,0 C -0.688,0 -1.245,0.557 -1.245,1.245 -1.245,1.933 -0.688,2.49 0,2.49 0.688,2.49 1.245,1.933 1.245,1.245 1.245,0.557 0.688,0 0,0"
           style="fill:#ffffff;fill-opacity:1;fill-rule:nonzero;stroke:none"
           id="path1840" />
      </g>
      <g
         id="g1842"
         transform="matrix(1.3333333,0,0,-1.3333333,843.04392,514.27799)">
        <path
           d="m 0,0 c -0.304,0 -0.55,0.247 -0.55,0.551 0,0.304 0.246,0.55 0.55,0.55 0.304,0 0.55,-0.246 0.55,-0.55 C 0.55,0.247 0.304,0 0,0"
           style="fill:#ffffff;fill-opacity:1;fill-rule:nonzero;stroke:none"
           id="path1844" />
      </g>
      <g
         id="g1358"
         transform="matrix(1.3333333,0,0,-1.3333333,1078.0949,458.17799)">
        <path
           d="m 0,0 c -2.862,-0.24 -5.663,-0.46 -8.385,-0.62 1.781,-10.686 2.302,-27.315 -9.365,-19.731 -3.381,2.181 -6.443,5.183 -9.245,8.405 -2.241,-10.166 -6.903,-21.692 -14.007,-11.767 -3.382,4.703 -5.603,10.826 -7.404,16.709 -1.801,-5.883 -4.022,-12.006 -7.384,-16.709 -7.124,-9.925 -11.787,1.601 -14.028,11.767 -2.801,-3.222 -5.863,-6.224 -9.245,-8.405 -11.666,-7.584 -11.126,9.045 -9.365,19.731 -2.721,0.16 -5.503,0.38 -8.364,0.62 -115.423,9.945 -54.81,124.587 -33.379,151.642 22.473,28.395 46.125,31.877 81.785,31.637 35.639,0.24 59.292,-3.242 81.784,-31.637 C 54.81,124.587 115.442,9.945 0,0"
           style="fill:#fde3cb;fill-opacity:1;fill-rule:nonzero;stroke:none"
           id="path1360" />
      </g>
      <g
         id="g1362"
         transform="matrix(1.3333333,0,0,-1.3333333,1026.7405,440.96866)">
        <path
           d="m 0,0 c 0.1,-1.901 -0.961,-3.982 -2.782,-4.522 -1.3,-0.401 -2.701,0.019 -3.902,0.66 -1.019,0.544 -1.966,1.26 -2.78,2.088 -0.236,0.241 -0.606,0.238 -0.84,-0.005 -0.81,-0.836 -1.743,-1.539 -2.763,-2.083 -1.201,-0.641 -2.602,-1.061 -3.902,-0.66 -1.821,0.54 -2.882,2.621 -2.782,4.522 0.12,1.901 1.141,3.642 2.342,5.123 1.674,2.078 4.828,4.434 7.257,5.786 0.182,0.102 0.391,0.102 0.572,-0.001 C -7.169,9.556 -4.015,7.201 -2.341,5.123 -1.141,3.642 -0.1,1.901 0,0"
           style="fill:#362955;fill-opacity:1;fill-rule:nonzero;stroke:none"
           id="path1364" />
      </g>
      <g
         id="g1366"
         transform="matrix(1.3333333,0,0,-1.3333333,1085.5586,301.31679)">
        <path
           d="m 0,0 c 0,-3.686 -1.985,-6.673 -4.433,-6.673 -2.448,0 -4.433,2.987 -4.433,6.673 0,3.685 1.985,6.673 4.433,6.673 C -1.985,6.673 0,3.685 0,0"
           style="fill:#da66a1;fill-opacity:1;fill-rule:nonzero;stroke:none"
           id="path1368" />
      </g>
      <g
         id="g1370"
         transform="matrix(1.3333333,0,0,-1.3333333,1096.4061,304.01239)">
        <path
           d="m 0,0 c -0.725,-3.613 -3.258,-6.152 -5.659,-5.671 -2.4,0.482 -3.758,3.802 -3.033,7.415 0.725,3.614 3.258,6.153 5.659,5.671 C -0.633,6.933 0.725,3.614 0,0"
           style="fill:#da66a1;fill-opacity:1;fill-rule:nonzero;stroke:none"
           id="path1372" />
      </g>
      <g
         id="g1374"
         transform="matrix(1.3333333,0,0,-1.3333333,1106.6702,309.60693)">
        <path
           d="m 0,0 c -1.843,-3.192 -5.055,-4.787 -7.176,-3.563 -2.12,1.224 -2.345,4.804 -0.502,7.996 1.843,3.192 5.055,4.787 7.176,3.563 C 1.618,6.772 1.843,3.192 0,0"
           style="fill:#da66a1;fill-opacity:1;fill-rule:nonzero;stroke:none"
           id="path1376" />
      </g>
      <g
         id="g1378"
         transform="matrix(1.3333333,0,0,-1.3333333,1116.927,315.30559)">
        <path
           d="m 0,0 c -1.843,-3.192 -5.055,-4.787 -7.175,-3.563 -2.121,1.224 -2.346,4.804 -0.503,7.996 1.843,3.191 5.056,4.787 7.176,3.562 C 1.618,6.771 1.843,3.192 0,0"
           style="fill:#da66a1;fill-opacity:1;fill-rule:nonzero;stroke:none"
           id="path1380" />
      </g>
      <g
         id="g1382"
         transform="matrix(1.3333333,0,0,-1.3333333,1124.9734,323.06373)">
        <path
           d="m 0,0 c -2.434,-2.767 -5.898,-3.699 -7.736,-2.082 -1.838,1.617 -1.354,5.172 1.08,7.939 2.435,2.766 5.899,3.698 7.737,2.081 C 2.919,6.321 2.435,2.767 0,0"
           style="fill:#da66a1;fill-opacity:1;fill-rule:nonzero;stroke:none"
           id="path1384" />
      </g>
      <g
         id="g1386"
         transform="matrix(1.3333333,0,0,-1.3333333,1131.065,333.04106)">
        <path
           d="M 0,0 C -3.192,-1.843 -6.771,-1.618 -7.996,0.502 -9.22,2.623 -7.625,5.835 -4.433,7.678 -1.241,9.521 2.339,9.296 3.563,7.175 4.787,5.055 3.192,1.843 0,0"
           style="fill:#da66a1;fill-opacity:1;fill-rule:nonzero;stroke:none"
           id="path1388" />
      </g>
      <g
         id="g1390"
         transform="matrix(1.3333333,0,0,-1.3333333,1138.1042,341.72293)">
        <path
           d="m 0,0 c -3.128,-1.949 -6.714,-1.844 -8.008,0.234 -1.295,2.078 0.192,5.342 3.32,7.291 C -1.56,9.474 2.025,9.369 3.32,7.291 4.614,5.213 3.128,1.949 0,0"
           style="fill:#da66a1;fill-opacity:1;fill-rule:nonzero;stroke:none"
           id="path1392" />
      </g>
      <g
         id="g1394"
         transform="matrix(1.3333333,0,0,-1.3333333,1141.5523,352.35506)">
        <path
           d="M 0,0 C -3.451,-1.295 -6.945,-0.487 -7.806,1.804 -8.666,4.096 -6.567,7.005 -3.116,8.3 0.334,9.595 3.829,8.788 4.689,6.496 5.55,4.204 3.45,1.296 0,0"
           style="fill:#da66a1;fill-opacity:1;fill-rule:nonzero;stroke:none"
           id="path1396" />
      </g>
      <g
         id="g1398"
         transform="matrix(1.3333333,0,0,-1.3333333,1142.2311,364.02519)">
        <path
           d="M 0,0 C -3.683,-0.124 -6.736,1.759 -6.818,4.206 -6.9,6.653 -3.981,8.737 -0.298,8.861 3.386,8.984 6.439,7.101 6.521,4.654 6.603,2.208 3.684,0.124 0,0"
           style="fill:#da66a1;fill-opacity:1;fill-rule:nonzero;stroke:none"
           id="path1400" />
      </g>
      <g
         id="g1402"
         transform="matrix(1.3333333,0,0,-1.3333333,1145.4369,375.18879)">
        <path
           d="M 0,0 C -3.686,-0.004 -6.675,1.977 -6.678,4.425 -6.681,6.874 -3.696,8.862 -0.01,8.866 3.676,8.87 6.665,6.889 6.668,4.441 6.671,1.992 3.686,0.004 0,0"
           style="fill:#da66a1;fill-opacity:1;fill-rule:nonzero;stroke:none"
           id="path1404" />
      </g>
      <g
         id="g1406"
         transform="matrix(1.3333333,0,0,-1.3333333,1142.7535,386.03919)">
        <path
           d="M 0,0 C -3.614,0.721 -6.156,3.252 -5.677,5.652 -5.198,8.053 -1.88,9.415 1.734,8.694 5.349,7.973 7.89,5.443 7.412,3.042 6.932,0.641 3.614,-0.721 0,0"
           style="fill:#da66a1;fill-opacity:1;fill-rule:nonzero;stroke:none"
           id="path1408" />
      </g>
      <g
         id="g1410"
         transform="matrix(1.3333333,0,0,-1.3333333,1137.1706,396.30959)">
        <path
           d="M 0,0 C -3.194,1.839 -4.793,5.05 -3.571,7.172 -2.349,9.293 1.23,9.522 4.424,7.683 7.618,5.844 9.217,2.633 7.995,0.511 6.773,-1.61 3.194,-1.839 0,0"
           style="fill:#da66a1;fill-opacity:1;fill-rule:nonzero;stroke:none"
           id="path1412" />
      </g>
      <g
         id="g1414"
         transform="matrix(1.3333333,0,0,-1.3333333,1132.1046,406.41452)">
        <path
           d="M 0,0 C -3.025,2.105 -4.344,5.441 -2.946,7.45 -1.547,9.46 2.039,9.382 5.064,7.277 8.089,5.172 9.408,1.836 8.01,-0.173 6.611,-2.183 3.025,-2.105 0,0"
           style="fill:#da66a1;fill-opacity:1;fill-rule:nonzero;stroke:none"
           id="path1416" />
      </g>
      <g
         id="g1418"
         transform="matrix(1.3333333,0,0,-1.3333333,1123.6963,413.77879)">
        <path
           d="M 0,0 C -2.552,2.659 -3.189,6.189 -1.422,7.884 0.344,9.579 3.844,8.798 6.396,6.139 8.948,3.48 9.585,-0.05 7.819,-1.745 6.052,-3.441 2.552,-2.659 0,0"
           style="fill:#da66a1;fill-opacity:1;fill-rule:nonzero;stroke:none"
           id="path1420" />
      </g>
      <g
         id="g1422"
         transform="matrix(1.3333333,0,0,-1.3333333,1113.2413,419.00812)">
        <path
           d="M 0,0 C -1.567,3.336 -1.042,6.884 1.174,7.925 3.39,8.966 6.457,7.106 8.024,3.77 9.591,0.435 9.065,-3.113 6.85,-4.155 4.634,-5.196 1.567,-3.336 0,0"
           style="fill:#da66a1;fill-opacity:1;fill-rule:nonzero;stroke:none"
           id="path1424" />
      </g>
      <g
         id="g1426"
         transform="matrix(1.3333333,0,0,-1.3333333,1103.8583,424.86652)">
        <path
           d="M 0,0 C -1.777,3.229 -1.479,6.803 0.666,7.984 2.81,9.164 5.99,7.504 7.767,4.275 9.544,1.046 9.246,-2.528 7.101,-3.709 4.957,-4.889 1.777,-3.229 0,0"
           style="fill:#da66a1;fill-opacity:1;fill-rule:nonzero;stroke:none"
           id="path1428" />
      </g>
      <g
         id="g1430"
         transform="matrix(1.3333333,0,0,-1.3333333,1093.0557,427.73586)">
        <path
           d="M 0,0 C -1.107,3.515 -0.112,6.961 2.223,7.697 4.558,8.432 7.349,6.179 8.456,2.664 9.563,-0.852 8.568,-4.298 6.233,-5.033 3.898,-5.769 1.107,-3.515 0,0"
           style="fill:#da66a1;fill-opacity:1;fill-rule:nonzero;stroke:none"
           id="path1432" />
      </g>
      <g
         id="g1434"
         transform="matrix(1.3333333,0,0,-1.3333333,1081.3659,427.78399)">
        <path
           d="M 0,0 C 0.075,3.685 2.12,6.631 4.568,6.581 7.016,6.531 8.939,3.504 8.864,-0.181 8.788,-3.866 6.743,-6.812 4.295,-6.762 1.848,-6.712 -0.075,-3.685 0,0"
           style="fill:#da66a1;fill-opacity:1;fill-rule:nonzero;stroke:none"
           id="path1436" />
      </g>
      <g
         id="g1438"
         transform="matrix(1.3333333,0,0,-1.3333333,1071.4142,431.11666)">
        <path
           d="M 0,0 C -0.576,3.64 0.918,6.901 3.336,7.284 5.754,7.666 8.181,5.025 8.757,1.384 9.332,-2.256 7.839,-5.517 5.421,-5.899 3.003,-6.281 0.576,-3.64 0,0"
           style="fill:#da66a1;fill-opacity:1;fill-rule:nonzero;stroke:none"
           id="path1440" />
      </g>
      <g
         id="g1442"
         transform="matrix(1.3333333,0,0,-1.3333333,1060.2787,430.14866)">
        <path
           d="M 0,0 C 0.152,3.682 2.258,6.586 4.704,6.485 7.15,6.384 9.01,3.317 8.858,-0.365 8.706,-4.047 6.6,-6.951 4.154,-6.85 1.708,-6.749 -0.152,-3.682 0,0"
           style="fill:#da66a1;fill-opacity:1;fill-rule:nonzero;stroke:none"
           id="path1444" />
      </g>
      <g
         id="g1446"
         transform="matrix(1.3333333,0,0,-1.3333333,1049.267,426.22572)">
        <path
           d="M 0,0 C 1.321,3.44 4.246,5.518 6.531,4.64 8.816,3.762 9.597,0.261 8.276,-3.179 6.954,-6.62 4.03,-8.697 1.745,-7.819 -0.541,-6.941 -1.322,-3.441 0,0"
           style="fill:#da66a1;fill-opacity:1;fill-rule:nonzero;stroke:none"
           id="path1448" />
      </g>
      <g
         id="g1450"
         transform="matrix(1.3333333,0,0,-1.3333333,1043.1421,416.54266)">
        <path
           d="M 0,0 C 2.768,2.434 6.322,2.916 7.938,1.077 9.555,-0.761 8.622,-4.225 5.854,-6.658 3.086,-9.092 -0.468,-9.574 -2.085,-7.735 -3.701,-5.897 -2.768,-2.434 0,0"
           style="fill:#da66a1;fill-opacity:1;fill-rule:nonzero;stroke:none"
           id="path1452" />
      </g>
      <g
         id="g1454"
         transform="matrix(1.3333333,0,0,-1.3333333,1038.0034,406.61639)">
        <path
           d="M 0,0 C 3.192,1.842 6.772,1.615 7.995,-0.505 9.219,-2.626 7.622,-5.838 4.43,-7.68 1.237,-9.521 -2.342,-9.295 -3.565,-7.174 -4.789,-5.054 -3.193,-1.842 0,0"
           style="fill:#da66a1;fill-opacity:1;fill-rule:nonzero;stroke:none"
           id="path1456" />
      </g>
      <g
         id="g1458"
         transform="matrix(1.3333333,0,0,-1.3333333,1035.4278,395.21399)">
        <path
           d="M 0,0 C 3.614,0.724 6.933,-0.636 7.414,-3.036 7.894,-5.437 5.354,-7.969 1.741,-8.693 -1.873,-9.417 -5.193,-8.057 -5.673,-5.657 -6.154,-3.256 -3.614,-0.724 0,0"
           style="fill:#da66a1;fill-opacity:1;fill-rule:nonzero;stroke:none"
           id="path1460" />
      </g>
      <g
         id="g1462"
         transform="matrix(1.3333333,0,0,-1.3333333,1035.7758,384.30066)">
        <path
           d="M 0,0 C 3.628,0.647 6.918,-0.783 7.348,-3.193 7.777,-5.603 5.184,-8.081 1.556,-8.728 -2.073,-9.375 -5.362,-7.945 -5.792,-5.535 -6.221,-3.125 -3.628,-0.646 0,0"
           style="fill:#da66a1;fill-opacity:1;fill-rule:nonzero;stroke:none"
           id="path1464" />
      </g>
      <g
         id="g1466"
         transform="matrix(1.3333333,0,0,-1.3333333,1036.5265,373.14839)">
        <path
           d="M 0,0 C 3.685,-0.08 6.629,-2.129 6.576,-4.576 6.523,-7.024 3.493,-8.943 -0.192,-8.864 -3.877,-8.784 -6.821,-6.735 -6.768,-4.287 -6.715,-1.84 -3.685,0.08 0,0"
           style="fill:#da66a1;fill-opacity:1;fill-rule:nonzero;stroke:none"
           id="path1468" />
      </g>
      <g
         id="g1470"
         transform="matrix(1.3333333,0,0,-1.3333333,1040.2335,362.06199)">
        <path
           d="m 0,0 c 3.465,-1.254 5.6,-4.137 4.766,-6.439 -0.833,-2.302 -4.317,-3.152 -7.783,-1.897 -3.466,1.254 -5.6,4.137 -4.766,6.439 C -6.95,0.405 -3.466,1.254 0,0"
           style="fill:#da66a1;fill-opacity:1;fill-rule:nonzero;stroke:none"
           id="path1472" />
      </g>
      <g
         id="g1474"
         transform="matrix(1.3333333,0,0,-1.3333333,1038.6962,352.56853)">
        <path
           d="M 0,0 C 3.685,-0.076 6.631,-2.121 6.581,-4.569 6.531,-7.016 3.503,-8.94 -0.182,-8.864 -3.867,-8.788 -6.813,-6.743 -6.763,-4.295 -6.713,-1.847 -3.685,0.076 0,0"
           style="fill:#da66a1;fill-opacity:1;fill-rule:nonzero;stroke:none"
           id="path1476" />
      </g>
      <g
         id="g1478"
         transform="matrix(1.3333333,0,0,-1.3333333,1041.6138,341.77839)">
        <path
           d="m 0,0 c 3.598,-0.799 6.084,-3.384 5.553,-5.774 -0.53,-2.39 -3.877,-3.68 -7.475,-2.881 -3.598,0.799 -6.084,3.384 -5.554,5.774 C -6.945,-0.491 -3.598,0.799 0,0"
           style="fill:#da66a1;fill-opacity:1;fill-rule:nonzero;stroke:none"
           id="path1480" />
      </g>
      <g
         id="g1482"
         transform="matrix(1.3333333,0,0,-1.3333333,1047.4179,331.63133)">
        <path
           d="M 0,0 C 3.153,-1.908 4.682,-5.153 3.415,-7.247 2.147,-9.342 -1.436,-9.493 -4.589,-7.585 -7.743,-5.677 -9.272,-2.433 -8.004,-0.338 -6.737,1.756 -3.153,1.908 0,0"
           style="fill:#da66a1;fill-opacity:1;fill-rule:nonzero;stroke:none"
           id="path1484" />
      </g>
      <g
         id="g1486"
         transform="matrix(1.3333333,0,0,-1.3333333,1049.8758,321.71853)">
        <path
           d="M 0,0 C 3.508,-1.131 5.742,-3.937 4.991,-6.267 4.24,-8.597 0.787,-9.569 -2.72,-8.438 -6.228,-7.307 -8.463,-4.501 -7.711,-2.171 -6.96,0.159 -3.508,1.131 0,0"
           style="fill:#da66a1;fill-opacity:1;fill-rule:nonzero;stroke:none"
           id="path1488" />
      </g>
      <g
         id="g1490"
         transform="matrix(1.3333333,0,0,-1.3333333,1055.7699,312.22133)">
        <path
           d="M 0,0 C 3.217,-1.799 4.856,-4.989 3.661,-7.126 2.466,-9.263 -1.111,-9.537 -4.327,-7.738 -7.544,-5.939 -9.183,-2.749 -7.988,-0.612 -6.793,1.525 -3.217,1.799 0,0"
           style="fill:#da66a1;fill-opacity:1;fill-rule:nonzero;stroke:none"
           id="path1492" />
      </g>
      <g
         id="g1494"
         transform="matrix(1.3333333,0,0,-1.3333333,1064.2445,304.16919)">
        <path
           d="M 0,0 C 2.472,-2.733 3.005,-6.28 1.189,-7.923 -0.627,-9.565 -4.103,-8.681 -6.575,-5.947 -9.047,-3.214 -9.58,0.333 -7.764,1.975 -5.948,3.618 -2.472,2.733 0,0"
           style="fill:#da66a1;fill-opacity:1;fill-rule:nonzero;stroke:none"
           id="path1496" />
      </g>
      <g
         id="g1498"
         transform="matrix(1.3333333,0,0,-1.3333333,1074.3549,300.31666)">
        <path
           d="m 0,0 c 1.579,-3.33 1.067,-6.88 -1.145,-7.929 -2.212,-1.049 -5.286,0.8 -6.865,4.13 -1.58,3.33 -1.067,6.88 1.145,7.929 C -4.653,5.179 -1.579,3.33 0,0"
           style="fill:#da66a1;fill-opacity:1;fill-rule:nonzero;stroke:none"
           id="path1500" />
      </g>
      <g
         id="g1502"
         transform="matrix(1.3333333,0,0,-1.3333333,1044.3219,348.07999)">
        <path
           d="m 0,0 c 1.898,8.382 4.95,16.222 9.518,22.699 17.283,24.503 45.704,2.429 57.625,-17.656 5.294,-8.92 8.934,-19.456 7.041,-30.008 C 71.277,-41.159 57.414,-50.89 44.08,-56.008 32.307,-60.527 9.629,-67.24 1.231,-52.417 c -1.758,3.102 -2.43,6.757 -2.845,10.343 C -3.122,-29.026 -3.121,-13.782 0,0"
           style="fill:#362955;fill-opacity:1;fill-rule:nonzero;stroke:none"
           id="path1504" />
      </g>
      <g
         id="g1506"
         transform="matrix(1.3333333,0,0,-1.3333333,157.91087,819.69997)">
        <g
           id="g1508" />
        <g
           id="g1520">
          <g
             clip-path="url(#clipPath1512-4)"
             opacity="0.600006"
             id="g1518">
            <g
               transform="translate(678.5063,298.4025)"
               id="g1516">
              <path
                 d="m 0,0 c -6.124,0 -7.318,2.107 -7.828,3.006 -0.87,1.536 -1.23,4.638 -1.365,5.806 -1.573,13.603 -1.077,27.115 1.398,38.041 1.688,7.455 4.252,13.656 7.618,18.43 3.618,5.129 6.842,5.722 8.951,5.722 8.345,0 21.146,-10.131 28.538,-22.586 C 40.624,42.841 44.274,34.538 42.86,26.662 40.632,14.247 27.751,7.576 20.272,4.706 10.138,0.816 3.654,0 0,0"
                 style="fill:#231f20;fill-opacity:1;fill-rule:nonzero;stroke:none"
                 id="path1514" />
            </g>
          </g>
        </g>
      </g>
      <g
         id="g1522"
         transform="matrix(1.3333333,0,0,-1.3333333,941.58792,301.31679)">
        <path
           d="m 0,0 c 0,-3.686 1.985,-6.673 4.433,-6.673 2.448,0 4.433,2.987 4.433,6.673 0,3.685 -1.985,6.673 -4.433,6.673 C 1.985,6.673 0,3.685 0,0"
           style="fill:#da66a1;fill-opacity:1;fill-rule:nonzero;stroke:none"
           id="path1524" />
      </g>
      <g
         id="g1526"
         transform="matrix(1.3333333,0,0,-1.3333333,930.74018,304.01239)">
        <path
           d="m 0,0 c 0.725,-3.613 3.259,-6.152 5.659,-5.671 2.4,0.482 3.758,3.802 3.034,7.415 C 7.967,5.358 5.434,7.897 3.034,7.415 0.633,6.933 -0.725,3.614 0,0"
           style="fill:#da66a1;fill-opacity:1;fill-rule:nonzero;stroke:none"
           id="path1528" />
      </g>
      <g
         id="g1530"
         transform="matrix(1.3333333,0,0,-1.3333333,920.47605,309.60693)">
        <path
           d="M 0,0 C 1.843,-3.192 5.055,-4.787 7.176,-3.563 9.296,-2.339 9.521,1.241 7.678,4.433 5.835,7.625 2.622,9.22 0.502,7.996 -1.618,6.772 -1.843,3.192 0,0"
           style="fill:#da66a1;fill-opacity:1;fill-rule:nonzero;stroke:none"
           id="path1532" />
      </g>
      <g
         id="g1534"
         transform="matrix(1.3333333,0,0,-1.3333333,910.21912,315.30559)">
        <path
           d="M 0,0 C 1.843,-3.192 5.056,-4.787 7.176,-3.563 9.296,-2.339 9.521,1.241 7.678,4.433 5.835,7.624 2.623,9.22 0.503,7.995 -1.618,6.771 -1.843,3.192 0,0"
           style="fill:#da66a1;fill-opacity:1;fill-rule:nonzero;stroke:none"
           id="path1536" />
      </g>
      <g
         id="g1538"
         transform="matrix(1.3333333,0,0,-1.3333333,902.17272,323.06373)">
        <path
           d="M 0,0 C 2.435,-2.767 5.898,-3.699 7.736,-2.082 9.574,-0.465 9.09,3.09 6.656,5.857 4.221,8.623 0.758,9.555 -1.081,7.938 -2.918,6.321 -2.435,2.767 0,0"
           style="fill:#da66a1;fill-opacity:1;fill-rule:nonzero;stroke:none"
           id="path1540" />
      </g>
      <g
         id="g1542"
         transform="matrix(1.3333333,0,0,-1.3333333,896.08112,333.04106)">
        <path
           d="M 0,0 C 3.192,-1.843 6.771,-1.618 7.995,0.502 9.22,2.623 7.625,5.835 4.433,7.678 1.241,9.521 -2.339,9.296 -3.563,7.175 -4.787,5.055 -3.192,1.843 0,0"
           style="fill:#da66a1;fill-opacity:1;fill-rule:nonzero;stroke:none"
           id="path1544" />
      </g>
      <g
         id="g1546"
         transform="matrix(1.3333333,0,0,-1.3333333,889.04232,341.72293)">
        <path
           d="M 0,0 C 3.128,-1.949 6.714,-1.844 8.008,0.234 9.302,2.312 7.816,5.576 4.688,7.525 1.56,9.474 -2.025,9.369 -3.32,7.291 -4.615,5.213 -3.128,1.949 0,0"
           style="fill:#da66a1;fill-opacity:1;fill-rule:nonzero;stroke:none"
           id="path1548" />
      </g>
      <g
         id="g1550"
         transform="matrix(1.3333333,0,0,-1.3333333,885.59405,352.35506)">
        <path
           d="M 0,0 C 3.45,-1.295 6.945,-0.487 7.805,1.804 8.666,4.096 6.567,7.005 3.116,8.3 -0.334,9.595 -3.829,8.788 -4.689,6.496 -5.55,4.204 -3.451,1.296 0,0"
           style="fill:#da66a1;fill-opacity:1;fill-rule:nonzero;stroke:none"
           id="path1552" />
      </g>
      <g
         id="g1554"
         transform="matrix(1.3333333,0,0,-1.3333333,884.91499,364.02519)">
        <path
           d="M 0,0 C 3.683,-0.124 6.736,1.759 6.818,4.206 6.901,6.653 3.981,8.737 0.298,8.861 -3.386,8.984 -6.439,7.101 -6.521,4.654 -6.603,2.208 -3.683,0.124 0,0"
           style="fill:#da66a1;fill-opacity:1;fill-rule:nonzero;stroke:none"
           id="path1556" />
      </g>
      <g
         id="g1558"
         transform="matrix(1.3333333,0,0,-1.3333333,881.70965,375.18879)">
        <path
           d="M 0,0 C 3.685,-0.004 6.675,1.977 6.678,4.425 6.681,6.874 3.695,8.862 0.01,8.866 -3.676,8.87 -6.665,6.889 -6.668,4.441 -6.671,1.992 -3.686,0.004 0,0"
           style="fill:#da66a1;fill-opacity:1;fill-rule:nonzero;stroke:none"
           id="path1560" />
      </g>
      <g
         id="g1562"
         transform="matrix(1.3333333,0,0,-1.3333333,884.39259,386.03919)">
        <path
           d="M 0,0 C 3.614,0.721 6.156,3.252 5.677,5.652 5.198,8.053 1.88,9.415 -1.734,8.694 -5.348,7.973 -7.89,5.443 -7.411,3.042 -6.932,0.641 -3.614,-0.721 0,0"
           style="fill:#da66a1;fill-opacity:1;fill-rule:nonzero;stroke:none"
           id="path1564" />
      </g>
      <g
         id="g1566"
         transform="matrix(1.3333333,0,0,-1.3333333,889.97592,396.30959)">
        <path
           d="M 0,0 C 3.194,1.839 4.792,5.05 3.571,7.172 2.349,9.293 -1.23,9.522 -4.424,7.683 -7.618,5.844 -9.217,2.633 -7.995,0.511 -6.773,-1.61 -3.194,-1.839 0,0"
           style="fill:#da66a1;fill-opacity:1;fill-rule:nonzero;stroke:none"
           id="path1568" />
      </g>
      <g
         id="g1570"
         transform="matrix(1.3333333,0,0,-1.3333333,895.04165,406.41452)">
        <path
           d="M 0,0 C 3.025,2.105 4.344,5.441 2.946,7.45 1.547,9.46 -2.039,9.382 -5.064,7.277 -8.089,5.172 -9.408,1.836 -8.009,-0.173 -6.611,-2.183 -3.025,-2.105 0,0"
           style="fill:#da66a1;fill-opacity:1;fill-rule:nonzero;stroke:none"
           id="path1572" />
      </g>
      <g
         id="g1574"
         transform="matrix(1.3333333,0,0,-1.3333333,903.45018,413.77879)">
        <path
           d="M 0,0 C 2.552,2.659 3.189,6.189 1.422,7.884 -0.344,9.579 -3.845,8.798 -6.396,6.139 -8.948,3.48 -9.585,-0.05 -7.819,-1.745 -6.052,-3.441 -2.552,-2.659 0,0"
           style="fill:#da66a1;fill-opacity:1;fill-rule:nonzero;stroke:none"
           id="path1576" />
      </g>
      <g
         id="g1578"
         transform="matrix(1.3333333,0,0,-1.3333333,913.90525,419.00812)">
        <path
           d="M 0,0 C 1.567,3.336 1.042,6.884 -1.174,7.925 -3.39,8.966 -6.457,7.106 -8.024,3.77 -9.591,0.435 -9.066,-3.113 -6.85,-4.155 -4.634,-5.196 -1.567,-3.336 0,0"
           style="fill:#da66a1;fill-opacity:1;fill-rule:nonzero;stroke:none"
           id="path1580" />
      </g>
      <g
         id="g1582"
         transform="matrix(1.3333333,0,0,-1.3333333,923.28778,424.86652)">
        <path
           d="M 0,0 C 1.777,3.229 1.479,6.803 -0.665,7.984 -2.81,9.164 -5.989,7.504 -7.767,4.275 -9.544,1.046 -9.246,-2.528 -7.101,-3.709 -4.957,-4.889 -1.777,-3.229 0,0"
           style="fill:#da66a1;fill-opacity:1;fill-rule:nonzero;stroke:none"
           id="path1584" />
      </g>
      <g
         id="g1586"
         transform="matrix(1.3333333,0,0,-1.3333333,934.09072,427.73586)">
        <path
           d="M 0,0 C 1.107,3.515 0.112,6.961 -2.223,7.697 -4.558,8.432 -7.349,6.179 -8.456,2.664 -9.563,-0.852 -8.568,-4.298 -6.233,-5.033 -3.898,-5.769 -1.107,-3.515 0,0"
           style="fill:#da66a1;fill-opacity:1;fill-rule:nonzero;stroke:none"
           id="path1588" />
      </g>
      <g
         id="g1590"
         transform="matrix(1.3333333,0,0,-1.3333333,945.78058,427.78399)">
        <path
           d="M 0,0 C -0.075,3.685 -2.12,6.631 -4.568,6.581 -7.016,6.531 -8.939,3.504 -8.864,-0.181 -8.789,-3.866 -6.743,-6.812 -4.296,-6.762 -1.848,-6.712 0.075,-3.685 0,0"
           style="fill:#da66a1;fill-opacity:1;fill-rule:nonzero;stroke:none"
           id="path1592" />
      </g>
      <g
         id="g1594"
         transform="matrix(1.3333333,0,0,-1.3333333,955.73205,431.11666)">
        <path
           d="m 0,0 c 0.576,3.64 -0.918,6.901 -3.336,7.284 -2.418,0.382 -4.845,-2.259 -5.421,-5.9 -0.576,-3.64 0.918,-6.901 3.336,-7.283 C -3.002,-6.281 -0.576,-3.64 0,0"
           style="fill:#da66a1;fill-opacity:1;fill-rule:nonzero;stroke:none"
           id="path1596" />
      </g>
      <g
         id="g1598"
         transform="matrix(1.3333333,0,0,-1.3333333,966.86765,430.14866)">
        <path
           d="M 0,0 C -0.152,3.682 -2.258,6.586 -4.704,6.485 -7.15,6.384 -9.01,3.317 -8.858,-0.365 -8.706,-4.047 -6.601,-6.951 -4.154,-6.85 -1.708,-6.749 0.152,-3.682 0,0"
           style="fill:#da66a1;fill-opacity:1;fill-rule:nonzero;stroke:none"
           id="path1600" />
      </g>
      <g
         id="g1602"
         transform="matrix(1.3333333,0,0,-1.3333333,977.87952,426.22572)">
        <path
           d="M 0,0 C -1.322,3.44 -4.246,5.518 -6.531,4.64 -8.816,3.762 -9.598,0.261 -8.276,-3.179 -6.954,-6.62 -4.03,-8.697 -1.745,-7.819 0.54,-6.941 1.321,-3.441 0,0"
           style="fill:#da66a1;fill-opacity:1;fill-rule:nonzero;stroke:none"
           id="path1604" />
      </g>
      <g
         id="g1606"
         transform="matrix(1.3333333,0,0,-1.3333333,984.00445,416.54266)">
        <path
           d="M 0,0 C -2.768,2.434 -6.322,2.916 -7.938,1.077 -9.555,-0.761 -8.622,-4.225 -5.854,-6.658 -3.086,-9.092 0.468,-9.574 2.085,-7.735 3.701,-5.897 2.768,-2.434 0,0"
           style="fill:#da66a1;fill-opacity:1;fill-rule:nonzero;stroke:none"
           id="path1608" />
      </g>
      <g
         id="g1610"
         transform="matrix(1.3333333,0,0,-1.3333333,989.14285,406.61639)">
        <path
           d="M 0,0 C -3.193,1.842 -6.772,1.615 -7.995,-0.505 -9.219,-2.626 -7.622,-5.838 -4.43,-7.68 -1.237,-9.521 2.342,-9.295 3.566,-7.174 4.789,-5.054 3.192,-1.842 0,0"
           style="fill:#da66a1;fill-opacity:1;fill-rule:nonzero;stroke:none"
           id="path1612" />
      </g>
      <g
         id="g1614"
         transform="matrix(1.3333333,0,0,-1.3333333,991.71872,395.21399)">
        <path
           d="m 0,0 c -3.614,0.724 -6.933,-0.636 -7.414,-3.036 -0.481,-2.401 2.06,-4.933 5.673,-5.657 3.614,-0.724 6.933,0.636 7.414,3.036 C 6.154,-3.256 3.614,-0.724 0,0"
           style="fill:#da66a1;fill-opacity:1;fill-rule:nonzero;stroke:none"
           id="path1616" />
      </g>
      <g
         id="g1618"
         transform="matrix(1.3333333,0,0,-1.3333333,991.37032,384.30066)">
        <path
           d="m 0,0 c -3.628,0.647 -6.918,-0.783 -7.348,-3.193 -0.429,-2.41 2.164,-4.888 5.792,-5.535 3.629,-0.647 6.918,0.783 7.348,3.193 C 6.221,-3.125 3.628,-0.646 0,0"
           style="fill:#da66a1;fill-opacity:1;fill-rule:nonzero;stroke:none"
           id="path1620" />
      </g>
      <g
         id="g1622"
         transform="matrix(1.3333333,0,0,-1.3333333,990.61992,373.14839)">
        <path
           d="m 0,0 c -3.685,-0.08 -6.629,-2.129 -6.576,-4.576 0.053,-2.448 3.083,-4.367 6.768,-4.288 3.684,0.08 6.628,2.129 6.576,4.577 C 6.715,-1.84 3.685,0.08 0,0"
           style="fill:#da66a1;fill-opacity:1;fill-rule:nonzero;stroke:none"
           id="path1624" />
      </g>
      <g
         id="g1626"
         transform="matrix(1.3333333,0,0,-1.3333333,986.91285,362.06199)">
        <path
           d="m 0,0 c -3.466,-1.254 -5.599,-4.137 -4.766,-6.439 0.833,-2.302 4.317,-3.152 7.783,-1.897 3.466,1.254 5.6,4.137 4.766,6.439 C 6.95,0.405 3.466,1.254 0,0"
           style="fill:#da66a1;fill-opacity:1;fill-rule:nonzero;stroke:none"
           id="path1628" />
      </g>
      <g
         id="g1630"
         transform="matrix(1.3333333,0,0,-1.3333333,988.44992,352.56853)">
        <path
           d="m 0,0 c -3.685,-0.076 -6.631,-2.121 -6.581,-4.569 0.05,-2.447 3.078,-4.371 6.763,-4.295 3.685,0.076 6.631,2.121 6.581,4.569 C 6.713,-1.847 3.685,0.076 0,0"
           style="fill:#da66a1;fill-opacity:1;fill-rule:nonzero;stroke:none"
           id="path1632" />
      </g>
      <g
         id="g1634"
         transform="matrix(1.3333333,0,0,-1.3333333,985.53272,341.77839)">
        <path
           d="m 0,0 c -3.598,-0.799 -6.084,-3.384 -5.554,-5.774 0.531,-2.39 3.878,-3.68 7.476,-2.881 3.598,0.799 6.084,3.384 5.554,5.774 C 6.945,-0.491 3.598,0.799 0,0"
           style="fill:#da66a1;fill-opacity:1;fill-rule:nonzero;stroke:none"
           id="path1636" />
      </g>
      <g
         id="g1638"
         transform="matrix(1.3333333,0,0,-1.3333333,979.72845,331.63133)">
        <path
           d="m 0,0 c -3.153,-1.908 -4.682,-5.153 -3.415,-7.247 1.268,-2.095 4.851,-2.246 8.005,-0.338 3.153,1.908 4.682,5.152 3.414,7.247 C 6.737,1.756 3.153,1.908 0,0"
           style="fill:#da66a1;fill-opacity:1;fill-rule:nonzero;stroke:none"
           id="path1640" />
      </g>
      <g
         id="g1642"
         transform="matrix(1.3333333,0,0,-1.3333333,977.27032,321.71853)">
        <path
           d="m 0,0 c -3.508,-1.131 -5.742,-3.937 -4.991,-6.267 0.751,-2.33 4.204,-3.302 7.712,-2.171 3.507,1.131 5.742,3.937 4.991,6.267 C 6.96,0.159 3.508,1.131 0,0"
           style="fill:#da66a1;fill-opacity:1;fill-rule:nonzero;stroke:none"
           id="path1644" />
      </g>
      <g
         id="g1646"
         transform="matrix(1.3333333,0,0,-1.3333333,971.37658,312.22133)">
        <path
           d="m 0,0 c -3.217,-1.799 -4.856,-4.989 -3.661,-7.126 1.195,-2.137 4.771,-2.411 7.988,-0.612 3.217,1.799 4.856,4.989 3.661,7.126 C 6.793,1.525 3.216,1.799 0,0"
           style="fill:#da66a1;fill-opacity:1;fill-rule:nonzero;stroke:none"
           id="path1648" />
      </g>
      <g
         id="g1650"
         transform="matrix(1.3333333,0,0,-1.3333333,962.90205,304.16919)">
        <path
           d="M 0,0 C -2.472,-2.733 -3.005,-6.28 -1.189,-7.923 0.626,-9.565 4.103,-8.681 6.575,-5.947 9.047,-3.214 9.58,0.333 7.764,1.975 5.948,3.618 2.472,2.733 0,0"
           style="fill:#da66a1;fill-opacity:1;fill-rule:nonzero;stroke:none"
           id="path1652" />
      </g>
      <g
         id="g1654"
         transform="matrix(1.3333333,0,0,-1.3333333,952.79125,300.31666)">
        <path
           d="m 0,0 c -1.579,-3.33 -1.067,-6.88 1.145,-7.929 2.212,-1.049 5.286,0.8 6.865,4.13 1.58,3.33 1.067,6.88 -1.145,7.929 C 4.653,5.179 1.58,3.33 0,0"
           style="fill:#da66a1;fill-opacity:1;fill-rule:nonzero;stroke:none"
           id="path1656" />
      </g>
      <g
         id="g1658"
         transform="matrix(1.3333333,0,0,-1.3333333,982.82445,348.07999)">
        <path
           d="m 0,0 c -1.898,8.382 -4.95,16.222 -9.518,22.699 -17.283,24.503 -45.704,2.429 -57.625,-17.656 -5.294,-8.92 -8.934,-19.456 -7.041,-30.008 2.907,-16.194 16.77,-25.925 30.104,-31.043 11.773,-4.519 34.451,-11.232 42.849,3.591 1.757,3.102 2.43,6.757 2.845,10.343 C 3.122,-29.026 3.121,-13.782 0,0"
           style="fill:#362955;fill-opacity:1;fill-rule:nonzero;stroke:none"
           id="path1660" />
      </g>
      <g
         id="g1662"
         transform="matrix(1.3333333,0,0,-1.3333333,157.91087,819.69997)">
        <g
           id="g1664" />
        <g
           id="g1676">
          <g
             clip-path="url(#clipPath1668-6)"
             opacity="0.600006"
             id="g1674">
            <g
               transform="translate(604.5552,298.4025)"
               id="g1672">
              <path
                 d="m 0,0 c -3.655,0 -10.139,0.816 -20.272,4.706 -7.48,2.87 -20.36,9.54 -22.588,21.955 -1.414,7.876 2.237,16.18 5.547,21.759 7.392,12.453 20.195,22.585 28.538,22.585 2.109,0 5.333,-0.593 8.95,-5.721 C 3.544,60.507 6.107,54.307 7.794,46.854 10.269,35.929 10.766,22.418 9.192,8.809 9.057,7.642 8.699,4.543 7.827,3.004 7.319,2.107 6.125,0 0.001,0 Z"
                 style="fill:#231f20;fill-opacity:1;fill-rule:nonzero;stroke:none"
                 id="path1670" />
            </g>
          </g>
        </g>
      </g>
      <g
         id="g1678"
         transform="matrix(1.3333333,0,0,-1.3333333,1125.2089,294.05373)">
        <path
           d="M 0,0 C 1.237,1.335 3.321,1.415 4.656,0.178 5.991,-1.058 6.071,-3.143 4.834,-4.478 3.598,-5.812 1.513,-5.892 0.178,-4.656 -1.157,-3.419 -1.237,-1.335 0,0"
           style="fill:#feaa7c;fill-opacity:1;fill-rule:nonzero;stroke:none"
           id="path1680" />
      </g>
      <g
         id="g1682"
         transform="matrix(1.3333333,0,0,-1.3333333,1112.4361,277.46519)">
        <path
           d="M 0,0 C 1.759,1.899 4.724,2.013 6.623,0.254 8.522,-1.505 8.636,-4.471 6.877,-6.37 5.118,-8.269 2.153,-8.382 0.254,-6.623 -1.645,-4.864 -1.759,-1.899 0,0"
           style="fill:#feaa7c;fill-opacity:1;fill-rule:nonzero;stroke:none"
           id="path1684" />
      </g>
      <g
         id="g1686"
         transform="matrix(1.3333333,0,0,-1.3333333,1087.4659,270.68719)">
        <path
           d="M 0,0 C 2.344,2.531 6.296,2.682 8.827,0.338 11.358,-2.006 11.509,-5.958 9.165,-8.489 6.821,-11.02 2.869,-11.171 0.338,-8.827 -2.193,-6.483 -2.344,-2.531 0,0"
           style="fill:#feaa7c;fill-opacity:1;fill-rule:nonzero;stroke:none"
           id="path1688" />
      </g>
      <g
         id="g1690"
         transform="matrix(1.3333333,0,0,-1.3333333,901.93765,294.05373)">
        <path
           d="m 0,0 c -1.237,1.335 -3.321,1.415 -4.656,0.178 -1.335,-1.236 -1.415,-3.321 -0.178,-4.656 1.236,-1.334 3.321,-1.414 4.656,-0.178 C 1.157,-3.419 1.236,-1.335 0,0"
           style="fill:#feaa7c;fill-opacity:1;fill-rule:nonzero;stroke:none"
           id="path1692" />
      </g>
      <g
         id="g1694"
         transform="matrix(1.3333333,0,0,-1.3333333,914.71005,277.46519)">
        <path
           d="M 0,0 C -1.759,1.899 -4.724,2.013 -6.623,0.254 -8.522,-1.505 -8.636,-4.471 -6.877,-6.37 -5.118,-8.269 -2.153,-8.382 -0.254,-6.623 1.645,-4.864 1.759,-1.899 0,0"
           style="fill:#feaa7c;fill-opacity:1;fill-rule:nonzero;stroke:none"
           id="path1696" />
      </g>
      <g
         id="g1698"
         transform="matrix(1.3333333,0,0,-1.3333333,939.68045,270.68719)">
        <path
           d="m 0,0 c -2.344,2.531 -6.296,2.682 -8.827,0.338 -2.531,-2.344 -2.682,-6.296 -0.338,-8.827 2.344,-2.531 6.296,-2.682 8.827,-0.338 C 2.193,-6.483 2.344,-2.531 0,0"
           style="fill:#feaa7c;fill-opacity:1;fill-rule:nonzero;stroke:none"
           id="path1700" />
      </g>
      <g
         id="g1702"
         transform="matrix(1.3333333,0,0,-1.3333333,1006.6351,240.66279)">
        <path
           d="M 0,0 C 1.196,1.641 3.172,2.685 5.203,2.782 7.234,2.685 9.209,1.655 10.406,0 c 1.321,-1.795 1.669,-4.146 1.447,-6.358 -0.237,-2.212 -1.002,-4.34 -1.753,-6.427 -1.304,-3.611 -2.617,-7.23 -3.924,-10.844 -0.33,-0.912 -1.616,-0.912 -1.946,0 -1.308,3.614 -2.62,7.233 -3.924,10.844 -0.751,2.087 -1.516,4.215 -1.753,6.427 C -1.669,-4.146 -1.308,-1.795 0,0"
           style="fill:#da66a1;fill-opacity:1;fill-rule:nonzero;stroke:none"
           id="path1704" />
      </g>
      <g
         id="g1706"
         transform="matrix(1.3333333,0,0,-1.3333333,992.93405,267.97826)">
        <path
           d="M 0,0 C -0.238,0.976 -0.002,2.055 0.61,2.854 1.295,3.59 2.314,4.007 3.321,3.931 4.421,3.857 5.42,3.238 6.185,2.448 6.945,1.653 7.505,0.684 8.053,-0.266 8.814,-1.585 9.574,-2.909 10.335,-4.232 10.764,-4.978 10.026,-5.852 9.219,-5.553 7.788,-5.024 6.355,-4.495 4.927,-3.965 3.899,-3.583 2.851,-3.193 1.94,-2.576 1.033,-1.954 0.26,-1.067 0,0"
           style="fill:#da66a1;fill-opacity:1;fill-rule:nonzero;stroke:none"
           id="path1708" />
      </g>
      <g
         id="g1710"
         transform="matrix(1.3333333,0,0,-1.3333333,1034.2125,267.97826)">
        <path
           d="M 0,0 C 0.238,0.976 0.002,2.055 -0.61,2.854 -1.295,3.59 -2.314,4.007 -3.322,3.931 -4.421,3.857 -5.42,3.238 -6.185,2.448 c -0.76,-0.795 -1.32,-1.764 -1.868,-2.714 -0.761,-1.319 -1.522,-2.643 -2.282,-3.966 -0.43,-0.746 0.309,-1.62 1.116,-1.321 1.431,0.529 2.863,1.058 4.292,1.588 1.028,0.382 2.076,0.772 2.987,1.389 C -1.033,-1.954 -0.261,-1.067 0,0"
           style="fill:#da66a1;fill-opacity:1;fill-rule:nonzero;stroke:none"
           id="path1712" />
      </g>
      <g
         id="g1714"
         transform="matrix(1.3333333,0,0,-1.3333333,1045.6365,256.94119)">
        <path
           d="m 0,0 c 0,-1.979 -1.604,-3.583 -3.583,-3.583 -1.979,0 -3.583,1.604 -3.583,3.583 0,1.979 1.604,3.583 3.583,3.583 C -1.604,3.583 0,1.979 0,0"
           style="fill:#feaa7c;fill-opacity:1;fill-rule:nonzero;stroke:none"
           id="path1716" />
      </g>
      <g
         id="g1718"
         transform="matrix(1.3333333,0,0,-1.3333333,991.06418,256.94119)">
        <path
           d="m 0,0 c 0,-1.979 -1.604,-3.583 -3.583,-3.583 -1.979,0 -3.583,1.604 -3.583,3.583 0,1.979 1.604,3.583 3.583,3.583 C -1.604,3.583 0,1.979 0,0"
           style="fill:#feaa7c;fill-opacity:1;fill-rule:nonzero;stroke:none"
           id="path1720" />
      </g>
      <g
         id="g1722"
         transform="matrix(1.3333333,0,0,-1.3333333,1018.3503,226.23826)">
        <path
           d="m 0,0 c 0,-1.979 -1.604,-3.583 -3.583,-3.583 -1.979,0 -3.583,1.604 -3.583,3.583 0,1.979 1.604,3.583 3.583,3.583 C -1.604,3.583 0,1.979 0,0"
           style="fill:#feaa7c;fill-opacity:1;fill-rule:nonzero;stroke:none"
           id="path1724" />
      </g>
      <g
         id="g1726"
         transform="matrix(1.3333333,0,0,-1.3333333,1010.0645,408.58919)">
        <path
           d="M 0,0 C 0,1.453 1.178,2.632 2.632,2.632 4.085,2.632 5.263,1.453 5.263,0 5.263,-1.453 4.085,-2.632 2.632,-2.632 1.178,-2.632 0,-1.453 0,0"
           style="fill:#feaa7c;fill-opacity:1;fill-rule:nonzero;stroke:none"
           id="path1728" />
      </g>
      <g
         id="g1730"
         transform="matrix(1.3333333,0,0,-1.3333333,1010.0645,387.65839)">
        <path
           d="M 0,0 C 0,1.453 1.178,2.632 2.632,2.632 4.085,2.632 5.263,1.453 5.263,0 5.263,-1.453 4.085,-2.632 2.632,-2.632 1.178,-2.632 0,-1.453 0,0"
           style="fill:#feaa7c;fill-opacity:1;fill-rule:nonzero;stroke:none"
           id="path1732" />
      </g>
      <g
         id="g1734"
         transform="matrix(1.3333333,0,0,-1.3333333,1010.0645,366.72732)">
        <path
           d="M 0,0 C 0,1.453 1.178,2.632 2.632,2.632 4.085,2.632 5.263,1.453 5.263,0 5.263,-1.453 4.085,-2.631 2.632,-2.631 1.178,-2.631 0,-1.453 0,0"
           style="fill:#feaa7c;fill-opacity:1;fill-rule:nonzero;stroke:none"
           id="path1736" />
      </g>
      <g
         id="g1738"
         transform="matrix(1.3333333,0,0,-1.3333333,1010.0645,345.79626)">
        <path
           d="M 0,0 C 0,1.453 1.178,2.632 2.632,2.632 4.085,2.632 5.263,1.453 5.263,0 5.263,-1.453 4.085,-2.632 2.632,-2.632 1.178,-2.632 0,-1.453 0,0"
           style="fill:#feaa7c;fill-opacity:1;fill-rule:nonzero;stroke:none"
           id="path1740" />
      </g>
      <g
         id="g1742"
         transform="matrix(1.3333333,0,0,-1.3333333,1040.8375,458.62692)">
        <path
           d="M 0,0 C -0.064,0 -0.127,0.002 -0.19,0.004 -1.679,0.082 -3.417,1.1 -3.86,2.896 -4.553,5.691 -2.455,8.268 -0.115,9.052 1.993,9.763 4.172,9.411 6.278,9.068 L 6.58,9.02 c 21.654,-3.478 43.608,1.124 61.832,12.949 0.462,0.295 1.084,0.17 1.384,-0.295 C 70.097,21.209 69.965,20.589 69.5,20.288 50.863,8.196 28.403,3.496 6.263,7.043 L 5.958,7.094 C 4.093,7.395 2.161,7.707 0.522,7.156 -0.984,6.65 -2.324,5.012 -1.918,3.377 -1.718,2.566 -0.83,2.042 -0.087,2.003 0.39,1.974 0.727,2.15 0.86,2.515 1.046,3.033 1.618,3.299 2.14,3.117 2.66,2.929 2.929,2.355 2.742,1.835 2.329,0.692 1.289,0 0,0"
           style="fill:#6c59b2;fill-opacity:1;fill-rule:nonzero;stroke:none"
           id="path1744" />
      </g>
      <g
         id="g1746"
         transform="matrix(1.3333333,0,0,-1.3333333,1025.3474,307.98546)">
        <path
           d="m 0,0 c -0.553,0 -1.001,0.447 -1.001,1.001 0,12.158 7.193,19.006 14.149,25.627 4.765,4.537 9.694,9.229 12.172,15.602 3.318,8.528 -0.659,13.519 -4.579,16.206 -2.252,1.544 -4.707,2.159 -6.902,1.751 -2.31,-0.434 -4.285,-2.24 -4.914,-4.491 -0.395,-1.409 -0.188,-2.921 0.554,-4.045 0.994,-1.507 2.892,-1.868 4.251,-1.446 0.641,0.199 2.128,0.885 2.089,2.935 -0.011,0.553 0.429,1.008 0.981,1.02 0.649,0.02 1.009,-0.43 1.02,-0.981 0.044,-2.329 -1.296,-4.201 -3.497,-4.885 -2.458,-0.759 -5.138,0.166 -6.515,2.255 -1.056,1.6 -1.359,3.726 -0.81,5.686 0.828,2.969 3.43,5.347 6.472,5.918 2.726,0.514 5.707,-0.223 8.401,-2.068 3.698,-2.532 9.307,-8.315 5.314,-18.582 C 24.544,34.714 19.452,29.868 14.527,25.18 7.571,18.557 1,12.302 1,1.001 1,0.447 0.553,0 0,0"
           style="fill:#6c59b2;fill-opacity:1;fill-rule:nonzero;stroke:none"
           id="path1748" />
      </g>
      <g
         id="g1750"
         transform="matrix(1.3333333,0,0,-1.3333333,1055.4951,274.92599)">
        <path
           d="m 0,0 c -0.252,0 -0.503,0.094 -0.698,0.283 -0.395,0.385 -0.404,1.018 -0.019,1.415 8.284,8.512 19.833,18.133 35.631,16.828 3.025,-0.246 5.184,-1.124 6.419,-2.605 0.854,-1.026 1.23,-2.304 1.09,-3.698 C 42.2,10 40.337,8.11 38.183,7.92 c -2.175,-0.187 -4.284,1.368 -4.808,3.549 -0.129,0.538 0.202,1.079 0.739,1.208 0.535,0.115 1.077,-0.204 1.207,-0.739 0.292,-1.221 1.489,-2.138 2.688,-2.025 1.187,0.104 2.297,1.253 2.423,2.51 0.087,0.86 -0.128,1.606 -0.637,2.216 -0.866,1.039 -2.61,1.694 -5.043,1.893 C 19.86,17.744 9.19,9.011 0.717,0.303 0.521,0.102 0.261,0 0,0"
           style="fill:#6c59b2;fill-opacity:1;fill-rule:nonzero;stroke:none"
           id="path1752" />
      </g>
      <g
         id="g1754"
         transform="matrix(1.3333333,0,0,-1.3333333,1028.8103,322.73586)">
        <path
           d="m 0,0 c -0.072,0 -0.147,0.008 -0.22,0.024 -0.539,0.121 -0.878,0.656 -0.757,1.195 1.194,5.322 2.429,10.825 5.203,15.736 3.165,5.6 7.949,9.342 13.13,10.265 2.646,0.473 5.263,0.207 7.831,0.358 2.918,0.17 5.068,0.963 6.389,2.356 0.807,0.85 1.269,2.118 1.205,3.309 -0.034,0.629 -0.229,1.51 -0.972,2.142 -0.886,0.75 -2.338,0.836 -3.307,0.187 -0.968,-0.647 -1.444,-2.021 -1.086,-3.127 0.17,-0.525 -0.117,-1.09 -0.643,-1.26 -0.525,-0.17 -1.09,0.119 -1.26,0.643 -0.641,1.977 0.148,4.252 1.877,5.409 1.724,1.155 4.127,1.016 5.715,-0.328 1.002,-0.852 1.597,-2.117 1.674,-3.559 0.093,-1.747 -0.561,-3.539 -1.752,-4.794 -1.682,-1.772 -4.281,-2.774 -7.723,-2.976 -2.596,-0.146 -5.18,0.106 -7.596,-0.33 C 13.117,24.431 8.838,21.049 5.969,15.97 3.34,11.317 2.138,5.96 0.975,0.782 0.871,0.317 0.458,0 0,0"
           style="fill:#6c59b2;fill-opacity:1;fill-rule:nonzero;stroke:none"
           id="path1756" />
      </g>
      <g
         id="g1758"
         transform="matrix(1.3333333,0,0,-1.3333333,986.30938,458.62692)">
        <path
           d="m 0,0 c -1.289,0 -2.329,0.69 -2.743,1.835 -0.187,0.52 0.081,1.094 0.601,1.282 0.52,0.182 1.094,-0.084 1.281,-0.602 C -0.73,2.15 -0.423,1.98 0.087,2.003 0.83,2.042 1.718,2.566 1.918,3.377 2.323,5.012 0.983,6.65 -0.523,7.156 -2.162,7.707 -4.093,7.395 -5.959,7.094 L -6.264,7.043 c -22.137,-3.545 -44.598,1.155 -63.237,13.245 -0.464,0.301 -0.595,0.921 -0.295,1.386 0.302,0.465 0.922,0.59 1.384,0.295 C -50.189,10.144 -28.231,5.55 -6.581,9.02 l 0.302,0.048 C -4.172,9.409 -1.991,9.761 0.114,9.052 2.453,8.268 4.551,5.691 3.86,2.896 3.416,1.1 1.677,0.082 0.19,0.004 0.126,0.002 0.062,0 0,0"
           style="fill:#6c59b2;fill-opacity:1;fill-rule:nonzero;stroke:none"
           id="path1760" />
      </g>
      <g
         id="g1762"
         transform="matrix(1.3333333,0,0,-1.3333333,1001.7979,307.98546)">
        <path
           d="m 0,0 c -0.553,0 -1,0.447 -1,1.001 0,11.301 -6.571,17.556 -13.527,24.179 -4.925,4.688 -10.016,9.536 -12.656,16.323 -3.995,10.267 1.613,16.05 5.311,18.582 2.696,1.845 5.685,2.582 8.403,2.068 3.041,-0.571 5.642,-2.949 6.472,-5.918 0.548,-1.96 0.245,-4.086 -0.81,-5.686 -1.378,-2.089 -4.058,-3.012 -6.516,-2.255 -2.201,0.684 -3.541,2.556 -3.497,4.885 0.011,0.553 0.379,1.02 1.02,0.981 0.552,-0.012 0.992,-0.467 0.981,-1.02 -0.039,-2.05 1.448,-2.736 2.089,-2.935 1.362,-0.422 3.259,-0.061 4.252,1.446 0.741,1.124 0.948,2.636 0.554,4.045 -0.63,2.251 -2.605,4.057 -4.914,4.491 -2.167,0.404 -4.683,-0.231 -6.904,-1.751 -3.919,-2.687 -7.896,-7.678 -4.577,-16.206 2.479,-6.373 7.406,-11.065 12.171,-15.602 C -6.192,20.007 1.001,13.159 1.001,1.001 1.001,0.447 0.553,0 0,0"
           style="fill:#6c59b2;fill-opacity:1;fill-rule:nonzero;stroke:none"
           id="path1764" />
      </g>
      <g
         id="g1766"
         transform="matrix(1.3333333,0,0,-1.3333333,971.65032,274.92599)">
        <path
           d="m 0,0 c -0.261,0 -0.521,0.102 -0.717,0.303 -8.473,8.706 -19.147,17.443 -34.034,16.229 -2.434,-0.199 -4.178,-0.854 -5.044,-1.893 -0.509,-0.61 -0.724,-1.356 -0.637,-2.216 0.127,-1.257 1.237,-2.406 2.423,-2.51 1.176,-0.119 2.401,0.825 2.689,2.025 0.129,0.535 0.668,0.866 1.207,0.739 0.537,-0.129 0.868,-0.67 0.74,-1.208 -0.524,-2.181 -2.622,-3.738 -4.81,-3.549 -2.153,0.188 -4.016,2.08 -4.24,4.303 -0.14,1.394 0.236,2.672 1.09,3.698 1.235,1.481 3.394,2.359 6.42,2.605 C -19.119,19.837 -7.566,10.21 0.717,1.698 1.102,1.301 1.093,0.668 0.698,0.283 0.503,0.094 0.251,0 0,0"
           style="fill:#6c59b2;fill-opacity:1;fill-rule:nonzero;stroke:none"
           id="path1768" />
      </g>
      <g
         id="g1770"
         transform="matrix(1.3333333,0,0,-1.3333333,998.33538,322.73586)">
        <path
           d="M 0,0 C -0.458,0 -0.871,0.317 -0.975,0.782 -2.138,5.96 -3.34,11.317 -5.968,15.97 c -2.869,5.079 -7.147,8.461 -11.739,9.28 -2.416,0.434 -5.002,0.18 -7.595,0.33 -3.443,0.202 -6.042,1.204 -7.726,2.978 -1.19,1.253 -1.844,3.045 -1.751,4.792 0.078,1.442 0.672,2.707 1.674,3.559 1.585,1.344 3.989,1.483 5.715,0.328 1.728,-1.157 2.518,-3.432 1.878,-5.409 -0.17,-0.524 -0.729,-0.813 -1.259,-0.643 -0.526,0.17 -0.814,0.733 -0.644,1.26 0.357,1.106 -0.119,2.48 -1.087,3.127 -0.966,0.647 -2.419,0.565 -3.307,-0.187 -0.742,-0.632 -0.938,-1.513 -0.972,-2.14 -0.063,-1.193 0.398,-2.461 1.205,-3.311 1.322,-1.393 3.472,-2.186 6.391,-2.356 2.566,-0.149 5.186,0.117 7.83,-0.358 5.181,-0.923 9.965,-4.665 13.13,-10.265 C -1.452,12.044 -0.217,6.541 0.977,1.219 1.098,0.68 0.759,0.145 0.22,0.024 0.146,0.008 0.072,0 0,0"
           style="fill:#6c59b2;fill-opacity:1;fill-rule:nonzero;stroke:none"
           id="path1772" />
      </g>
    </g>
    <g
       inkscape:groupmode="layer"
       id="layer5"
       inkscape:label="Garigoleados 1"
       transform="matrix(0.26458333,0,0,0.26458333,-193.28105,-13.397821)"
       style="display:inline">
      <g
         id="g1214"
         transform="matrix(1.3333333,0,0,-1.3333333,808.71645,107.55746)">
        <path
           d="m 0,0 c -1.024,-3.93 -1.519,-8.294 0.017,-12.553 0.748,-2.109 2.09,-4.094 3.871,-5.611 1.774,-1.532 3.941,-2.562 6.17,-3.139 4.499,-1.122 9.171,-0.556 13.409,1.01 4.247,1.584 8.123,4.358 11.013,8.111 0.718,0.94 1.369,1.939 1.942,2.989 0.566,1.069 1.012,2.037 1.454,3.102 0.895,2.089 1.475,4.342 1.848,6.637 0.745,4.6 0.3,9.489 -1.302,13.922 -1.563,4.461 -4.222,8.421 -7.423,11.723 -3.209,3.314 -7.008,5.974 -11.152,7.959 -2.074,0.99 -4.243,1.807 -6.494,2.393 -1.121,0.298 -2.277,0.535 -3.419,0.73 -1.123,0.175 -2.251,0.329 -3.394,0.419 -4.558,0.395 -9.275,0.013 -13.759,-1.3 -9.043,-2.529 -16.743,-8.684 -21.725,-16.207 -5.032,-7.544 -7.662,-16.463 -7.682,-25.421 -0.004,-4.477 0.649,-8.984 2.076,-13.267 1.414,-4.283 3.586,-8.329 6.381,-11.856 2.783,-3.544 6.196,-6.527 9.902,-8.919 1.859,-1.206 3.787,-2.215 5.789,-3.145 2.035,-0.922 4.143,-1.658 6.276,-2.216 8.596,-2.228 17.243,-1.69 25.382,-0.529 8.177,1.198 16.055,3.102 23.879,4.659 7.805,1.54 15.637,2.851 23.279,2.37 3.805,-0.243 7.539,-0.963 10.992,-2.387 1.726,-0.707 3.379,-1.584 4.933,-2.624 1.588,-1.066 2.947,-2.154 4.113,-3.566 2.356,-2.766 3.979,-6.279 4.698,-9.933 0.736,-3.647 0.545,-7.527 -0.894,-10.878 -0.709,-1.677 -1.771,-3.177 -3.073,-4.441 -1.329,-1.223 -2.927,-2.243 -4.637,-2.899 -1.705,-0.651 -3.505,-0.906 -5.179,-0.46 -1.696,0.422 -3.27,1.437 -4.367,2.834 -1.102,1.384 -1.711,3.18 -1.585,4.941 0.138,1.773 0.912,3.591 2.138,4.92 1.202,1.346 3.028,2.085 4.748,1.59 1.707,-0.45 3.139,-1.988 3.433,-3.79 0.045,-0.271 0.301,-0.456 0.572,-0.411 0.264,0.043 0.445,0.289 0.415,0.552 -0.262,2.209 -1.886,4.181 -4.054,4.874 -1.079,0.353 -2.281,0.358 -3.375,0.026 -1.097,-0.335 -2.064,-0.974 -2.854,-1.747 -1.569,-1.568 -2.567,-3.609 -2.859,-5.835 -0.269,-2.258 0.402,-4.565 1.718,-6.395 1.319,-1.829 3.252,-3.2 5.439,-3.844 2.223,-0.687 4.62,-0.419 6.684,0.283 2.079,0.705 3.987,1.81 5.679,3.244 1.651,1.468 3.03,3.271 3.973,5.268 1.909,4.007 2.28,8.538 1.606,12.787 -0.671,4.265 -2.349,8.392 -5.072,11.881 -5.731,6.917 -14.366,10.207 -22.778,11.017 -8.468,0.789 -16.728,-0.38 -24.734,-1.69 -8.017,-1.34 -15.876,-2.972 -23.678,-3.861 -7.767,-0.879 -15.578,-1.004 -22.59,1.075 -1.747,0.517 -3.434,1.168 -5.043,1.96 -1.623,0.82 -3.246,1.73 -4.733,2.768 -2.986,2.075 -5.651,4.544 -7.738,7.426 -4.23,5.722 -6.239,12.901 -5.912,20.047 0.31,7.145 2.815,14.209 6.935,19.925 2.058,2.861 4.534,5.368 7.293,7.41 2.772,2.028 5.85,3.551 9.096,4.515 6.482,1.838 13.871,1.504 20.148,-1.224 6.386,-2.664 11.896,-7.714 14.538,-13.861 1.339,-3.068 1.878,-6.427 1.561,-9.81 -0.155,-1.692 -0.497,-3.389 -1.039,-5.065 -0.257,-0.819 -0.59,-1.714 -0.899,-2.457 -0.326,-0.752 -0.712,-1.483 -1.155,-2.188 -1.768,-2.834 -4.506,-5.163 -7.643,-6.767 -3.141,-1.586 -6.775,-2.391 -10.21,-1.949 -1.711,0.213 -3.368,0.751 -4.789,1.685 -1.427,0.925 -2.604,2.242 -3.466,3.821 C 0.97,-8.18 0.651,-4.113 0.981,-0.174 1.008,0.101 0.806,0.345 0.532,0.371 0.286,0.395 0.063,0.23 0,0"
           style="fill:#6c59b2;fill-opacity:1;fill-rule:nonzero;stroke:none"
           id="path1216" />
      </g>
      <g
         id="g1218"
         transform="matrix(1.3333333,0,0,-1.3333333,853.04752,143.88333)">
        <path
           d="m 0,0 c 7.544,5.274 9.568,11.02 10.583,16.519 2.21,11.973 12.227,7.728 10.446,0.056 C 19.075,8.162 12.517,0.772 0,0"
           style="fill:#feaa7c;fill-opacity:1;fill-rule:nonzero;stroke:none"
           id="path1220" />
      </g>
      <g
         id="g1222"
         transform="matrix(1.3333333,0,0,-1.3333333,874.58939,140.76573)">
        <path
           d="m 0,0 c 5.976,3.197 7.958,7.221 9.18,11.154 2.661,8.56 9.614,4.582 7.642,-0.872 C 14.659,4.302 9.219,-0.529 0,0"
           style="fill:#feaa7c;fill-opacity:1;fill-rule:nonzero;stroke:none"
           id="path1224" />
      </g>
      <g
         id="g1226"
         transform="matrix(1.3333333,0,0,-1.3333333,893.07525,140.09826)">
        <path
           d="m 0,0 c 4.498,1.396 6.38,3.88 7.731,6.403 2.943,5.491 7.163,1.861 5.1,-1.601 C 10.569,1.007 6.221,-1.574 0,0"
           style="fill:#feaa7c;fill-opacity:1;fill-rule:nonzero;stroke:none"
           id="path1228" />
      </g>
      <g
         id="g1230"
         transform="matrix(1.3333333,0,0,-1.3333333,809.17605,174.33333)">
        <path
           d="m 0,0 c -8.632,-3.194 -12.044,-8.241 -14.418,-13.304 -5.167,-11.025 -13.784,-4.383 -10.12,2.589 C -20.52,-3.07 -12.305,2.42 0,0"
           style="fill:#feaa7c;fill-opacity:1;fill-rule:nonzero;stroke:none"
           id="path1232" />
      </g>
      <g
         id="g1234"
         transform="matrix(1.3333333,0,0,-1.3333333,791.43512,170.99666)">
        <path
           d="m 0,0 c -6.59,-1.581 -9.526,-4.973 -11.703,-8.468 -4.741,-7.609 -10.461,-2.001 -7.173,2.777 C -15.271,-0.453 -8.785,2.844 0,0"
           style="fill:#feaa7c;fill-opacity:1;fill-rule:nonzero;stroke:none"
           id="path1236" />
      </g>
      <g
         id="g1238"
         transform="matrix(1.3333333,0,0,-1.3333333,781.03725,165.77266)">
        <path
           d="m 0,0 c -4.649,0.757 -7.441,-0.628 -9.775,-2.282 -5.083,-3.602 -7.242,1.529 -3.851,3.707 C -9.908,3.813 -4.866,4.183 0,0"
           style="fill:#feaa7c;fill-opacity:1;fill-rule:nonzero;stroke:none"
           id="path1240" />
      </g>
      <g
         id="g1242"
         transform="matrix(1.3333333,0,0,-1.3333333,823.48552,112.3312)">
        <path
           d="M 0,0 C 2.212,-2.043 5.662,-1.906 7.705,0.307 9.747,2.519 9.61,5.968 7.398,8.011 5.186,10.054 1.736,9.917 -0.306,7.704 -2.349,5.492 -2.212,2.043 0,0"
           style="fill:#fde3cb;fill-opacity:1;fill-rule:nonzero;stroke:none"
           id="path1244" />
      </g>
      <g
         id="g1246"
         transform="matrix(1.3333333,0,0,-1.3333333,915.12698,175.55133)">
        <path
           d="M 0,0 C 0.24,0.26 0.224,0.666 -0.036,0.906 -0.296,1.146 -0.702,1.13 -0.942,0.87 -1.182,0.61 -1.166,0.204 -0.906,-0.036 -0.646,-0.276 -0.24,-0.26 0,0"
           style="fill:#fde3cb;fill-opacity:1;fill-rule:nonzero;stroke:none"
           id="path1248" />
      </g>
      <g
         id="g1250"
         transform="matrix(1.3333333,0,0,-1.3333333,898.86125,170.3572)">
        <path
           d="M 0,0 C 0.412,0.446 0.385,1.142 -0.062,1.555 -0.508,1.967 -1.204,1.939 -1.616,1.493 -2.029,1.046 -2.001,0.35 -1.555,-0.062 -1.108,-0.474 -0.412,-0.446 0,0"
           style="fill:#fde3cb;fill-opacity:1;fill-rule:nonzero;stroke:none"
           id="path1252" />
      </g>
      <g
         id="g1254"
         transform="matrix(1.3333333,0,0,-1.3333333,881.62339,173.54213)">
        <path
           d="M 0,0 C 0.654,0.708 0.61,1.811 -0.098,2.465 -0.806,3.118 -1.909,3.074 -2.563,2.367 -3.216,1.659 -3.172,0.555 -2.465,-0.098 -1.757,-0.751 -0.654,-0.708 0,0"
           style="fill:#fde3cb;fill-opacity:1;fill-rule:nonzero;stroke:none"
           id="path1256" />
      </g>
      <g
         id="g1258"
         transform="matrix(1.3333333,0,0,-1.3333333,864.66259,178.33973)">
        <path
           d="M 0,0 C 0.895,0.969 0.835,2.48 -0.134,3.375 -1.103,4.27 -2.614,4.209 -3.509,3.24 -4.404,2.271 -4.344,0.761 -3.375,-0.134 -2.406,-1.029 -0.895,-0.969 0,0"
           style="fill:#fde3cb;fill-opacity:1;fill-rule:nonzero;stroke:none"
           id="path1260" />
      </g>
      <g
         id="g1262"
         transform="matrix(1.3333333,0,0,-1.3333333,847.62739,182.77213)">
        <path
           d="M 0,0 C 1.141,1.236 1.064,3.162 -0.171,4.303 -1.407,5.444 -3.333,5.367 -4.474,4.132 -5.615,2.896 -5.539,0.97 -4.303,-0.171 -3.068,-1.312 -1.141,-1.236 0,0"
           style="fill:#fde3cb;fill-opacity:1;fill-rule:nonzero;stroke:none"
           id="path1264" />
      </g>
      <g
         id="g1266"
         transform="matrix(1.3333333,0,0,-1.3333333,830.39672,186.1292)">
        <path
           d="M 0,0 C 1.4,1.516 1.306,3.88 -0.21,5.28 -1.726,6.68 -4.09,6.586 -5.49,5.07 -6.89,3.554 -6.796,1.19 -5.28,-0.21 -3.764,-1.61 -1.4,-1.516 0,0"
           style="fill:#fde3cb;fill-opacity:1;fill-rule:nonzero;stroke:none"
           id="path1268" />
      </g>
      <g
         id="g1270"
         transform="matrix(1.3333333,0,0,-1.3333333,877.26899,93.277862)">
        <path
           d="M 0,0 C 1.4,1.516 1.306,3.88 -0.21,5.28 -1.726,6.68 -4.09,6.586 -5.49,5.07 -6.89,3.554 -6.796,1.19 -5.28,-0.21 -3.764,-1.61 -1.4,-1.516 0,0"
           style="fill:#fde3cb;fill-opacity:1;fill-rule:nonzero;stroke:none"
           id="path1272" />
      </g>
      <g
         id="g1274"
         transform="matrix(1.3333333,0,0,-1.3333333,869.43339,73.956529)">
        <path
           d="M 0,0 C 1.042,1.128 0.972,2.888 -0.156,3.93 -1.285,4.972 -3.044,4.902 -4.087,3.774 -5.129,2.645 -5.059,0.886 -3.93,-0.156 -2.802,-1.199 -1.042,-1.129 0,0"
           style="fill:#fde3cb;fill-opacity:1;fill-rule:nonzero;stroke:none"
           id="path1276" />
      </g>
      <g
         id="g1278"
         transform="matrix(1.3333333,0,0,-1.3333333,853.85099,59.779063)">
        <path
           d="M 0,0 C 0.684,0.741 0.638,1.896 -0.103,2.58 -0.844,3.265 -1.999,3.219 -2.683,2.478 -3.367,1.737 -3.321,0.582 -2.58,-0.103 -1.839,-0.787 -0.684,-0.741 0,0"
           style="fill:#fde3cb;fill-opacity:1;fill-rule:nonzero;stroke:none"
           id="path1280" />
      </g>
      <g
         id="g1282"
         transform="matrix(1.3333333,0,0,-1.3333333,834.16832,52.58653)">
        <path
           d="M 0,0 C 0.326,0.353 0.305,0.904 -0.049,1.231 -0.402,1.557 -0.953,1.535 -1.279,1.182 -1.606,0.828 -1.584,0.277 -1.23,-0.049 -0.877,-0.375 -0.326,-0.353 0,0"
           style="fill:#fde3cb;fill-opacity:1;fill-rule:nonzero;stroke:none"
           id="path1284" />
      </g>
      <g
         id="g1286"
         transform="matrix(1.3333333,0,0,-1.3333333,1218.4301,107.55746)">
        <path
           d="m 0,0 c 1.024,-3.93 1.519,-8.294 -0.017,-12.553 -0.748,-2.109 -2.09,-4.094 -3.871,-5.611 -1.774,-1.532 -3.942,-2.562 -6.17,-3.139 -4.499,-1.122 -9.171,-0.556 -13.409,1.01 -4.247,1.584 -8.124,4.358 -11.013,8.111 -0.718,0.94 -1.369,1.939 -1.943,2.989 -0.565,1.069 -1.011,2.037 -1.453,3.102 -0.895,2.089 -1.475,4.342 -1.848,6.637 -0.745,4.6 -0.3,9.489 1.302,13.922 1.563,4.461 4.222,8.421 7.423,11.723 3.209,3.314 7.008,5.974 11.152,7.959 2.074,0.99 4.243,1.807 6.494,2.393 1.121,0.298 2.277,0.535 3.419,0.73 1.123,0.175 2.251,0.329 3.394,0.419 4.558,0.395 9.275,0.013 13.758,-1.3 9.044,-2.529 16.744,-8.684 21.726,-16.207 5.032,-7.544 7.662,-16.463 7.682,-25.421 0.004,-4.477 -0.649,-8.984 -2.076,-13.267 -1.414,-4.283 -3.586,-8.329 -6.381,-11.856 -2.783,-3.544 -6.196,-6.527 -9.902,-8.919 -1.859,-1.206 -3.787,-2.215 -5.789,-3.145 -2.035,-0.922 -4.143,-1.658 -6.276,-2.216 -8.596,-2.228 -17.243,-1.69 -25.382,-0.529 -8.178,1.198 -16.055,3.102 -23.879,4.659 -7.805,1.54 -15.638,2.851 -23.279,2.37 -3.805,-0.243 -7.54,-0.963 -10.992,-2.387 -1.726,-0.707 -3.379,-1.584 -4.933,-2.624 -1.588,-1.066 -2.947,-2.154 -4.113,-3.566 -2.356,-2.766 -3.979,-6.279 -4.698,-9.933 -0.736,-3.647 -0.545,-7.527 0.894,-10.878 0.709,-1.677 1.771,-3.177 3.073,-4.441 1.329,-1.223 2.927,-2.243 4.637,-2.899 1.705,-0.651 3.505,-0.906 5.179,-0.46 1.696,0.422 3.27,1.437 4.367,2.834 1.102,1.384 1.711,3.18 1.585,4.941 -0.138,1.773 -0.912,3.591 -2.138,4.92 -1.202,1.346 -3.028,2.085 -4.748,1.59 -1.707,-0.45 -3.139,-1.988 -3.433,-3.79 -0.045,-0.271 -0.301,-0.456 -0.573,-0.411 -0.263,0.043 -0.445,0.289 -0.414,0.552 0.262,2.209 1.886,4.181 4.054,4.874 1.079,0.353 2.281,0.358 3.375,0.026 1.097,-0.335 2.064,-0.974 2.853,-1.747 1.57,-1.568 2.568,-3.609 2.86,-5.835 0.269,-2.258 -0.402,-4.565 -1.718,-6.395 -1.319,-1.829 -3.252,-3.2 -5.44,-3.844 -2.223,-0.687 -4.619,-0.419 -6.683,0.283 -2.079,0.705 -3.987,1.81 -5.679,3.244 -1.651,1.468 -3.03,3.271 -3.973,5.268 -1.909,4.007 -2.28,8.538 -1.607,12.787 0.672,4.265 2.349,8.392 5.073,11.881 5.731,6.917 14.366,10.207 22.778,11.017 8.468,0.789 16.727,-0.38 24.734,-1.69 8.017,-1.34 15.876,-2.972 23.678,-3.861 7.767,-0.879 15.578,-1.004 22.59,1.075 1.747,0.517 3.434,1.168 5.043,1.96 1.623,0.82 3.246,1.73 4.733,2.768 2.986,2.075 5.651,4.544 7.738,7.426 4.23,5.722 6.239,12.901 5.912,20.047 -0.31,7.145 -2.815,14.209 -6.935,19.925 -2.058,2.861 -4.534,5.368 -7.293,7.41 -2.772,2.028 -5.85,3.551 -9.096,4.515 -6.482,1.838 -13.871,1.504 -20.148,-1.224 -6.387,-2.664 -11.896,-7.714 -14.538,-13.861 -1.34,-3.068 -1.878,-6.427 -1.561,-9.81 0.155,-1.692 0.496,-3.389 1.039,-5.065 0.257,-0.819 0.59,-1.714 0.899,-2.457 0.326,-0.752 0.712,-1.483 1.155,-2.188 1.768,-2.834 4.506,-5.163 7.643,-6.767 3.141,-1.586 6.775,-2.391 10.21,-1.949 1.711,0.213 3.368,0.751 4.789,1.685 1.427,0.925 2.603,2.242 3.466,3.821 1.724,3.192 2.043,7.259 1.713,11.198 -0.027,0.275 0.175,0.519 0.449,0.545 C -0.286,0.395 -0.063,0.23 0,0"
           style="fill:#6c59b2;fill-opacity:1;fill-rule:nonzero;stroke:none"
           id="path1288" />
      </g>
      <g
         id="g1290"
         transform="matrix(1.3333333,0,0,-1.3333333,1174.099,143.88333)">
        <path
           d="m 0,0 c -7.544,5.274 -9.568,11.02 -10.583,16.519 -2.21,11.973 -12.227,7.728 -10.446,0.056 C -19.076,8.162 -12.517,0.772 0,0"
           style="fill:#feaa7c;fill-opacity:1;fill-rule:nonzero;stroke:none"
           id="path1292" />
      </g>
      <g
         id="g1294"
         transform="matrix(1.3333333,0,0,-1.3333333,1152.557,140.76573)">
        <path
           d="m 0,0 c -5.976,3.197 -7.957,7.221 -9.18,11.154 -2.661,8.56 -9.614,4.582 -7.642,-0.872 C -14.659,4.302 -9.219,-0.529 0,0"
           style="fill:#feaa7c;fill-opacity:1;fill-rule:nonzero;stroke:none"
           id="path1296" />
      </g>
      <g
         id="g1298"
         transform="matrix(1.3333333,0,0,-1.3333333,1134.0713,140.09826)">
        <path
           d="m 0,0 c -4.498,1.396 -6.38,3.88 -7.731,6.403 -2.943,5.491 -7.163,1.861 -5.1,-1.601 C -10.569,1.007 -6.221,-1.574 0,0"
           style="fill:#feaa7c;fill-opacity:1;fill-rule:nonzero;stroke:none"
           id="path1300" />
      </g>
      <g
         id="g1302"
         transform="matrix(1.3333333,0,0,-1.3333333,1217.9705,174.33333)">
        <path
           d="m 0,0 c 8.632,-3.194 12.044,-8.241 14.418,-13.304 5.167,-11.025 13.784,-4.383 10.12,2.589 C 20.52,-3.07 12.305,2.42 0,0"
           style="fill:#feaa7c;fill-opacity:1;fill-rule:nonzero;stroke:none"
           id="path1304" />
      </g>
      <g
         id="g1306"
         transform="matrix(1.3333333,0,0,-1.3333333,1235.7113,170.99666)">
        <path
           d="m 0,0 c 6.59,-1.581 9.526,-4.973 11.703,-8.468 4.741,-7.609 10.461,-2.001 7.173,2.777 C 15.271,-0.453 8.785,2.844 0,0"
           style="fill:#feaa7c;fill-opacity:1;fill-rule:nonzero;stroke:none"
           id="path1308" />
      </g>
      <g
         id="g1310"
         transform="matrix(1.3333333,0,0,-1.3333333,1246.1093,165.77266)">
        <path
           d="m 0,0 c 4.648,0.757 7.441,-0.628 9.775,-2.282 5.083,-3.602 7.242,1.529 3.851,3.707 C 9.908,3.813 4.866,4.183 0,0"
           style="fill:#feaa7c;fill-opacity:1;fill-rule:nonzero;stroke:none"
           id="path1312" />
      </g>
      <g
         id="g1314"
         transform="matrix(1.3333333,0,0,-1.3333333,1203.6609,112.3312)">
        <path
           d="M 0,0 C -2.212,-2.043 -5.662,-1.906 -7.705,0.307 -9.747,2.519 -9.61,5.968 -7.398,8.011 -5.186,10.054 -1.736,9.917 0.307,7.704 2.349,5.492 2.212,2.043 0,0"
           style="fill:#fde3cb;fill-opacity:1;fill-rule:nonzero;stroke:none"
           id="path1316" />
      </g>
      <g
         id="g1318"
         transform="matrix(1.3333333,0,0,-1.3333333,1112.0194,175.55133)">
        <path
           d="M 0,0 C -0.24,0.26 -0.224,0.666 0.036,0.906 0.296,1.146 0.702,1.13 0.942,0.87 1.182,0.61 1.166,0.204 0.906,-0.036 0.646,-0.276 0.24,-0.26 0,0"
           style="fill:#fde3cb;fill-opacity:1;fill-rule:nonzero;stroke:none"
           id="path1320" />
      </g>
      <g
         id="g1322"
         transform="matrix(1.3333333,0,0,-1.3333333,1128.2851,170.3572)">
        <path
           d="M 0,0 C -0.412,0.446 -0.385,1.142 0.062,1.555 0.508,1.967 1.204,1.939 1.616,1.493 2.029,1.046 2.001,0.35 1.555,-0.062 1.108,-0.474 0.412,-0.446 0,0"
           style="fill:#fde3cb;fill-opacity:1;fill-rule:nonzero;stroke:none"
           id="path1324" />
      </g>
      <g
         id="g1326"
         transform="matrix(1.3333333,0,0,-1.3333333,1145.5231,173.54213)">
        <path
           d="M 0,0 C -0.654,0.708 -0.61,1.811 0.098,2.465 0.806,3.118 1.909,3.074 2.563,2.367 3.216,1.659 3.172,0.555 2.465,-0.098 1.757,-0.751 0.654,-0.708 0,0"
           style="fill:#fde3cb;fill-opacity:1;fill-rule:nonzero;stroke:none"
           id="path1328" />
      </g>
      <g
         id="g1330"
         transform="matrix(1.3333333,0,0,-1.3333333,1162.4839,178.33973)">
        <path
           d="M 0,0 C -0.895,0.969 -0.835,2.48 0.134,3.375 1.103,4.27 2.614,4.209 3.509,3.24 4.404,2.271 4.344,0.761 3.375,-0.134 2.406,-1.029 0.895,-0.969 0,0"
           style="fill:#fde3cb;fill-opacity:1;fill-rule:nonzero;stroke:none"
           id="path1332" />
      </g>
      <g
         id="g1334"
         transform="matrix(1.3333333,0,0,-1.3333333,1179.5191,182.77213)">
        <path
           d="M 0,0 C -1.141,1.236 -1.064,3.162 0.171,4.303 1.407,5.444 3.333,5.367 4.474,4.132 5.615,2.896 5.539,0.97 4.303,-0.171 3.067,-1.312 1.141,-1.236 0,0"
           style="fill:#fde3cb;fill-opacity:1;fill-rule:nonzero;stroke:none"
           id="path1336" />
      </g>
      <g
         id="g1338"
         transform="matrix(1.3333333,0,0,-1.3333333,1196.7497,186.1292)">
        <path
           d="M 0,0 C -1.4,1.516 -1.306,3.88 0.21,5.28 1.726,6.68 4.09,6.586 5.49,5.07 6.89,3.554 6.796,1.19 5.28,-0.21 3.764,-1.61 1.4,-1.516 0,0"
           style="fill:#fde3cb;fill-opacity:1;fill-rule:nonzero;stroke:none"
           id="path1340" />
      </g>
      <g
         id="g1342"
         transform="matrix(1.3333333,0,0,-1.3333333,1149.8774,93.277862)">
        <path
           d="M 0,0 C -1.4,1.516 -1.306,3.88 0.21,5.28 1.726,6.68 4.09,6.586 5.49,5.07 6.89,3.554 6.796,1.19 5.28,-0.21 3.764,-1.61 1.4,-1.516 0,0"
           style="fill:#fde3cb;fill-opacity:1;fill-rule:nonzero;stroke:none"
           id="path1344" />
      </g>
      <g
         id="g1346"
         transform="matrix(1.3333333,0,0,-1.3333333,1157.7131,73.956529)">
        <path
           d="M 0,0 C -1.042,1.128 -0.972,2.888 0.156,3.93 1.285,4.972 3.044,4.902 4.087,3.774 5.129,2.645 5.059,0.886 3.93,-0.156 2.802,-1.199 1.042,-1.129 0,0"
           style="fill:#fde3cb;fill-opacity:1;fill-rule:nonzero;stroke:none"
           id="path1348" />
      </g>
      <g
         id="g1350"
         transform="matrix(1.3333333,0,0,-1.3333333,1173.2954,59.779063)">
        <path
           d="M 0,0 C -0.684,0.741 -0.638,1.896 0.103,2.58 0.844,3.265 1.999,3.219 2.683,2.478 3.367,1.737 3.321,0.582 2.581,-0.103 1.839,-0.787 0.684,-0.741 0,0"
           style="fill:#fde3cb;fill-opacity:1;fill-rule:nonzero;stroke:none"
           id="path1352" />
      </g>
      <g
         id="g1354"
         transform="matrix(1.3333333,0,0,-1.3333333,1192.9781,52.58653)">
        <path
           d="M 0,0 C -0.326,0.353 -0.304,0.904 0.049,1.231 0.402,1.557 0.953,1.535 1.28,1.182 1.606,0.828 1.584,0.277 1.231,-0.049 0.877,-0.375 0.326,-0.353 0,0"
           style="fill:#fde3cb;fill-opacity:1;fill-rule:nonzero;stroke:none"
           id="path1356" />
      </g>
    </g>
  </g>
</svg>
