<?xml version="1.0" encoding="UTF-8" standalone="no"?>
<!-- Created with Inkscape (http://www.inkscape.org/) -->

<svg
   version="1.1"
   id="svg19012"
   width="802.40936"
   height="386.04144"
   viewBox="0 0 802.40936 386.04144"
   sodipodi:docname="Kana-Logotipo-grises.svg"
   xmlns:inkscape="http://www.inkscape.org/namespaces/inkscape"
   xmlns:sodipodi="http://sodipodi.sourceforge.net/DTD/sodipodi-0.dtd"
   xmlns="http://www.w3.org/2000/svg"
   xmlns:svg="http://www.w3.org/2000/svg">
  <sodipodi:namedview
     id="namedview3765"
     pagecolor="#ffffff"
     bordercolor="#000000"
     borderopacity="0.25"
     inkscape:showpageshadow="2"
     inkscape:pageopacity="0.0"
     inkscape:pagecheckerboard="0"
     inkscape:deskcolor="#d1d1d1"
     showgrid="false" />
  <defs
     id="defs19016">
    <clipPath
       clipPathUnits="userSpaceOnUse"
       id="clipPath19028">
      <path
         d="M 0,612 H 792 V 0 H 0 Z"
         id="path19026" />
    </clipPath>
  </defs>
  <g
     id="g19020"
     transform="matrix(1.3333333,0,0,-1.3333333,-255.71492,554.84881)">
    <rect
       style="display:none;fill:#333333;fill-opacity:1;stroke-width:0.22747"
       id="rect21863"
       width="396"
       height="187.5"
       x="96.689194"
       y="-577.37085"
       transform="scale(1,-1)" />
    <g
       id="g19022"
       transform="translate(95.097002,-161.23426)">
      <g
         id="g19024"
         clip-path="url(#clipPath19028)">
        <g
           id="g19030"
           transform="translate(102.49422,310.84628)"
           style="fill:#ffffff;fill-opacity:1">
          <path
             d="m 0,0 c -0.605,-0.132 -1.17,-0.381 -1.695,-0.744 -0.526,-0.363 -0.983,-0.818 -1.373,-1.363 -0.39,-0.546 -0.696,-1.175 -0.92,-1.882 -0.222,-0.711 -0.334,-1.473 -0.336,-2.286 -0.001,-1.152 0.189,-2.199 0.57,-3.141 0.381,-0.94 0.944,-1.743 1.691,-2.405 0.745,-0.662 1.677,-1.173 2.793,-1.533 1.117,-0.359 2.416,-0.541 3.897,-0.542 1.482,-0.003 2.788,0.174 3.917,0.53 1.131,0.358 2.079,0.865 2.845,1.526 0.767,0.66 1.348,1.454 1.745,2.382 0.396,0.927 0.595,1.962 0.597,3.103 0.002,1.723 -0.388,3.143 -1.17,4.261 -0.782,1.118 -1.926,1.812 -3.432,2.08 l 0.002,1.511 c 0.963,-0.147 1.823,-0.445 2.582,-0.896 0.758,-0.45 1.397,-1.014 1.914,-1.695 0.518,-0.682 0.912,-1.464 1.182,-2.35 0.27,-0.887 0.405,-1.846 0.403,-2.877 -0.002,-1.408 -0.254,-2.673 -0.756,-3.794 -0.501,-1.122 -1.209,-2.077 -2.124,-2.864 -0.915,-0.787 -2.023,-1.393 -3.327,-1.816 -1.302,-0.423 -2.763,-0.632 -4.38,-0.63 -1.604,0.002 -3.049,0.216 -4.332,0.644 -1.283,0.426 -2.378,1.037 -3.284,1.834 -0.906,0.795 -1.602,1.754 -2.088,2.878 -0.486,1.124 -0.729,2.383 -0.726,3.779 10e-4,0.958 0.144,1.871 0.43,2.739 0.285,0.867 0.684,1.647 1.197,2.337 0.513,0.691 1.126,1.273 1.836,1.745 0.711,0.473 1.492,0.799 2.344,0.98 z"
             style="fill:#ffffff;fill-opacity:1;fill-rule:nonzero;stroke:none"
             id="path19032" />
        </g>
        <g
           id="g19034"
           transform="translate(116.26562,332.57068)"
           style="fill:#ffffff;fill-opacity:1">
          <path
             d="m 0,0 c 0.002,1.141 -0.197,2.194 -0.597,3.159 -0.4,0.965 -0.988,1.801 -1.765,2.506 -0.777,0.705 -1.73,1.252 -2.859,1.642 -1.128,0.39 -2.415,0.587 -3.859,0.589 -1.457,0.001 -2.741,-0.194 -3.853,-0.586 -1.112,-0.394 -2.047,-0.937 -2.808,-1.635 -0.76,-0.697 -1.335,-1.521 -1.726,-2.474 -0.39,-0.951 -0.585,-1.992 -0.587,-3.121 -0.002,-1.153 0.194,-2.211 0.588,-3.177 0.393,-0.965 0.969,-1.801 1.728,-2.506 0.758,-0.704 1.692,-1.255 2.802,-1.651 1.111,-0.396 2.388,-0.595 3.832,-0.596 1.445,-0.003 2.732,0.189 3.862,0.576 1.131,0.386 2.085,0.928 2.864,1.625 0.778,0.697 1.369,1.527 1.772,2.492 C -0.204,-2.194 -0.002,-1.141 0,0 m -19.536,0.047 c 0.002,1.359 0.251,2.615 0.747,3.767 0.495,1.151 1.2,2.143 2.115,2.973 0.915,0.829 2.014,1.477 3.299,1.943 1.285,0.465 2.716,0.696 4.297,0.694 1.567,-0.002 3,-0.235 4.295,-0.698 1.295,-0.462 2.409,-1.111 3.34,-1.942 C -0.512,5.95 0.209,4.961 0.719,3.813 1.229,2.664 1.484,1.4 1.482,0.016 1.48,-1.367 1.221,-2.636 0.708,-3.788 0.194,-4.94 -0.527,-5.931 -1.454,-6.76 -2.381,-7.59 -3.493,-8.235 -4.79,-8.695 c -1.297,-0.46 -2.735,-0.687 -4.316,-0.685 -1.592,0.001 -3.03,0.238 -4.313,0.708 -1.283,0.468 -2.378,1.121 -3.285,1.961 -0.905,0.839 -1.604,1.831 -2.096,2.979 -0.492,1.148 -0.738,2.407 -0.736,3.779"
             style="fill:#ffffff;fill-opacity:1;fill-rule:nonzero;stroke:none"
             id="path19036" />
        </g>
        <g
           id="g19038"
           transform="translate(116.30832,361.97828)"
           style="fill:#ffffff;fill-opacity:1">
          <path
             d="M 0,0 C 0.002,1.141 -0.197,2.194 -0.596,3.159 -0.997,4.124 -1.585,4.96 -2.362,5.665 -3.139,6.37 -4.091,6.917 -5.22,7.307 -6.349,7.697 -7.636,7.894 -9.08,7.896 -10.537,7.897 -11.821,7.702 -12.932,7.31 -14.044,6.916 -14.98,6.373 -15.74,5.675 -16.501,4.978 -17.076,4.154 -17.466,3.201 -17.856,2.25 -18.052,1.209 -18.054,0.08 c -0.001,-1.153 0.194,-2.211 0.588,-3.177 0.394,-0.965 0.97,-1.801 1.728,-2.506 0.758,-0.704 1.692,-1.255 2.802,-1.651 1.111,-0.396 2.389,-0.595 3.833,-0.596 1.445,-0.003 2.731,0.189 3.861,0.576 1.131,0.386 2.085,0.928 2.864,1.625 0.779,0.697 1.369,1.527 1.772,2.492 C -0.204,-2.194 -0.001,-1.141 0,0 m -19.536,0.047 c 0.002,1.359 0.252,2.615 0.747,3.767 0.495,1.151 1.2,2.143 2.115,2.973 0.915,0.829 2.015,1.477 3.299,1.943 1.285,0.465 2.717,0.696 4.297,0.694 1.568,-0.002 3,-0.235 4.295,-0.698 1.296,-0.462 2.409,-1.111 3.34,-1.942 C -0.512,5.95 0.209,4.961 0.719,3.813 1.229,2.664 1.484,1.4 1.482,0.016 1.48,-1.367 1.221,-2.636 0.708,-3.788 0.194,-4.94 -0.527,-5.931 -1.454,-6.76 c -0.927,-0.83 -2.039,-1.475 -3.335,-1.935 -1.297,-0.46 -2.736,-0.687 -4.317,-0.685 -1.592,0.001 -3.03,0.238 -4.313,0.708 -1.283,0.468 -2.378,1.121 -3.285,1.961 -0.905,0.839 -1.604,1.831 -2.096,2.979 -0.492,1.148 -0.738,2.407 -0.736,3.779"
             style="fill:#ffffff;fill-opacity:1;fill-rule:nonzero;stroke:none"
             id="path19040" />
        </g>
        <g
           id="g19042"
           transform="translate(107.41612,384.44388)"
           style="fill:#ffffff;fill-opacity:1">
          <path
             d="m 0,0 0.009,6.026 c 0.002,1.02 -0.096,1.887 -0.292,2.604 -0.197,0.716 -0.486,1.302 -0.868,1.758 -0.382,0.456 -0.854,0.787 -1.415,0.994 -0.562,0.207 -1.213,0.312 -1.954,0.313 -0.901,10e-4 -1.629,-0.152 -2.186,-0.462 C -7.261,10.925 -7.691,10.506 -7.994,9.98 -8.297,9.452 -8.499,8.841 -8.598,8.151 -8.699,7.459 -8.749,6.732 -8.751,5.967 L -8.759,0.014 Z m -10.242,-1.44 0.01,7.245 c 0.002,0.97 0.083,1.904 0.245,2.803 0.162,0.898 0.456,1.69 0.883,2.374 0.427,0.686 1.005,1.23 1.734,1.636 0.729,0.404 1.656,0.605 2.778,0.604 1.988,-0.004 3.499,-0.619 4.534,-1.854 C 0.978,10.136 1.494,8.337 1.49,5.971 l -0.009,-5.972 8.555,-0.013 -0.002,-1.455 z"
             style="fill:#ffffff;fill-opacity:1;fill-rule:nonzero;stroke:none"
             id="path19044" />
        </g>
        <g
           id="g19046"
           transform="translate(117.50992,423.64958)"
           style="fill:#ffffff;fill-opacity:1">
          <path
             d="m 0,0 -0.021,-14.4 -20.277,0.028 0.021,13.908 1.481,-0.001 -0.019,-12.451 7.5,-0.011 0.017,11.669 1.482,-0.003 -0.017,-11.669 8.333,-0.012 0.019,12.943 z"
             style="fill:#ffffff;fill-opacity:1;fill-rule:nonzero;stroke:none"
             id="path19048" />
        </g>
        <g
           id="g19050"
           transform="translate(106.90012,436.94458)"
           style="fill:#ffffff;fill-opacity:1">
          <path
             d="m 0,0 0.011,6.917 c 0.001,0.983 -0.072,1.827 -0.219,2.531 -0.148,0.704 -0.39,1.284 -0.729,1.74 -0.339,0.455 -0.78,0.792 -1.323,1.012 -0.543,0.219 -1.209,0.329 -1.999,0.33 C -5.654,12.533 -6.651,12.1 -7.251,11.233 -7.852,10.366 -8.153,9.072 -8.155,7.348 L -8.166,0.012 Z M 10.651,14.53 10.648,12.927 5.257,10.951 C 4.738,10.758 4.25,10.543 3.793,10.307 3.336,10.07 2.937,9.796 2.597,9.48 2.257,9.164 1.988,8.804 1.79,8.398 1.592,7.991 1.492,7.515 1.492,6.969 l -0.011,-6.971 9.148,-0.013 -0.002,-1.456 -20.277,0.028 0.013,8.974 c 0.002,0.838 0.08,1.648 0.236,2.43 0.156,0.784 0.431,1.482 0.827,2.093 0.396,0.612 0.943,1.1 1.641,1.462 0.698,0.363 1.59,0.544 2.676,0.542 0.679,-10e-4 1.312,-0.082 1.898,-0.247 0.586,-0.166 1.11,-0.415 1.573,-0.749 0.462,-0.335 0.857,-0.759 1.183,-1.275 0.326,-0.518 0.563,-1.122 0.711,-1.813 0.296,0.375 0.58,0.684 0.852,0.928 0.273,0.241 0.563,0.45 0.871,0.626 0.31,0.174 0.649,0.333 1.02,0.473 0.371,0.137 0.796,0.298 1.278,0.479 z"
             style="fill:#ffffff;fill-opacity:1;fill-rule:nonzero;stroke:none"
             id="path19052" />
        </g>
        <g
           id="g19054"
           transform="translate(109.89972,474.46668)"
           style="fill:#ffffff;fill-opacity:1">
          <path
             d="M 0,0 -11.284,-4.608 -0.014,-9.01 Z M 7.691,4.594 7.688,2.847 1.167,0.416 1.153,-9.395 c 1.024,-0.353 2.106,-0.738 3.248,-1.151 1.141,-0.415 2.23,-0.811 3.266,-1.188 l -0.002,-1.548 c -1.752,0.658 -3.466,1.307 -5.145,1.946 -1.677,0.64 -3.347,1.276 -5.006,1.91 -1.659,0.633 -3.329,1.269 -5.007,1.909 -1.678,0.64 -3.387,1.288 -5.126,1.947 l 0.003,2.056 z"
             style="fill:#ffffff;fill-opacity:1;fill-rule:nonzero;stroke:none"
             id="path19056" />
        </g>
        <g
           id="g19058"
           transform="translate(98.830819,503.28898)"
           style="fill:#ffffff;fill-opacity:1">
          <path
             d="M 0,0 -0.011,-6.972 18.785,-7 l -0.002,-1.456 -18.795,0.027 -0.01,-6.898 -1.481,0.003 0.022,15.326 z"
             style="fill:#ffffff;fill-opacity:1;fill-rule:nonzero;stroke:none"
             id="path19060" />
        </g>
        <g
           id="g19062"
           transform="translate(117.64542,516.30428)"
           style="fill:#ffffff;fill-opacity:1">
          <path
             d="m 0,0 -0.002,-1.456 -20.277,0.03 0.002,1.456 z"
             style="fill:#ffffff;fill-opacity:1;fill-rule:nonzero;stroke:none"
             id="path19064" />
        </g>
        <g
           id="g19066"
           transform="translate(97.410219,545.06908)"
           style="fill:#ffffff;fill-opacity:1">
          <path
             d="m 0,0 20.265,-7.839 -0.003,-1.875 -20.287,-7.78 0.002,1.62 18.435,7.109 -18.414,7.163 z"
             style="fill:#ffffff;fill-opacity:1;fill-rule:nonzero;stroke:none"
             id="path19068" />
        </g>
        <g
           id="g19070"
           transform="translate(110.03452,566.90358)"
           style="fill:#ffffff;fill-opacity:1">
          <path
             d="M 0,0 -11.284,-4.607 -0.013,-9.011 Z M 7.691,4.594 7.689,2.847 1.167,0.416 1.153,-9.395 c 1.024,-0.354 2.106,-0.738 3.248,-1.151 1.141,-0.415 2.23,-0.811 3.266,-1.189 l -0.002,-1.547 c -1.752,0.658 -3.466,1.307 -5.145,1.946 -1.677,0.64 -3.347,1.276 -5.006,1.91 -1.659,0.633 -3.328,1.27 -5.007,1.91 -1.677,0.64 -3.387,1.288 -5.126,1.946 l 0.003,2.057 z"
             style="fill:#ffffff;fill-opacity:1;fill-rule:nonzero;stroke:none"
             id="path19072" />
        </g>
        <g
           id="g19074"
           transform="translate(203.18082,577.37088)">
          <path
             d="M 0,0 H -56.254 L 0,-0.03 Z"
             style="fill:#b02326;fill-opacity:1;fill-rule:nonzero;stroke:none"
             id="path19076" />
        </g>
        <g
           id="g19078"
           transform="translate(147.05092,293.66308)"
           style="fill:#ffffff">
          <path
             d="m 0,0 55.995,-0.632 14.924,0.354 c 7.396,0 10.169,1.85 10.631,6.47 0.462,5.084 -1.387,7.857 -6.932,10.167 C 66.761,20.981 58.904,25.603 56.13,29.3 v 74.663 C 11.503,55.982 -0.125,-0.278 -0.125,-0.278 Z"
             style="fill:#e6e6e6;fill-opacity:1;fill-rule:nonzero;stroke:none"
             id="path19080" />
        </g>
        <g
           id="g19082"
           transform="translate(205.92472,400.51878)"
           style="fill:#808080">
          <path
             d="m 0,0 7.425,1.013 c 15.713,0 24.957,-6.007 45.753,-61.467 14.327,-38.359 33.739,-52.225 63.317,-52.225 26.805,0 44.829,15.712 49.913,34.2 1.848,6.007 -2.772,9.704 -11.09,9.704 -0.464,0 0,0.464 -3.236,-4.62 -2.312,-5.084 -7.857,-8.321 -13.866,-8.321 -13.864,0 -22.646,17.565 -36.51,49.915 -24.957,57.77 -36.049,61.005 -62.854,61.469 l 7.259,6.19 C 27.899,25.536 12.678,13.134 0,0"
             style="fill:#808080;fill-opacity:1;fill-rule:nonzero;stroke:none"
             id="path19084" />
        </g>
        <g
           id="g19086"
           transform="translate(630.51772,336.91988)">
          <path
             d="M 0,0 C 3.148,0 6.184,0.276 9.116,0.813 4.129,0.542 -0.73,0.364 -5.467,0.27 -3.676,0.09 -1.854,0 0,0"
             style="fill:#b02326;fill-opacity:1;fill-rule:nonzero;stroke:none"
             id="path19088" />
        </g>
        <g
           id="g19090"
           transform="translate(402.88722,373.63758)"
           style="fill:#b3b3b3">
          <path
             d="m 0,0 c -5.948,-6.286 -13.437,-9.428 -22.468,-9.428 -8.75,0 -16.116,3.194 -22.102,9.586 -5.984,6.389 -8.975,14.538 -8.975,24.44 0,9.832 2.94,17.891 8.819,24.177 5.88,6.285 13.264,9.429 22.154,9.429 9.1,0 16.624,-3.092 22.572,-9.271 C 5.95,42.752 8.926,34.675 8.926,24.703 8.926,14.52 5.95,6.285 0,0 M 13.349,81.801 H 7.661 V 69.159 c -5.122,5.197 -10.699,9.095 -16.731,11.694 -6.034,2.597 -12.486,3.898 -19.36,3.898 -14.942,0 -27.638,-5.654 -38.091,-16.961 -10.452,-11.309 -15.678,-25.81 -15.678,-43.508 0,-17.065 5.4,-31.34 16.203,-42.822 10.803,-11.484 23.606,-17.226 38.407,-17.226 6.595,0 12.714,1.177 18.361,3.53 5.647,2.352 11.276,6.197 16.889,11.535 v -12.115 h 5.688 v -0.05 H 40.39 V 81.877 H 13.349 Z"
             style="fill:#b3b3b3;fill-opacity:1;fill-rule:nonzero;stroke:none"
             id="path19092" />
        </g>
        <g
           id="g19094"
           transform="translate(529.96292,340.91358)"
           style="fill:#b3b3b3">
          <path
             d="m 0,0 h 30.421 l 2.152,-0.043 V 0.843 C 20.542,3.068 9.726,6.016 0,9.516 Z"
             style="fill:#b3b3b3;fill-opacity:1;fill-rule:nonzero;stroke:none"
             id="path19096" />
        </g>
        <g
           id="g19098"
           transform="translate(456.63572,410.16738)"
           style="fill:#808080">
          <path
             d="m 0,0 v -69.243 h 2.313 v -0.011 h 30.42 v 31.206 C 17.145,-26.123 6.827,-12.618 0,0"
             style="fill:#808080;fill-opacity:1;fill-rule:nonzero;stroke:none"
             id="path19100" />
        </g>
        <g
           id="g19102"
           transform="translate(203.18082,397.62618)">
          <path
             d="M 0,0 C 0.9,0.968 1.817,1.932 2.744,2.893 L 0,2.518 Z"
             style="fill:#98202a;fill-opacity:1;fill-rule:nonzero;stroke:none"
             id="path19104" />
        </g>
        <g
           id="g19106"
           transform="translate(330.73862,498.58558)"
           style="fill:#b3b3b3">
          <path
             d="m 0,0 c 6.47,2.774 8.78,5.084 8.78,9.706 0,3.696 -3.235,5.546 -12.477,5.546 -20.798,-0.463 -46.216,-0.463 -70.249,0 -8.781,0 -12.479,-2.311 -12.479,-6.009 0,-3.697 3.235,-6.008 13.404,-7.856 17.099,-3.236 23.57,-14.789 7.855,-29.579 l -62.392,-56.385 V 78.755 l -56.254,0.03 v -0.523 -39.349 -215.477 -28.637 c 0,0 11.628,56.26 56.254,104.242 v 2.518 l 2.744,0.374 c 12.678,13.134 27.899,25.536 46.111,35.858 l 52.36,44.647 C -22.646,-14.789 -12.016,-5.084 0,0"
             style="fill:#b3b3b3;fill-opacity:1;fill-rule:nonzero;stroke:none"
             id="path19108" />
        </g>
        <g
           id="g19110"
           transform="translate(616.28182,466.75968)"
           style="fill:#e6e6e6">
          <path
             d="M 0,0 C 2.554,-3.284 4.744,-3.649 8.757,-2.19 L 52.175,13.864 C 63.851,18.243 67.133,29.918 56.188,39.769 45.608,49.62 37.946,47.795 26.999,36.12 L 2.19,9.851 C -2.188,5.108 -2.188,2.554 -0.364,0.364 Z"
             style="fill:#e6e6e6;fill-opacity:1;fill-rule:nonzero;stroke:none"
             id="path19112" />
        </g>
        <g
           id="g19114"
           transform="translate(550.77412,447.74378)"
           style="fill:#e6e6e6">
          <path
             d="m 0,0 c -6.406,5.721 -14.063,8.582 -22.969,8.582 -6.852,0 -13.601,-1.798 -20.246,-5.396 -6.646,-3.597 -12.71,-9.747 -18.19,-18.447 V 6.013 h -30.42 V 6.009 h -2.313 v -43.585 c 6.827,-12.618 17.145,-26.123 32.733,-38.049 v 39.81 c 5.275,8.083 10.174,13.514 14.696,16.289 4.522,2.775 8.872,4.162 13.052,4.162 2.397,0 4.574,-0.566 6.526,-1.695 1.953,-1.131 3.495,-2.793 4.625,-4.985 1.131,-2.194 1.695,-6.371 1.695,-12.537 v -62.733 c 9.726,-3.5 20.542,-6.448 32.573,-8.673 v 78.701 C 11.762,-14.953 6.406,-5.721 0,0"
             style="fill:#e6e6e6;fill-opacity:1;fill-rule:nonzero;stroke:none"
             id="path19116" />
        </g>
        <g
           id="g19118"
           transform="translate(616.42232,467.30738)"
           style="fill:#b3b3b3">
          <path
             d="m 0,0 c 0.072,-0.093 -0.325,-0.425 -0.246,-0.517 l 0.37,-0.358 c 2.609,-3.24 4.804,-3.569 8.793,-2.043 l 43.296,16.131 c 10.468,3.957 14.681,14.361 5.425,24.51 z"
             style="fill:#b3b3b3;fill-opacity:1;fill-rule:nonzero;stroke:none"
             id="path19120" />
        </g>
        <g
           id="g19122"
           transform="translate(635.63822,363.25738)"
           style="fill:#e6e6e6">
          <path
             d="m 0,0 c -8.75,0 -16.116,3.194 -22.102,9.586 -5.984,6.389 -8.975,14.538 -8.975,24.44 0,9.832 2.94,17.891 8.819,24.177 5.881,6.285 13.264,9.429 22.154,9.429 9.1,0 16.624,-3.092 22.572,-9.271 5.95,-6.181 8.926,-14.258 8.926,-24.23 0,-7.744 -1.732,-14.354 -5.173,-19.844 15.209,16.748 28.404,40.764 36.217,75.135 0.142,0.624 0.282,1.252 0.42,1.883 H 35.817 V 91.229 H 30.129 V 78.587 c -5.122,5.197 -10.699,9.095 -16.731,11.694 -6.034,2.597 -12.486,3.898 -19.36,3.898 -14.942,0 -27.638,-5.654 -38.091,-16.961 -10.452,-11.309 -15.678,-25.81 -15.678,-43.508 0,-17.065 5.4,-31.34 16.203,-42.822 4.057,-4.313 8.398,-7.81 13.019,-10.503 14.55,3.642 30.851,10.611 46.029,23.529 C 10.984,1.31 5.813,0 0,0"
             style="fill:#e6e6e6;fill-opacity:1;fill-rule:nonzero;stroke:none"
             id="path19124" />
        </g>
        <g
           id="g19126"
           transform="translate(698.07602,452.67958)"
           style="fill:#808080">
          <path
             d="m 0,0 c -7.813,-34.371 -21.008,-58.387 -36.217,-75.135 -1.084,-1.729 -2.328,-3.354 -3.753,-4.859 -2.119,-2.24 -4.438,-4.072 -6.948,-5.514 -15.178,-12.918 -31.479,-19.888 -46.028,-23.529 6.143,-3.58 12.782,-5.734 19.921,-6.452 4.737,0.093 9.596,0.272 14.583,0.542 3.209,0.587 6.293,1.487 9.245,2.716 5.646,2.353 11.275,6.198 16.888,11.536 v -12.115 h 5.688 v -0.05 H 0.42 v 4.555 V 1.882 C 0.282,1.252 0.142,0.624 0,0"
             style="fill:#808080;fill-opacity:1;fill-rule:nonzero;stroke:none"
             id="path19128" />
        </g>
      </g>
    </g>
  </g>
</svg>
