<?xml version="1.0" encoding="UTF-8" standalone="no"?>
<!-- Created with Inkscape (http://www.inkscape.org/) -->

<svg
   width="1280"
   height="40"
   viewBox="0 0 338.66666 10.583333"
   version="1.1"
   id="svg5"
   xml:space="preserve"
   xmlns:inkscape="http://www.inkscape.org/namespaces/inkscape"
   xmlns:sodipodi="http://sodipodi.sourceforge.net/DTD/sodipodi-0.dtd"
   xmlns="http://www.w3.org/2000/svg"
   xmlns:svg="http://www.w3.org/2000/svg"><sodipodi:namedview
     id="namedview7"
     pagecolor="#ffffff"
     bordercolor="#000000"
     borderopacity="0.25"
     inkscape:showpageshadow="2"
     inkscape:pageopacity="0.0"
     inkscape:pagecheckerboard="0"
     inkscape:deskcolor="#d1d1d1"
     inkscape:document-units="mm"
     showgrid="false" /><defs
     id="defs2"><inkscape:path-effect
       effect="fillet_chamfer"
       id="path-effect2993"
       is_visible="true"
       lpeversion="1"
       nodesatellites_param="F,0,0,1,0,2.1166667,0,1 @ F,0,0,1,0,2.1166667,0,1 @ F,0,0,1,0,2.1166667,0,1 @ F,0,0,1,0,2.1166667,0,1"
       unit="px"
       method="auto"
       mode="F"
       radius="8"
       chamfer_steps="1"
       flexible="false"
       use_knot_distance="true"
       apply_no_radius="true"
       apply_with_radius="true"
       only_selected="false"
       hide_knots="false" /><inkscape:path-effect
       effect="fillet_chamfer"
       id="path-effect842"
       is_visible="true"
       lpeversion="1"
       nodesatellites_param="F,0,0,1,0,2.1166667,0,1 @ F,0,0,1,0,2.1166667,0,1 @ F,0,0,1,0,0,0,1 @ F,0,0,1,0,0,0,1"
       unit="px"
       method="arc"
       mode="F"
       radius="8"
       chamfer_steps="1"
       flexible="false"
       use_knot_distance="true"
       apply_no_radius="true"
       apply_with_radius="true"
       only_selected="false"
       hide_knots="false" /></defs><g
     inkscape:label="Layer 1"
     inkscape:groupmode="layer"
     id="layer1"><path
       style="fill:#2c78bb;fill-opacity:0.597015;stroke:#000000;stroke-width:0"
       id="rect234"
       width="338.66666"
       height="10.583333"
       x="0"
       y="0"
       inkscape:path-effect="#path-effect842"
       d="M 2.1166667,0 H 336.54999 a 2.1166667,2.1166667 45 0 1 2.11667,2.1166667 V 10.583333 H 0 V 2.1166667 A 2.1166667,2.1166667 135 0 1 2.1166667,0 Z"
       sodipodi:type="rect" /><g
       id="g1689"><circle
         style="fill:#2c78bb;fill-opacity:1;stroke:#000000;stroke-width:0"
         id="path1004"
         cx="6.9340973"
         cy="5.2916665"
         r="2.2752507" /><circle
         style="fill:#2c78bb;fill-opacity:1;stroke:#000000;stroke-width:0"
         id="circle1682"
         cx="13.195131"
         cy="5.2916665"
         r="2.2752507" /><circle
         style="fill:#2c78bb;fill-opacity:1;stroke:#000000;stroke-width:0"
         id="circle1684"
         cx="19.456165"
         cy="5.2916665"
         r="2.2752507" /></g><path
       style="fill:#2c78bb;fill-opacity:0;stroke:#2c78bb;stroke-width:0.6;stroke-dasharray:none;stroke-opacity:1"
       id="rect1691"
       width="125.55268"
       height="7.5669179"
       x="106.55699"
       y="1.5082077"
       inkscape:path-effect="#path-effect2993"
       d="m 108.67366,1.5082077 121.31935,0 a 2.1166667,2.1166667 45 0 1 2.11666,2.1166667 v 3.3335845 a 2.1166667,2.1166667 135 0 1 -2.11666,2.1166667 H 108.67366 A 2.1166667,2.1166667 45 0 1 106.55699,6.9584589 V 3.6248744 a 2.1166667,2.1166667 135 0 1 2.11667,-2.1166667 z"
       sodipodi:type="rect" /><path
       d="m 224.55657,4.2203579 h 0.56132 c 0.19753,0 0.35711,0.15958 0.35711,0.357103 0,0.1975225 -0.15958,0.357103 -0.35711,0.357103 h -1.4284 c -0.19753,0 -0.35711,-0.1595805 -0.35711,-0.357103 V 3.1490483 c 0,-0.1975225 0.15958,-0.357103 0.35711,-0.357103 0.19751,0 0.3571,0.1595805 0.3571,0.357103 v 0.571365 l 0.1964,-0.1964065 c 0.97645,-0.9764535 2.55887,-0.9764535 3.53532,0 0.97646,0.9764536 0.97646,2.5588662 0,3.5353197 -0.97645,0.9764535 -2.55887,0.9764535 -3.53532,0 -0.13949,-0.139493 -0.13949,-0.3660305 0,-0.5055235 0.1395,-0.1394935 0.36603,-0.1394935 0.50553,0 0.69747,0.697467 1.82792,0.697467 2.52538,0 0.69747,-0.697467 0.69747,-1.8279216 0,-2.5253881 -0.69746,-0.6974671 -1.82791,-0.6974671 -2.52538,0 z"
       id="path2995"
       style="fill:#2c78bb;fill-opacity:1;stroke-width:0.0111594" /><path
       d="m 332.1954,2.7916667 c -0.34473,0 -0.625,0.280273 -0.625,0.625 v 2.1875 c 0,0.344726 0.28027,0.625 0.625,0.625 h 2.1875 c 0.34473,0 0.625,-0.280274 0.625,-0.625 v -2.1875 c 0,-0.344727 -0.28027,-0.625 -0.625,-0.625 z m -1.5625,1.5625 c -0.34473,0 -0.625,0.280273 -0.625,0.625 v 2.1875 c 0,0.344726 0.28027,0.625 0.625,0.625 h 2.1875 c 0.34473,0 0.625,-0.280274 0.625,-0.625 v -0.625 h -0.625 v 0.625 h -2.1875 v -2.1875 h 0.625 v -0.625 z"
       id="path3004"
       style="fill:#2c78bb;fill-opacity:1;stroke-width:0.01;stroke-dasharray:none" /><path
       d="m 323.75637,3.1762817 c 0,-0.21274 -0.17188,-0.384615 -0.38462,-0.384615 -0.21274,0 -0.38462,0.171875 -0.38462,0.384615 v 1.73077 h -1.73076 c -0.21275,0 -0.38462,0.171875 -0.38462,0.384615 0,0.21274 0.17187,0.384615 0.38462,0.384615 h 1.73076 v 1.730769 c 0,0.212741 0.17188,0.384616 0.38462,0.384616 0.21274,0 0.38462,-0.171875 0.38462,-0.384616 v -1.730769 h 1.73076 c 0.21275,0 0.38462,-0.171875 0.38462,-0.384615 0,-0.21274 -0.17187,-0.384615 -0.38462,-0.384615 h -1.73076 z"
       id="path4102"
       style="fill:#2c78bb;fill-opacity:1;stroke-width:0.0120192" /><path
       d="m 112.31283,4.1979165 v 0.46875 h 1.5625 v -0.46875 c 0,-0.431641 -0.34961,-0.78125 -0.78125,-0.78125 -0.43164,0 -0.78125,0.349609 -0.78125,0.78125 z m -0.625,0.46875 v -0.46875 c 0,-0.776367 0.62988,-1.40625 1.40625,-1.40625 0.77637,0 1.40625,0.629883 1.40625,1.40625 v 0.46875 h 0.15625 c 0.34473,0 0.625,0.280273 0.625,0.625 v 1.875 c 0,0.344726 -0.28027,0.625 -0.625,0.625 h -3.125 c -0.34473,0 -0.625,-0.280274 -0.625,-0.625 v -1.875 c 0,-0.344727 0.28027,-0.625 0.625,-0.625 z"
       id="path4837"
       style="fill:#2c78bb;fill-opacity:1;stroke-width:0.00976561" /></g></svg>
