<?xml version="1.0" encoding="UTF-8" standalone="no"?>
<!-- Created with Inkscape (http://www.inkscape.org/) -->

<svg
   width="274.74329mm"
   height="130.31999mm"
   viewBox="0 0 274.74328 130.31999"
   version="1.1"
   id="svg73071"
   inkscape:export-filename="Blob_superior.png"
   inkscape:export-xdpi="96"
   inkscape:export-ydpi="96"
   sodipodi:docname="Blob_superior.svg"
   xmlns:inkscape="http://www.inkscape.org/namespaces/inkscape"
   xmlns:sodipodi="http://sodipodi.sourceforge.net/DTD/sodipodi-0.dtd"
   xmlns="http://www.w3.org/2000/svg"
   xmlns:svg="http://www.w3.org/2000/svg">
  <sodipodi:namedview
     id="namedview73073"
     pagecolor="#ffffff"
     bordercolor="#000000"
     borderopacity="0.25"
     inkscape:showpageshadow="2"
     inkscape:pageopacity="0.0"
     inkscape:pagecheckerboard="0"
     inkscape:deskcolor="#d1d1d1"
     inkscape:document-units="mm"
     showgrid="false" />
  <defs
     id="defs73068" />
  <g
     inkscape:label="Layer 1"
     inkscape:groupmode="layer"
     id="layer1"
     transform="translate(44.653771,-11.838021)">
    <g
       id="g64730"
       transform="matrix(0.35277777,0,0,-0.35277777,66.263691,94.051756)"
       style="fill:#f7b801;fill-opacity:1">
      <path
         d="m 0,0 c 89.39,-60.326 79.579,-118.738 125.842,-134.159 34.281,-11.427 74.596,25.042 124.418,29.787 49.821,4.745 94.014,-51.546 181.796,30.303 V 0 Z"
         style="fill:#f7b801;fill-opacity:1;fill-rule:nonzero;stroke:none"
         id="path64732" />
    </g>
    <g
       id="g64734"
       transform="matrix(0.35277777,0,0,-0.35277777,71.390681,107.17241)"
       style="fill:#f7b801;fill-opacity:1">
      <path
         d="m 0,0 c 15.6,-14.808 12.496,-24.125 5.059,-27.066 -11.339,-4.485 -36.326,4.834 -26.627,12.809 3.71,3.05 9.188,2.856 7.005,9.074 C -19.14,6.311 -6.532,6.201 0,0"
         style="fill:#f7b801;fill-opacity:1;fill-rule:nonzero;stroke:none"
         id="path64736" />
    </g>
    <g
       id="g64738"
       transform="matrix(0.35277777,0,0,-0.35277777,143.41488,61.856304)"
       style="fill:#7678ed;fill-opacity:1">
      <path
         d="m 0,0 c 46.776,-138.96 -90.054,-205.964 -181.771,-120.805 -100.213,93.047 -135.144,31.013 -196.449,45.161 -44.031,10.161 -79.582,71.901 -154.888,85.337 C -392.221,57.021 -116.889,111.459 0,0"
         style="fill:#7678ed;fill-opacity:1;fill-rule:nonzero;stroke:none"
         id="path64740" />
    </g>
    <g
       id="g64742"
       transform="matrix(0.35277777,0,0,-0.35277777,19.320823,53.590827)"
       style="fill:#d52941;fill-opacity:1">
      <path
         d="m 0,0 c 53.634,16.326 115.739,0.578 155.113,-39.332 31.754,-32.207 48.056,-76.673 77.849,-110.445 44.25,-50.198 118.426,-71.722 182.673,-53.008 29.242,8.52 55.812,24.398 84.668,33.986 28.277,9.356 62.193,12.362 87.935,-5.013 C 618.354,-90.498 570.981,-1.103 499.594,44.084 426.998,92.652 361.569,115.326 276.119,117.697 181.36,123.143 44.745,95.695 0,0"
         style="fill:#d52941;fill-opacity:1;fill-rule:nonzero;stroke:none"
         id="path64744" />
    </g>
    <g
       id="g64758"
       transform="matrix(0.35277777,0,0,-0.35277777,-30.829253,82.112451)"
       style="fill:#7678ed;fill-opacity:1">
      <path
         d="M 0,0 C 8.274,-2.645 21.269,-8.934 20.378,-19.189 11.434,-42.232 -32.978,-0.844 0,0"
         style="fill:#7678ed;fill-opacity:1;fill-rule:nonzero;stroke:none"
         id="path64760" />
    </g>
    <g
       id="g64762"
       transform="matrix(0.35277777,0,0,-0.35277777,-14.807851,84.375873)"
       style="fill:#7678ed;fill-opacity:1">
      <path
         d="M 0,0 C 2.28,1.352 4.175,-0.384 5.423,-2.194 9.365,-7.665 -9.203,-5.192 0,0"
         style="fill:#7678ed;fill-opacity:1;fill-rule:nonzero;stroke:none"
         id="path64764" />
    </g>
  </g>
</svg>
